<?xml version="1.0" standalone="no"?>
<!DOCTYPE svg PUBLIC "-//W3C//DTD SVG 20010904//EN"
 "http://www.w3.org/TR/2001/REC-SVG-20010904/DTD/svg10.dtd">
<svg version="1.0" xmlns="http://www.w3.org/2000/svg"
 width="1536.000000pt" height="2048.000000pt" viewBox="0 0 1536.000000 2048.000000"
 preserveAspectRatio="xMidYMid meet">

<g transform="translate(0.000000,2048.000000) scale(0.100000,-0.100000)"
fill="#000000" stroke="none">
<path d="M12178 20423 c-3 -94 3 -135 24 -185 16 -38 18 -50 8 -70 -27 -52
-64 -90 -110 -113 -27 -13 -71 -48 -99 -76 -49 -50 -53 -51 -95 -47 -27 3 -64
18 -93 38 -44 29 -53 31 -108 27 -49 -4 -89 -19 -218 -81 l-157 -77 -43 15
c-23 8 -60 17 -82 21 -127 19 -156 29 -194 61 -45 39 -52 65 -40 148 7 50 5
67 -9 96 -19 40 -77 76 -137 86 -22 4 -55 15 -73 25 -42 22 -69 14 -100 -32
-33 -49 -100 -65 -181 -44 -81 21 -83 20 -156 -26 -39 -24 -90 -47 -127 -55
-35 -8 -73 -16 -86 -19 -12 -3 -62 -45 -111 -94 -87 -87 -131 -116 -139 -92
-2 6 -14 24 -27 39 -12 15 -32 62 -44 105 -12 44 -28 92 -37 109 -21 41 -92
116 -125 134 -73 38 -150 1 -228 -109 -8 -11 -17 -47 -20 -81 -6 -65 -4 -63
-96 -103 -25 -12 -64 -47 -108 -98 -38 -44 -81 -85 -95 -92 -15 -7 -54 -12
-87 -13 -32 0 -79 -7 -102 -16 -42 -16 -43 -16 -77 10 -51 38 -94 83 -164 170
-68 83 -70 88 -47 178 5 19 2 36 -9 53 -27 41 -57 47 -123 27 -47 -15 -88 -17
-219 -15 l-161 2 -55 -47 c-49 -41 -85 -87 -151 -194 -10 -15 -29 -35 -43 -44
-42 -28 -185 -74 -230 -74 -25 0 -69 -12 -108 -30 -68 -30 -78 -43 -102 -125
-7 -21 -26 -39 -70 -65 -34 -19 -67 -41 -75 -48 -25 -22 -86 -60 -110 -67 -13
-4 -64 -32 -112 -62 -49 -30 -100 -58 -113 -63 -46 -18 -129 -87 -184 -154
-50 -59 -58 -65 -85 -61 -16 3 -65 11 -109 17 l-79 12 -21 -27 c-14 -17 -56
-41 -110 -63 -88 -36 -89 -36 -163 -25 -40 6 -96 11 -123 11 -37 0 -52 4 -59
18 -5 9 -38 32 -73 51 -34 18 -86 56 -115 82 -28 27 -59 49 -67 49 -9 0 -30
16 -48 35 -39 44 -74 53 -147 41 -52 -8 -60 -7 -87 13 -33 24 -201 57 -241 46
-13 -3 -45 -19 -71 -34 -26 -16 -60 -32 -77 -36 -16 -4 -37 -9 -46 -11 -9 -3
-46 -41 -84 -85 -57 -68 -77 -85 -138 -114 -56 -26 -80 -44 -107 -81 -19 -27
-61 -75 -94 -107 l-59 -58 7 -64 c3 -35 12 -78 20 -97 45 -110 16 -255 -62
-314 -51 -40 -148 -73 -234 -81 -84 -7 -104 4 -236 136 -106 105 -184 162
-250 181 -59 18 -121 3 -303 -77 -140 -60 -150 -63 -171 -49 -30 22 -80 20
-109 -3 -14 -10 -41 -53 -62 -95 -38 -75 -56 -95 -115 -128 -19 -10 -41 -37
-58 -69 -31 -62 -58 -102 -96 -144 -41 -46 -51 -81 -33 -118 18 -36 19 -61 4
-89 -9 -17 -17 -19 -51 -14 -63 10 -68 0 -62 -112 3 -54 13 -118 21 -143 19
-55 13 -98 -23 -165 -28 -53 -26 -87 6 -104 15 -8 20 -21 20 -56 0 -43 -2 -46
-38 -60 -20 -9 -50 -28 -67 -44 -26 -24 -40 -29 -103 -32 -69 -3 -74 -6 -112
-43 -45 -45 -60 -99 -60 -215 0 -59 -3 -69 -26 -91 -68 -63 -72 -124 -12 -200
48 -59 51 -87 28 -200 -10 -48 -10 -65 6 -119 11 -35 31 -74 45 -89 19 -19 32
-51 48 -115 19 -80 19 -91 6 -106 -50 -55 -57 -181 -12 -228 13 -15 28 -38 32
-52 9 -29 43 -70 60 -70 6 0 21 -13 32 -29 12 -15 42 -38 67 -49 50 -24 66
-46 66 -90 0 -16 5 -44 11 -62 11 -31 10 -34 -29 -69 -30 -27 -51 -60 -82
-131 -55 -131 -59 -157 -26 -219 29 -56 32 -87 14 -126 -10 -22 -16 -25 -42
-19 -17 4 -78 8 -136 8 -92 1 -109 4 -135 23 -16 12 -52 27 -79 33 -27 6 -74
28 -105 50 l-56 39 -138 0 c-119 1 -143 4 -178 22 -57 29 -95 22 -131 -23 -17
-21 -30 -48 -30 -65 -1 -55 -7 -71 -33 -77 -25 -6 -141 -104 -158 -134 -5 -7
-13 -46 -19 -85 -5 -39 -16 -83 -24 -99 -23 -44 -17 -65 35 -121 l48 -54 5
-119 c3 -76 11 -133 21 -157 19 -45 97 -137 115 -137 8 0 27 -13 43 -29 l29
-30 -6 -98 c-5 -82 -3 -113 16 -188 12 -49 25 -95 28 -102 15 -24 113 -83 151
-89 33 -5 43 -12 57 -43 9 -20 30 -51 47 -68 26 -28 31 -43 35 -95 3 -35 11
-73 20 -85 13 -20 13 -26 0 -45 -8 -13 -20 -39 -27 -58 -7 -22 -25 -44 -48
-59 -33 -21 -39 -22 -75 -10 -54 18 -86 4 -118 -51 -20 -36 -39 -52 -94 -80
-66 -33 -70 -37 -86 -88 -10 -29 -26 -63 -37 -75 -34 -37 -35 -45 -12 -106 16
-46 30 -66 59 -85 20 -13 48 -39 61 -56 56 -74 65 -80 119 -80 48 0 55 -3 96
-45 49 -51 78 -65 134 -65 37 0 40 -2 46 -34 3 -20 0 -50 -7 -70 -12 -32 -11
-40 9 -75 12 -21 22 -53 22 -70 0 -40 44 -145 80 -191 15 -19 30 -48 34 -63 7
-29 44 -91 82 -139 20 -25 22 -36 18 -129 -3 -80 -1 -107 11 -125 21 -33 19
-50 -16 -124 -26 -54 -30 -73 -26 -115 5 -46 3 -53 -28 -85 -41 -43 -95 -145
-95 -180 0 -14 19 -61 41 -105 38 -72 41 -86 40 -147 -2 -45 3 -77 14 -98 9
-17 15 -43 13 -58 -3 -24 -8 -28 -53 -34 -119 -15 -156 -42 -141 -101 8 -34
69 -103 108 -123 26 -14 28 -19 28 -76 0 -34 -10 -102 -22 -151 -23 -94 -21
-127 15 -221 14 -37 13 -42 -15 -105 -20 -44 -40 -73 -61 -86 -21 -13 -38 -37
-52 -73 -16 -43 -27 -57 -53 -68 -25 -10 -39 -26 -56 -66 -13 -29 -36 -64 -51
-78 -34 -31 -56 -80 -48 -108 10 -38 -5 -67 -66 -130 -70 -73 -131 -186 -131
-243 0 -31 6 -43 30 -60 16 -12 31 -28 34 -34 2 -7 -9 -40 -26 -74 -16 -34
-34 -89 -38 -124 -13 -89 -19 -107 -51 -149 -49 -62 -54 -81 -39 -142 10 -43
10 -67 1 -112 -20 -102 -17 -118 38 -173 55 -55 65 -86 77 -237 5 -64 3 -93
-11 -134 -21 -63 -16 -94 29 -163 29 -46 112 -117 137 -117 13 0 133 -164 145
-199 8 -23 8 -45 3 -67 -5 -18 -9 -72 -8 -121 1 -48 -2 -118 -6 -154 -6 -53
-4 -73 9 -99 21 -43 20 -66 -3 -82 -10 -7 -40 -40 -66 -72 -56 -68 -67 -109
-58 -212 6 -79 -1 -100 -52 -149 -41 -38 -65 -115 -65 -204 0 -83 13 -109 74
-146 27 -16 83 -64 126 -105 42 -41 90 -85 106 -97 23 -17 36 -44 68 -140 37
-115 38 -120 22 -151 -20 -39 -20 -76 -1 -172 9 -41 20 -106 26 -145 5 -38 18
-81 28 -95 30 -43 32 -68 5 -107 -26 -39 -28 -60 -14 -208 8 -88 7 -91 -20
-136 -44 -73 -47 -101 -11 -142 20 -22 47 -39 75 -47 70 -19 83 -37 90 -127 4
-43 3 -99 -2 -124 -8 -40 -5 -55 16 -105 13 -33 34 -68 47 -79 16 -16 24 -37
29 -88 9 -91 19 -112 58 -127 54 -21 68 -39 69 -84 0 -68 29 -128 69 -148 42
-20 187 -33 265 -23 55 6 62 11 127 76 l68 69 81 0 c44 0 89 -5 100 -10 28
-15 25 -75 -5 -114 -13 -17 -40 -67 -60 -110 -45 -97 -48 -155 -11 -191 13
-14 32 -25 41 -25 10 0 41 -8 71 -17 47 -15 54 -21 64 -52 6 -20 13 -65 16
-101 3 -36 12 -78 20 -93 11 -22 12 -39 4 -80 -12 -63 -23 -161 -25 -236 -2
-42 -12 -76 -40 -133 -34 -67 -37 -82 -32 -125 3 -26 7 -95 9 -153 2 -91 5
-109 25 -137 13 -18 30 -56 38 -85 21 -69 25 -73 95 -100 45 -17 75 -39 125
-90 72 -75 93 -123 101 -234 l5 -60 -91 -92 c-49 -50 -97 -105 -107 -123 -26
-50 -13 -117 38 -203 23 -39 45 -73 49 -76 16 -13 29 -53 29 -93 0 -24 5 -58
10 -74 8 -23 7 -41 -4 -74 -26 -72 -22 -81 49 -128 l66 -43 109 52 109 51 44
-25 c24 -14 50 -26 58 -26 8 0 36 17 63 36 53 39 52 35 30 153 l-7 34 82 -6
c80 -6 82 -6 104 20 68 82 80 86 139 50 28 -18 49 -47 92 -129 31 -59 56 -118
56 -132 0 -19 28 -55 102 -135 l102 -109 168 -56 c92 -31 185 -56 205 -56 21
0 58 10 83 21 25 12 88 35 140 53 153 51 192 81 206 153 11 61 92 91 172 65
85 -28 217 11 249 72 10 19 15 57 16 105 0 81 14 123 47 141 11 6 34 35 51 64
25 45 38 58 82 76 28 13 96 30 149 38 90 15 100 15 133 -1 22 -10 40 -29 49
-51 11 -26 25 -38 60 -51 81 -31 113 -26 186 31 36 28 79 58 96 67 48 24 55
39 75 154 27 155 37 177 92 214 42 28 52 30 97 24 67 -9 136 14 182 63 20 20
61 76 91 124 39 60 72 98 110 127 30 22 72 61 93 88 22 26 76 84 122 129 47
47 82 91 82 102 0 40 22 44 122 26 92 -18 94 -18 158 -79 53 -50 75 -64 118
-75 73 -17 153 -17 239 0 69 13 74 13 120 -8 40 -19 70 -23 188 -27 233 -8
273 -10 278 -15 10 -12 57 -124 57 -136 0 -7 7 -32 16 -54 19 -47 60 -75 135
-91 46 -10 61 -20 104 -65 57 -62 85 -73 197 -79 49 -2 85 -9 102 -20 14 -9
50 -24 80 -33 85 -26 262 -179 304 -264 22 -43 63 -69 153 -98 41 -12 106 -38
146 -56 59 -27 75 -39 86 -67 8 -18 26 -47 40 -63 90 -101 135 -148 159 -165
33 -24 150 -42 278 -44 94 -1 96 -1 245 -67 145 -63 151 -67 171 -109 31 -62
39 -69 87 -69 42 0 64 11 129 61 20 16 52 29 81 33 67 8 94 25 173 109 73 76
84 100 84 184 0 42 50 99 99 114 20 6 68 36 106 66 58 47 71 54 87 44 10 -6
29 -11 43 -11 40 0 135 47 181 90 24 22 54 42 69 46 51 13 85 -44 85 -143 0
-37 4 -74 8 -81 9 -13 140 -102 152 -102 4 0 32 -18 64 -40 31 -22 74 -49 94
-59 77 -40 154 -118 214 -217 106 -175 245 -354 275 -354 21 0 16 9 -49 85
-73 85 -148 189 -209 294 -47 79 -116 153 -181 192 -21 13 -74 47 -117 74 -43
28 -110 70 -149 94 -40 24 -72 51 -72 60 -4 140 -5 148 -33 184 -15 20 -39 40
-52 43 -30 7 -85 -19 -119 -57 -14 -16 -56 -42 -92 -59 -72 -32 -88 -30 -118
15 -9 14 -48 48 -87 77 l-71 51 6 58 c6 50 3 68 -24 136 -32 84 -57 118 -97
134 -13 5 -71 9 -129 9 -85 0 -112 4 -144 20 -50 26 -90 25 -124 -1 -36 -28
-44 -18 -16 20 22 33 57 57 76 53 6 -1 19 7 30 19 19 21 19 21 -15 50 -36 30
-38 49 -3 30 29 -16 40 -14 52 10 9 15 8 24 0 34 -10 12 -7 21 14 46 14 17 26
39 26 48 0 26 -75 184 -95 201 -10 8 -39 26 -64 40 -41 23 -46 29 -44 57 2 25
-2 33 -19 39 -15 4 -25 1 -34 -11 -16 -21 -54 -11 -54 14 0 27 -23 42 -56 35
-32 -6 -65 21 -174 142 -62 68 -74 73 -264 114 -125 27 -207 64 -276 126 -79
71 -155 126 -230 165 -63 33 -68 34 -182 34 -102 0 -120 3 -145 21 -37 27 -71
78 -83 125 -14 52 -51 79 -109 79 l-46 1 30 16 c42 22 65 44 65 60 0 8 -35 59
-77 114 -43 55 -81 106 -85 112 -4 7 -22 39 -42 72 -54 94 -60 130 -41 246 10
60 15 122 11 157 -25 247 -21 274 49 360 19 24 37 56 41 70 3 15 11 41 18 57
7 17 19 58 25 92 11 58 10 67 -13 125 -13 35 -26 74 -29 88 -3 14 -12 50 -21
81 -8 31 -13 68 -11 81 9 50 13 224 5 271 -14 93 -102 144 -226 131 -34 -4
-78 -4 -97 0 -29 5 -36 12 -39 34 -3 29 -38 43 -61 24 -22 -18 -75 12 -79 45
-2 22 -8 28 -28 28 -20 0 -26 -7 -35 -39 -13 -46 -32 -58 -37 -24 -3 22 -7 23
-123 28 -135 6 -165 18 -220 89 -45 58 -76 74 -132 65 l-47 -7 27 32 c15 18
27 41 27 52 0 24 -35 60 -53 53 -8 -3 -20 3 -28 12 -11 14 -11 18 6 30 16 12
21 12 36 -2 21 -19 49 -12 49 11 0 8 -14 34 -30 57 -17 22 -30 47 -30 54 0 7
-11 30 -25 50 -20 29 -25 49 -25 96 0 38 -4 60 -12 63 -44 14 -53 9 -81 -42
-19 -36 -35 -53 -48 -53 -25 0 -24 14 4 33 18 12 20 18 11 34 -7 10 -24 19
-40 19 -16 1 -33 2 -39 3 -16 2 78 61 98 61 21 0 45 46 31 60 -5 5 -30 15 -56
21 -43 12 -49 11 -61 -4 -21 -29 -50 -11 -42 25 6 28 -1 38 -97 136 -126 129
-175 196 -180 242 -2 28 -7 35 -25 35 -29 1 -53 34 -46 62 4 17 -3 31 -26 52
-31 29 -32 31 -17 60 15 28 15 31 -5 45 -12 8 -27 12 -34 9 -18 -6 -169 101
-199 141 -13 17 -29 47 -35 67 -8 26 -21 41 -42 49 -26 11 -80 68 -103 107
-17 30 23 10 45 -22 30 -44 48 -51 71 -28 17 18 17 20 -12 63 -16 24 -32 56
-35 70 -8 36 -116 147 -192 197 -35 23 -81 44 -105 48 -51 8 -270 114 -313
151 -32 28 -23 25 38 -13 21 -14 105 -46 186 -73 82 -26 181 -62 221 -79 39
-17 80 -31 91 -31 27 0 69 -21 69 -35 0 -7 29 -42 64 -79 34 -36 71 -85 80
-109 34 -84 63 -132 98 -159 36 -30 154 -79 198 -83 44 -3 108 -43 112 -67 4
-32 37 -35 59 -7 14 19 20 21 32 11 12 -10 13 -19 4 -42 -15 -39 -1 -54 75
-79 42 -14 73 -19 103 -14 50 6 86 -12 144 -71 25 -27 53 -42 116 -61 103 -31
150 -33 165 -4 9 16 7 27 -8 52 -11 18 -36 58 -55 91 -28 45 -34 63 -27 77 13
23 3 47 -23 55 -34 10 -38 26 -15 51 17 19 19 25 8 38 -7 8 -18 15 -25 15 -7
0 -22 28 -34 63 -47 133 -54 149 -76 175 -12 15 -36 50 -53 77 -17 28 -47 63
-67 78 -29 23 -34 31 -24 43 20 24 -8 47 -49 40 -25 -4 -45 1 -73 17 -52 30
-50 54 2 26 15 -7 24 -7 35 2 15 12 19 49 6 49 -5 0 -29 13 -53 30 -52 35 -74
37 -91 10 -7 -11 -16 -20 -19 -20 -13 0 -67 115 -99 210 -36 109 -57 143 -133
221 -56 58 -74 105 -56 141 13 25 0 48 -26 48 -27 0 -48 26 -95 119 -18 37
-30 74 -27 87 6 34 -8 49 -49 49 -50 0 -52 16 -4 37 27 11 40 23 40 36 0 26
-24 45 -48 38 -14 -5 -25 4 -46 37 -34 53 -75 80 -109 71 -40 -10 -40 13 1 33
34 18 37 24 42 69 3 27 9 55 14 62 5 8 -5 27 -28 52 -20 22 -36 45 -36 50 0
18 27 10 43 -13 9 -12 33 -41 54 -65 29 -32 43 -41 57 -36 20 8 18 35 -4 90
-20 47 10 169 55 226 19 24 35 48 35 55 0 6 5 24 12 40 12 28 15 38 17 60 0 7
22 38 48 70 45 55 47 60 53 141 5 55 12 87 21 93 33 21 81 27 149 18 102 -14
109 -9 107 91 -1 70 -4 81 -21 86 -12 4 -24 0 -31 -10 -16 -22 -28 -20 -22 3
6 22 -9 51 -27 51 -8 0 -20 -10 -29 -23 -14 -21 -17 -21 -44 -7 -23 13 -29 23
-31 58 -3 36 -8 46 -35 62 -43 26 -66 25 -77 -4 -19 -51 -85 -58 -114 -13 -23
37 -30 101 -12 117 35 28 10 75 -31 59 -24 -9 -24 -8 -18 35 12 78 -19 118
-73 98 -15 -6 -40 -13 -57 -16 -24 -5 -19 0 20 20 95 50 104 71 55 122 -41 43
-41 89 1 136 19 22 38 35 51 33 29 -3 46 27 30 53 -13 21 -12 21 19 4 31 -15
33 -15 46 2 17 23 16 34 -3 55 -15 17 -15 20 9 48 24 29 25 33 23 189 -1 117
-5 164 -15 176 -12 14 -10 16 12 16 21 0 35 14 74 73 60 91 69 111 78 178 9
65 56 214 89 278 12 25 48 84 79 130 52 76 57 88 57 139 0 42 -6 66 -27 101
-30 51 -32 96 -20 366 6 131 9 145 42 224 20 46 51 105 69 130 19 25 40 65 47
89 8 29 18 42 30 42 25 0 44 37 29 55 -7 8 -20 17 -31 20 -27 9 -27 55 0 48
24 -6 39 20 47 80 6 41 4 45 -30 70 -20 16 -36 34 -36 41 0 30 -28 40 -73 26
-23 -8 -49 -20 -59 -28 -14 -12 -23 -10 -65 13 -71 40 -73 43 -51 93 27 60 56
58 99 -9 l32 -51 56 7 c31 4 61 11 67 16 14 11 25 59 27 107 1 38 3 39 26 11
12 -16 23 -20 39 -15 27 9 27 16 2 67 -20 38 -20 59 0 59 5 0 12 -11 16 -25 9
-35 27 -47 55 -36 85 33 109 46 115 63 8 25 7 163 -1 242 -5 43 -3 75 6 100
10 28 11 43 2 66 -16 42 0 39 62 -10 28 -22 55 -40 61 -40 6 0 42 24 81 54 90
69 104 76 152 76 38 0 41 2 52 41 10 33 10 49 0 82 -8 23 -16 68 -18 100 -4
52 -2 62 27 107 18 28 36 50 41 50 5 0 18 19 30 42 17 33 20 54 17 104 -3 53
-10 71 -46 124 -47 71 -49 80 -25 121 14 24 15 33 5 49 -22 35 -12 36 18 1 18
-22 34 -32 44 -28 19 7 21 48 4 65 -9 9 -7 13 7 18 11 4 20 3 22 -3 2 -5 10
-19 18 -29 12 -16 17 -17 34 -6 12 6 41 12 66 12 46 0 128 20 174 43 14 7 45
37 69 66 41 51 44 58 38 98 -3 27 -1 51 6 63 10 16 10 23 -3 35 -12 13 -20 13
-48 2 -31 -11 -34 -10 -53 16 -22 31 -43 35 -56 11 -15 -28 -79 -9 -119 34
-32 35 -33 38 -27 97 7 69 -11 133 -79 280 -36 77 -42 100 -43 160 -1 105 -12
142 -47 168 -16 12 -48 41 -71 63 -55 56 -75 64 -190 86 -55 10 -117 27 -138
38 -21 11 -57 20 -80 20 -35 0 -39 2 -28 15 7 8 17 15 22 15 5 0 37 13 71 30
l62 29 125 -8 c70 -5 132 -4 142 1 22 11 32 65 19 100 -10 27 -54 64 -107 91
-17 9 -46 37 -65 63 -19 25 -50 65 -70 88 -68 77 -83 135 -25 91 12 -9 42 -15
74 -15 l53 0 22 50 c19 43 26 50 47 48 21 -3 28 -15 57 -98 18 -52 33 -106 33
-120 0 -32 32 -84 63 -105 13 -8 52 -20 86 -26 36 -7 74 -21 89 -33 57 -48
267 -154 317 -161 84 -13 134 -47 162 -115 25 -60 83 -139 111 -154 15 -7 55
-19 90 -25 95 -18 138 -36 200 -85 59 -46 168 -96 208 -96 28 0 54 44 54 92 0
20 -17 62 -41 106 -36 65 -52 82 -139 147 -72 53 -112 76 -147 83 -40 9 -55
19 -88 59 -22 26 -69 76 -105 109 l-64 62 -7 82 c-9 98 -54 202 -125 281 -42
47 -84 117 -84 139 0 15 32 12 54 -5 10 -8 55 -26 100 -41 100 -33 145 -64
215 -144 60 -69 98 -90 165 -90 53 0 123 -22 271 -84 104 -44 115 -46 192 -44
79 2 84 1 130 -32 73 -52 173 -133 173 -140 0 -4 29 -37 65 -75 36 -38 65 -73
65 -77 0 -4 13 -14 30 -23 63 -33 150 -7 150 45 0 68 -31 176 -66 229 -32 47
-37 65 -44 140 -9 102 -29 168 -66 224 -32 48 -35 101 -9 141 33 50 70 83 108
95 40 14 47 33 23 66 -12 17 -18 18 -54 7 -29 -9 -48 -9 -69 -1 -41 15 -106 3
-133 -26 -18 -19 -27 -22 -41 -14 -11 5 -19 19 -19 30 0 30 -28 35 -54 10 -17
-16 -26 -19 -31 -11 -4 7 -3 16 3 22 6 6 7 21 1 42 -7 24 -6 34 6 42 29 21 10
64 -28 64 -31 0 -13 24 24 32 26 5 39 2 55 -13 48 -45 71 -6 38 65 -20 42 -24
67 -24 142 0 90 0 92 26 98 20 5 25 12 22 34 -3 24 -6 27 -39 24 -32 -2 -38 1
-49 27 -10 24 -9 33 4 54 15 22 15 25 0 38 -10 8 -24 14 -33 15 -9 0 -43 13
-76 29 -52 26 -70 29 -135 27 -100 -2 -128 14 -175 107 -29 59 -35 81 -35 134
0 58 -3 69 -35 111 -20 25 -32 46 -27 46 5 0 34 -11 65 -25 50 -23 87 -25 87
-4 0 5 31 39 68 76 37 38 77 80 88 95 23 30 90 78 110 78 7 0 30 -12 51 -26
34 -23 45 -25 95 -20 49 5 67 1 130 -26 40 -17 94 -33 120 -35 41 -4 50 -2 72
21 44 48 41 113 -11 241 -11 28 -33 83 -48 122 -17 47 -42 90 -71 122 -51 57
-64 86 -64 147 0 35 7 53 34 89 58 76 59 126 4 159 l-33 20 42 6 c29 4 49 15
63 32 11 15 42 34 68 44 72 27 182 93 233 141 80 75 146 89 241 53 51 -19 133
-92 174 -155 9 -13 34 -32 55 -42 25 -10 55 -37 80 -70 40 -54 100 -93 141
-93 13 0 70 14 128 31 68 19 139 32 202 36 l98 6 59 53 c61 56 80 98 56 131
-15 20 -113 35 -175 27 -38 -5 -57 -1 -112 25 -87 42 -100 57 -68 82 14 10 30
19 37 19 14 0 67 65 84 103 10 22 9 37 -6 88 -11 35 -28 68 -41 78 -22 17 -28
17 -98 3 -60 -13 -85 -14 -123 -5 -70 16 -128 39 -175 71 -33 21 -53 27 -97
27 l-56 0 -1 44 c-1 62 -21 75 -99 65 -91 -11 -197 -10 -222 4 -20 11 -21 14
-6 42 12 25 41 43 151 96 170 82 230 92 290 50 43 -29 92 -46 135 -46 21 0 41
13 76 49 26 27 73 63 104 80 57 33 94 73 123 133 15 33 15 36 -7 79 -19 38
-22 58 -21 142 1 79 -2 97 -13 97 -11 0 -15 -15 -17 -57z m-2548 -199 c51 -47
79 -104 101 -202 12 -54 74 -150 106 -165 35 -16 104 25 195 115 78 78 82 80
159 99 77 18 91 24 172 73 38 23 40 23 99 8 99 -25 210 5 236 63 11 24 13 25
39 11 16 -7 46 -17 69 -20 22 -4 56 -16 74 -27 l33 -20 -7 -75 c-9 -102 4
-143 60 -193 50 -44 82 -56 184 -71 90 -13 141 -33 176 -68 38 -37 116 -50
201 -33 114 23 143 11 128 -51 -9 -36 24 -62 69 -54 19 4 43 2 53 -3 66 -37
180 -84 227 -93 44 -10 69 -9 118 1 91 19 91 19 111 -21 33 -68 33 -98 -3
-143 -17 -22 -47 -48 -66 -58 -19 -10 -40 -29 -46 -43 -10 -21 -8 -28 12 -48
12 -14 48 -37 79 -52 49 -24 70 -28 165 -30 60 -2 113 -7 118 -12 16 -16 -9
-58 -57 -99 -46 -39 -50 -40 -140 -47 -56 -4 -135 -18 -197 -36 -57 -16 -113
-30 -126 -30 -40 0 -80 28 -123 86 -28 39 -54 61 -85 74 -24 11 -44 24 -44 30
0 5 -33 42 -72 82 -59 59 -84 76 -129 91 -103 32 -170 15 -254 -63 -52 -47
-179 -123 -228 -134 -15 -4 -45 -23 -67 -42 -37 -34 -42 -36 -89 -29 -31 4
-51 3 -56 -4 -8 -14 31 -63 68 -85 36 -23 34 -43 -13 -112 -34 -50 -40 -67
-40 -109 0 -58 24 -110 84 -179 25 -31 47 -73 66 -129 15 -46 35 -97 43 -113
8 -16 20 -52 26 -79 14 -60 4 -96 -33 -120 -23 -15 -29 -14 -127 24 -90 36
-109 40 -155 35 -48 -6 -57 -4 -88 20 -19 14 -44 26 -54 26 -33 0 -99 -41
-129 -79 -15 -20 -62 -70 -104 -112 l-76 -76 -35 18 c-55 28 -115 39 -128 24
-8 -9 2 -27 35 -68 44 -53 46 -58 49 -128 2 -65 7 -83 42 -143 56 -99 76 -111
182 -112 70 0 97 -5 135 -23 26 -13 50 -27 53 -32 3 -5 14 -9 26 -9 17 0 19
-2 7 -16 -10 -13 -10 -22 0 -52 18 -49 29 -62 54 -62 20 0 20 -1 3 -13 -16
-12 -18 -26 -15 -123 3 -86 8 -116 23 -139 18 -27 18 -28 0 -20 -25 10 -92 7
-116 -6 -14 -8 -18 -19 -16 -42 2 -27 8 -33 33 -37 21 -4 25 -7 14 -12 -13 -5
-16 -20 -14 -71 2 -85 31 -122 65 -82 11 13 15 12 31 -10 31 -38 57 -41 90 -9
30 29 38 30 144 23 17 -2 42 1 58 5 40 12 34 -10 -6 -23 -37 -13 -72 -47 -105
-102 -31 -51 -30 -120 2 -162 36 -47 57 -121 67 -223 7 -83 12 -97 47 -153 36
-55 62 -140 62 -204 0 -21 -30 -37 -68 -37 -23 0 -44 16 -107 84 -43 46 -82
91 -87 99 -9 17 -177 146 -215 166 -12 6 -59 11 -105 10 -84 -1 -118 10 -293
91 -46 21 -132 40 -183 40 l-55 0 -86 89 c-93 95 -110 106 -216 141 -38 13
-83 31 -100 42 -42 25 -73 23 -86 -6 -14 -31 23 -108 86 -178 69 -77 106 -163
114 -265 l7 -86 60 -56 c33 -31 81 -81 107 -112 46 -55 70 -70 130 -84 45 -9
208 -138 238 -187 52 -87 63 -149 28 -171 -23 -15 -128 32 -199 87 -58 46
-106 66 -205 86 -71 15 -114 35 -122 58 -3 9 -14 26 -23 37 -9 11 -23 36 -30
55 -32 83 -97 130 -195 145 -27 4 -54 10 -60 15 -5 4 -57 34 -115 65 -58 31
-115 66 -127 77 -14 13 -51 26 -95 34 -87 16 -122 48 -133 120 -8 54 -50 179
-70 211 -27 41 -105 27 -105 -18 0 -36 -21 -29 -50 17 -16 27 -30 55 -30 63 0
15 -72 142 -98 173 -7 9 -26 19 -40 23 -38 9 -126 69 -146 99 -10 16 -16 46
-16 84 0 48 -5 67 -31 108 -59 91 -61 104 -31 150 27 39 27 40 26 219 0 99 -4
194 -8 211 -7 26 -2 36 28 73 35 42 36 45 36 129 0 71 5 97 25 140 17 37 22
59 16 70 -17 31 -56 60 -91 66 -57 10 -99 42 -120 92 -15 33 -29 49 -57 62
-21 10 -54 28 -73 40 -19 12 -52 25 -72 28 -43 7 -81 49 -92 101 -9 40 -61
113 -81 113 -25 0 -63 29 -86 66 -12 21 -41 45 -71 60 -51 26 -51 26 -76 7
-15 -11 -30 -34 -34 -51 l-9 -32 -38 31 c-21 17 -56 37 -77 44 -31 11 -39 18
-37 37 8 93 5 117 -26 195 -30 77 -36 85 -118 153 -47 40 -114 85 -148 101
-68 31 -75 40 -75 103 0 24 -3 46 -6 49 -4 4 -17 32 -29 62 l-23 56 26 16 c15
9 43 26 62 39 19 12 46 25 59 29 14 4 49 24 79 44 30 20 84 54 119 76 66 40
96 79 108 138 4 22 17 33 61 52 31 14 75 25 98 25 43 0 158 35 224 69 38 19
102 83 102 100 0 21 72 117 113 150 l43 36 155 -2 c115 -1 167 3 206 15 29 8
55 13 59 10 3 -3 0 -25 -6 -49 -21 -76 -3 -115 107 -237 24 -26 43 -50 43 -54
0 -4 32 -32 71 -62 76 -60 103 -67 162 -43 18 8 61 14 97 15 100 3 119 13 199
108 58 69 84 91 129 111 86 39 102 57 102 116 0 61 22 109 69 147 49 41 73 38
131 -16z m-4322 -838 c54 -9 94 -21 114 -36 28 -20 37 -22 107 -16 l77 7 31
-35 c18 -19 42 -37 55 -41 13 -4 39 -24 59 -44 19 -20 64 -51 100 -70 35 -19
76 -47 91 -62 22 -24 36 -29 75 -30 26 -1 59 -3 73 -5 14 -2 61 -5 105 -6 72
-3 89 1 164 32 46 19 93 45 105 57 18 18 28 21 66 16 25 -3 64 -11 87 -19 28
-9 50 -11 65 -5 25 10 69 54 112 112 29 41 139 119 166 119 23 0 70 -112 70
-165 0 -56 21 -81 98 -116 37 -16 83 -45 102 -63 19 -18 52 -45 72 -60 29 -22
43 -45 67 -108 27 -71 30 -87 25 -147 -7 -71 6 -101 44 -101 22 0 83 -37 99
-60 7 -10 21 -20 33 -23 27 -7 70 28 70 58 0 13 4 27 10 30 17 10 65 -22 105
-71 21 -25 54 -53 74 -61 44 -19 56 -35 75 -98 19 -63 66 -111 123 -123 23 -5
54 -18 70 -29 15 -10 40 -24 55 -31 17 -7 37 -30 52 -60 18 -36 36 -54 74 -75
27 -15 61 -27 75 -27 14 0 31 -9 39 -22 14 -21 13 -27 -5 -62 -17 -32 -20 -56
-19 -127 2 -86 2 -87 -34 -130 -34 -41 -36 -46 -29 -94 4 -27 7 -66 7 -85 -1
-300 0 -289 -27 -328 -14 -20 -25 -48 -25 -62 0 -14 21 -61 46 -103 42 -71 46
-82 40 -123 -7 -52 6 -84 51 -125 40 -38 124 -89 145 -89 10 0 23 -13 32 -32
8 -18 26 -48 40 -67 14 -19 26 -42 26 -51 0 -9 16 -42 35 -74 19 -32 35 -60
35 -62 0 -10 -57 -2 -74 11 -24 18 -86 20 -85 3 1 -23 52 -103 123 -191 49
-61 84 -95 122 -117 62 -35 87 -67 82 -107 -3 -25 -7 -28 -38 -27 -238 8 -241
8 -315 -27 -79 -37 -135 -78 -135 -98 0 -10 13 -12 58 -9 46 4 66 1 102 -17
25 -13 90 -30 145 -40 111 -19 147 -34 172 -71 9 -14 34 -37 55 -50 49 -31 60
-59 62 -159 1 -72 6 -90 47 -180 67 -145 80 -192 77 -271 -2 -56 1 -74 17 -95
28 -38 74 -66 119 -75 32 -5 42 -3 53 11 12 17 13 17 13 2 0 -20 45 -40 75
-33 18 5 20 0 23 -52 2 -55 1 -59 -43 -109 -34 -39 -55 -54 -88 -62 -23 -5
-60 -14 -81 -20 -22 -5 -52 -7 -68 -4 -15 3 -34 0 -42 -6 -12 -10 -15 -8 -18
11 -2 19 -8 23 -38 21 -20 -1 -41 -9 -50 -21 -12 -14 -20 -16 -31 -9 -37 23
-73 -20 -44 -53 15 -17 15 -20 0 -43 -13 -21 -14 -32 -6 -65 6 -22 19 -50 30
-63 35 -46 51 -88 51 -139 0 -58 -10 -82 -52 -124 -63 -63 -88 -174 -53 -236
15 -26 19 -77 9 -104 -3 -9 -17 -16 -30 -16 -47 0 -96 -27 -188 -102 -19 -16
-36 -28 -38 -28 -3 0 -23 14 -44 31 -22 17 -54 38 -73 46 -46 20 -57 7 -41
-50 10 -37 10 -52 -1 -83 -18 -49 -24 -54 -80 -54 -49 0 -142 35 -187 71 -19
15 -41 19 -97 19 -66 0 -75 3 -116 34 -77 60 -157 96 -209 96 -71 0 -136 47
-175 126 -41 83 -52 95 -116 138 -57 38 -119 111 -119 141 0 26 -14 45 -94
128 -79 82 -103 91 -160 66 -15 -7 -45 -9 -82 -4 -49 6 -62 12 -90 43 -18 21
-60 57 -93 82 -69 52 -105 103 -127 177 -19 66 -121 178 -171 188 -41 8 -73
48 -73 89 0 17 -9 50 -19 73 -15 33 -29 46 -67 63 -46 20 -51 20 -89 5 -22 -8
-70 -15 -106 -15 -76 0 -94 -12 -104 -75 -11 -66 -24 -90 -71 -129 -43 -36
-46 -37 -82 -26 -71 23 -109 55 -126 108 -13 39 -30 61 -77 101 -55 46 -66 51
-110 51 -36 0 -64 8 -102 29 -28 16 -78 37 -110 47 -51 16 -61 23 -79 59 -12
23 -20 57 -20 80 2 52 -39 154 -73 180 -20 15 -44 20 -108 22 -45 1 -90 3 -99
4 -30 4 -114 -44 -137 -78 -34 -52 -73 -43 -169 39 -18 15 -39 28 -46 28 -22
0 -115 -78 -144 -121 -55 -81 -115 -135 -164 -148 -43 -12 -48 -12 -77 10 -20
15 -31 31 -31 48 0 18 -25 49 -95 118 -100 98 -126 110 -170 79 -58 -40 -219
-24 -282 27 -53 44 -145 88 -187 91 -22 1 -69 9 -104 16 -55 13 -67 12 -90 -1
-21 -11 -28 -24 -30 -52 -3 -33 -6 -37 -30 -37 -33 0 -181 -45 -205 -62 -9 -7
-25 -29 -35 -48 -16 -33 -20 -35 -82 -42 -60 -7 -67 -5 -90 17 -14 13 -38 27
-54 31 -32 8 -56 53 -56 106 0 51 -35 96 -97 124 -18 8 -40 25 -49 39 -8 13
-31 33 -50 44 -19 11 -34 28 -34 37 0 10 -11 32 -25 50 -35 45 -35 117 0 164
31 42 31 51 0 174 -18 73 -31 106 -49 123 -14 13 -32 45 -40 72 -12 41 -12 56
0 107 26 111 19 153 -40 223 -20 23 -36 51 -36 61 0 10 18 40 40 65 22 25 40
56 40 68 0 12 3 63 5 112 5 87 7 91 40 123 32 29 40 32 99 32 61 0 68 2 109
39 25 21 58 42 74 45 47 12 53 23 53 98 0 54 -5 76 -20 99 -16 21 -18 33 -11
46 42 74 51 149 26 210 -8 20 -15 66 -15 104 l0 69 40 0 c36 0 41 3 60 41 23
45 29 114 11 132 -16 16 -14 42 5 58 21 17 104 143 104 157 0 15 50 72 62 72
28 0 78 55 113 124 49 98 58 105 97 82 39 -24 60 -19 226 53 75 33 156 64 180
71 84 22 146 -13 302 -168 128 -128 176 -157 255 -154 107 3 283 67 327 120 8
9 28 40 44 67 27 47 28 57 27 150 -1 64 -7 113 -16 135 -8 19 -18 56 -22 81
-6 43 -5 47 27 74 18 15 57 57 86 94 49 61 119 110 159 111 7 0 46 40 88 88
66 77 82 90 123 101 26 6 67 25 91 41 24 17 47 30 50 30 3 0 44 -6 89 -14z
m-1868 -3831 c30 -8 69 -15 86 -15 36 0 129 -45 161 -76 11 -12 47 -32 79 -44
50 -19 72 -21 146 -17 56 4 96 11 112 22 30 20 53 11 86 -37 12 -18 45 -50 72
-71 44 -34 49 -41 43 -67 -6 -26 -2 -32 48 -65 l55 -36 69 20 c53 16 73 27 83
47 8 14 22 30 32 35 10 6 29 27 42 48 30 47 113 131 131 131 7 0 18 -7 26 -16
28 -34 100 -75 143 -80 43 -6 45 -6 71 35 15 22 32 41 37 41 6 0 23 9 39 21
24 17 34 19 65 10 19 -5 57 -7 84 -4 26 3 55 1 65 -4 26 -15 64 -117 58 -161
-3 -29 2 -48 29 -92 31 -51 37 -56 108 -80 41 -15 97 -38 124 -53 33 -18 64
-27 95 -27 41 0 52 -6 94 -45 26 -24 47 -52 47 -60 0 -53 80 -127 158 -147 29
-7 49 -19 59 -37 9 -14 33 -42 54 -61 l38 -35 3 -99 c3 -93 2 -99 -20 -114
-37 -25 -53 -78 -57 -192 l-4 -105 -34 -22 c-21 -13 -40 -36 -46 -56 -11 -31
-16 -35 -58 -40 -27 -3 -67 1 -95 10 -27 8 -81 14 -121 13 -40 -1 -105 2 -145
5 -67 7 -78 5 -120 -18 -26 -14 -70 -32 -98 -40 -45 -13 -88 -33 -158 -74 -11
-7 -34 -13 -51 -13 -43 -1 -71 -20 -113 -75 -24 -32 -48 -52 -69 -57 -21 -5
-39 -20 -54 -46 -34 -57 -60 -83 -102 -99 -60 -25 -61 -61 -2 -141 18 -25 23
-41 18 -63 -4 -21 5 -51 36 -116 39 -82 41 -92 32 -132 -12 -53 0 -91 38 -119
16 -11 31 -34 34 -52 15 -72 40 -143 57 -160 11 -11 36 -24 58 -29 36 -10 40
-15 54 -67 14 -50 14 -62 2 -97 -8 -22 -14 -57 -14 -78 0 -28 -8 -47 -29 -71
-57 -66 -75 -116 -73 -199 1 -47 -3 -81 -11 -92 -6 -9 -45 -25 -86 -36 -41
-12 -84 -30 -96 -41 -12 -11 -26 -20 -32 -20 -5 0 -17 -8 -26 -18 -25 -28 -17
-154 12 -190 46 -58 56 -89 43 -137 -15 -56 -15 -115 -2 -151 16 -40 4 -75
-38 -121 -23 -24 -44 -62 -55 -96 -13 -42 -29 -65 -61 -94 -55 -48 -106 -128
-106 -167 0 -16 -13 -52 -29 -80 -41 -74 -45 -102 -21 -177 14 -47 27 -69 44
-79 31 -16 71 -112 80 -191 8 -63 23 -82 76 -97 59 -15 187 -112 206 -155 9
-20 23 -42 31 -48 18 -15 17 -63 -3 -101 -12 -23 -14 -45 -10 -82 6 -47 4 -56
-22 -92 -17 -23 -60 -67 -96 -99 -51 -45 -69 -68 -77 -99 -6 -23 -22 -59 -37
-81 -14 -22 -28 -53 -32 -69 -7 -36 -78 -84 -125 -85 -61 -2 -107 -23 -179
-85 l-73 -62 -87 -2 c-61 -1 -96 3 -116 13 -18 10 -57 15 -107 15 -52 0 -88 5
-108 16 -16 9 -43 16 -60 16 -43 0 -213 -70 -230 -96 -8 -11 -41 -34 -72 -51
-53 -28 -58 -34 -66 -73 -7 -38 -14 -46 -45 -58 -70 -29 -142 -67 -158 -86
-12 -13 -31 -18 -66 -18 -59 0 -106 -22 -114 -54 -8 -35 -69 -55 -209 -71 -33
-3 -77 -15 -98 -26 -48 -24 -89 -24 -153 0 -33 13 -76 20 -130 20 -101 1 -123
9 -143 52 -12 25 -32 42 -81 67 -36 18 -66 37 -68 41 -2 5 4 26 12 46 9 21 16
47 16 59 0 29 -35 65 -70 72 -15 4 -33 16 -39 28 -17 32 16 115 54 136 22 12
40 39 69 104 l40 87 -22 67 c-11 37 -24 76 -27 88 -3 11 4 56 16 100 27 98 29
222 5 259 -9 14 -21 25 -26 25 -15 0 -90 71 -90 85 0 17 53 35 104 35 66 0 86
21 86 86 0 31 -7 69 -16 86 -12 23 -14 46 -9 97 6 59 4 69 -17 97 -13 18 -34
55 -47 82 l-24 50 23 49 c13 26 43 70 68 96 44 48 44 49 37 102 -5 45 -2 61
18 102 14 26 30 68 37 91 10 38 9 48 -8 76 -17 28 -19 46 -14 128 l5 96 -51
76 c-28 42 -56 93 -61 113 -6 20 -19 46 -31 57 -34 37 -82 147 -77 175 3 15
-3 43 -15 68 -18 35 -19 48 -10 83 8 32 7 51 -5 85 -19 58 -31 66 -103 72 -53
5 -64 10 -88 38 -41 48 -77 68 -126 67 -40 -1 -45 2 -74 43 -17 24 -49 56 -71
71 -28 18 -44 37 -50 61 -9 30 -6 40 20 81 16 25 29 53 29 63 0 21 15 33 81
67 48 24 66 42 105 108 9 16 13 17 27 5 52 -43 204 37 207 109 0 8 9 26 20 40
23 30 26 79 5 106 -8 10 -15 40 -15 66 0 57 -10 85 -44 121 -14 15 -33 42 -42
60 -26 51 -54 76 -93 83 -48 9 -120 54 -125 79 -3 11 -12 51 -21 89 -13 51
-15 91 -10 165 6 90 5 98 -17 131 -13 19 -40 43 -60 53 -40 20 -91 77 -109
123 -6 16 -13 76 -16 134 -6 139 -7 144 -54 195 l-41 44 16 64 c9 35 16 78 16
95 0 26 11 43 57 87 32 30 72 60 90 66 40 13 63 52 63 107 0 26 7 45 19 56 18
17 21 16 63 -6 39 -21 56 -23 184 -23 139 0 141 0 173 -28 38 -32 80 -51 132
-61 21 -3 42 -13 48 -20 15 -18 88 -38 137 -38 22 0 62 0 89 0 28 0 72 0 100
-1 48 -2 50 -1 72 38 29 51 30 117 3 170 -28 55 -25 86 18 188 30 72 46 97 84
128 39 33 50 38 70 30 14 -5 32 -21 42 -36 16 -24 22 -27 55 -21 20 3 52 9 71
12 75 11 81 14 98 52 9 20 22 40 27 45 17 13 170 57 197 57 34 0 58 24 58 59
0 46 3 47 80 26z m2935 -547 c33 -15 65 -75 65 -121 0 -46 30 -82 85 -100 60
-21 139 -106 155 -166 18 -70 72 -144 147 -201 37 -28 76 -64 86 -80 20 -31
22 -32 108 -51 48 -10 64 -9 104 4 l47 16 72 -72 c52 -51 76 -84 84 -112 15
-52 69 -116 140 -163 52 -35 62 -48 108 -145 27 -58 105 -109 181 -119 71 -8
151 -45 206 -94 20 -19 45 -34 55 -35 9 0 45 -1 78 -3 41 -1 71 -8 90 -21 65
-43 138 -68 209 -69 l70 -2 6 -72 c8 -107 -1 -154 -31 -169 -58 -27 -77 -27
-92 4 -11 22 -20 28 -43 26 -41 -3 -60 -25 -46 -52 9 -17 9 -21 -3 -21 -7 0
-24 -8 -36 -18 -19 -15 -21 -22 -12 -38 8 -15 7 -31 -3 -60 -11 -33 -19 -40
-50 -46 -43 -9 -54 -3 -81 47 -37 69 -98 60 -144 -21 -38 -67 -36 -71 64 -121
54 -27 74 -33 86 -24 8 6 30 17 48 25 32 15 33 15 78 -31 41 -41 45 -49 39
-79 -4 -24 -11 -34 -24 -34 -25 0 -40 -20 -43 -56 -2 -36 8 -54 29 -54 14 0
13 -4 -4 -22 -12 -13 -24 -37 -28 -55 -3 -17 -24 -56 -45 -86 -21 -29 -55 -93
-75 -142 -34 -82 -37 -97 -42 -224 -12 -289 -10 -321 20 -378 44 -85 39 -123
-34 -233 -33 -50 -72 -117 -86 -148 -28 -64 -63 -168 -63 -188 0 -20 -13 -17
-28 6 -23 38 -82 20 -82 -25 0 -46 57 -62 84 -23 l16 22 0 -25 c0 -48 -27
-114 -74 -181 -39 -56 -52 -68 -76 -68 -15 0 -33 -6 -39 -14 -10 -12 -8 -19
11 -38 21 -21 23 -30 24 -168 1 -137 0 -147 -22 -180 -27 -39 -30 -60 -11 -79
8 -9 1 -8 -20 3 -43 22 -51 20 -65 -9 -10 -21 -8 -28 8 -40 12 -9 14 -14 6
-15 -8 0 -26 -9 -40 -21 -71 -55 -83 -134 -30 -195 l32 -36 -24 -18 c-33 -25
-114 -50 -162 -50 -35 0 -39 -2 -36 -22 5 -37 97 -49 182 -24 46 14 47 14 58
-10 8 -16 8 -27 0 -36 -6 -8 -8 -27 -3 -48 7 -32 10 -35 40 -33 30 1 31 0 17
-16 -48 -53 23 -191 98 -191 23 0 76 33 82 52 4 14 9 15 30 6 21 -10 25 -17
20 -40 -4 -20 1 -35 19 -56 25 -30 81 -59 92 -49 3 4 17 -3 31 -14 14 -11 33
-17 43 -14 15 5 19 -2 25 -40 3 -25 4 -48 1 -51 -3 -3 -37 -1 -75 4 -97 14
-169 -4 -192 -48 -5 -10 -10 -50 -10 -88 0 -65 -2 -73 -35 -112 -19 -23 -43
-55 -52 -71 -25 -41 -84 -41 -152 2 -28 16 -67 32 -88 35 -131 18 -213 50
-294 114 -58 46 -126 61 -165 35 -15 -10 -66 -19 -137 -26 -65 -6 -129 -18
-153 -29 -76 -33 -99 -34 -160 -6 -31 14 -67 26 -80 26 -14 0 -60 9 -104 21
l-79 20 -46 -20 c-25 -11 -45 -24 -45 -28 0 -5 -16 -17 -34 -27 -19 -10 -42
-33 -51 -52 -13 -27 -25 -35 -72 -49 -79 -23 -148 -60 -181 -96 -15 -17 -43
-39 -63 -50 -20 -10 -51 -33 -69 -50 -31 -32 -32 -32 -66 -16 -19 10 -36 23
-38 29 -31 123 -41 163 -51 218 -28 141 -39 171 -73 201 -20 18 -44 29 -62 29
-16 0 -45 8 -64 17 -31 14 -41 15 -76 3 -22 -7 -42 -11 -44 -9 -2 2 -16 29
-31 59 -15 30 -39 67 -53 83 -25 26 -25 29 -12 60 20 48 17 85 -15 155 -16 35
-28 69 -27 75 1 7 6 50 11 97 5 47 15 104 22 128 12 37 11 46 -4 71 -9 16 -17
36 -17 45 0 8 -10 26 -22 39 -13 14 -33 37 -46 52 -21 23 -28 26 -60 20 -69
-13 -77 -10 -97 34 -9 22 -29 50 -44 64 -44 40 -144 106 -181 118 -52 18 -60
27 -60 71 0 55 -46 167 -81 201 -31 29 -59 92 -59 133 0 13 16 52 35 87 19 35
35 76 35 91 0 32 50 109 86 133 28 18 68 83 78 126 4 16 24 47 45 70 56 61 67
103 45 171 -16 51 -16 57 -1 98 10 24 17 55 17 68 0 25 -51 123 -70 135 -5 3
-10 32 -10 65 l0 58 48 30 c26 16 63 33 82 37 19 4 54 16 77 27 35 16 45 27
54 60 6 22 8 61 4 87 -7 56 12 109 60 162 23 26 34 50 39 85 4 27 12 70 18 96
9 37 9 59 -2 103 -17 71 -41 102 -85 111 -45 8 -50 15 -74 107 -23 89 -25 94
-64 126 -26 22 -28 28 -21 65 11 67 7 90 -30 164 -25 50 -35 83 -34 111 1 23
-6 49 -15 63 -9 13 -25 34 -34 47 -19 26 -18 28 45 62 16 9 44 39 62 67 23 36
43 55 67 63 23 7 47 28 70 61 37 51 65 68 112 68 16 0 46 12 67 27 21 14 69
37 106 49 36 13 88 34 115 47 44 22 54 24 118 15 39 -5 106 -11 150 -13 44 -2
121 -7 172 -10 l92 -7 23 45 c13 25 39 56 58 69 l35 24 5 120 c4 92 10 127 23
147 10 15 21 27 26 27 5 0 17 22 25 48 24 71 8 218 -25 244 -90 69 -91 85 -10
146 16 13 29 40 41 88 l18 69 73 5 c41 3 83 11 94 18 25 15 28 15 60 0z
m-1305 -4805 c0 -3 8 -21 17 -40 14 -30 15 -40 3 -67 -7 -17 -17 -80 -22 -140
l-9 -109 33 -74 c31 -72 31 -74 15 -102 -23 -39 -21 -62 8 -102 13 -19 40 -65
60 -102 20 -37 43 -71 52 -74 8 -3 37 -1 63 6 41 11 53 10 79 -3 16 -9 41 -16
54 -16 13 0 31 -8 39 -17 18 -21 48 -112 48 -145 0 -13 11 -62 25 -109 13 -46
25 -95 25 -109 0 -36 25 -67 73 -91 71 -36 107 -77 107 -123 1 -26 12 -62 30
-96 17 -30 30 -60 30 -67 0 -16 27 -95 52 -155 16 -36 27 -50 53 -58 17 -6 42
-22 55 -35 21 -22 22 -29 13 -60 -7 -22 -8 -47 -3 -66 7 -23 3 -46 -16 -97
-19 -49 -24 -76 -19 -102 16 -81 11 -153 -17 -223 -16 -37 -28 -80 -28 -95 0
-19 -11 -38 -31 -58 -17 -16 -47 -58 -66 -94 -20 -36 -45 -75 -56 -87 -16 -18
-18 -30 -13 -66 8 -54 31 -77 85 -84 46 -6 47 -8 26 -50 -26 -51 -7 -115 51
-174 l48 -49 6 -102 c5 -82 11 -111 29 -140 13 -21 29 -60 36 -87 11 -44 11
-53 -8 -93 -17 -37 -20 -68 -23 -227 -2 -108 -8 -189 -14 -195 -5 -5 -10 -31
-10 -56 0 -41 6 -53 56 -114 40 -49 62 -87 75 -130 10 -33 19 -64 19 -67 0 -3
-31 -40 -70 -83 -38 -42 -70 -81 -70 -86 0 -20 -62 -79 -90 -85 -16 -4 -41
-20 -55 -37 -21 -24 -25 -40 -25 -89 0 -76 -17 -115 -82 -190 -43 -49 -53 -69
-58 -107 l-5 -47 -120 -2 c-72 -2 -134 2 -155 9 -67 23 -121 1 -146 -58 -17
-40 -39 -51 -130 -63 -36 -5 -77 -19 -93 -30 -81 -58 -171 -77 -218 -46 -25
17 -89 31 -208 45 -38 5 -96 13 -128 20 -32 6 -66 8 -76 5 -11 -3 -43 -28 -73
-55 -48 -44 -58 -49 -100 -50 -31 0 -63 8 -94 25 -26 14 -58 25 -71 25 -28 0
-74 22 -93 45 -16 20 -83 55 -104 55 -8 0 -29 -12 -46 -26 l-31 -27 -67 15
c-46 10 -78 11 -102 5 -19 -5 -63 -12 -97 -16 -69 -7 -75 -11 -92 -60 -19 -57
-14 -90 18 -120 26 -24 30 -37 34 -94 4 -53 10 -74 31 -102 24 -31 48 -87 77
-182 12 -39 43 -50 90 -34 43 15 62 2 76 -52 11 -38 10 -52 -7 -98 -23 -61
-25 -90 -9 -106 30 -30 -56 -170 -136 -224 -43 -29 -105 -145 -112 -213 -5
-39 -12 -50 -50 -80 -25 -19 -56 -49 -68 -66 -13 -17 -43 -44 -68 -60 -24 -15
-48 -33 -51 -39 -5 -7 -14 -6 -31 5 -16 11 -54 16 -134 17 l-110 2 -71 -72
-71 -73 -83 0 c-180 0 -212 17 -208 111 2 39 -3 53 -25 80 -15 17 -42 38 -60
45 -35 15 -38 23 -48 117 -5 41 -14 66 -32 88 -51 60 -60 89 -55 182 10 183
-12 235 -113 272 -82 30 -84 35 -45 108 l34 64 -12 117 c-12 124 -10 139 21
173 26 30 20 113 -12 146 -13 15 -21 36 -21 59 0 19 -7 57 -15 84 -8 27 -18
84 -21 127 -6 65 -4 83 11 112 21 37 22 29 -29 175 -57 161 -54 156 -111 194
-30 19 -73 60 -95 90 -24 31 -54 59 -71 65 -64 22 -86 47 -92 103 -8 79 17
161 59 193 46 35 64 99 57 204 -7 91 -3 100 77 186 77 81 84 107 50 173 -18
35 -19 45 -9 127 6 49 8 109 5 133 -3 23 -1 62 6 86 18 67 -3 121 -84 227 -38
49 -84 97 -101 106 -56 28 -87 56 -112 99 -29 49 -30 72 -10 132 13 36 14 61
5 147 -15 145 -33 198 -87 256 l-45 48 18 72 c14 60 15 79 6 116 -17 61 -15
77 9 99 32 28 57 92 69 171 10 71 16 90 51 153 30 55 25 96 -16 137 -27 27
-34 41 -29 56 15 48 92 162 131 194 47 39 63 75 63 142 0 41 5 51 39 84 22 21
45 53 51 72 17 53 41 60 75 25 16 -17 39 -30 52 -30 33 0 38 -21 18 -80 -25
-75 -17 -91 63 -126 57 -26 72 -38 88 -69 24 -50 62 -63 176 -64 63 -1 99 -6
133 -21 59 -25 110 -25 158 0 21 11 75 25 120 31 154 20 193 37 232 104 8 13
25 18 67 19 43 1 64 7 85 24 15 13 67 41 115 64 87 41 101 56 110 113 2 12 19
27 43 38 22 11 56 34 75 52 21 20 69 46 117 65 l83 31 55 -20 c36 -14 79 -21
124 -21 42 0 80 -6 99 -16 25 -12 50 -14 126 -8 104 7 113 11 200 88 48 42 63
49 113 55 79 9 175 65 184 106 3 17 20 55 36 85 17 30 34 69 37 85 5 21 23 44
55 69 56 45 127 125 140 158 5 13 7 45 4 71 -4 31 0 58 10 79 8 18 17 42 19
53 2 13 14 22 33 26 25 4 35 -1 63 -29 17 -19 32 -37 32 -39z m2072 -949 c29
-21 68 -47 87 -58 36 -19 176 -56 211 -56 11 0 49 -16 86 -35 38 -20 80 -35
100 -35 42 0 45 -22 9 -71 -40 -56 -51 -80 -71 -157 -15 -60 -16 -78 -6 -104
6 -18 10 -33 8 -35 -2 -2 -25 21 -52 51 -26 31 -53 56 -59 56 -7 0 -20 -9 -30
-20 -15 -17 -16 -24 -6 -49 7 -16 23 -39 36 -51 19 -18 22 -27 15 -41 -6 -10
-10 -33 -10 -52 0 -32 -4 -36 -50 -56 -75 -32 -63 -71 21 -71 29 0 51 -6 59
-15 10 -12 9 -15 -8 -15 -26 0 -45 -24 -37 -49 13 -41 71 -32 77 11 3 21 5 19
26 -16 19 -32 26 -37 47 -32 42 11 28 -12 -15 -25 -43 -13 -47 -23 -28 -65 10
-22 17 -25 45 -21 30 5 33 4 33 -20 0 -28 58 -150 97 -200 13 -19 33 -33 45
-33 16 0 18 -3 9 -13 -7 -10 -8 -29 -2 -62 8 -40 19 -58 71 -109 69 -68 82
-91 129 -221 64 -180 120 -253 151 -196 13 26 28 26 59 2 l24 -18 -26 -7 c-37
-9 -45 -44 -16 -67 43 -33 90 -51 116 -44 20 5 24 3 20 -9 -10 -24 2 -44 39
-66 18 -12 49 -47 69 -79 19 -32 41 -64 49 -70 8 -7 31 -62 53 -123 26 -76 44
-112 56 -116 17 -4 24 -22 8 -22 -34 0 -8 -83 29 -93 17 -4 20 -9 12 -24 -12
-24 -8 -34 51 -126 65 -102 59 -109 -67 -72 -83 25 -101 34 -152 81 -59 56
-94 70 -144 59 -29 -6 -124 17 -144 36 -6 5 -5 19 3 36 12 25 10 30 -14 50
-32 28 -50 29 -68 3 -14 -20 -15 -20 -19 -2 -7 24 -93 75 -133 78 -16 1 -59
13 -95 25 -73 26 -145 89 -156 136 -13 52 -46 108 -105 175 -33 36 -59 71 -59
76 0 16 -65 52 -94 52 -15 0 -43 8 -64 19 -20 10 -113 44 -207 76 -93 31 -195
72 -225 91 -62 37 -122 49 -127 23 -5 -21 108 -108 172 -132 27 -10 77 -34
111 -53 33 -19 73 -34 87 -34 37 0 73 -17 147 -71 77 -57 129 -116 159 -184
l22 -50 -28 27 c-26 25 -30 26 -55 12 -34 -18 -34 -24 -4 -72 29 -46 74 -88
103 -96 15 -5 24 -18 29 -40 8 -48 51 -94 150 -165 58 -42 94 -61 107 -57 16
4 18 1 12 -17 -12 -38 -7 -61 19 -83 17 -15 23 -29 19 -42 -6 -23 41 -92 62
-92 7 0 15 -13 18 -28 8 -37 71 -117 185 -233 87 -90 94 -99 87 -127 -6 -27
-3 -33 24 -46 38 -20 58 -20 69 0 6 11 16 13 35 9 31 -8 46 -25 23 -25 -23 0
-126 -68 -126 -83 0 -21 40 -58 53 -50 8 4 7 1 -1 -9 -11 -14 -11 -21 3 -42
31 -46 86 -29 111 35 24 58 44 51 44 -14 0 -30 6 -62 15 -73 29 -42 72 -134
63 -134 -19 0 -68 -42 -68 -58 0 -22 40 -62 62 -62 35 0 32 -30 -6 -69 -20
-20 -36 -45 -36 -55 0 -19 -2 -19 105 -1 39 7 42 6 97 -53 75 -81 123 -105
202 -101 107 4 136 0 136 -16 0 -19 43 -40 64 -32 8 3 18 23 22 44 7 33 8 35
14 14 4 -18 19 -29 60 -45 39 -14 55 -17 58 -8 6 19 22 14 22 -8 0 -33 38 -44
155 -46 121 -1 148 -9 185 -49 25 -27 25 -28 22 -198 -3 -184 7 -248 54 -374
27 -70 28 -74 13 -126 l-10 -38 -47 7 c-63 9 -89 20 -125 50 -29 24 -37 26
-111 22 -72 -3 -92 -9 -179 -51 -121 -58 -155 -57 -232 8 -27 24 -73 54 -102
69 -47 23 -63 26 -160 26 -167 -1 -228 -12 -300 -55 -41 -24 -81 -39 -118 -44
-76 -10 -104 -38 -114 -114 -7 -51 -12 -61 -54 -97 -25 -23 -57 -64 -71 -93
-27 -57 -53 -87 -105 -120 -43 -28 -71 -80 -71 -132 0 -34 -5 -45 -30 -63 -40
-30 -54 -28 -88 13 -16 20 -44 40 -63 45 -39 12 -115 12 -143 1 -11 -4 -52 0
-95 11 -49 11 -92 16 -123 12 -41 -6 -53 -2 -102 27 -61 37 -73 59 -57 103 17
42 13 71 -15 137 -14 34 -24 62 -22 63 2 1 15 10 31 19 22 14 27 25 27 58 0
53 -28 78 -124 113 l-74 27 -31 68 c-17 37 -31 75 -31 83 0 9 -26 40 -58 69
-32 30 -68 68 -81 86 -13 17 -37 38 -55 47 -86 42 -196 86 -218 86 -14 0 -37
13 -53 30 -18 19 -53 38 -92 50 -34 10 -80 28 -102 39 -47 24 -120 27 -159 7
-49 -25 -113 -29 -148 -9 -17 10 -66 38 -108 62 -71 39 -79 48 -102 98 -13 31
-24 60 -24 66 0 6 -12 23 -26 38 -23 24 -25 32 -19 80 6 47 14 62 58 110 62
67 92 139 83 202 -7 51 5 69 59 91 49 21 72 42 95 86 10 19 48 67 84 107 54
59 66 77 66 105 0 47 -28 139 -50 163 -36 40 -100 130 -100 141 0 6 7 28 15
48 11 27 15 77 16 203 0 147 3 172 21 216 19 45 20 55 10 105 -6 30 -24 78
-38 106 -22 41 -28 70 -33 148 l-6 97 -46 48 c-55 56 -69 105 -44 152 31 60
15 89 -55 98 -48 7 -73 41 -52 71 6 9 25 44 43 77 17 33 43 74 58 90 43 47 61
77 61 105 0 15 14 64 31 111 31 85 32 104 13 212 -4 28 -1 51 15 87 15 35 21
68 20 108 -1 31 2 69 6 84 10 36 -44 106 -87 115 -33 7 -43 24 -78 140 -12 37
-32 89 -46 116 -13 26 -24 63 -24 83 0 39 -12 67 -43 101 -20 22 -20 23 -1 44
10 12 32 28 49 36 16 9 51 35 76 58 48 45 107 75 196 101 45 13 57 22 71 50 8
19 30 43 46 54 17 11 43 29 59 42 27 22 28 22 95 5 37 -9 81 -17 97 -17 17 0
51 -11 77 -25 60 -32 141 -34 199 -5 26 14 76 24 152 32 61 5 121 17 132 24
32 23 89 10 147 -32z m-1789 -4156 c14 -8 70 -13 159 -13 130 0 138 -1 162
-24 14 -14 26 -30 26 -38 0 -7 13 -41 30 -75 28 -60 34 -65 112 -108 45 -25
95 -53 112 -62 42 -25 126 -23 176 2 51 26 80 25 138 -4 26 -13 72 -31 102
-39 34 -10 67 -28 84 -46 18 -19 43 -32 69 -36 22 -4 67 -20 101 -36 34 -16
67 -29 74 -29 17 0 202 -184 202 -201 0 -8 15 -47 34 -86 37 -76 55 -91 132
-112 48 -13 94 -46 94 -67 0 -8 -13 -23 -30 -32 -16 -9 -32 -23 -35 -30 -3 -8
9 -48 27 -89 27 -67 30 -80 20 -108 -28 -76 -17 -103 66 -157 62 -40 70 -43
129 -40 34 1 95 -5 134 -14 60 -14 78 -14 109 -4 58 19 108 6 158 -43 46 -45
49 -56 27 -121 -8 -24 -13 -50 -10 -58 10 -23 93 -78 120 -78 14 0 44 -9 66
-21 l40 -20 -7 -104 -7 -104 33 -48 32 -48 -6 -130 c-3 -78 -1 -155 5 -194 10
-55 9 -75 -11 -155 l-22 -91 21 -53 c17 -43 21 -75 21 -171 0 -87 -4 -122 -13
-130 -8 -6 -22 -29 -32 -51 -10 -22 -24 -40 -31 -40 -14 0 -149 27 -175 36
-24 7 -76 -41 -84 -76 -4 -19 -25 -46 -56 -72 -27 -23 -75 -74 -105 -114 -31
-41 -81 -90 -115 -114 -47 -33 -74 -64 -133 -154 -65 -98 -81 -117 -122 -136
-42 -21 -52 -22 -90 -12 -50 14 -60 11 -136 -37 -43 -27 -61 -46 -74 -76 -18
-44 -54 -206 -54 -241 0 -17 -14 -33 -52 -57 -29 -19 -70 -48 -92 -66 -60 -48
-124 -41 -154 19 -21 43 -84 80 -137 80 -60 0 -193 -25 -257 -50 -53 -20 -118
-75 -118 -101 0 -5 -20 -31 -44 -57 -57 -62 -68 -85 -66 -140 5 -107 2 -121
-32 -142 -48 -29 -107 -35 -163 -16 -57 20 -133 9 -186 -27 -38 -26 -46 -39
-54 -89 -7 -43 -36 -64 -141 -97 -38 -13 -99 -36 -136 -52 -36 -16 -78 -29
-92 -29 -14 0 -94 23 -178 51 l-153 50 -92 97 c-56 59 -92 105 -93 119 0 12
-18 54 -40 95 -22 40 -49 93 -60 118 -15 32 -34 53 -68 74 -87 53 -157 43
-202 -29 -15 -24 -27 -34 -39 -31 -9 3 -46 6 -83 8 -89 3 -102 -8 -95 -82 3
-30 8 -64 12 -76 5 -16 0 -25 -21 -38 -26 -18 -28 -17 -64 3 -21 12 -48 21
-61 21 -13 0 -67 -21 -120 -46 l-97 -46 -32 23 c-28 21 -31 28 -24 54 10 39 9
93 -4 182 -9 71 -32 118 -99 209 -13 17 -26 52 -29 78 l-7 47 107 105 106 105
0 73 c0 40 -6 92 -14 117 -8 24 -17 56 -20 70 -3 14 -38 60 -78 102 -56 59
-88 83 -140 106 -63 29 -66 33 -73 71 -4 22 -19 57 -33 77 -25 35 -27 46 -28
138 0 55 -4 116 -8 136 -7 30 -2 47 29 109 33 66 38 86 46 185 9 121 14 158
31 226 10 42 9 49 -12 77 -16 22 -21 39 -17 59 8 38 -30 163 -57 189 -17 17
-65 35 -153 60 -7 2 -13 14 -13 27 0 30 66 175 93 204 13 15 23 45 29 85 9 68
31 101 85 123 17 7 37 24 43 37 7 12 39 48 72 78 54 49 61 61 68 106 14 86 48
151 98 190 66 50 110 106 137 172 20 50 22 63 12 99 -10 37 -8 47 15 90 23 45
24 53 12 84 -7 19 -15 45 -18 59 -8 37 -57 62 -112 58 -49 -3 -50 -3 -84 105
-5 16 -23 50 -40 76 -25 40 -30 58 -30 109 0 57 -3 64 -31 89 -27 25 -30 33
-26 67 6 45 20 57 58 49 15 -3 48 3 73 12 38 15 53 16 90 6 71 -18 123 -14
147 10 25 25 41 20 113 -35 30 -23 62 -37 93 -42 26 -4 62 -16 81 -27 25 -15
53 -21 103 -21 l68 -1 55 54 c54 54 55 54 103 47 26 -4 82 -11 123 -16 102
-12 175 -29 224 -51 64 -29 102 -24 201 26 50 25 115 49 146 54 79 13 126 35
134 63 9 29 44 68 62 68 8 0 24 -5 36 -12z m3505 -817 c20 -10 57 -37 82 -58
62 -55 83 -64 143 -66 51 0 74 8 199 74 48 25 169 27 189 3 19 -23 59 -41 110
-49 25 -4 51 -10 57 -14 18 -11 -4 -75 -43 -123 -70 -86 -74 -119 -49 -371 4
-35 -1 -96 -11 -154 -13 -80 -14 -106 -4 -147 13 -58 92 -198 151 -268 38 -46
39 -47 10 -32 -79 39 -139 -75 -62 -116 45 -24 109 23 97 71 -7 27 12 11 36
-30 l18 -30 -43 -22 c-63 -32 -69 -38 -57 -60 8 -15 21 -19 68 -19 66 0 70 -3
97 -75 25 -67 86 -132 136 -146 24 -6 75 -8 127 -4 86 7 86 6 156 -31 73 -39
148 -93 225 -163 64 -59 167 -105 290 -131 188 -39 176 -33 280 -139 104 -107
142 -136 165 -127 8 3 15 1 15 -4 0 -13 79 -64 87 -57 3 4 13 -2 20 -13 8 -11
42 -34 75 -51 58 -29 61 -33 99 -115 21 -46 39 -88 39 -93 0 -5 -12 -23 -26
-40 -16 -20 -24 -39 -21 -51 6 -23 4 -24 -24 -7 -18 10 -23 9 -40 -12 -27 -33
-24 -48 12 -67 l32 -16 -40 -18 c-26 -11 -50 -34 -71 -67 -59 -92 -38 -131 40
-74 49 36 65 38 118 11 32 -17 59 -20 153 -20 141 0 153 -7 196 -118 24 -64
29 -88 25 -137 -3 -33 -1 -65 3 -70 4 -6 34 -29 66 -53 32 -24 55 -47 52 -52
-13 -20 -123 -98 -176 -123 -70 -34 -112 -89 -115 -150 0 -23 -2 -53 -3 -65 0
-15 -28 -51 -70 -94 -67 -69 -71 -71 -132 -80 -53 -7 -70 -15 -117 -53 -57
-48 -89 -56 -98 -27 -18 60 -40 84 -104 112 -36 15 -114 48 -173 74 -103 44
-113 47 -195 45 -48 0 -124 6 -170 14 -78 14 -85 17 -125 59 -72 77 -131 150
-147 182 -19 40 -91 79 -240 131 -112 39 -116 41 -140 85 -28 49 -99 128 -147
163 -17 12 -54 41 -82 64 -29 24 -71 48 -94 54 -23 6 -63 22 -89 35 -35 18
-64 24 -110 24 -92 0 -125 13 -177 69 -33 35 -58 52 -91 61 -113 30 -124 40
-144 131 -3 14 -17 51 -32 82 -35 77 -76 98 -174 87 -14 -1 -47 2 -75 8 -27 6
-90 9 -138 6 -74 -3 -97 0 -138 17 -51 22 -52 22 -235 3 -101 -10 -159 8 -221
69 -29 29 -53 61 -53 71 0 11 13 40 29 65 29 46 30 47 27 176 -2 103 -7 138
-21 168 -17 34 -18 43 -6 95 29 130 30 139 17 214 -10 54 -11 105 -5 184 10
121 8 134 -29 184 -27 35 -27 37 -21 176 3 51 0 76 -10 88 -20 24 -85 56 -113
56 -12 0 -38 11 -59 25 l-37 26 16 60 c13 52 20 64 54 87 44 28 58 55 58 107
0 52 20 84 64 107 48 25 57 35 96 111 17 31 52 78 79 103 42 39 49 52 54 95 9
74 19 86 79 94 32 4 79 21 118 43 74 41 117 49 283 51 98 1 124 -2 155 -18z"/>
<path d="M11510 19350 c-16 -16 -18 -25 -10 -40 14 -26 27 -32 50 -25 28 9 35
43 14 66 -22 24 -29 24 -54 -1z"/>
<path d="M7730 18781 c-16 -31 4 -63 37 -59 34 4 52 32 37 56 -16 26 -60 28
-74 3z"/>
<path d="M9757 18072 c-38 -42 -6 -107 49 -100 19 2 34 13 44 31 13 24 13 30
0 55 -20 34 -68 42 -93 14z"/>
<path d="M8951 17226 c-7 -8 -11 -25 -9 -38 2 -18 9 -23 32 -23 36 0 56 27 40
53 -14 22 -48 27 -63 8z"/>
<path d="M10536 16817 c-22 -16 -18 -55 7 -71 39 -24 79 44 41 71 -10 7 -21
13 -24 13 -3 0 -14 -6 -24 -13z"/>
<path d="M6838 18469 c-37 -21 -9 -77 32 -64 22 7 27 44 8 63 -14 14 -18 14
-40 1z"/>
<path d="M4895 18250 c-14 -44 44 -69 65 -29 9 15 8 24 -1 35 -18 21 -57 18
-64 -6z"/>
<path d="M7278 17299 c-30 -17 -16 -69 18 -69 14 0 44 27 44 40 0 10 -29 40
-38 40 -4 0 -15 -5 -24 -11z"/>
<path d="M4555 16390 c-13 -41 43 -70 64 -33 13 25 -5 53 -34 53 -15 0 -26 -7
-30 -20z"/>
<path d="M8348 15939 c-37 -21 -9 -77 32 -64 22 7 27 44 8 63 -14 14 -18 14
-40 1z"/>
<path d="M6460 15781 c-18 -34 10 -68 44 -55 35 13 23 74 -14 74 -11 0 -24 -9
-30 -19z"/>
<path d="M7379 15254 c-17 -21 0 -49 31 -49 31 0 48 28 31 49 -8 9 -21 16 -31
16 -10 0 -23 -7 -31 -16z"/>
<path d="M9120 14840 c-11 -11 -20 -28 -20 -38 0 -41 69 -69 98 -40 18 18 14
63 -6 81 -25 22 -48 21 -72 -3z"/>
<path d="M8392 13878 c-30 -30 0 -78 37 -58 32 17 21 70 -14 70 -6 0 -16 -5
-23 -12z"/>
<path d="M4480 14270 c-16 -16 -18 -25 -10 -40 12 -22 40 -26 58 -8 18 18 14
46 -8 58 -15 8 -24 6 -40 -10z"/>
<path d="M3097 13052 c-20 -22 -22 -63 -5 -80 20 -20 65 -14 82 10 21 30 20
44 -4 68 -25 25 -52 26 -73 2z"/>
<path d="M4201 12722 c-13 -25 5 -52 34 -52 15 0 26 7 30 20 13 41 -44 70 -64
32z"/>
<path d="M3704 11006 c-3 -8 -4 -23 -2 -33 5 -25 61 -25 66 0 7 37 -51 67 -64
33z"/>
<path d="M5706 13061 c-23 -26 -17 -52 16 -70 24 -14 28 -14 47 3 26 24 27 48
3 69 -24 22 -45 21 -66 -2z"/>
<path d="M8082 12838 c-19 -19 -15 -66 7 -78 11 -5 24 -10 30 -10 16 0 41 30
41 50 0 39 -52 64 -78 38z"/>
<path d="M6636 11655 c-30 -30 -10 -75 33 -75 39 0 57 24 45 58 -11 32 -53 41
-78 17z"/>
<path d="M5872 11188 c-19 -19 -14 -55 10 -72 19 -13 25 -14 43 -2 24 16 31
51 15 72 -15 17 -52 18 -68 2z"/>
<path d="M7405 9955 c-33 -32 -32 -68 1 -94 32 -25 52 -26 82 -5 15 10 22 25
22 47 0 38 -7 50 -37 66 -31 16 -41 14 -68 -14z"/>
<path d="M4637 8562 c-37 -41 -7 -104 50 -104 29 0 63 33 63 61 0 9 -7 27 -16
39 -19 28 -74 30 -97 4z"/>
<path d="M5515 8106 c-13 -19 -14 -29 -5 -45 20 -38 80 -24 80 18 0 52 -48 69
-75 27z"/>
<path d="M3042 7418 c-19 -19 -14 -56 8 -68 43 -23 83 17 60 60 -12 22 -49 27
-68 8z"/>
<path d="M5508 6149 c-35 -20 -19 -79 21 -79 51 0 69 46 29 74 -26 19 -27 19
-50 5z"/>
<path d="M4076 5454 c-30 -30 -13 -74 29 -74 42 0 59 44 29 74 -8 9 -22 16
-29 16 -7 0 -21 -7 -29 -16z"/>
<path d="M2926 5087 c-12 -9 -17 -23 -14 -42 2 -25 8 -31 33 -33 19 -3 33 2
42 14 17 24 17 30 -7 54 -24 24 -30 24 -54 7z"/>
<path d="M6651 7351 c-14 -25 -5 -48 20 -56 27 -9 51 13 47 44 -4 34 -51 43
-67 12z"/>
<path d="M8040 6905 c-26 -32 13 -81 48 -59 34 22 22 74 -18 74 -10 0 -23 -7
-30 -15z"/>
<path d="M7442 6645 c-46 -33 -48 -98 -4 -131 46 -36 132 4 132 60 0 59 -82
104 -128 71z"/>
<path d="M6510 6355 c-26 -32 13 -81 48 -59 34 22 22 74 -18 74 -10 0 -23 -7
-30 -15z"/>
<path d="M8017 5903 c-12 -12 -7 -50 8 -63 8 -6 23 -9 34 -5 25 8 36 41 21 60
-13 15 -51 20 -63 8z"/>
<path d="M6894 5023 c-5 -19 -2 -30 11 -40 11 -7 22 -13 25 -13 3 0 14 6 25
13 13 10 16 21 11 40 -5 22 -12 27 -36 27 -24 0 -31 -5 -36 -27z"/>
<path d="M8920 5035 c-26 -32 13 -81 48 -59 34 22 22 74 -18 74 -10 0 -23 -7
-30 -15z"/>
<path d="M6205 3916 c-20 -15 -17 -44 7 -59 12 -8 21 -7 32 2 36 30 -1 85 -39
57z"/>
<path d="M4917 3556 c-8 -20 1 -43 19 -50 26 -10 45 5 42 33 -2 20 -9 27 -29
29 -17 2 -29 -3 -32 -12z"/>
<path d="M7328 2749 c-24 -14 -23 -46 3 -59 37 -20 67 28 37 58 -14 14 -18 14
-40 1z"/>
<path d="M6492 2364 c-41 -29 -19 -94 33 -94 24 0 55 33 55 57 0 17 -36 53
-53 53 -7 0 -23 -7 -35 -16z"/>
<path d="M4862 1561 c-8 -4 -12 -19 -10 -32 2 -19 9 -24 33 -24 33 0 45 25 25
50 -14 17 -29 19 -48 6z"/>
<path d="M8730 3670 c-25 -25 -25 -32 -2 -60 14 -18 25 -21 45 -16 35 8 46 49
22 76 -23 25 -40 25 -65 0z"/>
<path d="M10128 2629 c-25 -14 -24 -65 1 -79 11 -5 24 -10 30 -10 16 0 41 30
41 50 0 21 -25 50 -43 50 -7 0 -20 -5 -29 -11z"/>
<path d="M11306 1934 c-34 -34 -9 -78 40 -72 37 4 51 29 36 62 -13 30 -51 35
-76 10z"/>
<path d="M11063 1229 c-26 -9 -32 -56 -11 -77 16 -16 53 -15 68 2 29 36 -13
92 -57 75z"/>
<path d="M12130 20002 c-51 -24 -110 -82 -110 -108 0 -18 26 -28 107 -43 69
-13 103 -4 176 46 51 36 61 56 47 98 l-11 34 -81 -2 c-60 -2 -92 -8 -128 -25z
m200 -32 c0 -21 -54 -64 -106 -86 -31 -13 -48 -13 -105 -4 -59 10 -68 14 -60
28 17 31 52 62 69 62 9 0 26 7 37 15 12 10 31 13 50 10 16 -3 44 -1 60 3 34
10 55 -1 55 -28z"/>
<path d="M12540 19853 c-8 -3 -18 -10 -21 -16 -8 -12 37 -128 53 -138 13 -8
75 0 101 13 28 14 15 88 -15 88 -7 0 -23 11 -37 24 -29 27 -58 37 -81 29z m67
-53 c18 -16 38 -30 43 -30 6 0 10 -9 10 -20 0 -14 -7 -20 -24 -20 -13 0 -31
-2 -39 -5 -9 -4 -19 8 -30 37 -30 77 -18 88 40 38z"/>
<path d="M12885 18815 c-54 -38 -68 -60 -53 -88 13 -26 83 -68 101 -62 8 4 36
33 62 66 34 44 46 66 43 87 -3 25 -7 27 -53 29 -43 2 -57 -3 -100 -32z m125
-6 c0 -6 -19 -35 -42 -64 l-42 -54 -29 17 c-58 34 -57 39 13 87 36 25 100 34
100 14z"/>
<path d="M13561 18723 c-12 -14 -24 -38 -28 -52 -3 -14 -14 -43 -24 -63 -11
-21 -19 -41 -19 -47 0 -5 25 -35 55 -68 31 -32 65 -75 75 -95 32 -60 108 -89
129 -49 6 10 14 44 17 75 7 54 6 57 -36 112 -35 46 -44 67 -50 117 -5 45 -12
65 -29 79 -33 26 -66 23 -90 -9z m77 -16 c6 -7 14 -39 18 -71 5 -44 16 -69 46
-112 38 -53 40 -58 33 -110 -3 -30 -10 -54 -15 -54 -24 0 -60 25 -70 49 -5 14
-33 51 -61 81 -28 30 -55 60 -60 67 -7 7 -3 22 11 45 11 18 20 42 20 53 0 49
53 83 78 52z"/>
<path d="M12627 18663 c-27 -30 -21 -50 25 -83 51 -37 80 -38 107 -4 29 37 26
61 -8 78 -51 27 -104 30 -124 9z m89 -28 c31 -13 34 -17 24 -35 -6 -11 -16
-20 -23 -20 -17 0 -77 38 -77 48 0 25 26 28 76 7z"/>
<path d="M14462 18453 c-36 -52 -82 -156 -82 -185 0 -34 36 -53 81 -43 24 6
87 68 113 113 8 13 -19 107 -37 130 -17 21 -54 14 -75 -15z m72 -50 c18 -52
15 -60 -42 -121 -21 -23 -39 -32 -54 -30 -32 4 -33 28 -4 84 14 27 32 64 41
82 21 45 40 40 59 -15z"/>
<path d="M13989 18341 c-31 -32 -35 -54 -18 -110 10 -34 8 -42 -26 -104 -20
-37 -42 -67 -48 -67 -19 1 -67 76 -67 104 0 30 -31 96 -53 114 -8 7 -41 15
-73 18 -69 7 -73 5 -99 -76 -10 -30 -29 -75 -41 -98 -13 -24 -26 -60 -30 -80
-3 -21 -12 -57 -20 -81 -26 -80 -19 -122 26 -174 48 -54 63 -93 80 -207 7 -47
19 -104 26 -128 8 -23 14 -50 14 -59 0 -35 49 -81 117 -108 54 -22 92 -29 184
-34 111 -7 118 -9 194 -50 43 -23 87 -41 99 -39 11 2 39 28 63 59 23 31 69 76
102 100 65 48 111 109 111 149 0 83 -22 207 -40 230 -33 41 -39 64 -29 108 11
51 -8 111 -50 153 -33 33 -40 34 -65 16 -15 -11 -16 -18 -7 -34 15 -29 -10
-38 -32 -12 -9 10 -23 19 -31 19 -20 0 -27 26 -11 40 9 7 12 22 9 39 -4 20 1
36 21 59 34 41 30 66 -12 70 -33 3 -51 20 -143 134 -68 85 -103 96 -151 49z
m112 -50 c24 -26 66 -74 92 -105 36 -41 55 -56 74 -56 l26 0 -22 -24 c-13 -14
-24 -38 -24 -58 -1 -18 -9 -38 -17 -45 -20 -15 -3 -63 28 -79 12 -6 31 -19 42
-29 17 -15 23 -16 50 -5 26 11 30 17 25 37 -5 23 -5 23 18 8 31 -20 50 -81 38
-123 -11 -38 0 -86 27 -116 25 -28 31 -54 38 -161 l5 -91 -39 -45 c-22 -25
-60 -57 -84 -72 -23 -15 -60 -52 -81 -82 -41 -60 -55 -65 -95 -36 -67 46 -125
64 -227 68 -82 3 -114 10 -178 35 -43 17 -85 40 -92 52 -17 26 -32 85 -50 199
-22 132 -34 166 -82 229 -28 37 -43 66 -43 86 0 44 46 214 69 253 10 19 26 58
36 87 15 46 20 52 44 52 70 0 121 -48 121 -114 0 -34 62 -120 89 -124 26 -4
58 21 67 52 3 11 17 38 31 58 25 38 26 46 7 120 -8 34 18 78 45 78 10 0 38
-22 62 -49z"/>
<path d="M14240 17855 c-25 -30 14 -74 53 -60 19 8 27 37 15 59 -11 20 -51 21
-68 1z"/>
<path d="M10970 17607 c-42 -20 -45 -25 -48 -65 -3 -36 1 -46 27 -70 74 -67
111 -93 128 -90 24 4 59 60 80 124 l16 53 -27 35 c-25 33 -31 36 -79 36 -33
-1 -69 -9 -97 -23z m155 -34 c17 -25 17 -28 -5 -82 -35 -85 -43 -91 -82 -55
-18 17 -46 38 -61 48 -24 14 -28 23 -25 53 3 31 8 38 38 49 19 7 54 13 76 13
34 1 45 -4 59 -26z"/>
<path d="M13621 16628 c-14 -38 1 -247 19 -258 23 -14 167 -13 176 2 4 7 9 45
11 85 2 64 0 76 -19 92 -25 23 -46 44 -75 76 -31 34 -99 36 -112 3z m90 -21
c9 -7 21 -22 28 -35 7 -13 23 -27 37 -32 22 -9 24 -14 22 -79 l-2 -69 -61 -4
c-85 -4 -90 3 -88 127 0 55 2 101 2 103 3 7 48 0 62 -11z"/>
<path d="M9045 15770 c-4 -6 -2 -25 3 -43 6 -17 13 -48 16 -69 7 -38 20 -48
64 -48 37 0 46 8 72 59 l22 45 -22 18 c-12 10 -34 21 -49 24 -14 3 -34 9 -43
15 -23 12 -55 12 -63 -1z m94 -40 c22 -6 42 -14 45 -18 3 -4 -5 -22 -16 -40
-21 -33 -65 -45 -72 -19 -21 77 -23 98 -10 93 7 -3 31 -10 53 -16z"/>
<path d="M11127 15543 c-9 -8 -7 -110 2 -143 5 -17 25 -34 65 -55 57 -30 58
-30 72 -10 24 32 1 102 -58 178 -28 35 -64 48 -81 30z m65 -55 c13 -18 28 -43
35 -55 12 -23 27 -83 21 -83 -16 0 -84 44 -90 58 -10 26 -9 112 1 112 5 0 20
-15 33 -32z"/>
<path d="M11155 14912 c-17 -26 -30 -67 -40 -127 -8 -50 -26 -133 -40 -185
-16 -57 -24 -108 -21 -129 3 -18 24 -63 47 -100 23 -36 50 -93 58 -126 19 -69
35 -77 97 -48 36 16 41 25 66 98 14 44 27 102 27 129 1 42 -3 52 -33 80 -40
38 -50 70 -30 107 30 60 4 285 -38 322 -33 29 -65 22 -93 -21z m73 -1 c15 -9
41 -144 42 -217 0 -28 -6 -67 -14 -85 -18 -45 -4 -92 35 -120 29 -20 30 -25
26 -73 -2 -28 -13 -80 -22 -115 -16 -56 -22 -65 -52 -77 -42 -18 -49 -14 -57
33 -3 21 -26 72 -51 113 -25 41 -48 86 -52 99 -6 25 9 105 37 191 10 30 21 82
24 114 7 68 38 146 58 146 7 0 19 -4 26 -9z"/>
<path d="M9955 14887 c-55 -47 -97 -67 -143 -67 -21 0 -47 -7 -58 -15 -10 -8
-33 -15 -50 -15 -17 0 -38 -7 -45 -16 -16 -19 -17 -80 -2 -95 6 -6 46 -13 89
-16 165 -11 153 -14 237 52 42 33 98 74 124 90 40 25 48 35 48 60 0 25 -5 30
-35 38 -19 5 -55 11 -80 14 -40 4 -49 1 -85 -30z m142 -9 c18 -7 32 -17 30
-22 -2 -6 -26 -23 -53 -39 -27 -16 -69 -46 -94 -66 -90 -75 -92 -76 -180 -62
-43 7 -87 10 -98 7 -13 -5 -22 -1 -26 10 -11 30 3 54 32 54 15 0 36 6 47 14
11 7 43 16 72 19 54 6 85 21 141 69 36 31 75 36 129 16z"/>
<path d="M8816 13683 c-14 -14 -4 -77 19 -121 14 -26 25 -63 25 -85 0 -106 65
-139 193 -99 31 10 62 23 67 28 6 6 6 31 -1 69 -6 33 -13 70 -15 81 -4 24 -55
50 -79 40 -20 -7 -80 17 -91 36 -18 30 -102 67 -118 51z m95 -69 c27 -27 47
-37 80 -40 87 -10 86 -9 93 -68 3 -30 8 -61 12 -69 7 -18 -76 -47 -135 -47
-49 0 -71 26 -71 86 0 27 -11 62 -30 99 -16 31 -27 61 -24 66 11 18 39 8 75
-27z"/>
<path d="M8762 13318 c-18 -18 -15 -64 8 -108 25 -50 33 -54 75 -40 40 13 44
33 19 83 -34 67 -74 93 -102 65z m63 -55 c30 -45 31 -59 6 -66 -15 -4 -24 3
-35 28 -18 37 -21 75 -6 75 5 0 21 -17 35 -37z"/>
<path d="M11718 13263 c-8 -10 -20 -37 -27 -60 -16 -58 9 -149 46 -166 34 -15
54 0 76 59 l18 48 -25 51 c-14 28 -26 55 -26 62 0 10 -22 23 -39 23 -4 0 -15
-8 -23 -17z m42 -41 c0 -9 9 -31 19 -49 19 -30 19 -34 4 -72 -21 -53 -39 -52
-54 2 -14 48 -13 85 1 122 11 28 30 25 30 -3z"/>
<path d="M8290 12960 c-12 -7 -11 -15 9 -50 19 -35 22 -50 16 -98 -9 -78 2
-90 92 -104 86 -12 100 -8 118 35 7 18 23 41 34 51 50 45 6 104 -69 91 -39 -7
-43 -5 -84 39 -43 47 -81 59 -116 36z m105 -66 c41 -45 44 -47 85 -41 23 3 49
3 56 0 18 -7 18 -32 0 -39 -7 -3 -22 -23 -31 -45 l-18 -40 -61 7 c-83 9 -88
15 -80 84 5 43 2 64 -10 88 -15 30 -15 32 0 32 9 0 35 -21 59 -46z"/>
<path d="M11998 12663 c-37 -41 -68 -89 -68 -106 0 -39 94 -62 122 -29 21 23
58 98 58 116 0 49 -73 61 -112 19z m77 -13 c3 -5 -6 -32 -20 -60 -20 -39 -31
-50 -49 -50 -46 0 -48 22 -8 73 35 44 64 58 77 37z"/>
<path d="M11515 12362 c-38 -32 -49 -48 -69 -112 -38 -116 -45 -154 -32 -176
20 -35 123 -124 143 -124 24 0 68 45 83 85 12 32 5 95 -15 135 -9 19 -10 42
-2 97 9 60 8 75 -6 96 -26 40 -51 39 -102 -1z m80 -21 c3 -10 1 -49 -5 -85 -9
-54 -8 -71 5 -95 26 -51 28 -102 5 -139 -32 -52 -46 -51 -106 9 -63 62 -64 71
-28 184 20 63 33 87 62 112 43 37 58 41 67 14z"/>
<path d="M8928 12018 c-3 -48 -1 -88 4 -95 17 -21 48 -15 80 17 26 27 30 36
25 67 -7 43 -52 93 -83 93 -20 0 -22 -6 -26 -82z m82 -14 c0 -23 -31 -64 -47
-64 -11 0 -14 6 -9 23 3 12 6 42 6 67 l1 45 24 -28 c14 -15 25 -35 25 -43z"/>
<path d="M8656 11987 c-16 -16 -26 -41 -30 -78 -14 -108 -26 -145 -57 -168
-16 -12 -41 -45 -55 -74 -29 -57 -65 -107 -106 -149 -14 -16 -30 -42 -33 -60
-6 -26 -3 -35 15 -50 27 -22 60 -23 142 -2 79 20 95 34 114 103 9 31 37 87 63
125 76 113 81 121 81 128 0 4 -11 19 -25 34 -23 25 -25 33 -20 79 5 36 2 62
-10 93 -20 49 -43 55 -79 19z m54 -36 c7 -19 9 -49 5 -83 -6 -46 -4 -57 15
-81 26 -33 24 -39 -45 -134 -24 -34 -55 -93 -67 -130 l-23 -68 -50 -13 c-85
-23 -94 -24 -120 -18 -36 9 -31 27 25 93 27 32 65 87 84 123 19 36 44 71 55
77 31 19 48 61 60 147 16 114 37 144 61 87z"/>
<path d="M10889 11827 c-22 -15 -35 -32 -37 -49 -3 -23 2 -30 34 -43 54 -22
66 -19 97 30 23 36 26 48 17 65 -15 28 -68 26 -111 -3z m81 -19 c-1 -7 -9 -23
-19 -36 -16 -18 -24 -21 -45 -12 -33 12 -33 26 2 44 33 19 62 20 62 4z"/>
<path d="M8101 11150 c-10 -17 -26 -57 -36 -91 l-19 -60 32 -31 c26 -27 33
-29 46 -18 9 7 16 16 16 21 0 4 11 25 25 45 18 27 25 50 25 85 0 66 -7 79 -41
79 -22 0 -34 -8 -48 -30z m57 -43 c3 -54 -44 -136 -65 -114 -11 11 -10 24 7
71 32 95 53 111 58 43z"/>
<path d="M8082 10492 c-9 -10 -35 -45 -57 -79 -24 -37 -55 -70 -77 -83 -20
-11 -49 -35 -63 -52 -28 -33 -28 -31 -9 -156 5 -35 3 -45 -14 -60 -31 -26 -37
-59 -13 -71 13 -7 22 -8 26 -1 3 5 13 10 21 10 18 0 18 -39 0 -46 -13 -5 -28
-29 -73 -117 -42 -81 103 -83 176 -3 30 32 38 32 68 5 18 -18 25 -20 38 -9 18
15 20 41 3 58 -23 23 2 25 27 2 20 -19 27 -21 40 -10 20 16 19 39 -1 62 -16
16 -16 21 1 64 14 38 16 63 11 133 -4 60 -2 102 8 140 18 69 10 126 -25 177
-33 48 -63 60 -87 36z m67 -59 c22 -34 23 -43 16 -107 -8 -67 -9 -127 -6 -239
1 -27 -6 -61 -15 -78 -9 -18 -14 -42 -11 -55 4 -21 1 -23 -20 -18 -29 8 -55
-13 -48 -38 6 -16 4 -17 -18 -7 -23 10 -28 7 -62 -30 -21 -22 -45 -41 -54 -41
-9 0 -22 -5 -28 -11 -12 -12 -53 -3 -53 12 0 12 50 91 67 105 8 7 17 29 20 49
7 41 -5 55 -47 55 l-24 0 22 16 c25 18 30 75 10 131 -18 49 -2 82 62 124 40
27 67 56 99 107 24 39 48 68 55 66 6 -2 22 -21 35 -41z"/>
<path d="M8545 9538 c-27 -5 -60 -12 -72 -14 -41 -8 -27 -60 31 -121 36 -39
47 -39 151 -5 77 26 80 28 89 65 11 48 0 60 -72 75 -59 13 -56 13 -127 0z
m144 -38 c54 -14 28 -54 -49 -76 -98 -28 -92 -29 -127 17 -18 24 -33 46 -33
51 0 4 17 8 38 9 20 0 46 4 57 8 19 8 64 5 114 -9z"/>
<path d="M8091 8758 c-23 -24 -26 -49 -11 -79 9 -16 22 -19 80 -19 58 0 71 3
80 19 5 11 10 24 10 30 0 18 -64 58 -102 65 -30 5 -40 3 -57 -16z m107 -34
c37 -24 25 -34 -38 -34 -51 0 -60 3 -60 18 0 42 44 49 98 16z"/>
<path d="M7627 6855 c-19 -19 -12 -48 25 -102 36 -54 54 -63 142 -74 38 -5 90
-17 114 -26 43 -16 45 -16 58 2 21 28 18 33 -38 61 -29 14 -60 32 -68 38 -8 7
-37 21 -63 30 -27 10 -68 33 -93 52 -50 38 -57 40 -77 19z m66 -47 c22 -18 61
-39 86 -48 46 -17 121 -58 121 -67 0 -3 -8 -2 -17 2 -10 3 -43 8 -74 10 -82 6
-105 19 -139 72 -46 73 -40 81 23 31z"/>
<path d="M7937 6513 c-30 -29 33 -128 104 -161 57 -27 76 -24 85 14 9 35 -1
49 -75 106 -57 44 -97 58 -114 41z m104 -69 c38 -29 59 -52 59 -65 0 -12 -3
-19 -8 -17 -67 30 -91 46 -109 75 -45 68 -24 71 58 7z"/>
<path d="M8617 6353 c-17 -16 -3 -55 44 -121 36 -51 58 -74 77 -77 15 -3 52
-13 82 -21 162 -45 164 -45 152 25 -9 55 -41 81 -114 92 -29 5 -64 18 -78 29
-76 62 -106 80 -130 80 -15 0 -30 -3 -33 -7z m111 -67 c51 -44 83 -59 153 -70
42 -7 54 -19 64 -59 9 -34 0 -35 -93 -2 -39 14 -83 25 -96 25 -18 0 -35 15
-70 64 -25 36 -46 69 -46 75 0 24 39 9 88 -33z"/>
<path d="M9633 5829 c-21 -21 -16 -134 8 -199 20 -55 24 -59 74 -78 92 -35
150 -4 138 73 -3 17 2 49 10 73 16 46 6 121 -17 123 -6 1 -29 3 -51 4 -22 1
-65 6 -95 10 -40 5 -58 3 -67 -6z m177 -33 c32 -1 40 -36 22 -101 -7 -27 -11
-61 -8 -75 3 -14 2 -31 -2 -36 -13 -20 -57 -24 -86 -9 -16 8 -34 15 -42 15 -7
0 -16 12 -19 28 -4 15 -10 35 -16 44 -5 10 -9 48 -9 84 l0 67 68 -8 c37 -4 78
-8 92 -9z"/>
<path d="M12565 2705 c-16 -13 -34 -24 -40 -25 -5 0 -22 -10 -37 -23 -26 -21
-27 -26 -30 -137 l-3 -114 28 -10 c46 -16 79 9 99 74 36 118 58 227 51 247 -8
20 -35 15 -68 -12z m21 -96 c-9 -22 -16 -50 -16 -62 0 -43 -31 -116 -52 -123
-11 -3 -23 -2 -28 3 -4 4 -5 52 -1 106 l6 97 50 29 c47 27 50 28 53 9 2 -11
-4 -37 -12 -59z"/>
<path d="M12294 2660 c-24 -9 -54 -47 -54 -67 0 -15 51 -43 79 -43 25 0 74 70
69 97 -4 21 -58 28 -94 13z m49 -50 c-18 -32 -22 -34 -47 -24 -37 14 -4 52 47
53 17 1 17 0 0 -29z"/>
<path d="M12326 1455 c-49 -29 -54 -38 -55 -99 -1 -28 -2 -60 -3 -70 -4 -27
37 -47 86 -44 l40 3 24 76 c25 76 25 76 6 115 -23 47 -45 51 -98 19z m73 -37
c8 -26 6 -44 -9 -88 -18 -52 -21 -55 -52 -55 l-33 0 -2 63 c-1 62 -1 63 35 87
21 13 40 24 44 24 3 1 11 -14 17 -31z"/>
</g>
</svg>
