<?xml version="1.0" encoding="UTF-8" standalone="no"?>
<!-- Created with Inkscape (http://www.inkscape.org/) -->

<svg
   version="1.1"
   id="svg2"
   width="1000"
   height="666.66669"
   viewBox="0 0 1000 666.66669"
   sodipodi:docname="map2.eps"
   xmlns:inkscape="http://www.inkscape.org/namespaces/inkscape"
   xmlns:sodipodi="http://sodipodi.sourceforge.net/DTD/sodipodi-0.dtd"
   xmlns="http://www.w3.org/2000/svg"
   xmlns:svg="http://www.w3.org/2000/svg">
  <defs
     id="defs6">
    <clipPath
       clipPathUnits="userSpaceOnUse"
       id="clipPath316">
      <path
         d="M 7300,200 H 200 v 4600 h 7100 z"
         id="path314" />
    </clipPath>
  </defs>
  <sodipodi:namedview
     id="namedview4"
     pagecolor="#ffffff"
     bordercolor="#000000"
     borderopacity="0.25"
     inkscape:showpageshadow="2"
     inkscape:pageopacity="0.0"
     inkscape:pagecheckerboard="0"
     inkscape:deskcolor="#d1d1d1" />
  <g
     id="g8"
     inkscape:groupmode="layer"
     inkscape:label="ink_ext_XXXXXX"
     transform="matrix(1.3333333,0,0,-1.3333333,0,666.66667)">
    <g
       id="g10"
       transform="scale(0.1)">
      <path
         d="M 7500,0 H 0 V 5000 H 7500 V 0"
         style="fill:#ffffff;fill-opacity:1;fill-rule:nonzero;stroke:none"
         id="path12" />
      <path
         d="M 7300,200 H 200 V 4800 H 7300 V 200"
         style="fill:#b8e8f1;fill-opacity:1;fill-rule:nonzero;stroke:none"
         id="path14" />
      <path
         d="m 3357.31,3443.71 c 4.12,42.45 8.27,84.9 12.38,127.35 -52.84,18.72 -105.7,37.43 -158.65,56.18 -25.53,-41.64 -51,-83.18 -76.52,-124.77 75.01,-16.95 146.88,-46.88 222.79,-58.76"
         style="fill:#b9a47e;fill-opacity:1;fill-rule:evenodd;stroke:none"
         id="path16" />
      <path
         d="m 3101.66,3448.89 c -95.53,-155.77 -190.97,-311.38 -286.46,-467.09 158.16,-65.11 320.64,-119.34 479.47,-182.89 19.03,195.22 37.97,390.46 56.9,585.71 -85.03,14.31 -164.96,50.3 -249.91,64.27"
         style="fill:#48bf8b;fill-opacity:1;fill-rule:evenodd;stroke:none"
         id="path18" />
      <path
         d="m 2987.91,2851.07 c -68.45,25.5 -136.72,51.44 -204.23,79.34 -51.54,-84.03 -103.11,-168.12 -154.77,-252.36 93.95,-30.95 187.7,-61.83 281.39,-92.69 25.53,88.71 57.27,175.59 77.61,265.71"
         style="fill:#67b2d0;fill-opacity:1;fill-rule:evenodd;stroke:none"
         id="path20" />
      <path
         d="m 3044.59,2830.02 c -20.61,-89.26 -52.07,-175.43 -77.25,-263.45 98.48,-32.44 196.87,-64.84 295.15,-97.21 8.76,89.23 17.43,178.48 26.14,267.73 -80.73,32.58 -162.41,62.71 -244.04,92.93"
         style="fill:#91cedd;fill-opacity:1;fill-rule:evenodd;stroke:none"
         id="path22" />
      <path
         d="m 3776.65,3183.34 c 10.31,76.76 29.33,154.4 32.28,232.18 -114.16,40.43 -228.31,80.85 -342.56,121.31 -8.14,-84.08 -16.31,-168.14 -24.46,-252.21 107.35,-44.64 220.25,-76.49 334.72,-101.81 0.02,0.19 -0.02,0.34 0.02,0.53"
         style="fill:#7cc2d7;fill-opacity:1;fill-rule:evenodd;stroke:none"
         id="path24" />
      <path
         d="m 3866.33,3395.2 c -5.06,-70.66 -20.11,-140.54 -29.68,-211.86 -0.65,-4.72 -2.13,-8.86 -4.26,-12.41 60.68,-12.34 121.64,-23.12 182.24,-33.26 0.86,67.96 1.72,135.92 2.56,204.11 -50.33,17.82 -100.58,35.62 -150.86,53.42"
         style="fill:#67b2d0;fill-opacity:1;fill-rule:evenodd;stroke:none"
         id="path26" />
      <path
         d="m 3374.25,2590.1 c -4.98,-50.88 -9.88,-101.78 -14.88,-152.66 199.96,-65.85 399.65,-131.62 599.31,-197.35 12.87,-4.23 25.99,-7.69 39.02,-11.44 0.64,-0.18 1.52,0.26 2.23,0.54 0.72,0.29 1.34,0.76 3.36,1.93 0.56,44.98 1.13,89.99 1.7,135"
         style="fill:#48bf8b;fill-opacity:1;fill-rule:evenodd;stroke:none"
         id="path28" />
      <path
         d="m 4005.77,2428.5 c 2.69,215.66 5.41,431.75 8.12,648.82 -195.68,32.69 -577.96,145.53 -577.96,145.53 -18.46,-190.28 -37.04,-380.54 -55.65,-570.8"
         style="fill:#67b2d0;fill-opacity:1;fill-rule:evenodd;stroke:none"
         id="path30" />
      <path
         d="m 3816.88,4201.02 c -3.65,-42.25 -7.87,-84.44 -12.11,-126.62 -9.1,-90.66 -18.48,-181.3 -27.6,-271.96 -2.71,-26.98 -4.96,-54 -7.65,-83.72 62.32,-22.04 124.49,-44.03 186.58,-66 92.73,68.47 147.17,173.91 220.52,261.3 3.55,4.25 7.03,8.57 10.58,12.83 -130.89,80.98 -252.21,175.73 -370.32,274.17"
         style="fill:#67b2d0;fill-opacity:1;fill-rule:evenodd;stroke:none"
         id="path32" />
      <path
         d="m 4221.77,3975.91 c 1.39,-0.85 2.5,-1.83 3.67,-2.79 79.71,97.01 157.09,195.9 232.06,296.61 -64.97,87.09 -132,172.79 -193.75,260.75 -89.69,-59.27 -179.43,-118.47 -269.14,-177.71 -49.57,-32.75 -99.16,-65.46 -148.73,-98.18 119.79,-100.2 242.68,-196.7 375.89,-278.68"
         style="fill:#91cedd;fill-opacity:1;fill-rule:evenodd;stroke:none"
         id="path34" />
      <path
         d="m 4728.1,3812.71 c -55.43,147.62 -140.92,279.56 -233.77,407.07 -89.12,-118.24 -182.23,-232.97 -275.29,-348.18 -65.7,-81.31 -119.29,-173.05 -196.96,-242.21 160.02,-56.6 319.59,-113.04 479.5,-169.6 6.56,9.75 11.97,17.55 17.15,25.5 70.39,107.92 140.78,215.84 211.17,323.77 -0.61,1.22 -1.31,2.31 -1.8,3.65"
         style="fill:#7cc2d7;fill-opacity:1;fill-rule:evenodd;stroke:none"
         id="path36" />
      <path
         d="m 4344.39,3809.83 c -102.52,37.04 -136.19,-54.3 -141.17,-85.72 -8.07,-51.06 20.49,-85.04 64.88,-105.56 29.3,-13.53 60.12,-22.74 89.77,-35.27 32.89,-13.88 92.71,-58.93 125.46,-20.2 29.54,34.94 59.15,136.99 -21.67,136.6 -29.09,-0.14 -50.45,-1.35 -69.89,22.33 -21.74,26.51 -11.25,69.75 -47.38,87.82"
         style="fill:#5696ce;fill-opacity:1;fill-rule:evenodd;stroke:none"
         id="path38" />
      <path
         d="m 4627.77,4165.55 c 59.02,-87.63 112.73,-178.33 154.84,-275.65 l 107.31,164.53 c -0.24,88.03 -1.39,176.12 -4.36,264.13 -88.42,-47.19 -175.45,-96.01 -257.79,-153.01"
         style="fill:#48bf8b;fill-opacity:1;fill-rule:evenodd;stroke:none"
         id="path40" />
      <path
         d="m 4878.16,4382.58 c 1.62,0.85 3.2,1.4 4.78,1.96 -5.33,118.43 -14.37,236.65 -29.74,354.26 -80.86,0.05 -161.7,0.09 -242.56,0.33 -21.78,0.07 -39.63,-5.11 -57.83,-17.2 -74.1,-49.26 -148.32,-98.34 -222.56,-147.43 84.69,-121.42 178.22,-238.16 263.59,-359.7 90.51,63.03 186.74,116.08 284.32,167.78"
         style="fill:#67b2d0;fill-opacity:1;fill-rule:evenodd;stroke:none"
         id="path42" />
      <path
         d="m 5294.04,4690.82 c -9.1,15.84 -17.72,31.96 -26.54,47.93 h -30.55 c -107.93,0 -215.86,-0.05 -323.79,-0.04 25.04,-196.83 33.77,-394.97 36.09,-593.32 l 252.23,386.73 c 29.26,44.87 58.53,89.75 87.79,134.62 4.83,7.38 10.35,14.37 4.77,24.08"
         style="fill:#67b2d0;fill-opacity:1;fill-rule:evenodd;stroke:none"
         id="path44" />
      <path
         d="m 1028.46,2215.92 c 1.9,-1.13 3.53,-2.38 5.04,-3.7 74.57,109.5 151.29,217.74 211.82,335.71 -63.42,73.05 -128.42,144.7 -195.57,214.36 -59.953,-62.26 -119.953,-124.48 -179.879,-186.77 -47.305,-49.17 -94.48,-98.46 -141.726,-147.68 102.136,-67.62 194.597,-149.34 300.315,-211.92"
         style="fill:#67b2d0;fill-opacity:1;fill-rule:evenodd;stroke:none"
         id="path46" />
      <path
         d="m 998.164,2164.1 c -109.805,65.02 -205.332,150.69 -312.266,219.73 -65.468,-68.24 -130.988,-136.45 -196.445,-204.7 -6.394,-6.67 -12.226,-13.88 -20.207,-22.99 137.988,-63.11 275.188,-125.89 412.297,-188.6 35.598,67.57 76.406,132.03 118.807,195.55 -0.733,0.36 -1.455,0.58 -2.186,1.01"
         style="fill:#b9a47e;fill-opacity:1;fill-rule:evenodd;stroke:none"
         id="path48" />
      <path
         d="m 1545.06,2181.73 c -83.89,107.23 -169.34,213.39 -257.64,317.07 -103.12,-193.86 -248.21,-362.54 -351.287,-556.24 120.467,-55.1 240.917,-110.21 361.837,-165.52 5.23,7.74 9.46,13.46 13.14,19.51 78.08,128.29 156.15,256.57 234.22,384.87 -0.09,0.1 -0.18,0.2 -0.27,0.31"
         style="fill:#91cedd;fill-opacity:1;fill-rule:evenodd;stroke:none"
         id="path50" />
      <path
         d="m 1404.38,3130.54 c -99.71,-103.53 -199.4,-207.07 -299.12,-310.6 172.5,-178.81 330.87,-370.7 484.13,-566.12 75.59,124.2 151.24,248.35 226.9,372.52 -119.05,182 -264.23,344.77 -411.91,504.2"
         style="fill:#7cc2d7;fill-opacity:1;fill-rule:evenodd;stroke:none"
         id="path52" />
      <path
         d="m 1493.55,2895.16 c -1.42,-0.98 0,0 -5.22,-1.83 -61.6,-21.53 -114.68,72.21 -180.75,29.77 -54.15,-34.8 -72.29,-117.89 -7.53,-156.13 21.19,-12.52 43.35,-21.59 60.85,-39.3 14.68,-14.85 17.19,-39.16 17.68,-58.84 1.09,-43.4 32.29,-82.55 78.09,-77.16 30.22,3.55 60.71,22.07 67.02,54.33 7.6,38.9 -8.1,78.56 3.34,116.66 14.97,49.91 29.64,144.01 -33.48,132.5"
         style="fill:#5696ce;fill-opacity:1;fill-rule:evenodd;stroke:none"
         id="path54" />
      <path
         d="m 1810.8,3143.1 c -32.11,92.68 -64.18,185.37 -96.3,278.04 -2.24,6.51 -5.38,12.69 -8.83,20.7 -6.21,-5.86 -10.94,-9.97 -15.28,-14.46 -81.48,-84.5 -162.93,-169.05 -244.35,-253.6 70.29,-75.92 139.96,-152.66 206.68,-231.73 53.25,66.59 106.34,133.29 158.08,201.05"
         style="fill:#67b2d0;fill-opacity:1;fill-rule:evenodd;stroke:none"
         id="path56" />
      <path
         d="m 1834.13,3075.89 c -46.92,-60.72 -94.65,-120.82 -142.58,-180.76 56.03,-68.52 109.67,-138.89 159.11,-212.35 21.8,35.77 43.57,71.56 65.38,107.33 7.76,12.72 9.29,23.39 4.29,37.73 -28.84,82.65 -57.52,165.35 -86.2,248.05"
         style="fill:#48bf8b;fill-opacity:1;fill-rule:evenodd;stroke:none"
         id="path58" />
      <path
         d="m 2780.99,1168.14 c 49.04,-142.03 98.07,-284.05 147.13,-426.07 2.55,-7.41 5.73,-14.609 9.27,-23.539 36.62,17.508 71.45,35.36 107.31,50.801 16.48,7.098 24.11,17.297 28.71,34.297 33.02,121.922 66.15,243.791 99.25,365.691 -130.59,-1.78 -261.23,-5.96 -391.67,-1.18"
         style="fill:#5696ce;fill-opacity:1;fill-rule:evenodd;stroke:none"
         id="path60" />
      <path
         d="m 2438.42,2160.19 c 110.02,4.1 219.01,22.11 328.07,37.94 22.3,68.05 43.19,136.55 61.7,205.8 -101.28,33.35 -202.56,66.69 -303.79,100.02 -3.57,-4.28 -5.87,-6.45 -7.49,-9.06 -39.05,-63.28 -77.68,-126.81 -117.33,-189.71 -7.31,-11.61 -4.01,-20.91 -0.36,-31.48 13.07,-37.84 26.13,-75.67 39.2,-113.51"
         style="fill:#67b2d0;fill-opacity:1;fill-rule:evenodd;stroke:none"
         id="path62" />
      <path
         d="m 2458.85,2101.03 c 44.69,-129.46 89.39,-258.91 134.1,-388.36 50.68,140.75 104.1,280.63 152.37,422.14 -95.17,-14.15 -190.51,-28.84 -286.47,-33.78"
         style="fill:#b9a47e;fill-opacity:1;fill-rule:evenodd;stroke:none"
         id="path64" />
      <path
         d="m 2770.01,1906.54 c -42.08,-115.06 -85.07,-229.83 -124.64,-345.69 35.87,-103.85 71.73,-207.71 107.59,-311.55 147,-6.93 294.29,-1.38 441.48,0.27 42.14,155.13 84.35,310.24 126.54,465.36 -189.71,44.72 -373.87,110.43 -550.97,191.61"
         style="fill:#67b2d0;fill-opacity:1;fill-rule:evenodd;stroke:none"
         id="path66" />
      <path
         d="m 2923.32,2372.61 c -37.33,-138.79 -83.95,-274.63 -132.82,-409.76 175.42,-80.92 358.13,-145.7 546.22,-190.03 20.13,74 40.23,148 60.36,221.99 18.22,67.02 36.49,134.02 55.45,203.57 -176.68,58.16 -353.01,116.22 -529.21,174.23"
         style="fill:#7cc2d7;fill-opacity:1;fill-rule:evenodd;stroke:none"
         id="path68" />
      <path
         d="m 4693.06,2405.34 c -154.51,-9.52 -309.02,-19.04 -463.36,-28.55 -1.33,-4.47 -2.52,-6.66 -2.56,-8.88 -2.28,-166.23 -4.53,-332.45 -6.77,-498.68 159.23,9.15 317.34,33.04 476.34,44.47 0.82,163.92 10.8,328.15 -3.65,491.64"
         style="fill:#b9a47e;fill-opacity:1;fill-rule:evenodd;stroke:none"
         id="path70" />
      <path
         d="m 4851.54,2415.11 c -32.97,-2.03 -65.88,-4.07 -98.85,-6.1 14.84,-163.49 5,-327.72 4.04,-491.65 29.18,1.44 58.38,2.41 87.64,2.61 12.93,164.78 17.17,330.11 7.17,495.14"
         style="fill:#67b2d0;fill-opacity:1;fill-rule:evenodd;stroke:none"
         id="path72" />
      <path
         d="m 4219.55,1809.18 c -2.07,-151.94 -4.16,-303.89 -6.22,-455.84 -0.01,-2.35 0.55,-4.74 1.02,-7.07 0.12,-0.67 0.74,-1.32 1.29,-1.82 0.57,-0.53 1.33,-0.89 2.95,-1.94 6.62,3.05 13.87,6.18 20.96,9.66 93.24,45.75 186.48,91.49 279.64,137.35 98.4,48.43 196.78,96.86 295.16,145.28 9.65,74.84 18.09,149.89 24.92,225.08 -207.65,-2.04 -412.71,-38.86 -619.72,-50.7"
         style="fill:#67b2d0;fill-opacity:1;fill-rule:evenodd;stroke:none"
         id="path74" />
      <path
         d="m 4711.69,1803.32 c -0.64,0 -1.11,0.25 -1.68,0.34 -45.44,-6.6 -49.57,-89.89 -94.14,-109.49 -39.16,-17.24 -88.32,5.17 -99.21,-55.37 -6.45,-35.83 15.09,-55.32 49.04,-52.49 55.68,4.65 111.35,32.97 156.46,64.78 16.19,11.41 40.43,26.62 49.24,45.61 23.18,50.06 0.08,106.65 -59.71,106.62"
         style="fill:#5696ce;fill-opacity:1;fill-rule:evenodd;stroke:none"
         id="path76" />
      <path
         d="m 4936.89,2213.35 c 167.56,0.07 335.25,1.21 502.13,15.99 1.54,33.41 3.08,66.82 4.04,100.25 1.11,38.99 0.22,78.06 0.22,121.99 -170.94,-10.54 -341.51,-21.04 -512.02,-31.56 4.28,-68.89 5.96,-137.79 5.63,-206.67"
         style="fill:#91cedd;fill-opacity:1;fill-rule:evenodd;stroke:none"
         id="path78" />
      <path
         d="m 5302.94,2160.12 c -1.58,-97.06 -9.27,-193.9 -12.01,-290.92 40.26,19.78 80.47,39.6 120.73,59.36 13.39,6.58 17.91,14.88 18.2,29.5 1.33,66.34 3.61,132.67 6.05,198.99 0.14,4.02 0.34,8.04 0.49,12.05 -44.43,-3.89 -88.92,-6.78 -133.46,-8.98"
         style="fill:#67b2d0;fill-opacity:1;fill-rule:evenodd;stroke:none"
         id="path80" />
      <path
         d="m 5242.91,2157.54 c -102.17,-3.68 -204.52,-4.15 -306.8,-4.19 -3.5,-159.26 -17.42,-318.31 -36.64,-476.64 110.25,54.27 220.56,108.48 330.88,162.7 1.72,106.14 10.72,212 12.56,318.13"
         style="fill:#7cc2d7;fill-opacity:1;fill-rule:evenodd;stroke:none"
         id="path82" />
      <path
         d="m 1092.86,1525.87 c 2.11,33.02 2.92,66.11 1.8,99.31 -98.89,45.23 -197.875,90.51 -297.082,135.89 -15.09,-61.57 -30.117,-122.93 -45.156,-184.32 113.801,-14.58 226.887,-34.39 340.438,-50.88"
         style="fill:#91cedd;fill-opacity:1;fill-rule:evenodd;stroke:none"
         id="path84" />
      <path
         d="m 1013.63,986.68 c 5.95,60 13.25,119.91 23.98,179.58 0.14,0.81 0.29,1.61 0.44,2.42 0.18,2.26 0.57,4.44 1.2,6.56 17.64,97.08 37.97,194.51 48.58,292.57 -2.9,-0.39 -5.93,-0.52 -9.17,-0.06 -113.57,16.47 -226.64,36.51 -340.508,50.76 -43.484,-177.5 -86.851,-354.54 -130.293,-531.83 h 405.771"
         style="fill:#48bf8b;fill-opacity:1;fill-rule:evenodd;stroke:none"
         id="path86" />
      <path
         d="M 593.164,926.68 C 576.008,856.648 558.84,786.57 541.641,716.379 c 16.32,-1.16 28.839,-2.41 41.379,-2.867 107.046,-4.02 214.089,-7.84 321.14,-11.801 27.676,-1.031 55.352,-2.063 83.035,-3.09 8.618,75.91 14.195,152.02 20.855,228.059 H 593.164"
         style="fill:#67b2d0;fill-opacity:1;fill-rule:evenodd;stroke:none"
         id="path88" />
      <path
         d="m 1557.71,1413.35 c 23.94,-173.27 29.68,-348.81 28.59,-523.952 106.85,113.342 213.77,226.642 320.65,339.962 4.74,5.01 8.8,10.66 14.49,17.61 -121.39,55.53 -242.58,110.96 -363.73,166.38"
         style="fill:#67b2d0;fill-opacity:1;fill-rule:evenodd;stroke:none"
         id="path90" />
      <path
         d="m 1132.27,1128.57 c -24.34,-143.832 -30.65,-289.039 -46.11,-433.621 94.31,-3.5 188.61,-7.078 282.9,-10.918 16.67,-0.672 27.97,4.418 39.37,16.551 25.47,27.098 51,54.129 76.5,81.219 2.1,104.129 2.76,208.75 -0.75,313.109 -115.78,22.3 -234.24,26.1 -351.91,33.66"
         style="fill:#7cc2d7;fill-opacity:1;fill-rule:evenodd;stroke:none"
         id="path92" />
      <path
         d="m 1481.62,1156.25 c -5.19,102.81 -14.96,205.24 -32.11,306.6 -84.77,38.78 -169.53,77.55 -254.36,116.36 -1.61,-131.46 -28.49,-261.91 -52.39,-391.36 113.29,-7.23 227.14,-11.72 338.86,-31.6"
         style="fill:#67b2d0;fill-opacity:1;fill-rule:evenodd;stroke:none"
         id="path94" />
      <path
         d="m 6098.69,3906.64 c -78.15,-52.57 -156.16,-105.06 -234.12,-157.5 7.26,-40.9 14.04,-79.39 20.95,-117.86 2.58,-14.41 5.18,-28.81 7.78,-43.21 71.99,-5.1 144.06,-8.04 216.19,-9.67 -1.23,109.49 -4.83,218.91 -10.8,328.24"
         style="fill:#7cc2d7;fill-opacity:1;fill-rule:evenodd;stroke:none"
         id="path96" />
      <path
         d="m 6497.71,3584.65 c 29.12,157.63 56.64,315.87 68.26,475.8 -40.96,26.05 -81.83,52.05 -122.65,78.02 -96.14,-64.67 -191.66,-128.94 -286.92,-193.01 7.33,-122.6 11.74,-245.32 13.11,-368.13 109.18,-1.42 218.43,-0.24 327.67,0.97 -0.02,2.05 0.12,4.15 0.53,6.35"
         style="fill:#48bf8b;fill-opacity:1;fill-rule:evenodd;stroke:none"
         id="path98" />
      <path
         d="m 6623.12,4024.08 c -12.89,-149.45 -38.5,-297.64 -65.66,-445.13 38.77,0.4 77.54,0.75 116.29,0.92 45.37,108.4 90.74,216.82 136.19,325.37 -62.66,39.87 -124.87,79.44 -186.82,118.84"
         style="fill:#67b2d0;fill-opacity:1;fill-rule:evenodd;stroke:none"
         id="path100" />
      <path
         d="m 6369.04,3477.05 c 0,0 86.85,-210.12 129.43,-315.92 44.45,106.22 88.89,212.36 133.32,318.5 -87.56,-0.64 -175.15,-1.93 -262.75,-2.58"
         style="fill:#91cedd;fill-opacity:1;fill-rule:evenodd;stroke:none"
         id="path102" />
      <path
         d="m 5911.52,3486.86 c 19.35,-107.51 38.73,-215.02 58.05,-322.54 13.12,-73.12 26.4,-146.2 38.76,-219.45 2.6,-15.45 9.65,-23.14 24.42,-27.88 36.46,-11.71 72.42,-25.05 108.57,-37.77 68.48,-24.09 136.94,-48.21 208.44,-73.38 38.95,93.06 77.81,185.92 116.68,278.75 -59.36,129.42 -167.99,392.17 -167.99,392.17"
         style="fill:#67b2d0;fill-opacity:1;fill-rule:evenodd;stroke:none"
         id="path104" />
      <path
         d="m 6256.44,3159.49 c -4.59,-8.37 -9.08,-18.37 -15.61,-25.44 -15.33,-16.58 -32.87,-27.24 -55.93,-29.01 -32.03,-2.45 -134.34,5.83 -104.08,-67.26 21.99,-53.08 77.18,-31.29 106.69,-67.89 22.41,-27.76 31.08,-73.85 71.65,-83.27 83.51,-19.43 91.13,49.57 90.31,111.32 -1.74,1.61 -2.87,3.93 -2.8,7.06 0.18,7.07 1.02,14.2 2.06,21.35 -0.16,5.32 -0.32,10.46 -0.4,15.32 -0.05,4.01 1.94,6.62 4.58,8.13 5.41,26.15 11.93,52.41 9.19,77.81 -5.72,53.48 -71.28,94.68 -105.66,31.88"
         style="fill:#5696ce;fill-opacity:1;fill-rule:evenodd;stroke:none"
         id="path106" />
      <path
         d="m 2721.14,4498.98 c -91.9,-95.52 -183.76,-191.1 -275.67,-286.62 -4.89,-5.09 -9.43,-10.52 -14.28,-15.97 8.48,-5.18 127.41,-48.63 284.86,-104.96 -0.73,135.91 -1.15,271.84 5.09,407.55"
         style="fill:#67b2d0;fill-opacity:1;fill-rule:evenodd;stroke:none"
         id="path108" />
      <path
         d="m 3169.32,4496.47 c 5.43,80.66 8.48,161.4 6.39,242.36 -68.33,0.03 -136.66,0.05 -204.99,0.15 -12.91,0.02 -22.18,-3.55 -31.29,-13.04 -37.13,-38.69 -74.35,-77.28 -111.52,-115.94 -14.11,-184.44 -12.67,-369.42 -11.66,-554.31 100.31,-35.69 208.91,-74.04 311.15,-109.92 4.63,174.19 26.97,347.58 39.82,521.32 -3.84,9.93 -3.17,21.3 2.1,29.38"
         style="fill:#91cedd;fill-opacity:1;fill-rule:evenodd;stroke:none"
         id="path110" />
      <path
         d="m 3584.17,4096.42 c 9.54,95.12 19.85,201.17 29.1,299.26 -123.29,7.46 -245.48,28.61 -368.11,44.59 -7.79,-98.13 -18.08,-196.16 -26.12,-294.3 123.17,-4.27 243.83,-29.26 365.13,-49.55"
         style="fill:#7cc2d7;fill-opacity:1;fill-rule:evenodd;stroke:none"
         id="path112" />
      <path
         d="m 3214.5,4086.09 c -3.93,-55.97 -6.9,-111.99 -7.75,-168.11 182.72,-63.86 329.63,-114.24 344.77,-117.28 3.01,12.05 13.68,109.22 26.68,236.72 -120.82,20.36 -241.07,44.94 -363.7,48.67"
         style="fill:#67b2d0;fill-opacity:1;fill-rule:evenodd;stroke:none"
         id="path114" />
      <path
         d="m 3249.47,4499.7 c 123.04,-16.15 245.65,-37.29 369.38,-44.35 14.25,153.58 24.62,275.38 23.06,282.58 -5.95,0.27 -12.23,0.78 -18.51,0.78 -122.56,0.02 -245.13,0.02 -367.69,0.06 2.06,-79.85 -0.94,-159.51 -6.24,-239.07"
         style="fill:#b9a47e;fill-opacity:1;fill-rule:evenodd;stroke:none"
         id="path116" />
      <path
         d="m 7239.25,3479.48 c 0.04,43.91 0.04,87.82 0.08,131.74 0.02,15.4 -4.33,24.58 -17.62,32.89 -86.75,54.23 -172.95,109.35 -259.35,164.12 -4.44,2.81 -9.18,5.09 -15.55,8.58 -30.76,-73.48 -61.44,-146.81 -92.15,-220.15 122.27,-55.8 256.62,-77.23 384.59,-117.18"
         style="fill:#67b2d0;fill-opacity:1;fill-rule:evenodd;stroke:none"
         id="path118" />
      <path
         d="m 6831.62,3541.62 c -41.23,-98.53 -82.45,-196.98 -123.66,-295.43 174.83,-59.49 353.66,-105.98 531.06,-157.2 0.02,109.21 0.12,218.41 0.19,327.62 -135.21,44.41 -277.32,66.74 -407.59,125.01"
         style="fill:#7cc2d7;fill-opacity:1;fill-rule:evenodd;stroke:none"
         id="path120" />
      <path
         d="m 6571.52,2920.21 c -23.34,-55.75 -46.64,-111.39 -70.02,-167.23 155.98,-56.47 311.17,-111.66 466.83,-166.11 6.9,74.32 19.95,147.97 32.29,221.67 -142.42,41.54 -293.3,51.8 -429.1,111.67"
         style="fill:#67b2d0;fill-opacity:1;fill-rule:evenodd;stroke:none"
         id="path122" />
      <path
         d="m 7010.29,2868.27 c 10.12,65.21 18.28,130.61 19.69,196.73 -118.4,33.34 -236.61,67.34 -352.95,107.29 -27.43,-65.51 -54.91,-131.18 -82.37,-196.74 130.88,-58.8 277.78,-68.33 415.63,-107.28"
         style="fill:#b9a47e;fill-opacity:1;fill-rule:evenodd;stroke:none"
         id="path124" />
      <path
         d="m 7089.31,3048.32 c -6.15,-162.18 -50.33,-320.26 -62.73,-481.82 70.13,-24.42 140.39,-48.71 210.92,-72.83 0.62,9.84 1.44,16.73 1.46,23.62 0.02,162.8 0.02,325.61 0.04,488.41 -49.81,14.51 -99.75,28.59 -149.69,42.62"
         style="fill:#91cedd;fill-opacity:1;fill-rule:evenodd;stroke:none"
         id="path126" />
      <path
         d="m 5906.21,1647.87 c 5.95,106.8 9.21,213.77 10.15,320.67 -69.51,18.31 -139,36.5 -208.53,54.57 -3.01,-9.42 -10.75,-177.48 -17.48,-352.25 71.79,-9.12 143.71,-17.25 215.86,-22.99"
         style="fill:#b9a47e;fill-opacity:1;fill-rule:evenodd;stroke:none"
         id="path128" />
      <path
         d="m 5688.08,1611.15 c -6.15,-166.63 -10.78,-323.62 -8.92,-338.32 61.17,-22.87 122.59,-45.83 183.94,-68.77 18.34,127.43 31.13,255.62 39.61,384.11 -71.74,5.79 -143.24,13.89 -214.63,22.98"
         style="fill:#67b2d0;fill-opacity:1;fill-rule:evenodd;stroke:none"
         id="path130" />
      <path
         d="m 6527.79,1603.89 c 26.19,59.33 52.42,118.75 78.73,178.33 -197.31,54.71 -393.95,107.81 -590.51,159.91 -0.84,-66.61 -2.6,-133.21 -5.35,-199.78 0,0 345.39,-92.23 517.13,-138.46"
         style="fill:#5696ce;fill-opacity:1;fill-rule:evenodd;stroke:none"
         id="path132" />
      <path
         d="m 5977.83,1317.96 c -5.78,-49.91 -12.23,-99.75 -19.57,-149.47 107.59,-40.24 215.49,-80.58 323.82,-121.08 20.34,46.03 40.55,91.83 60.81,137.71 -123.25,39.86 -243.34,88.59 -365.06,132.84"
         style="fill:#91cedd;fill-opacity:1;fill-rule:evenodd;stroke:none"
         id="path134" />
      <path
         d="m 6367.26,1240.34 c 45.35,102.73 90.66,205.32 136,308.02 -164.81,43.49 -495.75,128.58 -495.75,128.58 -5.13,-99.46 -12.67,-198.78 -22.96,-297.82 127.65,-46.11 253.41,-97.43 382.71,-138.78"
         style="fill:#7cc2d7;fill-opacity:1;fill-rule:evenodd;stroke:none"
         id="path136" />
      <path
         d="m 4516.54,2849.3 c 1.31,104.74 2.62,209.49 3.16,314.25 -93.61,33.06 -187.38,66.17 -281.52,99.4 -0.92,-135.37 -3.2,-269.13 -5.02,-402.59 94.76,0.81 189.32,1.79 283.38,-11.06"
         style="fill:#67b2d0;fill-opacity:1;fill-rule:evenodd;stroke:none"
         id="path138" />
      <path
         d="m 4232.38,2800.45 c -1.08,-87.66 -1.8,-175.26 -1.64,-263.2 94.43,5.82 188.69,11.64 282.89,17.45 0.41,78.16 1.27,156.32 2.2,234.47 -93.76,14.25 -188.76,12.4 -283.45,11.28"
         style="fill:#91cedd;fill-opacity:1;fill-rule:evenodd;stroke:none"
         id="path140" />
      <path
         d="m 5009.47,2990.62 c -136.47,48.19 -272.99,96.39 -409.92,144.74 -1.27,-191.91 -4.87,-383.81 -5.9,-575.73 134.61,8.31 269.08,16.6 403.59,24.9 2.21,135.41 10.27,270.68 12.23,406.09"
         style="fill:#5696ce;fill-opacity:1;fill-rule:evenodd;stroke:none"
         id="path142" />
      <path
         d="m 5069.19,2969.54 c -2.42,-127.14 -9.72,-254.16 -11.91,-381.31 42.01,2.59 84.02,5.18 126.04,7.78 v 333.23 c -38.03,13.43 -76.1,26.87 -114.13,40.3"
         style="fill:#48bf8b;fill-opacity:1;fill-rule:evenodd;stroke:none"
         id="path144" />
      <path
         d="m 5283.32,2893.94 v -291.76 c 56.36,3.47 112.67,6.95 169.1,10.43 2.65,74.34 5.21,145.94 7.83,218.86 -59,20.83 -117.97,41.65 -176.93,62.47"
         style="fill:#67b2d0;fill-opacity:1;fill-rule:evenodd;stroke:none"
         id="path146" />
      <path
         d="m 3998.66,1932.36 c 0.49,28.26 0.97,56.72 1.44,85.72 -132.11,43.52 -262.21,86.38 -392.08,129.18 -2.57,-5.58 -17.28,-56.69 -39.25,-135.37 0,0 285.2,-61.05 429.89,-79.53"
         style="fill:#67b2d0;fill-opacity:1;fill-rule:evenodd;stroke:none"
         id="path148" />
      <path
         d="m 3552.33,1952.84 c -24.81,-89.54 -55.65,-202 -87.87,-320.31 175.72,-19.97 353.75,-4.41 530.15,-17.24 0.59,58.89 1.12,117.78 1.88,176.66 0.33,26.78 0.74,53.61 1.19,80.53 -149.82,19.28 -445.35,80.36 -445.35,80.36"
         style="fill:#67b2d0;fill-opacity:1;fill-rule:evenodd;stroke:none"
         id="path150" />
      <path
         d="m 3737.84,1542.36 c -98.34,0.53 -196.63,1.47 -294.39,12.88 -88.75,-326.79 -180.16,-668.9 -180,-678.861 7.6,3.402 14.86,6.371 21.9,9.801 65.35,31.789 130.66,63.652 195.98,95.5 78.33,38.18 156.64,76.42 234.98,114.59 34.11,144.21 27.95,298.79 21.53,446.09"
         style="fill:#91cedd;fill-opacity:1;fill-rule:evenodd;stroke:none"
         id="path152" />
      <path
         d="m 3797.84,1542 c 5.84,-135.88 10.97,-277.65 -13.25,-412.55 61.88,30.12 123.75,60.24 185.69,90.2 14.06,6.8 19.9,14.05 19.98,30.43 0.41,95.13 2.34,190.23 3.51,285.36 -65.19,4.86 -130.54,6.06 -195.93,6.56"
         style="fill:#48bf8b;fill-opacity:1;fill-rule:evenodd;stroke:none"
         id="path154" />
      <path
         d="m 2311.88,818.629 c 87.88,36.312 176.38,71.141 263.21,109.832 -51.39,148.859 -102.81,297.819 -154.45,447.369 -77.4,-82.02 -154.14,-163.35 -230.67,-244.44 43.05,-103.28 82.27,-208.109 121.91,-312.761"
         style="fill:#7cc2d7;fill-opacity:1;fill-rule:evenodd;stroke:none"
         id="path156" />
      <path
         d="m 2145.22,1083.96 c -72.84,-77.18 -145.53,-154.21 -218.38,-231.409 5.92,-10.321 10.22,-17.961 14.64,-25.531 29.21,-50 58.43,-100 87.66,-149.989 77.13,36.328 150.39,82.039 227.79,117.989 -36.58,96.562 -72.53,193.421 -111.71,288.94"
         style="fill:#91cedd;fill-opacity:1;fill-rule:evenodd;stroke:none"
         id="path158" />
      <path
         d="m 2700.09,566.391 c -33,95.589 -65.99,191.121 -98.97,286.668 -90.23,-39.739 -182.13,-75.637 -273.15,-113.61 -89.24,-37.219 -171.84,-89 -258.73,-131.039 63.44,-108.57 126.8,-217.18 189.84,-325.98 9.31,-16.051 19.25,-21.649 37.55,-21.559 73.41,0.32 146.83,0.399 220.25,0.43 54.02,105.609 120.22,204.418 183.21,305.09"
         style="fill:#67b2d0;fill-opacity:1;fill-rule:evenodd;stroke:none"
         id="path160" />
      <path
         d="m 2571.38,718.629 c -49.56,40.519 -156.45,17.57 -126.72,-62.637 18.62,-50.25 13.45,-65.094 -13.51,-107.633 -51.3,-80.988 113.69,-112.328 147.56,-27.367 0.61,1.52 1.47,2.738 2.47,3.719 20.03,58.73 39.48,153.629 -9.8,193.918"
         style="fill:#5696ce;fill-opacity:1;fill-rule:evenodd;stroke:none"
         id="path162" />
      <path
         d="m 2584.6,261.332 c 64.7,-0.012 129.39,-0.051 194.09,-0.051 h 26.73 c -26.79,77.598 -53.52,155.008 -80.23,232.41 C 2676.64,417.16 2627.51,340.98 2584.6,261.332"
         style="fill:#48bf8b;fill-opacity:1;fill-rule:evenodd;stroke:none"
         id="path164" />
      <path
         d="m 2155.82,2142.88 c -53.62,155.28 -107.38,310.97 -161.59,467.94 -95.77,-157.54 -190.69,-313.67 -285.4,-469.45 149.04,3.18 298.27,10.13 446.99,1.51"
         style="fill:#67b2d0;fill-opacity:1;fill-rule:evenodd;stroke:none"
         id="path166" />
      <path
         d="m 1916.93,2086.29 c -81.66,-1.38 -163.37,-4.29 -245,-5.61 -75.23,-123.75 -150.41,-247.39 -225.78,-371.37 149.01,-68.18 297,-135.9 445.57,-203.88 20.26,192.92 29.76,386.87 25.21,580.86"
         style="fill:#7cc2d7;fill-opacity:1;fill-rule:evenodd;stroke:none"
         id="path168" />
      <path
         d="m 2176.99,2081.57 c -66.6,4.54 -133.31,5.72 -200.07,5.37 4.8,-202.97 -5.91,-405.89 -28.11,-607.62 45.01,-20.61 90.06,-41.21 135.26,-61.9 79.45,84.21 157.71,167.18 235.92,250.09 -47.71,138.18 -95.32,276.03 -143,414.06"
         style="fill:#91cedd;fill-opacity:1;fill-rule:evenodd;stroke:none"
         id="path170" />
      <path
         d="m 6791.03,2199.96 c 20.04,45.37 40.04,90.67 60.02,135.92 -3.3,2.54 -4.94,4.58 -7.07,5.33 -145.84,51.69 -291.72,103.3 -437.58,154.96 -4.84,-58.69 -16.25,-116.68 -30.06,-174.39 137.91,-41.64 276.62,-80.64 414.69,-121.82"
         style="fill:#7cc2d7;fill-opacity:1;fill-rule:evenodd;stroke:none"
         id="path172" />
      <path
         d="m 6361.71,2263.54 c -17.05,-65.37 -35.52,-130.55 -49.51,-196.16 125.12,-33.73 250.2,-67.45 375.55,-101.24 26.46,59.93 52.71,119.34 78.85,178.5 -134.83,40.11 -270.22,78.24 -404.89,118.9"
         style="fill:#67b2d0;fill-opacity:1;fill-rule:evenodd;stroke:none"
         id="path174" />
      <path
         d="m 5997.4,2641.01 c -17.21,-156.78 -63.38,-308.35 -103.56,-460.84 113.75,-30.67 227.5,-61.33 341.21,-91.99 31.29,145.04 85.32,288.04 92.87,435.78 -110.17,39.02 -220.35,78.03 -330.52,117.05"
         style="fill:#91cedd;fill-opacity:1;fill-rule:evenodd;stroke:none"
         id="path176" />
      <path
         d="m 5939.29,2661.59 c -65,23.01 -129.98,46.05 -194.98,69.05 -2.95,1.03 -6.21,1.18 -9.35,1.58 -0.69,0.08 -1.53,-0.47 -2.21,-0.87 -0.63,-0.37 -1.15,-0.93 -3.17,-2.62 -6.07,-164.72 -12.16,-330.71 -18.37,-499.34 41.6,-11.21 83.14,-22.41 124.72,-33.62 40.71,153.92 88.23,307.13 103.36,465.82"
         style="fill:#48bf8b;fill-opacity:1;fill-rule:evenodd;stroke:none"
         id="path178" />
      <path
         d="m 917.012,4039.18 c -93.242,27.47 -186.582,54.96 -280.293,82.58 -55.164,-169.32 -109.297,-335.46 -163.965,-503.26 85.09,-52.17 169.98,-104.22 254.902,-156.28 52.782,195.43 157.942,376.16 189.356,576.96"
         style="fill:#67b2d0;fill-opacity:1;fill-rule:evenodd;stroke:none"
         id="path180" />
      <path
         d="m 1277.35,3669.83 c -0.13,70.72 -0.26,141.44 -0.46,212.16 -0.03,16.66 -1.46,33.33 -2.33,51.85 -100.19,29.51 -200.19,58.98 -300.275,88.46 -16.836,-96.74 -49.519,-188.95 -84.629,-280.48 130.474,-17.64 259.764,-40.91 387.694,-71.99"
         style="fill:#91cedd;fill-opacity:1;fill-rule:evenodd;stroke:none"
         id="path182" />
      <path
         d="m 867.598,3684.76 c -32.637,-83.96 -64.993,-168.02 -86.7,-255.18 111.016,-68.07 222.062,-136.15 333.432,-204.42 4.81,4.04 7.43,5.87 9.6,8.12 47.83,49.43 95.46,99.05 143.52,148.26 7.9,8.1 10.58,16.61 10.54,27.72 -0.24,66.25 -0.36,132.5 -0.5,198.75 -135.09,33.59 -271.83,58.7 -409.892,76.75"
         style="fill:#67b2d0;fill-opacity:1;fill-rule:evenodd;stroke:none"
         id="path184" />
      <path
         d="m 5159.92,1056.52 c -137.03,14.73 -273.71,33.59 -410.65,49.2 -18.75,-53.16 -37.63,-106.72 -56.93,-161.431 151.13,-74.738 301.48,-149.09 452.64,-223.848 5.84,112.118 21.52,223.86 14.94,336.079"
         style="fill:#67b2d0;fill-opacity:1;fill-rule:evenodd;stroke:none"
         id="path186" />
      <path
         d="m 5220.23,1050.37 c 6.17,-119.839 -12.36,-239.159 -16.5,-358.979 58.18,-28.77 116.54,-57.629 175.15,-86.621 6.51,145.972 11.06,289.191 16.7,431.94 -58.57,3.19 -116.99,7.99 -175.35,13.66"
         style="fill:#91cedd;fill-opacity:1;fill-rule:evenodd;stroke:none"
         id="path188" />
      <path
         d="m 5399.64,1136.49 c 7.15,172.87 15.57,472.38 10.53,486.66 -3.67,-1.44 -7.42,-2.63 -10.92,-4.35 -184.96,-91.1 -369.86,-182.32 -554.92,-273.21 -10.35,-5.08 -15.33,-12.52 -18.87,-22.97 -12.79,-37.86 -26.32,-75.46 -39.61,-113.14 -0.89,-2.55 -1.79,-5.11 -2.71,-7.65 205.29,-24.17 410.06,-54.34 616.5,-65.34"
         style="fill:#67b2d0;fill-opacity:1;fill-rule:evenodd;stroke:none"
         id="path190" />
      <path
         d="m 5086.07,3554.5 c 95.08,64.06 190.19,128.04 285.35,191.98 -88.05,121.04 -160.25,252.77 -245.33,375.82 -76.95,-117.99 -153.79,-235.84 -230.67,-353.7 66.12,-68.72 134.42,-137.15 190.65,-214.1"
         style="fill:#67b2d0;fill-opacity:1;fill-rule:evenodd;stroke:none"
         id="path192" />
      <path
         d="m 4861.83,3717.08 c -67.93,-104.17 -135.88,-208.35 -203.92,-312.69 35.25,-12.54 67.67,-21.76 98,-35.56 25.49,-11.59 43.69,-7.85 66.94,7.9 71.09,48.16 142.28,96.17 213.47,144.17 -51.54,70.41 -113.69,133.31 -174.49,196.18"
         style="fill:#b9a47e;fill-opacity:1;fill-rule:evenodd;stroke:none"
         id="path194" />
      <path
         d="m 5386.25,4521.22 c -71.27,-109.29 -142.33,-218.24 -213.31,-327.08 94.07,-130.45 170.38,-272.87 264.63,-403.2 74.93,50.34 149.85,100.68 224.75,151.04 9.16,6.16 18.16,12.55 28.73,19.88 -101.54,186.34 -202.3,371.27 -304.8,559.36"
         style="fill:#7cc2d7;fill-opacity:1;fill-rule:evenodd;stroke:none"
         id="path196" />
      <path
         d="m 2365.72,3926.8 c -40.68,14.49 -81.39,28.91 -122.07,43.44 -17.55,6.26 -28.15,4.11 -41.33,-9.78 -89.13,-93.93 -179.34,-186.83 -269.15,-280.12 -4.87,-5.06 -9.16,-10.69 -13.86,-16.23 22.78,-65.69 45.18,-130.3 67.38,-194.29 h 350.05 c 18.58,151.8 33.12,304.22 28.98,456.98"
         style="fill:#67b2d0;fill-opacity:1;fill-rule:evenodd;stroke:none"
         id="path198" />
      <path
         d="m 2970.23,3712.12 c -174.65,61.97 -349.31,123.92 -523.92,186.01 1.73,-143.16 -12.15,-286.01 -29.57,-428.31 h 436.01 c 46.99,76.79 93.64,153.04 142.26,232.49 -10.27,4.09 -17.43,7.2 -24.78,9.81"
         style="fill:#67b2d0;fill-opacity:1;fill-rule:evenodd;stroke:none"
         id="path200" />
      <path
         d="m 7234.68,1149.14 v 247.6 c -4.12,-0.19 -6.56,0.05 -8.83,-0.45 -72.18,-15.82 -144.39,-31.6 -216.58,-47.43 3.23,-64.11 5.16,-128.36 5.71,-192.62 72.87,-7.43 146.62,-11.8 219.7,-7.1"
         style="fill:#91cedd;fill-opacity:1;fill-rule:evenodd;stroke:none"
         id="path202" />
      <path
         d="m 7014.98,1096.29 c -0.73,-105.938 -5.77,-211.81 -17.11,-317.06 125.62,-45.66 227.4,-81.421 236.81,-82.05 v 392.54 c -73.14,-4.37 -146.54,-0.72 -219.7,6.57"
         style="fill:#7cc2d7;fill-opacity:1;fill-rule:evenodd;stroke:none"
         id="path204" />
      <path
         d="m 6930.11,1331.52 c -97.17,-21.31 -194.33,-42.65 -291.54,-63.85 -13.89,-3.03 -21.21,-10.36 -26.82,-23.36 -34.49,-79.98 -69.92,-159.55 -105.02,-239.27 -4.76,-10.868 -9.35,-21.821 -14.57,-33.989 38.58,-18.332 243.93,-95.891 429.03,-163.809 17.61,173.797 17.32,349.908 8.92,524.278"
         style="fill:#67b2d0;fill-opacity:1;fill-rule:evenodd;stroke:none"
         id="path206" />
      <path
         d="m 2020.19,4164 c 137.24,143.82 248.55,261.78 251.5,267.87 -258.06,15.22 -515.71,28.13 -776.02,38.66 -0.1,-67.35 -0.01,-134.52 0.22,-201.61 176.57,-25.13 349.75,-68.51 524.3,-104.92"
         style="fill:#67b2d0;fill-opacity:1;fill-rule:evenodd;stroke:none"
         id="path208" />
      <path
         d="m 1498.16,3899.04 c 0.7,-90.37 1.45,-180.85 2.14,-271.61 11.47,9.44 92.17,91.89 197.34,200.66 -66.96,22.43 -133.68,45.43 -199.48,70.95"
         style="fill:#67b2d0;fill-opacity:1;fill-rule:evenodd;stroke:none"
         id="path210" />
      <path
         d="m 1743.73,3875.82 c 62.22,64.5 130.08,135.14 195.84,203.83 -147.31,32.26 -294.06,67.52 -443.19,89.11 0.35,-68.53 0.86,-137.03 1.36,-205.55 80.82,-32.26 163.35,-60.01 245.99,-87.39"
         style="fill:#b9a47e;fill-opacity:1;fill-rule:evenodd;stroke:none"
         id="path212" />
      <path
         d="m 3526.44,262.199 h 424.62 c -83.91,174.723 -166.68,347.121 -250.49,521.641 -59.97,-28.981 -119.68,-57.82 -179.26,-86.598 12.85,-144.762 8.79,-289.89 5.13,-435.043"
         style="fill:#91cedd;fill-opacity:1;fill-rule:evenodd;stroke:none"
         id="path214" />
      <path
         d="m 3424.85,650.641 c -133.09,-64.289 -265.72,-128.36 -398.67,-192.582 23.2,-67.079 45.55,-131.637 67.77,-195.86 h 332.49 c 3.27,129.59 6.82,259.153 -1.59,388.442"
         style="fill:#67b2d0;fill-opacity:1;fill-rule:evenodd;stroke:none"
         id="path216" />
      <path
         d="m 4214.57,1035.53 c 55.82,-99.62 105.23,-204.249 169.35,-298.46 79,225.719 155.37,448.3 155.57,457.85 -108.4,-53.17 -216.64,-106.27 -324.92,-159.39"
         style="fill:#7cc2d7;fill-opacity:1;fill-rule:evenodd;stroke:none"
         id="path218" />
      <path
         d="m 4326.34,573.34 c 10.88,30.789 22.09,62.558 33.38,94.73 -78.03,105.68 -134.26,226.391 -199.06,341.01 -104.95,-51.478 -209.93,-102.99 -315.21,-154.631 4.3,-9.508 7.39,-16.758 10.8,-23.859 41.18,-85.758 82.37,-171.508 123.56,-257.25 h 346.53"
         style="fill:#b9a47e;fill-opacity:1;fill-rule:evenodd;stroke:none"
         id="path220" />
      <path
         d="m 4008.62,513.34 c 24.28,-50.551 48.55,-101.09 72.83,-151.641 13.83,-28.82 27.58,-57.668 41.39,-86.488 3.49,-7.281 6.7,-14.18 17.03,-13.992 24.7,0.472 49.4,0.16 73.15,0.16 8.21,17.992 45.47,120.762 92.07,251.961 h -296.47"
         style="fill:#67b2d0;fill-opacity:1;fill-rule:evenodd;stroke:none"
         id="path222" />
      <path
         d="m 1273.06,4519.23 c -1.24,115.23 -3.24,210.87 -5.5,217.71 H 837.043 C 818.176,4679 799.309,4621.08 780.41,4563.08"
         style="fill:#48bf8b;fill-opacity:1;fill-rule:evenodd;stroke:none"
         id="path224" />
      <path
         d="m 1273.61,4459.24 -244.73,12.58 c -4.09,-96.64 -19.42,-192.12 -36.067,-287.39 93.157,-27.46 186.077,-54.85 279.067,-82.26 2.81,25.55 3.01,198.22 1.73,357.07"
         style="fill:#67b2d0;fill-opacity:1;fill-rule:evenodd;stroke:none"
         id="path226" />
      <path
         d="m 969.063,4477.94 c -69.317,7.67 -138.465,17.13 -207.375,27.67 -24.918,-76.54 -49.95,-153.37 -75.196,-230.88 83.313,-24.55 166.074,-48.95 248.645,-73.29 15.976,91.7 30.39,183.46 33.926,276.5"
         style="fill:#7cc2d7;fill-opacity:1;fill-rule:evenodd;stroke:none"
         id="path228" />
      <path
         d="m 500.305,1379.53 c 37.925,154.86 75.855,309.67 113.836,464.72 -9.036,4.35 -16.055,7.89 -23.203,11.16 -66.102,30.28 -132.215,60.54 -198.34,90.78 -24.707,11.3 -49.297,22.86 -74.239,33.63 -5.312,2.3 -14.902,4.55 -17.421,1.91 -18.583,-19.37 -40.672,-33.91 -40.586,-68.14 0.468,-177.83 0.664,-355.66 0.781,-533.49 79.68,-2.32 159.414,-1.3 239.172,-0.57"
         style="fill:#67b2d0;fill-opacity:1;fill-rule:evenodd;stroke:none"
         id="path230" />
      <path
         d="m 408.027,1002.87 c 22.578,92.16 45.137,184.25 67.715,276.44 -71.543,-0.7 -143.066,-1.29 -214.543,0.79 0.039,-89.89 0,-179.76 0.012,-269.64 48.965,-1.89 97.891,-4.51 146.816,-7.59"
         style="fill:#7cc2d7;fill-opacity:1;fill-rule:evenodd;stroke:none"
         id="path232" />
      <path
         d="m 261.211,950.461 c 0,-168.5 0.012,-337 0.012,-505.512 v -23.91 c 1.304,-0.48 2.605,-0.969 3.914,-1.457 42.793,174.668 85.605,349.457 128.418,524.207 -44.102,2.699 -88.211,4.973 -132.344,6.672"
         style="fill:#67b2d0;fill-opacity:1;fill-rule:evenodd;stroke:none"
         id="path234" />
      <path
         d="m 6179.41,4287.17 c 8.1,5.43 16.29,10.92 24.57,16.48 1.95,144.49 6.97,289.12 0.08,433.4 h -137.54 c -3.79,-7.5 -7.54,-14.5 -10.9,-21.68 -23.38,-49.94 -46.66,-99.91 -69.98,-149.86 -8.05,-17.24 -16.09,-34.46 -24.14,-51.7 76.39,-71.82 145.31,-151.02 217.91,-226.64"
         style="fill:#7cc2d7;fill-opacity:1;fill-rule:evenodd;stroke:none"
         id="path236" />
      <path
         d="m 5934.68,4456.39 c -27.99,-59.91 -55.95,-119.84 -83.96,-179.74 -5.12,-10.95 -9.67,-20.59 -2.19,-33.54 22.81,-39.42 44.02,-79.76 65.96,-119.69 1.36,-2.49 3.63,-4.48 5.27,-6.46 23.91,13.73 104.67,66.7 208.99,136.33 -64.63,67.8 -126.7,138.07 -194.07,203.1"
         style="fill:#b9a47e;fill-opacity:1;fill-rule:evenodd;stroke:none"
         id="path238" />
      <path
         d="m 6834.57,4737.05 h -244.63 c 4.39,-55.7 5.93,-111.52 6.44,-167.42 132.85,91 233.26,161.05 238.19,167.42"
         style="fill:#48bf8b;fill-opacity:1;fill-rule:evenodd;stroke:none"
         id="path240" />
      <path
         d="m 6536.62,4528.77 c -0.16,69.56 -1.23,139.02 -6.68,208.28 h -225.88 c 5.8,-121.64 3.18,-243.53 1.01,-365.37 77.56,52.32 157.74,106.73 231.55,157.09"
         style="fill:#67b2d0;fill-opacity:1;fill-rule:evenodd;stroke:none"
         id="path242" />
      <path
         d="m 4957.67,592.27 c -59.57,29.472 -119.12,58.949 -178.69,88.41 -50.04,24.75 -100.16,49.308 -153.18,75.402 -58.68,-166.172 -116.25,-329.211 -174.2,-493.32 h 447.81 c 25.7,108.59 43.67,218.828 58.26,329.508"
         style="fill:#67b2d0;fill-opacity:1;fill-rule:evenodd;stroke:none"
         id="path244" />
      <path
         d="M 5347.87,399.191 C 5242.85,451.172 5137.79,503.129 5032.75,555.109 5019.41,457 5003.43,359.262 4981.56,262.762 h 384.55 c 0.62,9.16 1.37,16.957 1.66,24.769 0.96,23.949 1.42,47.93 2.69,71.86 1.47,27.668 1.8,27.738 -22.59,39.8"
         style="fill:#48bf8b;fill-opacity:1;fill-rule:evenodd;stroke:none"
         id="path246" />
      <path
         d="m 555.801,2641.35 c 171.933,179.15 357.137,374.35 361.726,383.26 -6.621,4.25 -13.242,8.66 -20.007,12.83 -47.649,29.35 -95.625,58.17 -142.801,88.26 -14.653,9.34 -28.164,11.29 -45.051,7.57 -59.98,-13.23 -120.09,-25.92 -180.195,-38.58 17.605,-150.56 21.297,-301.95 26.328,-453.34"
         style="fill:#48bf8b;fill-opacity:1;fill-rule:evenodd;stroke:none"
         id="path248" />
      <path
         d="m 485.32,2818.94 c 1.66,0.51 3.235,0.72 4.809,0.97 -3.547,87.7 -8.762,175.27 -18.969,262.47 -7.183,-1.53 -14.383,-3.03 -21.57,-4.56 -61.629,-13.1 -123.223,-26.36 -187.57,-40.13 0,-91.03 0,-181.6 0,-271.99 75.175,14.55 149.984,30.7 223.3,53.24"
         style="fill:#b9a47e;fill-opacity:1;fill-rule:evenodd;stroke:none"
         id="path250" />
      <path
         d="m 262.02,2704.76 c 0.011,-114.75 0.011,-229.17 0.031,-343.6 0,-4.77 0.39,-9.56 0.73,-14.32 0.039,-0.59 0.766,-1.26 1.34,-1.64 0.613,-0.41 1.438,-0.54 2.168,-0.79 13.059,10.83 113.496,113.99 231.758,236.84 -2.109,59.07 -3.672,118.19 -5.645,177.28 -75.691,-22.71 -152.859,-38.99 -230.382,-53.77"
         style="fill:#67b2d0;fill-opacity:1;fill-rule:evenodd;stroke:none"
         id="path252" />
      <path
         d="m 2140.83,3024.87 c 51.96,-151.25 104.65,-302.34 158.21,-454.83 5,6.28 7.75,9.06 9.73,12.3 86.43,141.75 172.79,283.54 259.19,425.31 -142.46,3.17 -284.7,13.17 -427.13,17.22"
         style="fill:#67b2d0;fill-opacity:1;fill-rule:evenodd;stroke:none"
         id="path254" />
      <path
         d="m 2747.66,3305.33 c -0.26,0.68 -0.76,1.26 -1.07,1.75 h -701.64 c 24.8,-74.08 49.86,-147.87 75.06,-221.57 161.47,-3.89 322.69,-16.2 484.21,-18.35 47.93,78.65 95.88,157.28 143.79,235.94 0.3,0.49 -0.09,1.52 -0.35,2.23"
         style="fill:#5696ce;fill-opacity:1;fill-rule:evenodd;stroke:none"
         id="path256" />
      <path
         d="m 7235.15,1905 v 298.1 c -57.09,20.15 -113.3,40 -169,59.65 -9.94,-14.8 -77.31,-164 -150.94,-330.9 106.45,-11.32 213.09,-21.21 319.94,-26.85"
         style="fill:#67b2d0;fill-opacity:1;fill-rule:evenodd;stroke:none"
         id="path258" />
      <path
         d="m 6890,1874.56 c -89.46,-203.72 -179.58,-413.93 -181.43,-427.81 175.76,38.75 350.86,77.34 526.58,116.08 V 1845 c -115.29,6.09 -230.35,17.14 -345.15,29.56"
         style="fill:#48bf8b;fill-opacity:1;fill-rule:evenodd;stroke:none"
         id="path260" />
      <path
         d="m 6976.91,4496.13 c -108.15,-73.38 -216.31,-146.74 -324.45,-220.15 -0.47,-0.33 -0.55,-1.41 -0.59,-2.16 -0.06,-0.74 0.14,-1.5 0.41,-3.68 106,-67.39 212.23,-135.09 319.26,-203.19 3.2,143.1 10,286.2 5.37,429.18"
         style="fill:#91cedd;fill-opacity:1;fill-rule:evenodd;stroke:none"
         id="path262" />
      <path
         d="m 7076.3,4247.88 c -2.01,-81.26 -4.86,-162.53 -5.91,-243.81 55.89,-35.53 112.03,-71.15 168.61,-106.99 0.31,115 0.58,228.84 0.6,342.58 -54.51,0.88 -108.96,3.13 -163.3,8.22"
         style="fill:#7cc2d7;fill-opacity:1;fill-rule:evenodd;stroke:none"
         id="path264" />
      <path
         d="m 7077.53,4307.31 c 53.85,-5.4 107.91,-7.62 162.05,-8.33 -0.11,123.91 -0.66,247.86 -2.07,373.16 -13.88,-9.02 -21.91,-14.04 -29.72,-19.35 -44.65,-30.28 -89.28,-60.59 -133.93,-90.87 5.04,-84.83 5.16,-169.71 3.67,-254.61"
         style="fill:#5696ce;fill-opacity:1;fill-rule:evenodd;stroke:none"
         id="path266" />
      <path
         d="m 6623.8,539.281 c -4.25,31.5 -8.53,63 -12.79,94.539 -132.62,49.422 -263.94,98.379 -398.46,148.512 -20.52,-75.141 -40.82,-149.352 -61.03,-223.301 157.54,-4.16 314.65,-20.422 472.28,-19.75"
         style="fill:#48bf8b;fill-opacity:1;fill-rule:evenodd;stroke:none"
         id="path268" />
      <path
         d="m 6359.14,489 c -74.61,4.371 -149.2,8.891 -223.91,10.441 -21.47,-78.57 -42.89,-156.91 -64.38,-235.57 h 293.23 c 0.9,75.117 1.34,150.18 -4.94,225.129"
         style="fill:#67b2d0;fill-opacity:1;fill-rule:evenodd;stroke:none"
         id="path270" />
      <path
         d="m 6424.08,263.871 h 236.99 c -9.79,72.301 -19.47,143.918 -29.14,215.43 -70.92,-0.571 -141.72,2.461 -212.5,6.308 5.99,-73.82 5.53,-147.75 4.65,-221.738"
         style="fill:#b9a47e;fill-opacity:1;fill-rule:evenodd;stroke:none"
         id="path272" />
      <path
         d="m 6013.24,661.762 c 15.66,59.187 31.17,118.449 46.38,177.957 -131.77,49.242 -260.95,97.5 -393.24,146.922 -3.03,-78.379 -5.97,-156.371 -8.88,-234.231 119.84,-24.578 236.07,-64.941 355.74,-90.648"
         style="fill:#67b2d0;fill-opacity:1;fill-rule:evenodd;stroke:none"
         id="path274" />
      <path
         d="m 5655.25,691.762 c -5.25,-143.051 -10.31,-285.621 -15,-428.383 h 263.71 c 32.21,113.281 63.4,226.672 93.83,340.43 -115.28,24.73 -227.35,63.14 -342.54,87.953"
         style="fill:#7cc2d7;fill-opacity:1;fill-rule:evenodd;stroke:none"
         id="path276" />
      <path
         d="M 262.078,4078.04 V 3747.6 c 11.516,-6.93 22.961,-13.81 34.504,-20.74 2.52,3.3 4.59,4.96 5.273,7.07 35.54,108.91 71.016,217.85 106.524,326.77 -49.043,2.79 -97.676,9.78 -146.301,17.34"
         style="fill:#91cedd;fill-opacity:1;fill-rule:evenodd;stroke:none"
         id="path278" />
      <path
         d="m 427.656,4119.84 c 37.442,114.87 74.903,229.73 112.332,344.59 -92.664,2.01 -185.269,6.34 -277.91,9.3 v -335.69 c 55,-8.54 110.031,-16.37 165.578,-18.2"
         style="fill:#b9a47e;fill-opacity:1;fill-rule:evenodd;stroke:none"
         id="path280" />
      <path
         d="m 565.906,4543.94 c 19.145,58.75 38.313,117.49 57.453,176.24 1.219,3.74 1.551,7.78 2.161,11.71 0.093,0.66 -0.493,1.47 -0.84,2.17 -0.344,0.7 -0.793,1.34 -1.633,2.75 H 262.078 v -183.08 c 101.281,-3.24 202.512,-8.14 303.828,-9.79"
         style="fill:#67b2d0;fill-opacity:1;fill-rule:evenodd;stroke:none"
         id="path282" />
      <path
         d="m 5401.44,3141.32 c 131.68,-46.61 263.3,-93.19 396.62,-140.38 -13.03,73.45 -25.15,142.48 -37.54,211.46 -12.38,69.15 -24.72,138.3 -37.6,207.37 -12.73,68.37 -23.18,137.22 -38.55,208.22 -100.98,-67.91 -200.96,-135.15 -301,-202.43 10.04,-94.46 15.51,-189.3 18.07,-284.24"
         style="fill:#67b2d0;fill-opacity:1;fill-rule:evenodd;stroke:none"
         id="path284" />
      <path
         d="m 5327.05,3387.67 c -71.2,-47.88 -142.47,-95.81 -214.34,-144.15 76.39,-27.04 152.27,-53.9 228.09,-80.73 -2.41,75.09 -6.74,150.09 -13.75,224.88"
         style="fill:#7cc2d7;fill-opacity:1;fill-rule:evenodd;stroke:none"
         id="path286" />
      <path
         d="m 748.652,547.539 c -81.797,3.07 -163.718,6.141 -245.984,9.231 -24.016,-98.051 -47.844,-195.309 -72.031,-294.059 8.941,-0.59 15.222,-1.371 21.492,-1.379 104.504,-0.043 209.004,-0.043 313.508,-0.094 -3.449,95.492 -12.844,191.383 -16.985,286.301"
         style="fill:#b9a47e;fill-opacity:1;fill-rule:evenodd;stroke:none"
         id="path288" />
      <path
         d="m 1239.4,529.109 c -136.75,5.133 -273.56,10.262 -410.755,15.422 3.914,-94.211 12.5,-188.941 15.828,-283.39 43.465,-0.039 86.945,-0.039 130.41,-0.141 14.211,-0.039 23.437,5.121 32.797,15.18 61.54,66.101 123.67,131.66 185.6,197.39 15.84,16.821 31.68,33.629 47.52,50.442 -0.47,1.699 -0.93,3.398 -1.4,5.097"
         style="fill:#5696ce;fill-opacity:1;fill-rule:evenodd;stroke:none"
         id="path290" />
      <path
         d="M 1586.8,492.191 C 1515.1,416.18 1443.32,340.102 1370.76,263.18 h 333.67 c -39.22,76.332 -78.25,152.761 -117.63,229.011"
         style="fill:#67b2d0;fill-opacity:1;fill-rule:evenodd;stroke:none"
         id="path292" />
      <path
         d="m 1771.86,263.18 h 240.76 c -82.65,141.261 -163.54,279.511 -245.71,419.941 -45.67,-48.422 -91.12,-96.601 -136.54,-144.742 47.41,-91.598 94.22,-183.52 141.49,-275.199"
         style="fill:#b9a47e;fill-opacity:1;fill-rule:evenodd;stroke:none"
         id="path294" />
      <path
         d="m 1763.32,4737.1 v -117.51 c 25.38,-1.38 50.75,-2.81 76.13,-4.16 74.26,-3.95 148.54,-7.33 222.8,-11.29 42.57,-2.27 85.16,-4.58 127.74,-6.9 v 139.69 c -142.23,0.06 -284.44,0.11 -426.67,0.17"
         style="fill:#5696ce;fill-opacity:1;fill-rule:evenodd;stroke:none"
         id="path296" />
      <path
         d="m 1703.32,4737.12 c -62.95,0.02 -125.91,0.07 -188.86,0.08 -4.71,0 -9.43,-1.09 -14.13,-1.79 -0.72,-0.1 -1.41,-0.75 -2,-1.29 -0.54,-0.49 -0.92,-1.18 -1.53,-1.99 v -96.94 c 8.26,-0.91 13.79,-1.79 19.33,-2.09 62.4,-3.44 124.8,-6.82 187.19,-10.23 v 114.25"
         style="fill:#91cedd;fill-opacity:1;fill-rule:evenodd;stroke:none"
         id="path298" />
      <path
         d="m 2560.54,4736.78 c -103.52,0.07 -207.03,0.07 -310.55,0.12 v -142.94 c 52.37,-2.91 104.76,-5.85 157.12,-8.95 13.52,-0.8 22.27,3.72 31.17,13.15 37.31,39.55 75.3,78.46 112.95,117.7 5.23,5.45 9.96,11.39 15.09,17.3 -3.21,2.07 -4.49,3.62 -5.78,3.62"
         style="fill:#7cc2d7;fill-opacity:1;fill-rule:evenodd;stroke:none"
         id="path300" />
      <path
         d="m 7235.5,262.77 c -116.95,0 -232.48,0 -350.29,0 -12.7,92.859 -25.33,185.199 -38.38,280.371 8.3,-2.09 14.16,-2.969 19.59,-5.012 116.7,-43.508 233.34,-87.109 349.96,-130.797 20.63,-7.711 20.78,-7.91 20.92,-28.73 0.2,-31.172 0.16,-62.364 -0.02,-93.532 -0.04,-6.968 -1.07,-13.949 -1.78,-22.3"
         style="fill:#67b2d0;fill-opacity:1;fill-rule:evenodd;stroke:none"
         id="path302" />
      <path
         d="m 3846.74,4498 c 7.8,78.52 15.59,157.04 23.3,234.71 19.46,5.44 308.28,6.85 343,1.6 -122.21,-80.76 -241.67,-159.69 -361.12,-238.62 -1.72,0.77 -3.46,1.54 -5.18,2.31"
         style="fill:#67b2d0;fill-opacity:1;fill-rule:evenodd;stroke:none"
         id="path304" />
      <path
         d="m 5581.34,4737.68 c 88.97,0 175.59,0 266.02,0 -40.96,-87.91 -80.9,-173.66 -121.06,-259.86 -13.59,13.05 -123.02,209.4 -144.96,259.86"
         style="fill:#67b2d0;fill-opacity:1;fill-rule:evenodd;stroke:none"
         id="path306" />
      <path
         d="m 532.891,3259.13 c -92.649,-19.62 -179.715,-38.06 -268.914,-56.94 0,74.85 0,146.44 0,218.36 0.164,0.11 0.757,0.64 1.445,0.96 0.664,0.33 1.687,0.88 2.117,0.62 82.578,-50.04 165.137,-100.13 247.637,-150.29 4.597,-2.8 8.789,-6.27 17.715,-12.71"
         style="fill:#5696ce;fill-opacity:1;fill-rule:evenodd;stroke:none"
         id="path308" />
      <g
         id="g310">
        <g
           id="g312"
           clip-path="url(#clipPath316)">
          <path
             d="m 3066.97,5163.03 c -208.85,-217 -417.7,-433.99 -626.55,-651 -437,-454.07 -874,-908.13 -1311.01,-1362.19 C 748.559,2754.12 367.703,2358.39 -13.1484,1962.68 c -83.2969,-86.56 -166.5856,-173.1 -249.8826,-259.64 -67.063,-69.68 38.883,-175.88 106.062,-106.08 208.8479,217 417.696,434.01 626.543,651.01 437.008,454.07 874.006,908.13 1311.016,1362.19 380.85,395.72 761.7,791.45 1142.56,1187.17 83.3,86.55 166.59,173.09 249.88,259.64 67.06,69.67 -38.88,175.87 -106.06,106.06 v 0"
             style="fill:#ffffff;fill-opacity:1;fill-rule:nonzero;stroke:none"
             id="path318" />
          <path
             d="m 2180.06,4057.68 c 231.31,-81.85 462.62,-163.7 693.92,-245.54 539.27,-190.82 1078.53,-381.64 1617.79,-572.45 615.25,-217.7 1230.48,-435.4 1845.72,-653.1 459.23,-162.5 918.46,-325 1377.69,-487.49 104.96,-37.15 209.92,-74.29 314.87,-111.42 91.44,-32.35 130.41,112.6 39.89,144.64 -231.31,81.85 -462.62,163.7 -693.93,245.54 -539.26,190.82 -1078.52,381.64 -1617.79,572.45 -615.24,217.7 -1230.48,435.4 -1845.72,653.1 -459.22,162.5 -918.46,325 -1377.69,487.49 -104.95,37.14 -209.91,74.28 -314.87,111.42 -91.43,32.35 -130.41,-112.61 -39.88,-144.64 v 0"
             style="fill:#ffffff;fill-opacity:1;fill-rule:nonzero;stroke:none"
             id="path320" />
          <path
             d="m 1697.68,3660.06 c 104.31,-302.14 208.62,-604.27 312.93,-906.4 208.68,-604.46 417.36,-1208.92 626.05,-1813.39 156.68,-453.848 313.37,-907.7192 470.07,-1361.59 13.65,-39.539 27.3,-79.078 40.95,-118.621 31.37,-90.848 176.29,-51.809 144.64,39.882 -104.31,302.129 -208.62,604.27 -312.93,906.411 -208.68,604.448 -417.36,1208.908 -626.05,1813.378 -156.68,453.86 -313.37,907.72 -470.07,1361.59 -13.65,39.53 -27.3,79.08 -40.95,118.62 -31.37,90.85 -176.29,51.81 -144.64,-39.88 v 0"
             style="fill:#ffffff;fill-opacity:1;fill-rule:nonzero;stroke:none"
             id="path322" />
          <path
             d="m 4849.62,3141.07 c 336.02,225.99 672.03,451.97 1008.03,677.95 478.88,322.08 957.77,644.15 1436.64,966.22 54.52,36.66 109.04,73.33 163.56,110 79.79,53.67 4.81,183.68 -75.71,129.52 -336.01,-225.99 -672.02,-451.97 -1008.02,-677.95 -478.88,-322.08 -957.77,-644.14 -1436.64,-966.21 -54.53,-36.67 -109.04,-73.34 -163.56,-110 -79.79,-53.67 -4.81,-183.68 75.7,-129.53 v 0"
             style="fill:#ffffff;fill-opacity:1;fill-rule:nonzero;stroke:none"
             id="path324" />
          <path
             d="M 5525,2910 C 5510.73,2517.69 5496.46,2125.37 5482.19,1733.05 5460.38,1133.04 5438.56,533.031 5416.74,-66.9883 5412.83,-174.66 5408.91,-282.328 5405,-390 c -3.52,-96.781 146.49,-96.441 150,0 14.26,392.30859 28.53,784.629 42.8,1176.949 21.81,600.011 43.63,1200.021 65.45,1800.041 3.91,107.67 7.83,215.34 11.75,323.01 3.51,96.77 -146.5,96.43 -150,0 v 0"
             style="fill:#ffffff;fill-opacity:1;fill-rule:nonzero;stroke:none"
             id="path326" />
          <path
             d="M 2423.32,1687.06 C 2102.82,1347.43 1782.32,1007.8 1461.82,668.172 1236.87,429.789 1011.92,191.422 786.969,-46.9609 720.645,-117.25 826.523,-223.52 893.031,-153.039 1213.53,186.59 1534.03,526.219 1854.53,865.852 c 224.95,238.378 449.9,476.758 674.85,715.138 66.32,70.28 -39.56,176.55 -106.06,106.07 v 0"
             style="fill:#ffffff;fill-opacity:1;fill-rule:nonzero;stroke:none"
             id="path328" />
          <path
             d="m 1176.1,3115.65 c -404.768,248.14 -809.541,496.29 -1214.3148,744.44 -7.9766,4.89 -15.9532,9.78 -23.9336,14.67 -82.7066,50.7 -158.0036,-79.07 -75.7036,-129.52 404.77,-248.15 809.547,-496.29 1214.312,-744.44 7.98,-4.89 15.96,-9.78 23.94,-14.67 82.71,-50.71 158,79.07 75.7,129.52 v 0"
             style="fill:#ffffff;fill-opacity:1;fill-rule:nonzero;stroke:none"
             id="path330" />
          <path
             d="m 2917.86,475.238 c 725.62,346.41 1446.72,702.402 2167.96,1057.822 170.35,83.95 340.67,167.97 510.89,252.18 86.71,42.89 10.69,172.26 -75.7,129.52 C 4995.78,1654.9 4469.95,1396.24 3943.55,1138.77 3577.04,959.5 3210.35,780.539 2842.14,604.762 c -87.26,-41.653 -11.11,-170.973 75.72,-129.524 v 0"
             style="fill:#ffffff;fill-opacity:1;fill-rule:nonzero;stroke:none"
             id="path332" />
          <path
             d="m 5934.75,3957.85 c -232.61,426.99 -465.22,853.99 -697.84,1280.98 -10.71,19.67 -21.44,39.35 -32.16,59.02 -46.28,84.96 -175.8,9.26 -129.51,-75.7 232.61,-426.99 465.22,-853.99 697.84,-1280.98 10.71,-19.67 21.44,-39.35 32.16,-59.02 46.28,-84.96 175.8,-9.26 129.51,75.7 v 0"
             style="fill:#ffffff;fill-opacity:1;fill-rule:nonzero;stroke:none"
             id="path334" />
          <path
             d="M 5520.05,1107.68 C 5964.81,941.422 6409.57,775.16 6854.32,608.891 7122.9,508.492 7391.48,408.09 7660.05,307.68 c 90.79,-33.942 129.63,111.09 39.89,144.64 -444.76,166.262 -889.52,332.52 -1334.27,498.789 -268.58,100.401 -537.16,200.801 -805.73,301.211 -90.79,33.94 -129.63,-111.09 -39.89,-144.64 v 0"
             style="fill:#ffffff;fill-opacity:1;fill-rule:nonzero;stroke:none"
             id="path336" />
          <path
             d="m 3700,3640 c 48.92,492.2 97.83,984.4 146.74,1476.6 4.43,44.46 8.84,88.93 13.26,133.4 6.38,64.16 -93.68,63.55 -100,0 -48.91,-492.2 -97.83,-984.4 -146.74,-1476.6 -4.42,-44.46 -8.84,-88.93 -13.26,-133.4 -6.38,-64.17 93.69,-63.55 100,0 v 0"
             style="fill:#ffffff;fill-opacity:1;fill-rule:nonzero;stroke:none"
             id="path338" />
          <path
             d="m 6404.76,4236.83 c 397.02,-252.66 794.04,-505.31 1191.07,-757.95 6.3,-4.02 12.62,-8.04 18.93,-12.05 54.58,-34.74 104.69,51.84 50.47,86.34 -397.02,252.66 -794.04,505.31 -1191.06,757.96 -6.31,4.01 -12.63,8.03 -18.94,12.05 -54.58,34.73 -104.69,-51.85 -50.47,-86.35 v 0"
             style="fill:#ffffff;fill-opacity:1;fill-rule:nonzero;stroke:none"
             id="path340" />
          <path
             d="m 4080,3440 c -6.16,-472.34 -12.32,-944.69 -18.48,-1417.03 -3.84,-294.33 -7.68,-588.64 -11.52,-882.97 -0.83,-64.51 99.17,-64.43 100,0 6.17,472.34 12.33,944.69 18.49,1417.03 3.84,294.33 7.68,588.65 11.51,882.97 0.84,64.52 -99.16,64.43 -100,0 v 0"
             style="fill:#ffffff;fill-opacity:1;fill-rule:nonzero;stroke:none"
             id="path342" />
          <path
             d="m 6966.82,2445.23 c -200.99,-455.18 -401.98,-910.38 -602.98,-1365.56 -25.67,-58.15 -51.34,-116.291 -77.02,-174.44 -25.79,-58.41 60.35,-109.351 86.35,-50.46 201,455.18 401.98,910.38 602.98,1365.56 25.67,58.15 51.35,116.29 77.02,174.44 25.79,58.41 -60.35,109.35 -86.35,50.46 v 0"
             style="fill:#ffffff;fill-opacity:1;fill-rule:nonzero;stroke:none"
             id="path344" />
          <path
             d="m 6661.78,716.711 c 46.67,-343.332 93.33,-686.6719 140,-1030 8.65,-63.649 104.99,-36.449 96.43,26.578 -46.67,343.3321 -93.33,686.672 -140,1030 -8.65,63.652 -104.99,36.453 -96.43,-26.578 v 0"
             style="fill:#ffffff;fill-opacity:1;fill-rule:nonzero;stroke:none"
             id="path346" />
          <path
             d="M 4711.78,1483.29 C 4546.74,1016.1 4381.71,548.93 4216.67,81.7422 4165.04,-64.4102 4113.42,-210.559 4061.79,-356.711 c -21.53,-60.969 75.1,-86.949 96.43,-26.578 165.04,467.1913 330.07,934.359 495.11,1401.549 51.63,146.15 103.25,292.3 154.88,438.45 21.53,60.97 -75.1,86.95 -96.43,26.58 v 0"
             style="fill:#ffffff;fill-opacity:1;fill-rule:nonzero;stroke:none"
             id="path348" />
          <path
             d="m 1726.83,874.77 c 247.55,-423.028 495.09,-846.0591 742.64,-1269.09 15.79,-26.969 31.57,-53.938 47.36,-80.91 32.54,-55.61 118.99,-5.309 86.34,50.46 -247.54,423.03172 -495.09,846.059 -742.64,1269.09 -15.79,26.969 -31.57,53.942 -47.36,80.91 -32.54,55.61 -118.99,5.309 -86.34,-50.46 v 0"
             style="fill:#ffffff;fill-opacity:1;fill-rule:nonzero;stroke:none"
             id="path350" />
          <path
             d="m 1440,3320 c -2.43,490.84 -4.86,981.68 -7.29,1472.52 -0.9,182.49 -1.81,364.98 -2.71,547.48 -0.32,64.47 -100.32,64.5 -100,0 2.43,-490.84 4.86,-981.68 7.29,-1472.52 0.9,-182.49 1.81,-364.98 2.71,-547.48 0.32,-64.47 100.32,-64.5 100,0 v 0"
             style="fill:#ffffff;fill-opacity:1;fill-rule:nonzero;stroke:none"
             id="path352" />
          <path
             d="m 2165.23,1313.17 c -444.16,203.19 -888.32,406.36 -1332.488,609.54 -182.5,83.49 -365.004,166.98 -547.508,250.46 -58.195,26.62 -109.05,-59.55 -50.468,-86.34 444.16,-203.19 888.324,-406.36 1332.494,-609.54 182.5,-83.49 365,-166.98 547.51,-250.46 58.19,-26.62 109.05,59.55 50.46,86.34 v 0"
             style="fill:#ffffff;fill-opacity:1;fill-rule:nonzero;stroke:none"
             id="path354" />
          <path
             d="m 3136.83,3815.23 c -261.34,-426.09 -522.68,-852.18 -784.01,-1278.27 -45.33,-73.91 -90.66,-147.82 -135.99,-221.73 -33.82,-55.12 52.7,-105.32 86.34,-50.46 261.34,426.09 522.68,852.18 784.01,1278.27 45.33,73.91 90.66,147.82 135.99,221.73 33.82,55.13 -52.7,105.32 -86.34,50.46 v 0"
             style="fill:#ffffff;fill-opacity:1;fill-rule:nonzero;stroke:none"
             id="path356" />
          <path
             d="m 5752.38,4211.07 c 163.33,350 326.66,700 490,1050 20.31,43.54 -44.33,81.66 -64.77,37.86 -163.33,-350 -326.66,-700 -490,-1050 -20.31,-43.54 44.33,-81.66 64.77,-37.86 v 0"
             style="fill:#ffffff;fill-opacity:1;fill-rule:nonzero;stroke:none"
             id="path358" />
          <path
             d="m 5713.83,3820.03 c 60,-333.33 120,-666.67 180,-1000 8.57,-47.55 80.83,-27.34 72.33,19.94 -60,333.33 -120,666.67 -180,1000 -8.57,47.55 -80.83,27.34 -72.33,-19.94 v 0"
             style="fill:#ffffff;fill-opacity:1;fill-rule:nonzero;stroke:none"
             id="path360" />
          <path
             d="m 5580.02,2123.84 c 383.34,-103.33 766.67,-206.67 1150,-310 46.77,-12.61 66.6,59.74 19.95,72.32 -383.34,103.33 -766.67,206.67 -1150,310 -46.77,12.61 -66.6,-59.74 -19.95,-72.32 v 0"
             style="fill:#ffffff;fill-opacity:1;fill-rule:nonzero;stroke:none"
             id="path362" />
          <path
             d="m 2480.03,2583.84 c 472.54,-155.56 945.08,-311.12 1417.62,-466.67 64.13,-21.11 128.25,-42.22 192.38,-63.33 46.08,-15.17 65.66,57.27 19.95,72.32 -472.54,155.56 -945.09,311.12 -1417.63,466.67 -64.12,21.11 -128.25,42.22 -192.38,63.33 -46.07,15.17 -65.66,-57.27 -19.94,-72.32 v 0"
             style="fill:#ffffff;fill-opacity:1;fill-rule:nonzero;stroke:none"
             id="path364" />
          <path
             d="m 376.16,3520.03 c 154.117,473.17 308.235,946.34 462.352,1419.5 35.883,110.17 71.765,220.33 107.648,330.5 15.024,46.12 -57.41,65.72 -72.32,19.94 C 719.723,4816.8 565.605,4343.63 411.488,3870.47 375.605,3760.3 339.723,3650.14 303.84,3539.97 c -15.024,-46.12 57.41,-65.72 72.32,-19.94 v 0"
             style="fill:#ffffff;fill-opacity:1;fill-rule:nonzero;stroke:none"
             id="path366" />
          <path
             d="M 693.84,1909.97 C 577.141,1433.64 460.438,957.309 343.738,481 297.105,290.648 250.473,100.309 203.84,-90.0313 192.328,-137 264.652,-156.93 276.16,-109.969 392.859,366.359 509.563,842.691 626.262,1319 c 46.633,190.35 93.265,380.69 139.898,571.03 11.512,46.97 -60.812,66.9 -72.32,19.94 v 0"
             style="fill:#ffffff;fill-opacity:1;fill-rule:nonzero;stroke:none"
             id="path368" />
          <path
             d="m 4561.07,857.621 c 310,-153.332 620,-306.66 930,-460 43.19,-21.371 81.21,43.32 37.85,64.758 -310,153.332 -620,306.66 -930,460 -43.19,21.371 -81.21,-43.32 -37.85,-64.758 v 0"
             style="fill:#ffffff;fill-opacity:1;fill-rule:nonzero;stroke:none"
             id="path370" />
          <path
             d="m 3738.93,4257.62 c 412.96,272.76 825.92,545.52 1238.89,818.28 127.03,83.9 254.07,167.81 381.1,251.72 40.16,26.52 2.64,91.5 -37.85,64.76 -412.96,-272.76 -825.93,-545.52 -1238.89,-818.28 -127.04,-83.9 -254.07,-167.81 -381.11,-251.72 -40.15,-26.52 -2.63,-91.5 37.86,-64.76 v 0"
             style="fill:#ffffff;fill-opacity:1;fill-rule:nonzero;stroke:none"
             id="path372" />
          <path
             d="m 585.016,4201.92 c 260,-76.67 519.994,-153.33 779.994,-230 23.26,-6.86 33.12,29.33 9.98,36.16 -260,76.67 -520.006,153.34 -780.006,230 -23.25,6.86 -33.109,-29.33 -9.968,-36.16 v 0"
             style="fill:#ffffff;fill-opacity:1;fill-rule:nonzero;stroke:none"
             id="path374" />
          <path
             d="m 2053.81,2899.46 c -247.43,-406.96 -494.86,-813.92 -742.3,-1220.89 -5.9,-9.69 -11.8,-19.4 -17.7,-29.11 -12.6,-20.72 19.84,-39.55 32.38,-18.92 247.43,406.96 494.86,813.92 742.3,1220.88 5.9,9.71 11.8,19.41 17.7,29.12 12.6,20.72 -19.84,39.55 -32.38,18.92 v 0"
             style="fill:#ffffff;fill-opacity:1;fill-rule:nonzero;stroke:none"
             id="path376" />
          <path
             d="m 430,621.25 c 356.664,-13.328 713.33,-26.668 1070,-40 24.19,-0.91 24.11,36.602 0,37.5 -356.67,13.332 -713.336,26.672 -1070,40 -24.195,0.91 -24.105,-36.602 0,-37.5 v 0"
             style="fill:#ffffff;fill-opacity:1;fill-rule:nonzero;stroke:none"
             id="path378" />
          <path
             d="m 4110,2431.25 c 475.34,29.3 950.66,58.6 1425.99,87.91 11.34,0.69 22.67,1.39 34.01,2.09 24.02,1.48 24.16,38.99 0,37.5 -475.34,-29.3 -950.66,-58.6 -1425.99,-87.9 -11.34,-0.7 -22.67,-1.4 -34.01,-2.1 -24.02,-1.48 -24.16,-38.99 0,-37.5 v 0"
             style="fill:#ffffff;fill-opacity:1;fill-rule:nonzero;stroke:none"
             id="path380" />
          <path
             d="m 6151.92,934.98 c -106.67,-390 -213.34,-780 -320,-1170 -6.4,-23.359 29.78,-33.261 36.15,-9.96 106.67,390 213.34,780 320,1170 6.4,23.359 -29.78,33.261 -36.15,9.96 v 0"
             style="fill:#ffffff;fill-opacity:1;fill-rule:nonzero;stroke:none"
             id="path382" />
          <path
             d="m 6554.98,1311.92 c 393.34,86.66 786.67,173.33 1180,260 23.61,5.2 13.6,41.35 -9.97,36.16 -393.34,-86.66 -786.67,-173.33 -1180,-260 -23.61,-5.2 -13.6,-41.35 9.97,-36.16 v 0"
             style="fill:#ffffff;fill-opacity:1;fill-rule:nonzero;stroke:none"
             id="path384" />
          <path
             d="m 6901.92,3964.99 c -178.82,-427.17 -357.64,-854.34 -536.45,-1281.51 -1.19,-2.83 -2.37,-5.66 -3.55,-8.49 -9.34,-22.3 26.96,-31.94 36.15,-9.98 178.82,427.17 357.64,854.34 536.45,1281.51 1.19,2.83 2.37,5.66 3.55,8.49 9.34,22.3 -26.96,31.94 -36.15,9.98 v 0"
             style="fill:#ffffff;fill-opacity:1;fill-rule:nonzero;stroke:none"
             id="path386" />
          <path
             d="m 5403.8,4729.46 c -270.63,-414.97 -541.27,-829.94 -811.9,-1244.92 -29.37,-45.02 -58.73,-90.05 -88.1,-135.08 -13.25,-20.32 19.23,-39.09 32.39,-18.92 270.63,414.97 541.27,829.94 811.9,1244.92 29.37,45.02 58.73,90.05 88.1,135.08 13.25,20.32 -19.23,39.09 -32.39,18.92 v 0"
             style="fill:#ffffff;fill-opacity:1;fill-rule:nonzero;stroke:none"
             id="path388" />
          <path
             d="m 3531.92,2254.98 c -130.17,-478.3 -260.34,-956.61 -390.52,-1434.921 -13.16,-48.36 -26.32,-96.719 -39.48,-145.079 -6.36,-23.371 29.82,-33.269 36.16,-9.96 130.17,478.3 260.34,956.61 390.52,1434.92 13.16,48.36 26.32,96.72 39.48,145.08 6.36,23.37 -29.82,33.27 -36.16,9.96 v 0"
             style="fill:#ffffff;fill-opacity:1;fill-rule:nonzero;stroke:none"
             id="path390" />
          <path
             d="m 3703.81,920.539 c 163.33,-340 326.66,-680 489.99,-1019.9999 10.47,-21.7971 42.81,-2.7691 32.39,18.9218 -163.33,340.0001 -326.66,680.0001 -490,1020.0001 -10.47,21.801 -42.8,2.769 -32.38,-18.922 v 0"
             style="fill:#ffffff;fill-opacity:1;fill-rule:nonzero;stroke:none"
             id="path392" />
          <path
             d="m 2510,4518.75 c -376.67,20 -753.33,40 -1130,60 -24.17,1.29 -24.05,-36.22 0,-37.5 376.67,-20 753.33,-40 1130,-60 24.17,-1.29 24.05,36.22 0,37.5 v 0"
             style="fill:#ffffff;fill-opacity:1;fill-rule:nonzero;stroke:none"
             id="path394" />
          <path
             d="m 775.016,3248.08 c -266.664,-56.66 -533.332,-113.33 -800.0004,-170 -23.6484,-5.02 -13.6172,-41.17 9.9688,-36.16 266.6636,56.66 533.3316,113.33 799.9996,170 23.649,5.02 13.621,41.17 -9.968,36.16 v 0"
             style="fill:#ffffff;fill-opacity:1;fill-rule:nonzero;stroke:none"
             id="path396" />
          <path
             d="m 2940,3408.75 c -340,0 -680,0 -1020,0 -24.18,0 -24.18,-37.5 0,-37.5 340,0 680,0 1020,0 24.18,0 24.18,37.5 0,37.5 v 0"
             style="fill:#ffffff;fill-opacity:1;fill-rule:nonzero;stroke:none"
             id="path398" />
        </g>
      </g>
      <path
         d="m 3086.46,4603.14 c 48.36,0 48.36,75 0,75 -48.37,0 -48.37,-75 0,-75 v 0"
         style="fill:#48bf8b;fill-opacity:1;fill-rule:nonzero;stroke:none"
         id="path400" />
      <path
         d="m 3086.46,4483.14 c 48.36,0 48.36,75 0,75 -48.37,0 -48.37,-75 0,-75 v 0"
         style="fill:#48bf8b;fill-opacity:1;fill-rule:nonzero;stroke:none"
         id="path402" />
      <path
         d="m 3086.46,4363.14 c 48.36,0 48.36,75 0,75 -48.37,0 -48.37,-75 0,-75 v 0"
         style="fill:#48bf8b;fill-opacity:1;fill-rule:nonzero;stroke:none"
         id="path404" />
      <path
         d="m 6234.84,2435.4 c 48.37,0 48.37,75 0,75 -48.37,0 -48.37,-75 0,-75 v 0"
         style="fill:#48bf8b;fill-opacity:1;fill-rule:nonzero;stroke:none"
         id="path406" />
      <path
         d="m 6124.84,2465.4 c 48.37,0 48.37,75 0,75 -48.37,0 -48.37,-75 0,-75 v 0"
         style="fill:#48bf8b;fill-opacity:1;fill-rule:nonzero;stroke:none"
         id="path408" />
      <path
         d="m 3383.22,983.789 c 48.37,0 48.37,75.001 0,75.001 -48.36,0 -48.36,-75.001 0,-75.001 v 0"
         style="fill:#48bf8b;fill-opacity:1;fill-rule:nonzero;stroke:none"
         id="path410" />
      <path
         d="m 3510,1032.5 c 48.36,0 48.36,75 0,75 -48.36,0 -48.36,-75 0,-75 v 0"
         style="fill:#48bf8b;fill-opacity:1;fill-rule:nonzero;stroke:none"
         id="path412" />
      <path
         d="m 3640,1087.5 c 48.36,0 48.36,75 0,75 -48.36,0 -48.36,-75 0,-75 v 0"
         style="fill:#48bf8b;fill-opacity:1;fill-rule:nonzero;stroke:none"
         id="path414" />
      <path
         d="m 1057.74,1945.08 c 48.37,0 48.37,75 0,75 -48.36,0 -48.36,-75 0,-75 v 0"
         style="fill:#48bf8b;fill-opacity:1;fill-rule:nonzero;stroke:none"
         id="path416" />
      <path
         d="m 1172.5,1890 c 48.36,0 48.36,75 0,75 -48.36,0 -48.36,-75 0,-75 v 0"
         style="fill:#48bf8b;fill-opacity:1;fill-rule:nonzero;stroke:none"
         id="path418" />
      <path
         d="m 1280,1830 c 48.36,0 48.36,75 0,75 -48.36,0 -48.36,-75 0,-75 v 0"
         style="fill:#48bf8b;fill-opacity:1;fill-rule:nonzero;stroke:none"
         id="path420" />
      <path
         d="m 1760,3623.33 c 64.49,0 64.49,100 0,100 -64.49,0 -64.49,-100 0,-100 v 0"
         style="fill:#b8e8f1;fill-opacity:1;fill-rule:nonzero;stroke:none"
         id="path422" />
      <path
         d="m 5543.33,1773.33 c 64.49,0 64.49,100 0,100 -64.48,0 -64.48,-100 0,-100 v 0"
         style="fill:#b8e8f1;fill-opacity:1;fill-rule:nonzero;stroke:none"
         id="path424" />
      <path
         d="m 4880,3163.33 c 64.48,0 64.48,100 0,100 -64.49,0 -64.49,-100 0,-100 v 0"
         style="fill:#b8e8f1;fill-opacity:1;fill-rule:nonzero;stroke:none"
         id="path426" />
      <path
         d="m 2870,486.672 c 64.49,0 64.49,100 0,100 -64.49,0 -64.49,-100 0,-100 v 0"
         style="fill:#b8e8f1;fill-opacity:1;fill-rule:nonzero;stroke:none"
         id="path428" />
      <path
         d="m 3769.13,2743.08 c -62.31,57.17 -144.7,250.18 0.19,250.38 147.76,0.17 59.73,-189.42 -0.19,-250.38"
         style="fill:#ed1a7a;fill-opacity:1;fill-rule:nonzero;stroke:none"
         id="path430" />
      <path
         d="m 3766.86,2876.71 c 48.56,0 48.56,72.84 0,72.84 -48.56,0 -48.56,-72.84 0,-72.84 v 0"
         style="fill:#ffffff;fill-opacity:1;fill-rule:nonzero;stroke:none"
         id="path432" />
      <path
         d="m 847.461,1090.62 c -62.305,57.17 -144.688,250.18 0.195,250.39 147.766,0.16 59.727,-189.43 -0.195,-250.39"
         style="fill:#ed1a7a;fill-opacity:1;fill-rule:nonzero;stroke:none"
         id="path434" />
      <path
         d="m 845.195,1224.26 c 48.555,0 48.555,72.83 0,72.83 -48.554,0 -48.554,-72.83 0,-72.83 v 0"
         style="fill:#ffffff;fill-opacity:1;fill-rule:nonzero;stroke:none"
         id="path436" />
      <path
         d="m 686.105,3666.79 c -62.304,57.18 -144.687,250.19 0.196,250.39 147.762,0.16 59.722,-189.43 -0.196,-250.39"
         style="fill:#ed1a7a;fill-opacity:1;fill-rule:nonzero;stroke:none"
         id="path438" />
      <path
         d="m 683.84,3800.43 c 48.555,0 48.555,72.84 0,72.84 -48.559,0 -48.559,-72.84 0,-72.84 v 0"
         style="fill:#ffffff;fill-opacity:1;fill-rule:nonzero;stroke:none"
         id="path440" />
      <path
         d="m 4691.95,4396.03 c -62.31,57.18 -144.69,250.18 0.19,250.39 147.76,0.16 59.73,-189.43 -0.19,-250.39"
         style="fill:#ed1a7a;fill-opacity:1;fill-rule:nonzero;stroke:none"
         id="path442" />
      <path
         d="m 4689.68,4529.67 c 48.56,0 48.56,72.83 0,72.83 -48.55,0 -48.55,-72.83 0,-72.83 v 0"
         style="fill:#ffffff;fill-opacity:1;fill-rule:nonzero;stroke:none"
         id="path444" />
      <path
         d="m 5242.51,1217.31 c -62.3,57.18 -144.68,250.19 0.2,250.39 147.75,0.17 59.73,-189.42 -0.2,-250.39"
         style="fill:#ed1a7a;fill-opacity:1;fill-rule:nonzero;stroke:none"
         id="path446" />
      <path
         d="m 5240.25,1350.96 c 48.55,0 48.55,72.83 0,72.83 -48.56,0 -48.56,-72.83 0,-72.83 v 0"
         style="fill:#ffffff;fill-opacity:1;fill-rule:nonzero;stroke:none"
         id="path448" />
      <path
         d="m 2976.43,1057.49 c -62.31,57.18 -144.69,250.19 0.19,250.38 147.76,0.18 59.73,-189.41 -0.19,-250.38"
         style="fill:#ed1a7a;fill-opacity:1;fill-rule:nonzero;stroke:none"
         id="path450" />
      <path
         d="m 2974.16,1191.13 c 48.55,0 48.55,72.83 0,72.83 -48.55,0 -48.55,-72.83 0,-72.83 v 0"
         style="fill:#ffffff;fill-opacity:1;fill-rule:nonzero;stroke:none"
         id="path452" />
      <path
         d="m 2601.7,3522.95 c -62.31,57.17 -144.69,250.17 0.19,250.38 147.77,0.17 59.73,-189.42 -0.19,-250.38"
         style="fill:#ed1a7a;fill-opacity:1;fill-rule:nonzero;stroke:none"
         id="path454" />
      <path
         d="m 2599.43,3656.58 c 48.56,0 48.56,72.83 0,72.83 -48.55,0 -48.55,-72.83 0,-72.83 v 0"
         style="fill:#ffffff;fill-opacity:1;fill-rule:nonzero;stroke:none"
         id="path456" />
      <path
         d="m 7026.19,3262.48 c -62.31,57.17 -144.69,250.18 0.19,250.38 147.76,0.17 59.73,-189.42 -0.19,-250.38"
         style="fill:#ed1a7a;fill-opacity:1;fill-rule:nonzero;stroke:none"
         id="path458" />
      <path
         d="m 7023.92,3396.11 c 48.56,0 48.56,72.84 0,72.84 -48.55,0 -48.55,-72.84 0,-72.84 v 0"
         style="fill:#ffffff;fill-opacity:1;fill-rule:nonzero;stroke:none"
         id="path460" />
      <path
         d="m 3851.04,345.352 c -4.32,-4.43 -8.03,-9.313 -11.07,-14.532 l -4.65,2.399 c -0.69,2.972 -3.5,5.023 -6.6,4.672 -3.3,-0.391 -5.67,-3.399 -5.3,-6.7 0.39,-3.32 3.4,-5.679 6.7,-5.293 0.67,0.082 1.27,0.25 1.84,0.532 l 4.51,-2.348 c -2.5,-5.543 -4.32,-11.383 -5.39,-17.441 l 7.48,-1.309 c 2.28,13.047 8.5,25.059 17.91,34.727 l -5.43,5.293"
         style="fill:#171f25;fill-opacity:1;fill-rule:nonzero;stroke:none"
         id="path462" />
      <path
         d="m 3905.92,368.359 c -1.72,0 -3.42,-0.058 -5.09,-0.16 l -0.75,6.25 c 1.88,1.512 2.97,3.891 2.66,6.449 -0.45,3.922 -4.02,6.743 -7.95,6.293 -3.93,-0.472 -6.74,-4.031 -6.27,-7.972 0.29,-2.539 1.9,-4.61 4.04,-5.629 l 0.73,-6.25 c -7.13,-1.149 -14.03,-3.32 -20.59,-6.442 l 3.26,-6.859 c 9.34,4.481 19.42,6.742 29.96,6.742 4.96,0 9.92,-0.531 14.75,-1.582 l 1.6,7.422 c -5.35,1.149 -10.84,1.738 -16.35,1.738"
         style="fill:#171f25;fill-opacity:1;fill-rule:nonzero;stroke:none"
         id="path464" />
      <path
         d="m 3971.94,342.891 c 3.32,0.41 5.66,3.418 5.25,6.718 -0.39,3.321 -3.4,5.661 -6.72,5.25 -3.08,-0.367 -5.35,-3.019 -5.29,-6.07 l -4.16,-3.629 c -4.18,4.289 -8.91,8.121 -14.08,11.379 l -4.04,-6.398 c 11.34,-7.149 20.21,-17.27 25.64,-29.262 l 6.89,3.121 c -2.5,5.551 -5.66,10.73 -9.41,15.449 l 4.02,3.52 c 0.61,-0.117 1.25,-0.16 1.9,-0.078"
         style="fill:#171f25;fill-opacity:1;fill-rule:nonzero;stroke:none"
         id="path466" />
      <path
         d="m 3900.45,266.289 c -3.86,-0.238 -7.75,-0.348 -11.58,-0.348 -8.79,0 -17.32,0.598 -24.78,1.789 -3.91,0.61 -8.46,1.551 -12.7,2.911 10.47,-18.61 30.69,-31.25 53.89,-31.25 28.55,0 52.62,19.16 59.49,45.039 -6.82,-4.489 -15.06,-8.258 -24.59,-11.231 -11.8,-3.668 -25.55,-6.07 -39.73,-6.91"
         style="fill:#171f25;fill-opacity:1;fill-rule:nonzero;stroke:none"
         id="path468" />
      <path
         d="m 3931.7,297.129 c -7.5,0 -13.61,6.113 -13.61,13.613 0,7.5 6.11,13.598 13.61,13.598 7.5,0 13.6,-6.098 13.6,-13.598 0,-7.5 -6.1,-13.613 -13.6,-13.613 z m -47.38,-9.078 c -10.19,0 -18.49,8.301 -18.49,18.488 0,10.223 8.3,18.52 18.49,18.52 10.2,0 18.5,-8.297 18.5,-18.52 0,-10.187 -8.3,-18.488 -18.5,-18.488 z m 21.6,65.148 c -33.51,0 -60.8,-26.66 -60.8,-59.429 0,-4.258 0.47,-8.5 1.37,-12.622 6.74,-4.816 27.07,-8.898 53.48,-7.296 28.8,1.738 52.96,9.57 66.71,21.578 -0.03,1.949 -0.19,3.91 -0.44,5.82 -3.79,29.609 -29.73,51.949 -60.32,51.949"
         style="fill:#171f25;fill-opacity:1;fill-rule:nonzero;stroke:none"
         id="path470" />
      <path
         d="m 4065.96,334.531 c -2.95,1.149 -8.06,3.09 -13.83,2.379 -5.5,-0.699 -8.43,-3.41 -8.43,-10.07 v -8.66 h 22.28 v -17.16 h -22.28 v -54.559 h -19.32 v 54.559 h -13.4 v 17.16 h 13.4 v 8.89 c 0,16.801 8.95,27.809 25.68,27.809 6.43,0 11.57,-1.207 15.9,-3.059 v -17.289"
         style="fill:#171f25;fill-opacity:1;fill-rule:nonzero;stroke:none"
         id="path472" />
      <path
         d="m 4112.97,301.211 c -1.75,0.289 -3.57,0.469 -5.25,0.469 -8.97,0 -15.1,-5.489 -15.1,-16.129 v -39.09 h -19.31 v 71.719 h 18.73 v -7.848 c 4.51,6.738 11.38,9.77 20.19,9.77 4.14,0 8.48,-1.27 10.94,-3.36 l -10.2,-15.531"
         style="fill:#171f25;fill-opacity:1;fill-rule:nonzero;stroke:none"
         id="path474" />
      <path
         d="m 4138.5,289.082 h 31.75 c -1.78,9.18 -7.33,14.379 -15.61,14.379 -9.11,0 -14.42,-5.492 -16.14,-14.379 z m 51.14,-6.66 c 0,-2.211 -0.15,-4.883 -0.37,-6.5 h -50.83 c 2.07,-10.371 9.32,-14.883 18.41,-14.883 6.23,0 12.95,2.512 18.15,6.891 l 11.32,-12.438 c -8.14,-7.48 -18.51,-10.883 -30.58,-10.883 -21.97,0 -37.22,14.961 -37.22,37.52 0,22.582 14.81,37.973 36.26,37.973 20.64,0 34.79,-15.313 34.86,-37.68"
         style="fill:#171f25;fill-opacity:1;fill-rule:nonzero;stroke:none"
         id="path476" />
      <path
         d="m 4215.03,289.082 h 31.76 c -1.78,9.18 -7.34,14.379 -15.62,14.379 -9.1,0 -14.44,-5.492 -16.14,-14.379 z m 51.16,-6.66 c 0,-2.211 -0.16,-4.883 -0.37,-6.5 h -50.86 c 2.07,-10.371 9.33,-14.883 18.43,-14.883 6.21,0 12.95,2.512 18.13,6.891 l 11.33,-12.438 c -8.15,-7.48 -18.5,-10.883 -30.57,-10.883 -21.99,0 -37.23,14.961 -37.23,37.52 0,22.582 14.81,37.973 36.27,37.973 20.65,0 34.79,-15.313 34.87,-37.68"
         style="fill:#171f25;fill-opacity:1;fill-rule:nonzero;stroke:none"
         id="path478" />
      <path
         d="m 4292.87,282.359 c 0,-11.32 7.48,-19.757 18.41,-19.757 11.41,0 18.52,8.808 18.52,19.757 0,10.942 -7.11,19.75 -18.52,19.75 -10.93,0 -18.41,-8.437 -18.41,-19.75 z m 56.75,0 c 0,-21.539 -14.94,-37.75 -34.7,-37.75 -9.61,0 -16.43,3.77 -21.1,9.321 v -37.071 h -19.24 V 318.18 h 18.87 v -7.93 c 4.67,5.859 11.55,9.852 21.39,9.852 19.84,0 34.78,-16.211 34.78,-37.743"
         style="fill:#171f25;fill-opacity:1;fill-rule:nonzero;stroke:none"
         id="path480" />
      <path
         d="m 4378.08,246.461 h -19.32 v 71.719 h 19.32 z m 2.58,95.18 c 0,-6.95 -5.39,-12.282 -12.34,-12.282 -6.98,0 -12.29,5.332 -12.29,12.282 0,6.949 5.31,12.441 12.29,12.441 6.95,0 12.34,-5.492 12.34,-12.441"
         style="fill:#171f25;fill-opacity:1;fill-rule:nonzero;stroke:none"
         id="path482" />
      <path
         d="m 4410.31,292.641 27.03,25.539 h 23.67 l -34.78,-33.75 35.02,-37.969 h -23.77 l -27.17,29.008 v -29.008 h -19.32 v 106.59 h 19.32 v -60.41"
         style="fill:#171f25;fill-opacity:1;fill-rule:nonzero;stroke:none"
         id="path484" />
      <path
         d="m 3094.12,266.289 v 32.09 c -3.94,6.152 -12.44,11.422 -21.24,11.422 -14.21,0 -22.7,-11.711 -22.7,-27.403 0,-15.656 8.49,-27.238 22.7,-27.238 8.8,0 17.3,4.981 21.24,11.129 z m 0,-19.18 v 10.551 c -5.27,-7.191 -13.91,-12.308 -23.87,-12.308 -18.45,0 -31.5,14.058 -31.5,37.046 0,22.563 12.89,37.211 31.5,37.211 9.52,0 18.17,-4.687 23.87,-12.437 v 37.629 h 11 v -97.692 h -11"
         style="fill:#171f25;fill-opacity:1;fill-rule:nonzero;stroke:none"
         id="path486" />
      <path
         d="m 3154.03,310.531 c -15.08,0 -22.56,-12.742 -23.14,-23.582 h 46.43 c -0.14,10.551 -7.17,23.582 -23.29,23.582 z m -34.71,-27.972 c 0,20.511 14.64,37.05 34.86,37.05 21.39,0 33.98,-16.699 33.98,-37.929 v -2.789 h -57.27 c 0.88,-13.321 10.25,-24.461 25.49,-24.461 8.05,0 16.26,3.23 21.82,8.929 l 5.28,-7.168 c -7.03,-7.031 -16.56,-10.839 -28.13,-10.839 -20.95,0 -36.03,15.078 -36.03,37.207"
         style="fill:#171f25;fill-opacity:1;fill-rule:nonzero;stroke:none"
         id="path488" />
      <path
         d="m 3196.07,256.48 5.71,7.911 c 4.68,-5.43 13.63,-10.11 23.29,-10.11 10.85,0 16.71,5.129 16.71,12.168 0,17.121 -43.81,6.582 -43.81,32.813 0,10.968 9.52,20.347 26.37,20.347 12.01,0 20.5,-4.527 26.23,-10.25 l -5.14,-7.617 c -4.24,5.129 -12.01,8.938 -21.09,8.938 -9.67,0 -15.67,-4.84 -15.67,-11.129 0,-15.531 43.79,-5.27 43.79,-32.809 0,-11.883 -9.51,-21.39 -27.83,-21.39 -11.56,0 -21.39,3.519 -28.56,11.128"
         style="fill:#171f25;fill-opacity:1;fill-rule:nonzero;stroke:none"
         id="path490" />
      <path
         d="m 3266.67,247.109 v 70.743 h 10.99 v -70.743 z m -1.9,88.18 c 0,4.102 3.37,7.461 7.32,7.461 4.1,0 7.47,-3.359 7.47,-7.461 0,-4.098 -3.37,-7.32 -7.47,-7.32 -3.95,0 -7.32,3.222 -7.32,7.32"
         style="fill:#171f25;fill-opacity:1;fill-rule:nonzero;stroke:none"
         id="path492" />
      <path
         d="m 3347.09,267.461 v 30.918 c -3.81,6.152 -12.3,11.422 -21.09,11.422 -14.22,0 -22.71,-11.281 -22.71,-26.949 0,-15.532 8.49,-26.954 22.71,-26.954 8.79,0 17.28,5.411 21.09,11.563 z m -51.27,-38.512 5.57,8.199 c 5.86,-7.027 12.89,-9.668 22.99,-9.668 11.71,0 22.71,5.7 22.71,21.231 v 10.121 c -5.14,-7.191 -13.77,-12.602 -23.73,-12.602 -18.46,0 -31.5,13.77 -31.5,36.622 0,22.699 12.89,36.757 31.5,36.757 9.51,0 18.01,-4.687 23.73,-12.437 v 10.68 h 10.98 V 249.16 c 0,-23.441 -16.41,-30.762 -33.69,-30.762 -12.02,0 -20.22,2.344 -28.56,10.551"
         style="fill:#171f25;fill-opacity:1;fill-rule:nonzero;stroke:none"
         id="path494" />
      <path
         d="m 3424.13,247.109 v 46.289 c 0,12.442 -6.3,16.403 -15.82,16.403 -8.64,0 -16.85,-5.27 -20.95,-10.992 v -51.7 h -10.98 v 70.743 h 10.98 v -10.25 c 4.98,5.859 14.65,12.007 25.2,12.007 14.79,0 22.56,-7.461 22.56,-22.847 v -49.653 h -10.99"
         style="fill:#171f25;fill-opacity:1;fill-rule:nonzero;stroke:none"
         id="path496" />
      <path
         d="m 3484.04,310.531 c -15.09,0 -22.56,-12.742 -23.14,-23.582 h 46.42 c -0.13,10.551 -7.16,23.582 -23.28,23.582 z m -34.72,-27.972 c 0,20.511 14.64,37.05 34.86,37.05 21.39,0 33.98,-16.699 33.98,-37.929 v -2.789 h -57.26 c 0.88,-13.321 10.25,-24.461 25.49,-24.461 8.04,0 16.25,3.23 21.81,8.929 l 5.28,-7.168 c -7.03,-7.031 -16.55,-10.839 -28.13,-10.839 -20.94,0 -36.03,15.078 -36.03,37.207"
         style="fill:#171f25;fill-opacity:1;fill-rule:nonzero;stroke:none"
         id="path498" />
      <path
         d="m 3583.5,266.289 v 32.09 c -3.96,6.152 -12.45,11.422 -21.23,11.422 -14.22,0 -22.72,-11.711 -22.72,-27.403 0,-15.656 8.5,-27.238 22.72,-27.238 8.78,0 17.27,4.981 21.23,11.129 z m 0,-19.18 v 10.551 c -5.28,-7.191 -13.91,-12.308 -23.88,-12.308 -18.45,0 -31.49,14.058 -31.49,37.046 0,22.563 12.89,37.211 31.49,37.211 9.52,0 18.17,-4.687 23.88,-12.437 v 37.629 h 10.98 v -97.692 h -10.98"
         style="fill:#171f25;fill-opacity:1;fill-rule:nonzero;stroke:none"
         id="path500" />
      <path
         d="m 3679,255.16 c 14.36,0 22.86,11.582 22.86,27.238 0,15.692 -8.5,27.403 -22.86,27.403 -8.65,0 -17.28,-5.27 -21.09,-11.422 v -32.09 c 3.81,-6.148 12.44,-11.129 21.09,-11.129 z m -32.09,-8.051 v 97.692 h 11 v -37.629 c 5.7,7.75 14.2,12.437 23.87,12.437 18.45,0 31.5,-14.648 31.5,-37.211 0,-22.988 -13.05,-37.046 -31.5,-37.046 -9.96,0 -18.6,5.117 -23.87,12.308 v -10.551 h -11"
         style="fill:#171f25;fill-opacity:1;fill-rule:nonzero;stroke:none"
         id="path502" />
      <path
         d="m 3725.28,229.371 c 1.61,-0.723 4.25,-1.172 6.01,-1.172 4.83,0 8.06,1.621 10.55,7.481 l 4.68,10.691 -29.59,71.481 h 11.87 l 23.58,-58.012 23.45,58.012 h 12.01 l -35.46,-85.102 c -4.25,-10.25 -11.42,-14.211 -20.8,-14.352 -2.34,0 -6,0.434 -8.05,1.032 l 1.75,9.941"
         style="fill:#171f25;fill-opacity:1;fill-rule:nonzero;stroke:none"
         id="path504" />
    </g>
  </g>
</svg>
