<?xml version="1.0" encoding="UTF-8" standalone="no"?>
<!-- Created with Inkscape (http://www.inkscape.org/) -->

<svg
   version="1.1"
   id="svg2"
   width="666.66669"
   height="666.70667"
   viewBox="0 0 666.66669 666.70667"
   sodipodi:docname="map3.eps"
   xmlns:inkscape="http://www.inkscape.org/namespaces/inkscape"
   xmlns:sodipodi="http://sodipodi.sourceforge.net/DTD/sodipodi-0.dtd"
   xmlns="http://www.w3.org/2000/svg"
   xmlns:svg="http://www.w3.org/2000/svg">
  <defs
     id="defs6" />
  <sodipodi:namedview
     id="namedview4"
     pagecolor="#ffffff"
     bordercolor="#000000"
     borderopacity="0.25"
     inkscape:showpageshadow="2"
     inkscape:pageopacity="0.0"
     inkscape:pagecheckerboard="0"
     inkscape:deskcolor="#d1d1d1" />
  <g
     id="g8"
     inkscape:groupmode="layer"
     inkscape:label="ink_ext_XXXXXX"
     transform="matrix(1.3333333,0,0,-1.3333333,0,666.70667)">
    <g
       id="g10"
       transform="scale(0.1)">
      <path
         d="M 5000.04,0 H 0 V 5000.27 H 5000.04 V 0"
         style="fill:#ffffff;fill-opacity:1;fill-rule:nonzero;stroke:none"
         id="path12" />
      <path
         d="M -133.008,5168.73 V 4957.92 L 50.3984,5168.73 Z"
         style="fill:#d4d6d3;fill-opacity:1;fill-rule:nonzero;stroke:none"
         id="path14" />
      <path
         d="m 390.313,5050.68 -230.29,80.1 -293.031,-368.92 V 4272.78 L 79.9102,4152.62 390.313,5050.68"
         style="fill:#d4d6d3;fill-opacity:1;fill-rule:nonzero;stroke:none"
         id="path16" />
      <path
         d="M 703.914,4890.98 H 425.645 l -232.422,-706.74 464.429,398.43 c 0,0 -17.839,122.93 -12.238,158.11 6.344,39.8 58.5,150.2 58.5,150.2"
         style="fill:#d4d6d3;fill-opacity:1;fill-rule:nonzero;stroke:none"
         id="path18" />
      <path
         d="m 439.773,4943.16 264.141,-2.78 -238.027,83.17 z"
         style="fill:#d4d6d3;fill-opacity:1;fill-rule:nonzero;stroke:none"
         id="path20" />
      <path
         d="m 781.766,4913.18 187.773,-65.62 -261.312,-221.5 c 0,0 13.027,127.13 24.152,165.32 9.66,33.19 49.387,121.8 49.387,121.8"
         style="fill:#d4d6d3;fill-opacity:1;fill-rule:nonzero;stroke:none"
         id="path22" />
      <path
         d="m 513.051,5168.73 -23.992,-73.86 532.291,-200.18 226.76,194.54 -84.1,79.5 H 513.051"
         style="fill:#d4d6d3;fill-opacity:1;fill-rule:nonzero;stroke:none"
         id="path24" />
      <path
         d="m 1508.27,5116.3 -323.81,-282.67 546.65,-192.81 68.5,74.66 -291.34,400.82"
         style="fill:#d4d6d3;fill-opacity:1;fill-rule:nonzero;stroke:none"
         id="path26" />
      <path
         d="m 2016.22,5168.73 h -447.9 l 153.82,-249.28 z"
         style="fill:#d4d6d3;fill-opacity:1;fill-rule:nonzero;stroke:none"
         id="path28" />
      <path
         d="m 2095.28,5168.73 h 349.42 l -600.82,-426.37 -99.6,132.82 351,293.55"
         style="fill:#d4d6d3;fill-opacity:1;fill-rule:nonzero;stroke:none"
         id="path30" />
      <path
         d="m 2516.24,5168.73 h 284.2 l -147.04,-408.97 -257.72,311.47 120.56,97.5"
         style="fill:#d4d6d3;fill-opacity:1;fill-rule:nonzero;stroke:none"
         id="path32" />
      <path
         d="m 2412.28,4672.79 135.98,121.75 -200.8,240.32 -172.34,-127.27 237.16,-234.8"
         style="fill:#d4d6d3;fill-opacity:1;fill-rule:nonzero;stroke:none"
         id="path34" />
      <path
         d="m 2122.16,4863.32 -249.03,-166.81 94.36,-138.55 215.6,-76.55 178.6,147.64 -239.53,234.27"
         style="fill:#d4d6d3;fill-opacity:1;fill-rule:nonzero;stroke:none"
         id="path36" />
      <path
         d="m 2260.77,4454.08 265.98,-93.87 96.61,318.38 -47.43,70.62 -315.16,-295.13"
         style="fill:#d4d6d3;fill-opacity:1;fill-rule:nonzero;stroke:none"
         id="path38" />
      <path
         d="m 1825.44,4689.13 -50.46,-63.78 104.44,-36.83 z"
         style="fill:#d4d6d3;fill-opacity:1;fill-rule:nonzero;stroke:none"
         id="path40" />
      <path
         d="m 2790.96,4964.24 -60.08,-168.65 113.84,75.89 z"
         style="fill:#d4d6d3;fill-opacity:1;fill-rule:nonzero;stroke:none"
         id="path42" />
      <path
         d="m 3035.5,4988.49 -142.3,180.24 -79.05,-151.78 83.27,-117 138.08,88.54"
         style="fill:#d4d6d3;fill-opacity:1;fill-rule:nonzero;stroke:none"
         id="path44" />
      <path
         d="m 3333.8,5094.42 -192.89,-138.87 261.4,-310.69 210.81,179.19 -279.32,270.37"
         style="fill:#d4d6d3;fill-opacity:1;fill-rule:nonzero;stroke:none"
         id="path46" />
      <path
         d="m 3655.28,4854.62 -278.27,273 53.76,41.11 h 202.38 l 160.22,-179.19 -138.09,-134.92"
         style="fill:#d4d6d3;fill-opacity:1;fill-rule:nonzero;stroke:none"
         id="path48" />
      <path
         d="m 3857.67,4944.21 -161.27,-127.53 80.63,-80.12 z"
         style="fill:#d4d6d3;fill-opacity:1;fill-rule:nonzero;stroke:none"
         id="path50" />
      <path
         d="m 3077.67,4923.14 -143.36,-82.75 256.14,-325.18 160.21,108.57 -272.99,299.36"
         style="fill:#d4d6d3;fill-opacity:1;fill-rule:nonzero;stroke:none"
         id="path52" />
      <path
         d="m 2664.47,4619.57 -85.48,-277.8 747.18,-263.52 71.93,128.91 132.81,76.69 211.86,403.96 -98.02,97.24 -394.22,-321.49 -95.92,1.06 -279.33,356.27 -189.73,-127.54 137.03,-204.49 117,104.35 40.06,-72.73 -124.39,-80.1 95.92,-138.09 -46.38,-23.19 -240.32,340.47"
         style="fill:#d4d6d3;fill-opacity:1;fill-rule:nonzero;stroke:none"
         id="path54" />
      <path
         d="m 3777.03,4653.82 -191.84,-428.47 42.16,-37.95 468.01,140.72 -318.33,325.7"
         style="fill:#99d870;fill-opacity:1;fill-rule:nonzero;stroke:none"
         id="path56" />
      <path
         d="m 3888.23,4879.92 -75.89,-177.08 325.71,-363.66 177.08,61.66 -426.9,479.08"
         style="fill:#99d870;fill-opacity:1;fill-rule:nonzero;stroke:none"
         id="path58" />
      <path
         d="m 4003.65,5094.42 -86.95,-171.28 425.31,-502.53 134.39,26.62 -472.75,647.19"
         style="fill:#99d870;fill-opacity:1;fill-rule:nonzero;stroke:none"
         id="path60" />
      <path
         d="m 4054.25,5106.01 53.76,62.72 h 88.53 l 436.39,-663.53 -135.98,-44.27 -442.7,645.08"
         style="fill:#99d870;fill-opacity:1;fill-rule:nonzero;stroke:none"
         id="path62" />
      <path
         d="m 4270.86,5168.73 h 129.65 l 175.5,-233.48 -115.42,-65.61 -189.73,299.09"
         style="fill:#99d870;fill-opacity:1;fill-rule:nonzero;stroke:none"
         id="path64" />
      <path
         d="m 4601.31,4895.73 -110.68,-74.84 170.76,-260.35 123.33,102.76 -183.41,232.43"
         style="fill:#99d870;fill-opacity:1;fill-rule:nonzero;stroke:none"
         id="path66" />
      <path
         d="m 4468.5,5168.73 147.04,-201.85 156.52,117 -104.35,84.85 H 4468.5"
         style="fill:#99d870;fill-opacity:1;fill-rule:nonzero;stroke:none"
         id="path68" />
      <path
         d="m 4960.21,5168.73 -311.47,-245.59 164.43,-228.21 339.93,236.9 v 236.9 h -192.89"
         style="fill:#99d870;fill-opacity:1;fill-rule:nonzero;stroke:none"
         id="path70" />
      <path
         d="m 5015.56,4761.33 -325.72,-246.12 393.69,123.06 z"
         style="fill:#99d870;fill-opacity:1;fill-rule:nonzero;stroke:none"
         id="path72" />
      <path
         d="M 5153.1,4592.16 4723.05,4460.93 5153.1,4135.22 Z"
         style="fill:#99d870;fill-opacity:1;fill-rule:nonzero;stroke:none"
         id="path74" />
      <path
         d="m 4334.1,4064.07 388.95,316.22 -74.31,80.64 -485.39,-175.5 170.75,-221.36"
         style="fill:#99d870;fill-opacity:1;fill-rule:nonzero;stroke:none"
         id="path76" />
      <path
         d="m 4765.74,4351.83 338.35,-262.46 -788.96,-513.85 -270.36,191.31 720.97,585"
         style="fill:#99d870;fill-opacity:1;fill-rule:nonzero;stroke:none"
         id="path78" />
      <path
         d="m 4044.77,3831.66 254.55,203.95 -192.89,245.07 z"
         style="fill:#99d870;fill-opacity:1;fill-rule:nonzero;stroke:none"
         id="path80" />
      <path
         d="m 4044.77,4255.39 -64.83,-449.03 -425.31,191.31 91.7,137.55 398.44,120.17"
         style="fill:#99d870;fill-opacity:1;fill-rule:nonzero;stroke:none"
         id="path82" />
      <path
         d="m 5134.13,4030.87 -760.5,-496.46 564.45,-373.14 203.32,242.19 -7.27,627.41"
         style="fill:#99d870;fill-opacity:1;fill-rule:nonzero;stroke:none"
         id="path84" />
      <path
         d="m 5141.4,3338.35 -157.47,-205.54 104.35,-83.8 h 66.41 l -13.29,289.34"
         style="fill:#d4d6d3;fill-opacity:1;fill-rule:nonzero;stroke:none"
         id="path86" />
      <path
         d="m 4673.37,3266.27 -300.15,-326.42 598.06,-14.16 -246.65,235.58 -51.26,105"
         style="fill:#d4d6d3;fill-opacity:1;fill-rule:nonzero;stroke:none"
         id="path88" />
      <path
         d="m 4805.15,3172.49 207.24,-221.5 h 104.01 z"
         style="fill:#d4d6d3;fill-opacity:1;fill-rule:nonzero;stroke:none"
         id="path90" />
      <path
         d="m 4477.98,2788.13 268.79,-325.7 407.92,395.27 z"
         style="fill:#d4d6d3;fill-opacity:1;fill-rule:nonzero;stroke:none"
         id="path92" />
      <path
         d="m 4247.67,1890.46 893.73,888.19 v -502.79 l -622.31,-516.61 -271.42,131.21"
         style="fill:#d4d6d3;fill-opacity:1;fill-rule:nonzero;stroke:none"
         id="path94" />
      <path
         d="m 5141.4,2207.87 v -257.71 l -197,98.02 z"
         style="fill:#d4d6d3;fill-opacity:1;fill-rule:nonzero;stroke:none"
         id="path96" />
      <path
         d="m 4896.97,2005.5 -318.1,-275.15 562.53,-271.94 v 431.67 l -244.43,115.42"
         style="fill:#d4d6d3;fill-opacity:1;fill-rule:nonzero;stroke:none"
         id="path98" />
      <path
         d="m 4339.53,2897.65 -59.19,-81.06 346.27,34.03 z"
         style="fill:#d4d6d3;fill-opacity:1;fill-rule:nonzero;stroke:none"
         id="path100" />
      <path
         d="m 3962.83,2959.35 -235.87,-232.88 463.26,71.15 95.75,108.8 -323.14,52.93"
         style="fill:#d4d6d3;fill-opacity:1;fill-rule:nonzero;stroke:none"
         id="path102" />
      <path
         d="m 3518.3,3032.16 -306.78,-193.43 c 0,0 49.5,-66.04 58.51,-91.7 8.55,-24.39 11.06,-102.78 11.06,-102.78 l 357.33,61.67 280.15,260.68 -400.27,65.56"
         style="fill:#d4d6d3;fill-opacity:1;fill-rule:nonzero;stroke:none"
         id="path104" />
      <path
         d="m 4318.35,3518.92 -74.37,-52.5 c 0,0 6.2,-187.67 0,-249.81 -6.16,-61.79 -50.17,-246.77 -50.17,-246.77 l 122.57,-20.48 307.06,352.63 -305.09,216.93"
         style="fill:#99d870;fill-opacity:1;fill-rule:nonzero;stroke:none"
         id="path106" />
      <path
         d="m 4267.69,3554.96 c 0,0 -319.87,209.37 -433.21,267.21 -93.31,47.61 -387.37,159.69 -387.37,159.69 l -396.79,-820.89 475.14,-79.42 742.23,473.41"
         style="fill:#99d870;fill-opacity:1;fill-rule:nonzero;stroke:none"
         id="path108" />
      <path
         d="m 3457.62,3042.1 -438.96,71.9 -26.9,-52.34 c 0,0 89.67,-62.85 115.42,-88.54 23.84,-23.79 82.21,-106.72 82.21,-106.72 l 268.23,175.7"
         style="fill:#d4d6d3;fill-opacity:1;fill-rule:nonzero;stroke:none"
         id="path110" />
      <path
         d="m 4187.06,3426.89 -577.71,-359.36 532.72,-89.04 c 0,0 32.49,200.53 38.66,269.74 3.98,44.52 6.33,178.66 6.33,178.66"
         style="fill:#99d870;fill-opacity:1;fill-rule:nonzero;stroke:none"
         id="path112" />
      <path
         d="m 2960.14,3014.23 c 0,0 74.57,-44.46 96.44,-63.24 23.78,-20.43 83.8,-93.29 83.8,-93.29 l -232.34,-157.89 c 0,0 -22.83,24.93 -31.33,32.26 -7.77,6.69 -33.07,23.81 -33.07,23.81 l 116.5,258.35"
         style="fill:#99d870;fill-opacity:1;fill-rule:nonzero;stroke:none"
         id="path114" />
      <path
         d="M 3167.26,2805.53 2937.68,2653 c 0,0 8.12,-18.76 10.44,-25.18 2.8,-7.68 8.44,-30.28 8.44,-30.28 l 273.94,46.71 c 0,0 -8.98,76.32 -18.98,99.61 -7.48,17.44 -44.26,61.67 -44.26,61.67"
         style="fill:#99d870;fill-opacity:1;fill-rule:nonzero;stroke:none"
         id="path116" />
      <path
         d="m 3220.67,2386.91 -261.94,122.49 c 0,0 2.31,18.76 2.64,25.05 0.34,6.66 -0.03,26.68 -0.03,26.68 l 269.16,29.37 c 0,0 0.91,-64.05 0,-85.38 -1.09,-25.76 -9.83,-118.21 -9.83,-118.21"
         style="fill:#99d870;fill-opacity:1;fill-rule:nonzero;stroke:none"
         id="path118" />
      <path
         d="m 3285.84,2596.82 -12.54,-235.35 225.99,211.64 v 42.69 l -213.45,-18.98"
         style="fill:#d4d6d3;fill-opacity:1;fill-rule:nonzero;stroke:none"
         id="path120" />
      <path
         d="m 3319.98,2338.91 203.02,194.67 392.12,-188.15 -124.84,-233.87 -470.3,227.35"
         style="fill:#d4d6d3;fill-opacity:1;fill-rule:nonzero;stroke:none"
         id="path122" />
      <path
         d="m 4010.77,2501.96 -76.69,-120.16 -374.72,188.14 86.97,90.12 h 180.24 l 184.2,-158.1"
         style="fill:#d4d6d3;fill-opacity:1;fill-rule:nonzero;stroke:none"
         id="path124" />
      <path
         d="m 3869.26,2685.36 273.53,55.34 -110.68,-178.66 z"
         style="fill:#d4d6d3;fill-opacity:1;fill-rule:nonzero;stroke:none"
         id="path126" />
      <path
         d="m 4082.7,2533.58 148.63,-145.46 82.21,45.84 107.52,4.75 140.72,-140.71 147.04,126.48 -283.01,354.17 -200.8,-14.23 -142.31,-230.84"
         style="fill:#d4d6d3;fill-opacity:1;fill-rule:nonzero;stroke:none"
         id="path128" />
      <path
         d="m 4519.09,2256.09 -110.67,125.71 h -88.55 L 4196.54,2248.98 H 4092.2 l -123.33,49.02 -123.05,-213.29 340.76,-164.72 332.51,336.1"
         style="fill:#d4d6d3;fill-opacity:1;fill-rule:nonzero;stroke:none"
         id="path130" />
      <path
         d="m 4052.67,2486.14 -67.99,-132.81 98.02,-55.33 h 99.61 l 42.7,49.01 -172.34,139.13"
         style="fill:#d4d6d3;fill-opacity:1;fill-rule:nonzero;stroke:none"
         id="path132" />
      <path
         d="m 3370.97,4062.44 140.15,-49.43 74.07,137.5 -56.39,66.4 -106.46,-46.38 -51.37,-108.09"
         style="fill:#d4d6d3;fill-opacity:1;fill-rule:nonzero;stroke:none"
         id="path134" />
      <path
         d="m 2916.05,4167.42 -129.84,-236.16 366.82,-415.83 249.91,481.86 -486.89,170.13"
         style="fill:#d4d6d3;fill-opacity:1;fill-rule:nonzero;stroke:none"
         id="path136" />
      <path
         d="m 2861.32,4186.54 -124.12,-215.75 -157.05,143.88 -8.97,174.33 290.14,-102.46"
         style="fill:#d4d6d3;fill-opacity:1;fill-rule:nonzero;stroke:none"
         id="path138" />
      <path
         d="m 2530.08,4163.68 -189.73,-192.89 145.46,-439.55 85.37,98.03 -41.1,534.41"
         style="fill:#d4d6d3;fill-opacity:1;fill-rule:nonzero;stroke:none"
         id="path140" />
      <path
         d="m 2586.99,3566.03 -203.95,-338.35 72.73,-172.34 166.01,67.98 -34.79,442.71"
         style="fill:#d4d6d3;fill-opacity:1;fill-rule:nonzero;stroke:none"
         id="path142" />
      <path
         d="m 2654.98,3504.37 22.14,-381.05 c 0,0 120.78,8.95 159.69,0 29.12,-6.69 107.52,-52.17 107.52,-52.17 l 17.39,52.17 -306.74,381.05"
         style="fill:#d4d6d3;fill-opacity:1;fill-rule:nonzero;stroke:none"
         id="path144" />
      <path
         d="m 2628.1,3806.36 v -213.45 l 363.66,-422.15 64.82,139.92 -428.48,495.68"
         style="fill:#d4d6d3;fill-opacity:1;fill-rule:nonzero;stroke:none"
         id="path146" />
      <path
         d="m 2599.65,4030.87 7.9,-147.04 77.48,-49.02 31.36,88.55 -116.74,107.51"
         style="fill:#d4d6d3;fill-opacity:1;fill-rule:nonzero;stroke:none"
         id="path148" />
      <path
         d="m 2754.59,3883.83 -30.04,-77.47 358.91,-442.71 45.85,105.93 -374.72,414.25"
         style="fill:#d4d6d3;fill-opacity:1;fill-rule:nonzero;stroke:none"
         id="path150" />
      <path
         d="m 2700.31,3071.15 h 127.54 l 99.08,-45.33 -122.17,-251.12 c 0,0 -38.45,11.39 -51.66,13.22 -13.89,1.93 -56.12,1.41 -56.12,1.41 l 3.33,281.82"
         style="fill:#99d870;fill-opacity:1;fill-rule:nonzero;stroke:none"
         id="path152" />
      <path
         d="m 2645.5,3071.15 -162.33,-69.57 134.08,-233.54 c 0,0 11.88,5.15 15.86,6.66 4.16,1.56 16.73,5.63 16.73,5.63 l -4.34,290.82"
         style="fill:#99d870;fill-opacity:1;fill-rule:nonzero;stroke:none"
         id="path154" />
      <path
         d="m 2298.32,2850.6 137.42,135.17 145.9,-238 c 0,0 -10.35,-7.42 -13.58,-10.04 -3.22,-2.61 -12.62,-10.74 -12.62,-10.74 l -257.12,123.61"
         style="fill:#99d870;fill-opacity:1;fill-rule:nonzero;stroke:none"
         id="path156" />
      <path
         d="m 2281.85,3922.83 -189.74,-165.49 257.2,-464.84 106.46,196.05 -173.92,434.28"
         style="fill:#d4d6d3;fill-opacity:1;fill-rule:nonzero;stroke:none"
         id="path158" />
      <path
         d="m 2155.36,3508.58 -296.18,-446.86 379.15,-182.28 170,161.14 -252.97,468"
         style="fill:#d4d6d3;fill-opacity:1;fill-rule:nonzero;stroke:none"
         id="path160" />
      <path
         d="m 2122.68,3566.03 -314.69,-479.7 -483.13,232.26 709.28,405.02 88.54,-157.58"
         style="fill:#d4d6d3;fill-opacity:1;fill-rule:nonzero;stroke:none"
         id="path162" />
      <path
         d="m 2076.3,3812.15 447.98,417.41 -2.31,75.56 -649.4,226.91 -68.22,-72.68 271.95,-647.2"
         style="fill:#d4d6d3;fill-opacity:1;fill-rule:nonzero;stroke:none"
         id="path164" />
      <path
         d="m 1755.87,4436.16 -284.6,-160.22 152.84,-284.6 260.36,139.14 -128.6,305.68"
         style="fill:#d4d6d3;fill-opacity:1;fill-rule:nonzero;stroke:none"
         id="path166" />
      <path
         d="m 1655.73,3949.18 141.25,-317.27 218.19,135.97 -122.28,303.57 -237.16,-122.27"
         style="fill:#d4d6d3;fill-opacity:1;fill-rule:nonzero;stroke:none"
         id="path168" />
      <path
         d="m 979.027,4475.16 138.083,-330.98 594.49,336.25 -1.78,108.46 -301.94,105.51 -428.853,-219.24"
         style="fill:#d4d6d3;fill-opacity:1;fill-rule:nonzero;stroke:none"
         id="path170" />
      <path
         d="m 969.539,4514.16 -15.121,118.65 180.002,157.14 209.85,-73.32 -374.731,-202.47"
         style="fill:#d4d6d3;fill-opacity:1;fill-rule:nonzero;stroke:none"
         id="path172" />
      <path
         d="m 1426.47,4261.71 -322.54,-210.28 221.36,-694.11 430.05,250.35 -328.87,654.04"
         style="fill:#d4d6d3;fill-opacity:1;fill-rule:nonzero;stroke:none"
         id="path174" />
      <path
         d="M 898.305,4583.83 1023.3,4113.09 H 359.051 Z"
         style="fill:#d4d6d3;fill-opacity:1;fill-rule:nonzero;stroke:none"
         id="path176" />
      <path
         d="m 296.758,4058.13 -181.617,-157.96 321.574,-154.6 550.219,325.88 -690.176,-13.32"
         style="fill:#d4d6d3;fill-opacity:1;fill-rule:nonzero;stroke:none"
         id="path178" />
      <path
         d="M 482.563,3723.61 855.488,3544.24 1023.3,4034.03 Z"
         style="fill:#d4d6d3;fill-opacity:1;fill-rule:nonzero;stroke:none"
         id="path180" />
      <path
         d="M 1067.57,4005.57 899.461,3523.1 1277.85,3341.19 Z"
         style="fill:#d4d6d3;fill-opacity:1;fill-rule:nonzero;stroke:none"
         id="path182" />
      <path
         d="m 142.875,3114.04 689.418,324 -794.6289,394.49 z"
         style="fill:#d4d6d3;fill-opacity:1;fill-rule:nonzero;stroke:none"
         id="path184" />
      <path
         d="m -133.008,2898.28 211.215,187.81 -101.0781,693.59 -118.5699,-103.5 8.433,-777.9"
         style="fill:#d4d6d3;fill-opacity:1;fill-rule:nonzero;stroke:none"
         id="path186" />
      <path
         d="M 86.0195,3032.49 -133.008,2832.93 v -366.82 l 122.426,-91.32 188.117,29.77 -91.5155,627.93"
         style="fill:#d4d6d3;fill-opacity:1;fill-rule:nonzero;stroke:none"
         id="path188" />
      <path
         d="m 752.93,3324.12 -602.582,-261.1 9.691,-66.2 c 0,0 157.289,71.46 237.149,66.42 48.925,-3.08 180.242,-72.2 180.242,-72.2 l 175.5,333.08"
         style="fill:#d4d6d3;fill-opacity:1;fill-rule:nonzero;stroke:none"
         id="path190" />
      <path
         d="m 190.063,2962.06 c 0,0 154.703,62.96 208.703,58.49 41.765,-3.45 151.785,-71.15 151.785,-71.15 l -123.59,-289.34 -236.898,302"
         style="fill:#d4d6d3;fill-opacity:1;fill-rule:nonzero;stroke:none"
         id="path192" />
      <path
         d="m 169.027,2935.41 76.168,-520.14 60.883,9.64 94.27,190.89 -231.321,319.61"
         style="fill:#d4d6d3;fill-opacity:1;fill-rule:nonzero;stroke:none"
         id="path194" />
      <path
         d="m 435.133,2568.36 -55.125,-131.75 157.695,24.96 z"
         style="fill:#d4d6d3;fill-opacity:1;fill-rule:nonzero;stroke:none"
         id="path196" />
      <path
         d="M 806.688,3295.66 705.496,3102.77 855.703,3080.63 Z"
         style="fill:#d4d6d3;fill-opacity:1;fill-rule:nonzero;stroke:none"
         id="path198" />
      <path
         d="m 686.523,3060.08 -215.027,-436.38 117.426,-154.02 390.023,61.74 -115.336,508.11 -177.086,20.55"
         style="fill:#d4d6d3;fill-opacity:1;fill-rule:nonzero;stroke:none"
         id="path200" />
      <path
         d="m 861,3423.79 162.3,-777.96 237.16,308.32 181.82,-183.41 149.18,290.42 L 861,3423.79"
         style="fill:#d4d6d3;fill-opacity:1;fill-rule:nonzero;stroke:none"
         id="path202" />
      <path
         d="m 1260.46,2890.9 -227.68,-322.54 v -28.42 l 480.01,75.97 -252.33,274.99"
         style="fill:#d4d6d3;fill-opacity:1;fill-rule:nonzero;stroke:none"
         id="path204" />
      <path
         d="m 1639.52,3037.3 -89.72,-184.34 254.55,-124.91 90.89,182.3 -255.72,126.95"
         style="fill:#d4d6d3;fill-opacity:1;fill-rule:nonzero;stroke:none"
         id="path206" />
      <path
         d="m 1524.5,2813.43 -39.53,-85.38 83.82,-103.27 222.92,35.28 -267.21,153.37"
         style="fill:#d4d6d3;fill-opacity:1;fill-rule:nonzero;stroke:none"
         id="path208" />
      <path
         d="m 1952.1,2882.12 -97.15,-222.06 276.69,-145.46 41.01,258.03 -220.55,109.49"
         style="fill:#d4d6d3;fill-opacity:1;fill-rule:nonzero;stroke:none"
         id="path210" />
      <path
         d="m 2218.6,2286.92 -72.73,177.09 -251.39,-213.44 86.96,-121.75 237.16,158.1"
         style="fill:#d4d6d3;fill-opacity:1;fill-rule:nonzero;stroke:none"
         id="path212" />
      <path
         d="m 2488.74,2624.81 c 0,0 -6.27,-21.56 -7.73,-28.9 -1.59,-7.95 -4.29,-32.14 -4.29,-32.14 l -285,-49.17 26.01,235.64 271.01,-125.43"
         style="fill:#99d870;fill-opacity:1;fill-rule:nonzero;stroke:none"
         id="path214" />
      <path
         d="m 2218.6,2471.91 66.41,-161.27 212.96,136.25 c 0,0 -10.94,28.1 -13.57,37.79 -2.44,9.03 -6.83,36.78 -6.83,36.78 l -258.97,-49.55"
         style="fill:#99d870;fill-opacity:1;fill-rule:nonzero;stroke:none"
         id="path216" />
      <path
         d="m 2303.98,2255.3 215.35,154.07 c 0,0 20.22,-25.83 27.98,-33.5 8.79,-8.68 38.31,-31.23 38.31,-31.23 l -126.69,-231.63 -154.95,142.29"
         style="fill:#99d870;fill-opacity:1;fill-rule:nonzero;stroke:none"
         id="path218" />
      <path
         d="m 2635.64,2319.45 c 0,0 32.48,-9.63 43.61,-11.43 11.71,-1.91 47.34,-3.12 47.34,-3.12 l 15.56,-273.1 -221.55,55.91 115.04,231.74"
         style="fill:#99d870;fill-opacity:1;fill-rule:nonzero;stroke:none"
         id="path220" />
      <path
         d="m 2783.76,2035.54 185.86,64.82 -125.13,239.37 c 0,0 -27.01,-14.38 -36.49,-18.1 -9.95,-3.9 -41.02,-12.1 -41.02,-12.1 l 16.78,-273.99"
         style="fill:#99d870;fill-opacity:1;fill-rule:nonzero;stroke:none"
         id="path222" />
      <path
         d="m 3017.05,2128.82 155.14,156.38 -252.67,125.53 c 0,0 -13.06,-17.57 -17.87,-23.04 -5.04,-5.75 -21.53,-21.69 -21.53,-21.69 l 136.93,-237.18"
         style="fill:#99d870;fill-opacity:1;fill-rule:nonzero;stroke:none"
         id="path224" />
      <path
         d="m 2261.82,2234.23 -997.14,-607.14 360.49,-455.36 c 0,0 401.74,545.56 508.05,744.17 40.51,75.67 128.6,318.33 128.6,318.33"
         style="fill:#d4d6d3;fill-opacity:1;fill-rule:nonzero;stroke:none"
         id="path226" />
      <path
         d="M 2303.98,2156.22 2443.11,2050.82 1863.38,880.809 1658.9,1148.54 c 0,0 338.66,446.19 436.38,605.03 59.41,96.58 208.7,402.65 208.7,402.65"
         style="fill:#d4d6d3;fill-opacity:1;fill-rule:nonzero;stroke:none"
         id="path228" />
      <path
         d="m 1943.49,2103.53 -118.05,130.7 -938.116,-158.12 356.276,-421.62 699.89,449.04"
         style="fill:#d4d6d3;fill-opacity:1;fill-rule:nonzero;stroke:none"
         id="path230" />
      <path
         d="M 1190.89,1637.63 965.32,1477.41 743.969,1816.82 925.27,1955.96 1190.89,1637.63"
         style="fill:#99d870;fill-opacity:1;fill-rule:nonzero;stroke:none"
         id="path232" />
      <path
         d="m 893.523,1988.81 -179.066,-144.59 -217.176,169.79 347.879,47.35 48.363,-72.55"
         style="fill:#99d870;fill-opacity:1;fill-rule:nonzero;stroke:none"
         id="path234" />
      <path
         d="M 729.215,1749.36 460.43,1154.86 912.621,1452.11 Z"
         style="fill:#99d870;fill-opacity:1;fill-rule:nonzero;stroke:none"
         id="path236" />
      <path
         d="m 1022.25,1452.11 -539.687,-341.51 11.875,-28.2 949.432,-172.08 160.22,217.14 -188.68,223.46 -199.22,-137.02 -193.94,238.21"
         style="fill:#99d870;fill-opacity:1;fill-rule:nonzero;stroke:none"
         id="path238" />
      <path
         d="m 1224.62,1597.57 -151.78,-109.62 139.13,-208.7 172.87,120.15 -160.22,198.17"
         style="fill:#99d870;fill-opacity:1;fill-rule:nonzero;stroke:none"
         id="path240" />
      <path
         d="M 1415.41,853.41 1102.35,417.02 840.945,674.219 956.891,946.16 1415.41,853.41"
         style="fill:#99d870;fill-opacity:1;fill-rule:nonzero;stroke:none"
         id="path242" />
      <path
         d="M 503.648,1017.84 798.781,716.379 907.859,956.762 Z"
         style="fill:#99d870;fill-opacity:1;fill-rule:nonzero;stroke:none"
         id="path244" />
      <path
         d="m 679.688,1782.18 -251.344,222.89 -121.559,-10.45 121.828,-831.99 251.075,619.55"
         style="fill:#99d870;fill-opacity:1;fill-rule:nonzero;stroke:none"
         id="path246" />
      <path
         d="M 238.57,1985.76 141.051,1974.92 52.5078,1789.41 270.66,1765.6 238.57,1985.76"
         style="fill:#99d870;fill-opacity:1;fill-rule:nonzero;stroke:none"
         id="path248" />
      <path
         d="M 37.75,1749.36 -27.6016,1597.57 298.961,1556.46 276.129,1728.08 37.75,1749.36"
         style="fill:#99d870;fill-opacity:1;fill-rule:nonzero;stroke:none"
         id="path250" />
      <path
         d="m -133.008,1924.33 185.5158,8.43 -185.5158,-392.11 z"
         style="fill:#99d870;fill-opacity:1;fill-rule:nonzero;stroke:none"
         id="path252" />
      <path
         d="M -52.9023,1559.63 -145.656,1386.76 V 1279.25 L 294.941,1154.86 -52.9023,1559.63"
         style="fill:#99d870;fill-opacity:1;fill-rule:nonzero;stroke:none"
         id="path254" />
      <path
         d="M -145.656,1220.21 V 790.172 l 440.597,282.478 z"
         style="fill:#99d870;fill-opacity:1;fill-rule:nonzero;stroke:none"
         id="path256" />
      <path
         d="M 313.914,1017.84 -133.008,716.379 V 223.082 l 92.758,-42.16 354.164,836.918"
         style="fill:#99d870;fill-opacity:1;fill-rule:nonzero;stroke:none"
         id="path258" />
      <path
         d="M 384.105,987.148 -0.195313,168.262 543.699,-107.898 Z"
         style="fill:#99d870;fill-opacity:1;fill-rule:nonzero;stroke:none"
         id="path260" />
      <path
         d="M 451.664,1005.19 619.594,-141.629 1072.84,379.082 Z"
         style="fill:#99d870;fill-opacity:1;fill-rule:nonzero;stroke:none"
         id="path262" />
      <path
         d="M -133.008,157.719 V -116.328 H 16.668 L 90.4531,50.2109 -133.008,157.719"
         style="fill:#99d870;fill-opacity:1;fill-rule:nonzero;stroke:none"
         id="path264" />
      <path
         d="M 134.727,37.5586 74.6445,-116.328 H 429.863 Z"
         style="fill:#99d870;fill-opacity:1;fill-rule:nonzero;stroke:none"
         id="path266" />
      <path
         d="M 275.723,2206.78 2051.01,2490.89 1804.35,2596.82 255.848,2342.49 275.723,2206.78"
         style="fill:#d4d6d3;fill-opacity:1;fill-rule:nonzero;stroke:none"
         id="path268" />
      <path
         d="m 282.313,2161.77 17.355,-118.53 1535.782,222.35 196.59,166.8 -1749.727,-270.62"
         style="fill:#d4d6d3;fill-opacity:1;fill-rule:nonzero;stroke:none"
         id="path270" />
      <path
         d="m -133.008,2113.01 347.656,36.88 16.102,-110.47 -363.758,-72.93 v 146.52"
         style="fill:#d4d6d3;fill-opacity:1;fill-rule:nonzero;stroke:none"
         id="path272" />
      <path
         d="m -133.008,2278.62 v -113.96 l 340.485,34.47 -19.493,133.73 -320.992,-54.24"
         style="fill:#d4d6d3;fill-opacity:1;fill-rule:nonzero;stroke:none"
         id="path274" />
      <path
         d="m 1507.57,892.59 337.89,-69.75 -221.35,271.95 z"
         style="fill:#d4d6d3;fill-opacity:1;fill-rule:nonzero;stroke:none"
         id="path276" />
      <path
         d="M 1466,851.301 1330.03,648.922 1658.9,438.109 1823.33,775.398 1466,851.301"
         style="fill:#d4d6d3;fill-opacity:1;fill-rule:nonzero;stroke:none"
         id="path278" />
      <path
         d="M 1630.43,395.949 1481.82,79.7305 1139.24,376.969 l 165.49,240.32 325.7,-221.34"
         style="fill:#d4d6d3;fill-opacity:1;fill-rule:nonzero;stroke:none"
         id="path280" />
      <path
         d="M 1117.11,334.801 975.863,164.051 1395.38,-84.7109 1452.3,27.0195 1117.11,334.801"
         style="fill:#d4d6d3;fill-opacity:1;fill-rule:nonzero;stroke:none"
         id="path282" />
      <path
         d="M 944.242,115.57 727.105,-107.898 h 626.115 z"
         style="fill:#d4d6d3;fill-opacity:1;fill-rule:nonzero;stroke:none"
         id="path284" />
      <path
         d="M 1500.79,3.83203 1437.54,-116.328 h 210.81 z"
         style="fill:#d4d6d3;fill-opacity:1;fill-rule:nonzero;stroke:none"
         id="path286" />
      <path
         d="m 1926.63,372.75 -383.68,-238.219 -16.87,-80.1091 252.98,-170.7499 271.95,8.43 -124.38,480.648"
         style="fill:#d4d6d3;fill-opacity:1;fill-rule:nonzero;stroke:none"
         id="path288" />
      <path
         d="M 1837.93,723.262 1614.62,239.941 1913.98,417.02 Z"
         style="fill:#d4d6d3;fill-opacity:1;fill-rule:nonzero;stroke:none"
         id="path290" />
      <path
         d="m 1899.22,788.059 67.46,-322.547 198.16,193.937 z"
         style="fill:#d4d6d3;fill-opacity:1;fill-rule:nonzero;stroke:none"
         id="path292" />
      <path
         d="m 1973.01,400.16 223.46,217.129 96.97,-733.617 H 2099.49 L 1973.01,400.16"
         style="fill:#d4d6d3;fill-opacity:1;fill-rule:nonzero;stroke:none"
         id="path294" />
      <path
         d="m 2276.58,438.109 75.89,-554.437 343.14,373.117 z"
         style="fill:#d4d6d3;fill-opacity:1;fill-rule:nonzero;stroke:none"
         id="path296" />
      <path
         d="m 2719.28,216.941 -297.24,-333.269 h 227.68 l 118.04,277.219 -48.48,56.05"
         style="fill:#d4d6d3;fill-opacity:1;fill-rule:nonzero;stroke:none"
         id="path298" />
      <path
         d="m 2799.7,114.898 -118.36,-231.226 h 373.13 v 31.6171 L 2799.7,114.898"
         style="fill:#d4d6d3;fill-opacity:1;fill-rule:nonzero;stroke:none"
         id="path300" />
      <path
         d="M 3269.5,239.941 2956.62,421.48 2822.27,158.992 3071.34,-29.8984 3269.5,239.941"
         style="fill:#d4d6d3;fill-opacity:1;fill-rule:nonzero;stroke:none"
         id="path302" />
      <path
         d="M 3322.21,204.102 3439.09,83.1211 3179.75,-117.539 3113.5,-65.7305 3322.21,204.102"
         style="fill:#d4d6d3;fill-opacity:1;fill-rule:nonzero;stroke:none"
         id="path304" />
      <path
         d="m 3474.29,44.8398 -213.23,-165.2308 379.47,4.063 z"
         style="fill:#d4d6d3;fill-opacity:1;fill-rule:nonzero;stroke:none"
         id="path306" />
      <path
         d="M 3737.5,-116.328 3696.36,216.941 3508.05,70.5391 3689.01,-116.328 h 48.49"
         style="fill:#d4d6d3;fill-opacity:1;fill-rule:nonzero;stroke:none"
         id="path308" />
      <path
         d="M 3617.34,589.891 3342.81,240.09 3472.08,108.621 3675.67,266.129 3617.34,589.891"
         style="fill:#d4d6d3;fill-opacity:1;fill-rule:nonzero;stroke:none"
         id="path310" />
      <path
         d="M 3273.86,801.84 2979.14,465.48 3299.01,277.891 3556.2,602.32 3273.86,801.84"
         style="fill:#d4d6d3;fill-opacity:1;fill-rule:nonzero;stroke:none"
         id="path312" />
      <path
         d="m 38.2773,1540.65 270.7577,-38.41 48.172,-330.51 z"
         style="fill:#99d870;fill-opacity:1;fill-rule:nonzero;stroke:none"
         id="path314" />
      <path
         d="M 2805.21,932.191 2354.57,636.27 2843.79,417.91 Z"
         style="fill:#d4d6d3;fill-opacity:1;fill-rule:nonzero;stroke:none"
         id="path316" />
      <path
         d="m 2833.74,1219 46.6,-761.34 355.43,386.469 z"
         style="fill:#d4d6d3;fill-opacity:1;fill-rule:nonzero;stroke:none"
         id="path318" />
      <path
         d="M 3468.31,1023.76 3307.45,840.75 3592.57,634.441 Z"
         style="fill:#d4d6d3;fill-opacity:1;fill-rule:nonzero;stroke:none"
         id="path320" />
      <path
         d="m 3640.53,697.398 312,320.442 -21.08,94.86 -413.19,-94.86 122.27,-320.442"
         style="fill:#99d870;fill-opacity:1;fill-rule:nonzero;stroke:none"
         id="path322" />
      <path
         d="m 3773.2,1482.27 -260.21,-407.51 382.62,82.21 z"
         style="fill:#99d870;fill-opacity:1;fill-rule:nonzero;stroke:none"
         id="path324" />
      <path
         d="m 3704.14,1494.28 h -362.96 l 124.73,-336.25 z"
         style="fill:#d4d6d3;fill-opacity:1;fill-rule:nonzero;stroke:none"
         id="path326" />
      <path
         d="m 3294.79,1477.41 -174.18,-230.05 242.3,-234.7 67.37,95.07 -135.49,369.68"
         style="fill:#d4d6d3;fill-opacity:1;fill-rule:nonzero;stroke:none"
         id="path328" />
      <path
         d="m 2801.51,989.461 -17.95,315.099 -416.33,-337.31 -141.25,-279.328 67.46,-24.25 508.07,325.789"
         style="fill:#d4d6d3;fill-opacity:1;fill-rule:nonzero;stroke:none"
         id="path330" />
      <path
         d="m 2757.51,1762.11 23.48,-412.15 -19.55,-13.8 -152.07,145.62 148.14,280.33"
         style="fill:#d4d6d3;fill-opacity:1;fill-rule:nonzero;stroke:none"
         id="path332" />
      <path
         d="m 2582.26,1438.41 139.13,-127.54 -295.14,-236.11 z"
         style="fill:#d4d6d3;fill-opacity:1;fill-rule:nonzero;stroke:none"
         id="path334" />
      <path
         d="m 2474.74,2035.54 221.35,-60.62 -203.96,-402.64 -188.15,101.19 170.76,362.07"
         style="fill:#d4d6d3;fill-opacity:1;fill-rule:nonzero;stroke:none"
         id="path336" />
      <path
         d="m 2293.44,1629.19 172.87,-90.65 -381.57,-798.97 -179.19,111.731 387.89,777.889"
         style="fill:#d4d6d3;fill-opacity:1;fill-rule:nonzero;stroke:none"
         id="path338" />
      <path
         d="m 2581.51,1506.89 -44.91,23.25 209.15,438.46 7.4,-130.04 -171.64,-331.67"
         style="fill:#d4d6d3;fill-opacity:1;fill-rule:nonzero;stroke:none"
         id="path340" />
      <path
         d="m 2187.52,713.621 -45.35,22.379 371.03,752.6 45.36,-22.38 -371.04,-752.599"
         style="fill:#d4d6d3;fill-opacity:1;fill-rule:nonzero;stroke:none"
         id="path342" />
      <path
         d="m 2721.39,284.211 84.92,92.949 -559.76,249.621 25.32,-152.133 449.52,-190.437"
         style="fill:#d4d6d3;fill-opacity:1;fill-rule:nonzero;stroke:none"
         id="path344" />
      <path
         d="m 3307.45,1580.7 248.75,242.44 -436.38,212.4 -61.13,-7.91 248.76,-446.93"
         style="fill:#d4d6d3;fill-opacity:1;fill-rule:nonzero;stroke:none"
         id="path346" />
      <path
         d="m 3235.77,1608.12 h -425.85 l -22.55,368.37 212.29,59.05 236.11,-427.42"
         style="fill:#d4d6d3;fill-opacity:1;fill-rule:nonzero;stroke:none"
         id="path348" />
      <path
         d="m 3211.86,2266 -138.41,-168.8 518.59,-236.12 148.17,149.26 -528.35,255.66"
         style="fill:#d4d6d3;fill-opacity:1;fill-rule:nonzero;stroke:none"
         id="path350" />
      <path
         d="m 3606.8,1803.91 -246.65,-245.34 h 389.55 l 86.32,123.32 -229.22,122.02"
         style="fill:#d4d6d3;fill-opacity:1;fill-rule:nonzero;stroke:none"
         id="path352" />
      <path
         d="m 3644.75,1844.22 215.02,-130.28 125.87,177.65 -209.75,101.5 -131.14,-148.87"
         style="fill:#d4d6d3;fill-opacity:1;fill-rule:nonzero;stroke:none"
         id="path354" />
      <path
         d="m 3884.19,1656.08 -82.06,-128.51 150.4,-355.84 149.28,32.96 -2.05,302.02 -215.57,149.37"
         style="fill:#99d870;fill-opacity:1;fill-rule:nonzero;stroke:none"
         id="path356" />
      <path
         d="m 4098.78,1569.37 v 267.48 l -75.75,36.65 -116.37,-182.23 192.12,-121.9"
         style="fill:#99d870;fill-opacity:1;fill-rule:nonzero;stroke:none"
         id="path358" />
      <path
         d="m 4000.49,1047.35 93.29,96.45 -129,-16.34 z"
         style="fill:#99d870;fill-opacity:1;fill-rule:nonzero;stroke:none"
         id="path360" />
      <path
         d="m 2970.15,1158.03 299.35,348.86 -16.86,51.68 h -140.72 l -284.64,-234.04 2.2,-35.88 140.67,-130.62"
         style="fill:#d4d6d3;fill-opacity:1;fill-rule:nonzero;stroke:none"
         id="path362" />
      <path
         d="m 2824.42,1373.29 249.03,207.41 -261.91,0.97 z"
         style="fill:#d4d6d3;fill-opacity:1;fill-rule:nonzero;stroke:none"
         id="path364" />
      <path
         d="m 3269.5,880.809 71.59,101.05 -255.26,233.091 -79.84,-87.49 263.51,-246.651"
         style="fill:#d4d6d3;fill-opacity:1;fill-rule:nonzero;stroke:none"
         id="path366" />
      <path
         d="M 3662.14,663.672 3724.59,303.98 4104.84,598.172 4101,1088.46 3662.14,663.672"
         style="fill:#99d870;fill-opacity:1;fill-rule:nonzero;stroke:none"
         id="path368" />
      <path
         d="M 3737.5,248.832 4104.84,533.5 v -649.828 h -311.47 l -55.87,365.16"
         style="fill:#99d870;fill-opacity:1;fill-rule:nonzero;stroke:none"
         id="path370" />
      <path
         d="m 4146.48,1813.76 5.26,-279.81 176.03,-119.78 148.81,239.86 -330.1,159.73"
         style="fill:#d4d6d3;fill-opacity:1;fill-rule:nonzero;stroke:none"
         id="path372" />
      <path
         d="m 4152.79,1477.41 3.78,-200.96 46.95,-42.33 98.59,135.07 -149.32,108.22"
         style="fill:#d4d6d3;fill-opacity:1;fill-rule:nonzero;stroke:none"
         id="path374" />
      <path
         d="m 4521.76,1632.18 -280.55,-432.02 179.06,-161.39 289.3,502.53 -187.81,90.88"
         style="fill:#d4d6d3;fill-opacity:1;fill-rule:nonzero;stroke:none"
         id="path376" />
      <path
         d="m 4753.14,1520.21 -293.95,-516.52 92.96,-83.78 549.83,431.51 -348.84,168.79"
         style="fill:#d4d6d3;fill-opacity:1;fill-rule:nonzero;stroke:none"
         id="path378" />
      <path
         d="m 4591.58,884.371 210.12,-189.383 339.7,341.832 -3.83,297.38 -545.99,-449.829"
         style="fill:#d4d6d3;fill-opacity:1;fill-rule:nonzero;stroke:none"
         id="path380" />
      <path
         d="m 4844.35,656.551 297.05,308.59 V 388.82 Z"
         style="fill:#d4d6d3;fill-opacity:1;fill-rule:nonzero;stroke:none"
         id="path382" />
      <path
         d="m 4158.25,1186.87 10.37,-552.429 322.72,241.539 z"
         style="fill:#d4d6d3;fill-opacity:1;fill-rule:nonzero;stroke:none"
         id="path384" />
      <path
         d="m 4291.94,662.621 -122.26,-84.48 9.84,-523.7191 353.78,370.5001 -241.36,237.699"
         style="fill:#d4d6d3;fill-opacity:1;fill-rule:nonzero;stroke:none"
         id="path386" />
      <path
         d="m 4181.15,-32.3984 1.57,-83.9296 139.97,-1.684 156.17,134.9612 -131.72,123.0818 -165.99,-172.4294"
         style="fill:#d4d6d3;fill-opacity:1;fill-rule:nonzero;stroke:none"
         id="path388" />
      <path
         d="m 4997.35,403.66 -207.01,-179.379 330.09,-340.609 h 20.97 l -1.01,386.488 -143.04,133.5"
         style="fill:#d4d6d3;fill-opacity:1;fill-rule:nonzero;stroke:none"
         id="path390" />
      <path
         d="M 4963.2,435.539 4755.72,256.809 4609.3,412.371 4788.53,598.57 4963.2,435.539"
         style="fill:#d4d6d3;fill-opacity:1;fill-rule:nonzero;stroke:none"
         id="path392" />
      <path
         d="M 4566.24,458.059 4748.2,641.148 4610.24,765.172 4450.05,589.891 4566.24,458.059"
         style="fill:#d4d6d3;fill-opacity:1;fill-rule:nonzero;stroke:none"
         id="path394" />
      <path
         d="m 4416.32,617.289 163.88,175.742 -59.08,55.141 -175.43,-154.59 70.63,-76.293"
         style="fill:#d4d6d3;fill-opacity:1;fill-rule:nonzero;stroke:none"
         id="path396" />
      <path
         d="M 4861.13,81.8398 4648.21,-116.328 h 402.65 z"
         style="fill:#d4d6d3;fill-opacity:1;fill-rule:nonzero;stroke:none"
         id="path398" />
      <path
         d="M 4458.28,255.5 4377,171.059 4509.45,43.3984 4599,120.789 4458.28,255.5"
         style="fill:#d4d6d3;fill-opacity:1;fill-rule:nonzero;stroke:none"
         id="path400" />
      <path
         d="m 4487.56,285.91 140.72,-139.82 95.78,82.781 -145.54,151.527 -90.96,-94.488"
         style="fill:#d4d6d3;fill-opacity:1;fill-rule:nonzero;stroke:none"
         id="path402" />
      <path
         d="m 4543.66,11.0195 212.63,184.1715 71.11,-80.679 -210.28,-181.3011 -73.46,77.8086"
         style="fill:#d4d6d3;fill-opacity:1;fill-rule:nonzero;stroke:none"
         id="path404" />
      <path
         d="m 2856.96,2554.59 c 0,-76.85 -62.29,-139.14 -139.14,-139.14 -76.83,0 -139.13,62.29 -139.13,139.14 0,76.84 62.3,139.14 139.13,139.14 76.85,0 139.14,-62.3 139.14,-139.14"
         style="fill:#d4d6d3;fill-opacity:1;fill-rule:nonzero;stroke:none"
         id="path406" />
      <path
         d="M -0.195313,3812.15 585.863,-141.629"
         style="fill:none;stroke:#aed8f3;stroke-width:20;stroke-linecap:butt;stroke-linejoin:miter;stroke-miterlimit:10;stroke-dasharray:none;stroke-opacity:1"
         id="path408" />
      <path
         d="M -178.332,1256.58 518.93,1039.44 912.621,987.148 1435.96,880.809 1851.79,790.172 2082.63,-136.359"
         style="fill:none;stroke:#aed8f3;stroke-width:20;stroke-linecap:butt;stroke-linejoin:miter;stroke-miterlimit:10;stroke-dasharray:none;stroke-opacity:1"
         id="path410" />
      <path
         d="m 1157.69,4814.57 2067,-722.03 501.22,-193.95 279.32,-146.52 335.2,-220.37 376.3,-251.85 473.27,-340.46"
         style="fill:none;stroke:#aed8f3;stroke-width:20;stroke-linecap:butt;stroke-linejoin:miter;stroke-miterlimit:10;stroke-dasharray:none;stroke-opacity:1"
         id="path412" />
      <path
         d="M 128.652,5183.48 995.781,4877.93"
         style="fill:none;stroke:#aed8f3;stroke-width:20;stroke-linecap:butt;stroke-linejoin:miter;stroke-miterlimit:10;stroke-dasharray:none;stroke-opacity:1"
         id="path414" />
      <path
         d="m 461.484,1082.4 c 0,-35.65 -28.906,-64.56 -64.562,-64.56 -35.656,0 -64.559,28.91 -64.559,64.56 0,35.66 28.903,64.56 64.559,64.56 35.656,0 64.562,-28.9 64.562,-64.56"
         style="fill:#d4d6d3;fill-opacity:1;fill-rule:nonzero;stroke:none"
         id="path416" />
      <path
         d="m 2722.97,239.941 70.96,-52.953 133,251.121 z"
         style="fill:#d4d6d3;fill-opacity:1;fill-rule:nonzero;stroke:none"
         id="path418" />
      <path
         d="m 2601.04,345.102 c -4.32,-4.43 -8.03,-9.313 -11.08,-14.532 l -4.66,2.41 c -0.66,2.981 -3.48,5.032 -6.58,4.668 -3.31,-0.386 -5.68,-3.386 -5.29,-6.699 0.39,-3.308 3.39,-5.687 6.7,-5.301 0.65,0.082 1.27,0.274 1.83,0.532 l 4.51,-2.34 c -2.51,-5.539 -4.32,-11.391 -5.39,-17.442 l 7.46,-1.308 c 2.31,13.051 8.5,25.058 17.92,34.711 l -5.42,5.301"
         style="fill:#171f26;fill-opacity:1;fill-rule:nonzero;stroke:none"
         id="path420" />
      <path
         d="m 2655.92,368.121 c -1.71,0 -3.41,-0.062 -5.1,-0.172 l -0.73,6.262 c 1.87,1.488 2.96,3.898 2.65,6.437 -0.46,3.942 -4.02,6.75 -7.96,6.293 -3.92,-0.472 -6.73,-4.019 -6.28,-7.961 0.31,-2.531 1.9,-4.609 4.06,-5.628 l 0.73,-6.243 c -7.14,-1.16 -14.03,-3.32 -20.6,-6.468 l 3.28,-6.832 c 9.33,4.472 19.41,6.73 29.95,6.73 4.96,0 9.93,-0.527 14.74,-1.578 l 1.61,7.418 c -5.35,1.152 -10.85,1.742 -16.35,1.742"
         style="fill:#171f26;fill-opacity:1;fill-rule:nonzero;stroke:none"
         id="path422" />
      <path
         d="m 2721.94,342.648 c 3.31,0.411 5.67,3.411 5.26,6.723 -0.4,3.32 -3.42,5.66 -6.72,5.258 -3.1,-0.379 -5.35,-3.039 -5.31,-6.09 l -4.16,-3.629 c -4.17,4.301 -8.89,8.129 -14.08,11.391 l -4.03,-6.41 c 11.34,-7.149 20.2,-17.262 25.63,-29.262 l 6.91,3.133 c -2.51,5.547 -5.68,10.718 -9.43,15.449 l 4.03,3.508 c 0.6,-0.117 1.25,-0.149 1.9,-0.071"
         style="fill:#171f26;fill-opacity:1;fill-rule:nonzero;stroke:none"
         id="path424" />
      <path
         d="m 2650.44,266.039 c -3.86,-0.238 -7.75,-0.348 -11.57,-0.348 -8.8,0 -17.33,0.61 -24.78,1.789 -3.91,0.629 -8.47,1.551 -12.7,2.918 10.45,-18.597 30.69,-31.25 53.88,-31.25 28.56,0 52.62,19.161 59.49,45.043 -6.81,-4.492 -15.05,-8.25 -24.59,-11.23 -11.78,-3.672 -25.53,-6.07 -39.73,-6.922"
         style="fill:#171f26;fill-opacity:1;fill-rule:nonzero;stroke:none"
         id="path426" />
      <path
         d="m 2681.7,296.891 c -7.5,0 -13.61,6.109 -13.61,13.609 0,7.5 6.11,13.602 13.61,13.602 7.5,0 13.6,-6.102 13.6,-13.602 0,-7.5 -6.1,-13.609 -13.6,-13.609 z m -47.37,-9.082 c -10.21,0 -18.5,8.3 -18.5,18.5 0,10.203 8.29,18.492 18.5,18.492 10.19,0 18.49,-8.289 18.49,-18.492 0,-10.2 -8.3,-18.5 -18.49,-18.5 z m 21.59,65.152 c -33.53,0 -60.79,-26.66 -60.79,-59.43 0,-4.261 0.46,-8.492 1.36,-12.621 6.74,-4.828 27.06,-8.898 53.48,-7.308 28.79,1.73 52.97,9.57 66.72,21.589 -0.05,1.95 -0.21,3.899 -0.45,5.821 -3.8,29.609 -29.74,51.949 -60.32,51.949"
         style="fill:#171f26;fill-opacity:1;fill-rule:nonzero;stroke:none"
         id="path428" />
      <path
         d="m 2815.96,334.289 c -2.95,1.16 -8.06,3.082 -13.83,2.371 -5.51,-0.68 -8.44,-3.398 -8.44,-10.07 v -8.649 h 22.28 v -17.179 h -22.28 v -54.543 h -19.32 v 54.543 h -13.39 v 17.179 h 13.39 v 8.879 c 0,16.801 8.96,27.828 25.69,27.828 6.42,0 11.57,-1.218 15.9,-3.089 v -17.27"
         style="fill:#171f26;fill-opacity:1;fill-rule:nonzero;stroke:none"
         id="path430" />
      <path
         d="m 2862.98,300.969 c -1.77,0.301 -3.58,0.472 -5.27,0.472 -8.95,0 -15.09,-5.48 -15.09,-16.152 v -39.07 h -19.32 v 71.722 h 18.73 v -7.851 c 4.51,6.742 11.4,9.769 20.21,9.769 4.14,0 8.47,-1.277 10.93,-3.367 l -10.19,-15.523"
         style="fill:#171f26;fill-opacity:1;fill-rule:nonzero;stroke:none"
         id="path432" />
      <path
         d="m 2888.5,288.852 h 31.76 c -1.77,9.179 -7.33,14.347 -15.62,14.347 -9.1,0 -14.43,-5.469 -16.14,-14.347 z m 51.15,-6.661 c 0,-2.222 -0.15,-4.89 -0.37,-6.519 h -50.84 c 2.07,-10.363 9.32,-14.871 18.42,-14.871 6.22,0 12.95,2.508 18.14,6.879 l 11.32,-12.438 c -8.14,-7.472 -18.51,-10.871 -30.57,-10.871 -21.98,0 -37.23,14.949 -37.23,37.52 0,22.57 14.81,37.968 36.26,37.968 20.66,0 34.8,-15.32 34.87,-37.668"
         style="fill:#171f26;fill-opacity:1;fill-rule:nonzero;stroke:none"
         id="path434" />
      <path
         d="m 2965.04,288.852 h 31.76 c -1.78,9.179 -7.34,14.347 -15.63,14.347 -9.1,0 -14.43,-5.469 -16.13,-14.347 z m 51.14,-6.661 c 0,-2.222 -0.15,-4.89 -0.37,-6.519 h -50.84 c 2.07,-10.363 9.32,-14.871 18.43,-14.871 6.21,0 12.95,2.508 18.13,6.879 l 11.32,-12.438 c -8.14,-7.472 -18.51,-10.871 -30.57,-10.871 -21.98,0 -37.22,14.949 -37.22,37.52 0,22.57 14.8,37.968 36.26,37.968 20.65,0 34.79,-15.32 34.86,-37.668"
         style="fill:#171f26;fill-opacity:1;fill-rule:nonzero;stroke:none"
         id="path436" />
      <path
         d="m 3042.87,282.109 c 0,-11.32 7.48,-19.757 18.43,-19.757 11.39,0 18.5,8.808 18.5,19.757 0,10.961 -7.11,19.762 -18.5,19.762 -10.95,0 -18.43,-8.43 -18.43,-19.762 z m 56.77,0 c 0,-21.527 -14.95,-37.738 -34.71,-37.738 -9.63,0 -16.43,3.77 -21.09,9.32 v -37.082 h -19.25 v 101.332 h 18.88 v -7.921 c 4.65,5.839 11.54,9.839 21.38,9.839 19.84,0 34.79,-16.211 34.79,-37.75"
         style="fill:#171f26;fill-opacity:1;fill-rule:nonzero;stroke:none"
         id="path438" />
      <path
         d="m 3128.09,246.219 h -19.32 v 71.722 h 19.32 z m 2.58,95.179 c 0,-6.957 -5.4,-12.289 -12.35,-12.289 -6.96,0 -12.3,5.332 -12.3,12.289 0,6.961 5.34,12.434 12.3,12.434 6.95,0 12.35,-5.473 12.35,-12.434"
         style="fill:#171f26;fill-opacity:1;fill-rule:nonzero;stroke:none"
         id="path440" />
      <path
         d="m 3160.32,292.398 27.01,25.543 h 23.69 l -34.79,-33.75 35.01,-37.972 h -23.76 l -27.16,29.011 V 246.219 H 3141 v 106.57 h 19.32 v -60.391"
         style="fill:#171f26;fill-opacity:1;fill-rule:nonzero;stroke:none"
         id="path442" />
      <path
         d="m 1844.13,266.051 v 32.078 c -3.96,6.16 -12.46,11.43 -21.25,11.43 -14.2,0 -22.7,-11.719 -22.7,-27.387 0,-15.68 8.5,-27.25 22.7,-27.25 8.79,0 17.29,4.976 21.25,11.129 z m 0,-19.18 v 10.539 c -5.28,-7.18 -13.92,-12.301 -23.88,-12.301 -18.46,0 -31.5,14.063 -31.5,37.063 0,22.558 12.89,37.199 31.5,37.199 9.52,0 18.16,-4.68 23.88,-12.449 v 37.648 h 10.98 v -97.699 h -10.98"
         style="fill:#171f26;fill-opacity:1;fill-rule:nonzero;stroke:none"
         id="path444" />
      <path
         d="m 1904.03,310.289 c -15.09,0 -22.56,-12.738 -23.14,-23.578 h 46.43 c -0.14,10.551 -7.17,23.578 -23.29,23.578 z m -34.71,-27.98 c 0,20.511 14.64,37.062 34.86,37.062 21.39,0 33.98,-16.691 33.98,-37.93 v -2.793 h -57.27 c 0.88,-13.328 10.25,-24.457 25.49,-24.457 8.05,0 16.26,3.219 21.82,8.93 l 5.28,-7.172 c -7.04,-7.027 -16.56,-10.84 -28.13,-10.84 -20.95,0 -36.03,15.09 -36.03,37.2"
         style="fill:#171f26;fill-opacity:1;fill-rule:nonzero;stroke:none"
         id="path446" />
      <path
         d="m 1946.07,256.238 5.71,7.91 c 4.69,-5.418 13.62,-10.109 23.29,-10.109 10.84,0 16.7,5.133 16.7,12.16 0,17.141 -43.8,6.59 -43.8,32.813 0,10.988 9.52,20.359 26.37,20.359 12.01,0 20.51,-4.539 26.22,-10.25 l -5.13,-7.621 c -4.24,5.129 -12.01,8.941 -21.09,8.941 -9.67,0 -15.67,-4.832 -15.67,-11.132 0,-15.528 43.79,-5.278 43.79,-32.817 0,-11.863 -9.52,-21.383 -27.83,-21.383 -11.57,0 -21.38,3.512 -28.56,11.129"
         style="fill:#171f26;fill-opacity:1;fill-rule:nonzero;stroke:none"
         id="path448" />
      <path
         d="m 2016.67,246.871 v 70.75 h 10.99 v -70.75 z m -1.9,88.18 c 0,4.097 3.37,7.469 7.32,7.469 4.11,0 7.47,-3.372 7.47,-7.469 0,-4.102 -3.36,-7.332 -7.47,-7.332 -3.95,0 -7.32,3.23 -7.32,7.332"
         style="fill:#171f26;fill-opacity:1;fill-rule:nonzero;stroke:none"
         id="path450" />
      <path
         d="m 2097.08,267.23 v 30.899 c -3.8,6.16 -12.3,11.43 -21.08,11.43 -14.22,0 -22.71,-11.278 -22.71,-26.95 0,-15.527 8.49,-26.961 22.71,-26.961 8.78,0 17.28,5.422 21.08,11.582 z m -51.26,-38.531 5.57,8.199 c 5.86,-7.027 12.89,-9.66 22.99,-9.66 11.72,0 22.7,5.711 22.7,21.242 v 10.102 c -5.12,-7.172 -13.76,-12.594 -23.73,-12.594 -18.45,0 -31.49,13.774 -31.49,36.621 0,22.7 12.89,36.762 31.49,36.762 9.53,0 18.03,-4.68 23.73,-12.449 v 10.699 h 10.99 v -68.699 c 0,-23.442 -16.41,-30.774 -33.69,-30.774 -12.01,0 -20.21,2.352 -28.56,10.551"
         style="fill:#171f26;fill-opacity:1;fill-rule:nonzero;stroke:none"
         id="path452" />
      <path
         d="m 2174.13,246.871 v 46.277 c 0,12.461 -6.29,16.411 -15.82,16.411 -8.64,0 -16.85,-5.27 -20.94,-10.989 v -51.699 h -10.99 v 70.75 h 10.99 v -10.262 c 4.98,5.86 14.64,12.012 25.19,12.012 14.79,0 22.56,-7.473 22.56,-22.851 v -49.649 h -10.99"
         style="fill:#171f26;fill-opacity:1;fill-rule:nonzero;stroke:none"
         id="path454" />
      <path
         d="m 2234.04,310.289 c -15.09,0 -22.56,-12.738 -23.14,-23.578 h 46.43 c -0.15,10.551 -7.18,23.578 -23.29,23.578 z m -34.71,-27.98 c 0,20.511 14.64,37.062 34.86,37.062 21.38,0 33.98,-16.691 33.98,-37.93 v -2.793 h -57.27 c 0.88,-13.328 10.25,-24.457 25.49,-24.457 8.05,0 16.25,3.219 21.82,8.93 l 5.28,-7.172 c -7.04,-7.027 -16.56,-10.84 -28.13,-10.84 -20.95,0 -36.03,15.09 -36.03,37.2"
         style="fill:#171f26;fill-opacity:1;fill-rule:nonzero;stroke:none"
         id="path456" />
      <path
         d="m 2333.5,266.051 v 32.078 c -3.96,6.16 -12.45,11.43 -21.24,11.43 -14.21,0 -22.71,-11.719 -22.71,-27.387 0,-15.68 8.5,-27.25 22.71,-27.25 8.79,0 17.28,4.976 21.24,11.129 z m 0,-19.18 v 10.539 c -5.27,-7.18 -13.92,-12.301 -23.88,-12.301 -18.45,0 -31.49,14.063 -31.49,37.063 0,22.558 12.89,37.199 31.49,37.199 9.52,0 18.17,-4.68 23.88,-12.449 v 37.648 h 10.99 v -97.699 h -10.99"
         style="fill:#171f26;fill-opacity:1;fill-rule:nonzero;stroke:none"
         id="path458" />
      <path
         d="m 2429,254.922 c 14.35,0 22.85,11.57 22.85,27.25 0,15.668 -8.5,27.387 -22.85,27.387 -8.64,0 -17.29,-5.27 -21.1,-11.43 v -32.078 c 3.81,-6.153 12.46,-11.129 21.1,-11.129 z m -32.08,-8.051 v 97.699 h 10.98 v -37.648 c 5.72,7.769 14.21,12.449 23.88,12.449 18.46,0 31.5,-14.641 31.5,-37.199 0,-23 -13.04,-37.063 -31.5,-37.063 -9.96,0 -18.6,5.121 -23.88,12.301 v -10.539 h -10.98"
         style="fill:#171f26;fill-opacity:1;fill-rule:nonzero;stroke:none"
         id="path460" />
      <path
         d="m 2475.28,229.141 c 1.61,-0.731 4.26,-1.172 6.01,-1.172 4.83,0 8.05,1.613 10.55,7.472 l 4.69,10.688 -29.6,71.492 h 11.87 l 23.58,-58.012 23.44,58.012 h 12.01 l -35.45,-85.109 c -4.25,-10.25 -11.42,-14.211 -20.8,-14.364 -2.34,0 -6,0.442 -8.05,1.032 l 1.75,9.961"
         style="fill:#171f26;fill-opacity:1;fill-rule:nonzero;stroke:none"
         id="path462" />
    </g>
  </g>
</svg>
