<svg xmlns="http://www.w3.org/2000/svg" width="2070" height="2002" viewBox="0 0 2070 2002" version="1.1"><path d="M 1026.904 95.870 C 1016.924 97.994, 1006.631 106.059, 1002.775 114.775 C 998.431 124.596, 999.844 141.831, 1005.685 150.274 C 1008.897 154.916, 1014.459 159.283, 1021 162.298 C 1027.573 165.327, 1042.543 165.257, 1049.383 162.164 C 1064.112 155.506, 1070.776 143.586, 1069.663 125.891 C 1069.092 116.825, 1066.800 111.748, 1060.378 105.325 C 1054.214 99.161, 1046.806 95.938, 1037.740 95.474 C 1033.758 95.271, 1028.882 95.448, 1026.904 95.870 M 806.929 124.310 C 796.408 127.279, 787.830 134.538, 783.070 144.500 C 778.895 153.239, 778.468 157.505, 780.887 166.322 C 785.306 182.426, 792.819 190.131, 807.400 193.513 C 813.324 194.887, 814.637 194.879, 821.006 193.430 C 832.278 190.867, 840.731 184.255, 846.424 173.547 C 848.630 169.398, 849 167.438, 849 159.897 C 849 143.329, 842.656 132.429, 829.500 126.390 C 823.236 123.516, 813.066 122.578, 806.929 124.310 M 1247.344 123.983 C 1241.167 125.292, 1235.478 128.525, 1230.079 133.797 C 1223.942 139.790, 1221.076 147.832, 1220.853 159.688 C 1220.718 166.835, 1221.052 168.574, 1223.479 173.372 C 1228.790 183.868, 1237.671 190.793, 1249.272 193.483 C 1255.317 194.885, 1256.664 194.890, 1262.540 193.527 C 1270.464 191.689, 1273.906 189.983, 1279.029 185.354 C 1285.866 179.178, 1291.950 162.352, 1290.387 153.940 C 1289.283 147.997, 1284.189 138.425, 1279.760 133.972 C 1271.681 125.849, 1258.178 121.688, 1247.344 123.983 M 610.746 209.086 C 600.801 211.429, 592.435 218.194, 587.351 228 C 584.777 232.965, 584.502 234.453, 584.523 243.301 C 584.537 249.272, 584.973 253.374, 585.638 253.801 C 586.240 254.185, 587.731 256.471, 588.952 258.879 C 590.173 261.287, 593.590 265.656, 596.545 268.588 C 609.367 281.308, 629.504 280.656, 643.080 267.080 C 647.065 263.095, 649.326 259.761, 650.937 255.493 C 653.487 248.737, 654.893 238, 653.227 238 C 652.649 238, 651.869 236.182, 651.493 233.960 C 651.118 231.738, 649.278 227.642, 647.405 224.859 C 645.532 222.076, 644 219.431, 644 218.982 C 644 218.533, 641.307 216.367, 638.015 214.169 C 629.618 208.561, 620.322 206.829, 610.746 209.086 M 1442 209.292 C 1437.358 210.617, 1427 216.832, 1427 218.293 C 1427 218.746, 1425.659 220.785, 1424.021 222.824 C 1422.383 224.863, 1419.853 229.899, 1418.399 234.016 C 1415.944 240.967, 1415.839 241.927, 1416.929 247.500 C 1420.232 264.380, 1432.290 275.707, 1449.072 277.695 C 1454.614 278.351, 1463.745 275.931, 1469.602 272.253 C 1474.529 269.159, 1480.418 261.302, 1483.783 253.332 C 1490.179 238.185, 1481.819 218.679, 1465.862 211.518 C 1458.823 208.360, 1448.607 207.407, 1442 209.292 M 441.904 337.872 C 431.508 340.078, 421.855 347.885, 417.356 357.725 C 413.810 365.481, 413.591 378.057, 416.877 385.187 C 419.590 391.071, 427.386 398.906, 433.684 402.076 C 436.333 403.409, 438.821 404.950, 439.214 405.500 C 439.606 406.050, 443.881 406.482, 448.714 406.460 C 456.297 406.426, 458.313 406.028, 463.438 403.549 C 471.016 399.884, 477.448 393.443, 480.765 386.199 C 482.926 381.479, 483.374 379.040, 483.374 372 C 483.373 363.994, 483.155 363.122, 479.614 357 C 474.808 348.691, 468.776 342.618, 462.721 339.992 C 457.445 337.704, 447.478 336.689, 441.904 337.872 M 1612.718 338.031 C 1604.098 340.199, 1595.945 347.204, 1589.990 357.559 C 1586.825 363.062, 1586.575 364.127, 1586.599 372 C 1586.621 378.968, 1587.088 381.510, 1589.193 386.104 C 1595.657 400.211, 1612.324 409.233, 1626.449 406.270 C 1636.718 404.116, 1649.189 394.062, 1653.252 384.660 C 1656.517 377.106, 1656.305 365.565, 1652.759 357.801 C 1649.481 350.626, 1642.638 343.722, 1635.623 340.513 C 1629.477 337.702, 1618.677 336.532, 1612.718 338.031 M 315.746 504.025 C 304.956 506.742, 294.875 514.941, 290.289 524.726 C 288.021 529.565, 287.580 531.876, 287.563 539 C 287.547 546.108, 287.970 548.401, 290.147 553 C 292.774 558.549, 299.797 567.537, 300.756 566.577 C 301.041 566.292, 302.450 566.867, 303.887 567.855 C 310.213 572.203, 321.870 574.623, 329.061 573.080 C 338.797 570.992, 348.631 563.940, 353.496 555.558 C 356.619 550.178, 359.306 539.445, 358.545 535.391 C 356.806 526.121, 354.704 521.567, 349.738 516.316 C 341.910 508.039, 334.787 504.146, 326.404 503.561 C 322.607 503.296, 317.811 503.505, 315.746 504.025 M 1740.500 503.621 C 1732.196 505.744, 1720.444 514.102, 1716.280 520.845 C 1715.059 522.823, 1713.364 527.501, 1712.513 531.242 C 1711.124 537.348, 1711.122 538.713, 1712.487 544.600 C 1715.209 556.339, 1722.753 565.709, 1733.411 570.588 C 1739.445 573.350, 1750.009 574.784, 1753.291 573.285 C 1754.506 572.731, 1757.299 571.695, 1759.498 570.984 C 1765.283 569.113, 1773.465 563.382, 1776.384 559.155 C 1781.099 552.327, 1782.389 548.020, 1782.424 539 C 1782.451 531.864, 1782.032 529.586, 1779.808 524.804 C 1774.371 513.109, 1761.678 504.373, 1748.901 503.532 C 1745.381 503.300, 1741.600 503.340, 1740.500 503.621 M 238 708.029 C 227.495 710.107, 217.944 717.733, 213.330 727.725 C 209.521 735.976, 209.481 748, 213.235 756.199 C 216.748 763.869, 223.075 769.938, 230.524 772.780 C 237.820 775.564, 247.055 777.131, 251.326 776.309 C 261.815 774.291, 272.274 765.998, 276.807 756.104 C 280.491 748.063, 280.482 735.918, 276.786 727.849 C 271.406 716.104, 261.003 709.519, 245 707.728 C 243.075 707.513, 239.925 707.648, 238 708.029 M 1812.692 710.300 C 1804.399 712.980, 1797.662 719.075, 1793.440 727.720 C 1791.016 732.684, 1790.618 734.701, 1790.621 742 C 1790.625 748.999, 1791.079 751.490, 1793.193 756.104 C 1797.997 766.589, 1808.847 774.805, 1820.123 776.496 C 1829.227 777.861, 1846.340 771.146, 1852.015 763.981 C 1857.540 757.005, 1859.427 751.421, 1859.443 742 C 1859.460 731.627, 1856.618 724.565, 1849.603 717.551 C 1840.095 708.042, 1827.399 705.549, 1812.692 710.300 M 208.281 916.012 C 198.684 917.413, 189.156 924.910, 184.234 934.932 C 181.808 939.872, 181.500 941.628, 181.501 950.500 C 181.502 959.464, 181.794 961.086, 184.321 966.153 C 191.709 980.969, 205.015 987.452, 222.443 984.728 C 234.323 982.872, 242.589 976.482, 247.803 965.125 C 251.324 957.457, 251.492 944.008, 248.159 936.617 C 243.022 925.225, 234.684 918.364, 223.553 916.369 C 215.659 914.954, 215.540 914.952, 208.281 916.012 M 1847.500 915.931 C 1832.952 917.821, 1820.819 931.422, 1819.315 947.525 C 1817.649 965.368, 1830.974 982.950, 1847.738 985.030 C 1865.108 987.184, 1878.519 980.511, 1885.679 966.153 C 1888.207 961.083, 1888.497 959.469, 1888.494 950.500 C 1888.490 941.802, 1888.150 939.784, 1885.882 935 C 1882.963 928.844, 1877.497 922.956, 1871.500 919.509 C 1868.087 917.547, 1856.298 914.699, 1853.418 915.141 C 1852.913 915.218, 1850.250 915.574, 1847.500 915.931 M 1028.377 917.557 C 1013.354 920.108, 1003.112 929.849, 999.593 944.932 C 996.087 959.959, 1004.075 975.984, 1018.601 983.066 C 1022.899 985.161, 1024.911 985.454, 1035 985.454 C 1045.126 985.454, 1047.092 985.166, 1051.457 983.038 C 1061.770 978.010, 1067.925 970.006, 1070.606 958.136 C 1072.106 951.490, 1072.081 950.855, 1070.025 943.359 C 1064.847 924.485, 1048.223 914.186, 1028.377 917.557 M 240 1130.102 C 226.416 1131.291, 217.473 1137.190, 211.351 1149 C 208.771 1153.976, 208.501 1155.452, 208.505 1164.500 C 208.510 1173.181, 208.853 1175.225, 211.108 1180 C 215.952 1190.259, 224.020 1196.773, 235.379 1199.598 C 240.914 1200.974, 242.883 1201.083, 245.450 1200.154 C 247.206 1199.519, 249.298 1199, 250.099 1199 C 253.397 1199, 265.706 1192.099, 268.904 1188.457 C 281.128 1174.535, 280.436 1152.394, 267.369 1139.319 C 259.623 1131.569, 252.119 1129.041, 240 1130.102 M 1818.718 1130.092 C 1802.890 1133.819, 1792.411 1148.013, 1792.576 1165.500 C 1792.750 1183.767, 1803.486 1195.639, 1823.297 1199.471 C 1829.073 1200.588, 1830.951 1200.566, 1835.797 1199.324 C 1846.048 1196.696, 1854.249 1189.834, 1858.892 1180 C 1861.147 1175.225, 1861.490 1173.181, 1861.495 1164.500 C 1861.499 1155.892, 1861.158 1153.804, 1859.040 1149.500 C 1853.622 1138.488, 1844.151 1131.883, 1831.062 1129.989 C 1823.564 1128.904, 1823.768 1128.902, 1818.718 1130.092 M 319 1332.639 C 311.987 1333.990, 302.028 1338.804, 298.386 1342.604 C 292.185 1349.074, 288.067 1358.915, 288.025 1367.369 C 288 1372.321, 291.714 1385, 293.190 1385 C 293.635 1385, 294 1385.579, 294 1386.288 C 294 1387.841, 303.115 1397, 304.662 1397 C 305.263 1397, 306.290 1397.645, 306.945 1398.433 C 309.521 1401.537, 324.314 1403.802, 330.395 1402.024 C 346.987 1397.172, 359 1382.552, 359 1367.211 C 359 1361.732, 355.939 1352.242, 352.706 1347.701 C 348.494 1341.784, 341.930 1336.258, 338 1335.321 C 336.625 1334.993, 335.004 1334.336, 334.398 1333.862 C 333.057 1332.814, 322.461 1331.972, 319 1332.639 M 1739.500 1332.668 C 1738.400 1332.907, 1736.600 1333.474, 1735.500 1333.927 C 1734.400 1334.380, 1732.246 1335.255, 1730.712 1335.871 C 1729.179 1336.487, 1727.242 1337.556, 1726.408 1338.246 C 1719.145 1344.250, 1714.452 1350.778, 1713.456 1356.261 C 1713.081 1358.330, 1712.374 1360.269, 1711.887 1360.570 C 1709.384 1362.117, 1712.854 1381.451, 1716.403 1385.737 C 1725.766 1397.044, 1738.141 1403.709, 1747.890 1402.695 C 1754.849 1401.971, 1761.722 1400.040, 1763.055 1398.433 C 1763.710 1397.645, 1764.816 1397, 1765.515 1397 C 1766.213 1397, 1769.196 1394.393, 1772.142 1391.207 C 1782.341 1380.181, 1784.736 1365.759, 1778.541 1352.673 C 1777.023 1349.468, 1774.589 1345.643, 1773.131 1344.173 C 1764.654 1335.625, 1749.588 1330.471, 1739.500 1332.668 M 438.791 1505.462 C 435.101 1506.751, 430.757 1508.749, 429.137 1509.903 C 427.517 1511.056, 425.870 1512, 425.477 1512 C 423.947 1512, 418.705 1518.768, 416.183 1524 C 413.919 1528.696, 413.531 1530.816, 413.528 1538.500 C 413.526 1546.786, 413.787 1547.985, 416.828 1553.610 C 420.845 1561.044, 425.712 1565.871, 433 1569.649 C 438.025 1572.254, 439.408 1572.500, 449 1572.500 C 459.145 1572.500, 459.720 1572.380, 466 1568.946 C 473.780 1564.691, 479.518 1557.050, 482.983 1546.326 C 485.684 1537.971, 485.177 1532.252, 480.950 1523.395 C 473.358 1507.488, 455.158 1499.746, 438.791 1505.462 M 1614 1503.936 C 1598.024 1507.157, 1585.717 1521.685, 1585.567 1537.500 C 1585.508 1543.620, 1585.964 1545.443, 1589.188 1552 C 1593.493 1560.752, 1598.385 1566.114, 1605.442 1569.811 C 1609.969 1572.183, 1611.602 1572.463, 1621 1572.481 C 1630.610 1572.498, 1631.966 1572.259, 1637 1569.650 C 1644.280 1565.878, 1649.928 1560.274, 1653.536 1553.244 C 1656.163 1548.124, 1656.481 1546.522, 1656.462 1538.500 C 1656.440 1529.128, 1654.655 1523.191, 1650.134 1517.443 C 1647.033 1513.501, 1638.524 1508.146, 1631.114 1505.473 C 1624.204 1502.980, 1620.422 1502.641, 1614 1503.936 M 607.861 1631.320 C 605.310 1632.043, 602.525 1633.279, 601.671 1634.067 C 600.818 1634.855, 598.608 1636.592, 596.760 1637.926 C 590.744 1642.271, 585.374 1650.353, 583.545 1657.818 C 582 1664.122, 581.994 1665.165, 583.475 1671.548 C 586.340 1683.900, 593.142 1692.618, 604 1697.850 C 608.789 1700.157, 610.728 1700.495, 619 1700.463 C 627.376 1700.431, 629.127 1700.100, 633.795 1697.674 C 644.565 1692.074, 649.753 1684.258, 652.470 1669.533 C 654.945 1656.126, 646.388 1640.570, 632.744 1633.668 C 626.289 1630.403, 614.895 1629.328, 607.861 1631.320 M 1444.455 1630.960 C 1436.765 1632.606, 1427.330 1639.541, 1422.457 1647.131 C 1419.944 1651.044, 1417.043 1659.948, 1416.961 1664 C 1416.866 1668.626, 1418.783 1676.466, 1421.414 1682.218 C 1424.646 1689.283, 1429.816 1694.482, 1437 1697.891 C 1441.662 1700.102, 1443.871 1700.500, 1451.500 1700.500 C 1459.119 1700.500, 1461.344 1700.101, 1466 1697.897 C 1476.748 1692.811, 1484.464 1682.716, 1487.022 1670.395 C 1488.715 1662.237, 1486.526 1653.893, 1480.464 1645.397 C 1477.953 1641.879, 1475.580 1639, 1475.189 1639 C 1474.799 1639, 1473.237 1637.848, 1471.719 1636.440 C 1470.201 1635.032, 1467.333 1633.201, 1465.345 1632.371 C 1460.933 1630.527, 1449.945 1629.785, 1444.455 1630.960 M 806 1714.920 C 795.387 1717.351, 787.625 1723.923, 781.696 1735.500 C 779.034 1740.699, 778.620 1742.568, 778.597 1749.500 C 778.575 1756.071, 779.041 1758.517, 781.205 1763.196 C 784.575 1770.481, 791.549 1777.444, 798.801 1780.765 C 806.921 1784.483, 819.042 1784.501, 827.104 1780.807 C 833.821 1777.729, 840.848 1770.981, 843.738 1764.835 C 848.854 1753.951, 847.212 1736.674, 840.245 1728.069 C 835.540 1722.258, 834.691 1721.569, 827.855 1718.013 C 821.716 1714.820, 812.271 1713.483, 806 1714.920 M 1250 1714.885 C 1240.286 1717.016, 1230.862 1724.540, 1226.322 1733.791 C 1224.154 1738.208, 1223.715 1740.520, 1223.663 1747.791 C 1223.577 1759.662, 1224.468 1763.104, 1229.205 1769.193 C 1232.820 1773.841, 1243.035 1780.728, 1247.575 1781.580 C 1249.471 1781.936, 1251.269 1782.626, 1251.570 1783.113 C 1253.206 1785.760, 1268.807 1781.888, 1276.180 1777.004 C 1286.936 1769.880, 1291.366 1762.045, 1291.448 1750 C 1291.494 1743.322, 1291.096 1741.678, 1287.812 1735 C 1283.322 1725.870, 1278.295 1720.547, 1271.199 1717.409 C 1265.377 1714.834, 1255.561 1713.666, 1250 1714.885 M 1024.710 1739.538 C 1016.566 1741.158, 1009.649 1745.795, 1005.074 1752.703 C 1003.383 1755.255, 1001.944 1757.716, 1001.875 1758.171 C 1001.806 1758.627, 1001.666 1759.338, 1001.563 1759.750 C 997.287 1776.874, 999.487 1789.180, 1008.452 1798.296 C 1014.262 1804.204, 1018.819 1806.550, 1027.250 1807.974 C 1042.904 1810.618, 1055.943 1806.114, 1064.263 1795.189 C 1067.240 1791.280, 1068.372 1788.523, 1069.683 1781.985 C 1071.218 1774.334, 1071.220 1773.098, 1069.719 1765.311 C 1066.961 1751.004, 1058.706 1742.383, 1045.006 1739.501 C 1036.588 1737.731, 1033.774 1737.736, 1024.710 1739.538" stroke="none" fill="#9b1c43" fill-rule="evenodd"/><path d="M 1116.566 3.162 C 1102.305 37.042, 1086.344 73.338, 1084.411 76.282 C 1082.770 78.782, 1080.924 80.265, 1078.965 80.657 C 1077.334 80.983, 1076 81.869, 1076 82.625 C 1076 83.721, 1078.636 84, 1089 84 C 1099.889 84, 1102 83.756, 1102 82.500 C 1102 81.556, 1101.048 81, 1099.434 81 C 1092.147 81, 1091.444 77.374, 1096.428 65.500 L 1099.786 57.500 1115.500 57.500 L 1131.214 57.500 1134.572 65.500 C 1136.419 69.900, 1137.946 74.722, 1137.965 76.215 C 1138.002 79.111, 1135.673 81, 1132.066 81 C 1130.896 81, 1130 81.651, 1130 82.500 C 1130 83.773, 1132.500 84, 1146.500 84 C 1160.500 84, 1163 83.773, 1163 82.500 C 1163 81.551, 1162.044 81, 1160.400 81 C 1155.930 81, 1151.791 75.554, 1146.427 62.613 C 1128.226 18.702, 1120.338 0.609, 1119.236 0.243 C 1118.529 0.009, 1117.352 1.297, 1116.566 3.162 M 1108.823 36.523 L 1102.201 52 1115.614 52 L 1129.027 52 1127.444 48.250 C 1126.573 46.188, 1123.824 39.550, 1121.336 33.500 C 1118.848 27.450, 1116.505 22.173, 1116.129 21.773 C 1115.753 21.373, 1112.466 28.010, 1108.823 36.523 M 981.500 121.690 C 954.934 123.442, 916.068 128.355, 887.844 133.529 C 869.383 136.912, 846.997 141.669, 846.313 142.353 C 846.129 142.537, 846.658 144.615, 847.489 146.970 C 848.320 149.325, 849 154.172, 849 157.742 C 849 163.991, 849.084 164.210, 851.250 163.612 C 852.487 163.270, 863.400 160.974, 875.500 158.510 C 913.080 150.857, 946.766 146.291, 983.293 143.900 L 1002.086 142.670 1001.293 139.585 C 1000.857 137.888, 1000.503 133.012, 1000.507 128.750 L 1000.513 121 993.507 121.180 C 989.653 121.279, 984.250 121.509, 981.500 121.690 M 1069.493 128.750 C 1069.497 133.012, 1069.127 137.963, 1068.671 139.750 L 1067.841 143 1074.842 143 C 1102.100 143, 1162.757 150.679, 1204.241 159.382 C 1212.899 161.198, 1220.211 162.455, 1220.491 162.176 C 1220.771 161.896, 1221 159.347, 1221 156.511 C 1221 153.676, 1221.726 149.227, 1222.612 146.624 C 1223.499 144.021, 1224.059 141.726, 1223.857 141.524 C 1223.081 140.747, 1177.717 131.995, 1162 129.590 C 1134.057 125.313, 1090.279 121, 1074.806 121 L 1069.487 121 1069.493 128.750 M 1289.518 164.750 C 1289.128 167.363, 1287.653 171.864, 1286.241 174.753 C 1284.828 177.642, 1283.859 180.146, 1284.086 180.318 C 1284.314 180.490, 1289.675 182.342, 1296 184.433 C 1330.656 195.894, 1380.414 216.940, 1407.578 231.628 C 1412.025 234.032, 1416.148 236, 1416.738 236 C 1417.329 236, 1418.537 233.871, 1419.424 231.270 C 1420.310 228.668, 1422.378 224.869, 1424.018 222.828 C 1425.658 220.787, 1427 218.752, 1427 218.305 C 1427 216.681, 1384.342 195.941, 1359.445 185.461 C 1339.294 176.978, 1293.377 160, 1290.586 160 C 1290.389 160, 1289.908 162.137, 1289.518 164.750 M 761 167.435 C 725.294 180.256, 698.235 191.783, 665.500 208.120 C 654.500 213.610, 645.144 218.457, 644.710 218.891 C 644.275 219.325, 645.470 221.984, 647.365 224.800 C 649.260 227.616, 651.118 231.738, 651.493 233.960 C 651.869 236.182, 652.643 238, 653.214 238 C 653.785 238, 659.258 235.342, 665.376 232.093 C 695.069 216.325, 743.697 195.699, 776.500 184.958 C 782 183.157, 786.646 181.572, 786.824 181.435 C 787.002 181.298, 786.003 179.036, 784.604 176.408 C 783.205 173.780, 781.525 169.238, 780.871 166.315 C 780.217 163.392, 779.416 161.034, 779.091 161.076 C 778.766 161.118, 770.625 163.979, 761 167.435 M 1482.690 255.817 C 1481.850 257.916, 1479.514 261.794, 1477.499 264.434 C 1475.483 267.074, 1474.209 269.559, 1474.667 269.957 C 1475.125 270.354, 1482.025 275.083, 1490 280.467 C 1518.582 299.760, 1551.274 325.259, 1576.806 348.175 C 1583.575 354.250, 1589.255 359.058, 1589.429 358.860 C 1589.603 358.662, 1590.519 356.981, 1591.463 355.125 C 1592.408 353.268, 1595.226 349.762, 1597.725 347.333 L 1602.270 342.916 1599.885 340.337 C 1592.087 331.904, 1558.041 303.508, 1534.500 285.801 C 1518.829 274.015, 1486.723 252, 1485.204 252 C 1484.661 252, 1483.530 253.718, 1482.690 255.817 M 570.952 263.317 C 552.911 275.590, 537.478 286.955, 520.455 300.503 C 499.588 317.110, 471.031 341.884, 470.168 344.128 C 469.986 344.603, 471.148 346.095, 472.751 347.444 C 474.355 348.793, 477.129 352.642, 478.917 355.996 L 482.168 362.095 489.349 355.297 C 514.493 331.498, 553.499 300.763, 587.250 278.156 C 593.163 274.196, 598 270.815, 598 270.644 C 598 270.473, 596.268 268.456, 594.150 266.163 C 592.033 263.869, 589.489 260.194, 588.498 257.996 C 587.507 255.798, 586.202 254.023, 585.598 254.051 C 584.994 254.078, 578.403 258.248, 570.952 263.317 M 1645.785 394.952 C 1643.742 397.123, 1640.258 399.935, 1638.043 401.200 C 1635.828 402.465, 1634.012 403.745, 1634.008 404.045 C 1634.003 404.345, 1637.208 408.170, 1641.129 412.545 C 1662.737 436.655, 1689.555 471.255, 1708.527 499.500 C 1714.438 508.300, 1719.426 515.676, 1719.611 515.890 C 1719.796 516.105, 1721.816 514.592, 1724.101 512.528 C 1726.386 510.463, 1730.257 507.889, 1732.704 506.807 C 1735.649 505.504, 1736.972 504.370, 1736.620 503.451 C 1734.959 499.123, 1709.511 462.845, 1694.574 443.511 C 1678.516 422.726, 1651.651 390.998, 1650.115 391.002 C 1649.777 391.003, 1647.828 392.780, 1645.785 394.952 M 410.258 405.750 C 395.881 422.403, 376.342 446.919, 365.225 462.256 C 356.135 474.796, 336 504.555, 336 505.450 C 336 505.724, 337.436 506.691, 339.192 507.599 C 340.948 508.507, 344.665 511.408, 347.454 514.045 L 352.523 518.839 363.643 502.170 C 383.061 473.060, 406.095 442.997, 428.901 417 C 434.450 410.675, 438.974 405.275, 438.954 405 C 438.934 404.725, 436.755 403.487, 434.111 402.249 C 431.467 401.010, 427.683 398.423, 425.702 396.499 C 423.720 394.574, 421.911 393, 421.682 393 C 421.453 393, 416.312 398.738, 410.258 405.750 M 244 400.260 C 244 401.214, 245.404 401.969, 247.929 402.373 C 255.255 403.544, 255 402.193, 255 439.849 C 255 478.150, 255.028 478, 247.943 478 C 245.105 478, 244 478.420, 244 479.500 C 244 481.756, 287.553 481.689, 296.311 479.419 C 306.928 476.668, 314.465 471.542, 319.853 463.408 C 327.526 451.825, 328.407 432.559, 321.852 419.711 C 317.343 410.871, 309.006 404.102, 299.250 401.357 C 290.875 399, 244 398.070, 244 400.260 M 269.750 405.689 C 268.126 406.114, 268 408.624, 268 440.512 L 268 474.877 272.514 475.554 C 297.019 479.229, 313.519 462.993, 311.735 436.961 C 310.743 422.495, 302.646 410.453, 291.316 406.592 C 286.943 405.102, 274.061 404.563, 269.750 405.689 M 1768 566.650 C 1763.785 569.622, 1758.424 572, 1755.937 572 C 1754.937 572, 1753.880 572.385, 1753.589 572.856 C 1753.298 573.327, 1756.322 580.189, 1760.309 588.106 C 1776.155 619.572, 1790.970 655.046, 1802.215 688.452 C 1806.112 700.028, 1809.580 709.824, 1809.921 710.221 C 1810.263 710.618, 1812.742 710.280, 1815.430 709.471 C 1818.118 708.662, 1822.721 708, 1825.659 708 C 1828.597 708, 1830.992 707.663, 1830.982 707.250 C 1830.953 706.004, 1825.547 689.341, 1820.520 675 C 1810.008 645.015, 1796.371 612.787, 1781.802 583.500 C 1776.878 573.600, 1772.545 565.203, 1772.174 564.841 C 1771.803 564.479, 1769.925 565.293, 1768 566.650 M 297.641 572.226 C 288.411 588.849, 268.738 633.476, 258.505 661 C 252.686 676.652, 243 705.455, 243 707.106 C 243 707.598, 244.688 708.015, 246.750 708.033 C 249.959 708.061, 256.416 709.894, 262.042 712.374 C 263.283 712.922, 264.225 710.955, 266.878 702.277 C 271.488 687.196, 284.825 651.734, 293.579 631.283 C 299.157 618.252, 313.156 588.686, 320.763 573.870 C 320.941 573.524, 318.984 572.925, 316.413 572.539 C 311.187 571.756, 307.786 570.470, 303.812 567.775 L 301.124 565.952 297.641 572.226 M 1841.500 771.569 C 1839.300 772.878, 1835.130 774.483, 1832.234 775.137 C 1828.194 776.049, 1827.078 776.695, 1827.439 777.913 C 1827.697 778.786, 1829.468 787.600, 1831.372 797.500 C 1837.672 830.241, 1841.992 863.820, 1844.141 896.764 L 1845.398 916.028 1851.449 915.764 C 1854.777 915.619, 1859.705 915.875, 1862.401 916.334 L 1867.302 917.168 1866.621 904.334 C 1864.976 873.322, 1860.451 835.452, 1854.535 803.208 C 1849.730 777.015, 1847.861 768.985, 1846.596 769.094 C 1845.993 769.146, 1843.700 770.260, 1841.500 771.569 M 225.132 774.666 C 217.771 803.152, 207 884.192, 207 911.082 L 207 916.006 212.750 915.755 C 215.912 915.617, 220.863 915.883, 223.750 916.346 L 229 917.188 229 911.294 C 229 888.131, 236.116 829.776, 243.396 793.235 C 245.178 784.289, 246.418 776.752, 246.152 776.485 C 245.885 776.218, 244.279 775.985, 242.583 775.967 C 239.912 775.939, 233.363 773.989, 227.811 771.569 C 226.462 770.981, 225.923 771.604, 225.132 774.666 M 1110 839.048 C 1103.055 840.482, 1093.955 845.413, 1088.868 850.500 C 1068.271 871.098, 1073.617 909.182, 1098.730 920.750 C 1103.838 923.103, 1105.763 923.413, 1115.500 923.454 C 1127.793 923.505, 1132.881 921.917, 1139.859 915.851 C 1143.532 912.657, 1150 904.349, 1150 902.824 C 1150 900.687, 1147.106 902.459, 1143.211 906.981 C 1140.852 909.720, 1136.802 913.207, 1134.211 914.731 C 1130.006 917.202, 1128.533 917.500, 1120.500 917.500 C 1112.371 917.500, 1110.975 917.210, 1106.079 914.500 C 1099.361 910.782, 1094.655 904.532, 1092.439 896.384 C 1090.032 887.533, 1090.808 869.684, 1093.950 861.619 C 1098.578 849.742, 1107.073 843.690, 1119.011 843.765 C 1130.732 843.839, 1139.693 850.189, 1143.868 861.382 C 1144.901 864.150, 1146.302 866.601, 1146.982 866.827 C 1147.946 867.149, 1148.058 864.196, 1147.491 853.370 C 1147.091 845.741, 1146.566 839.163, 1146.323 838.750 C 1145.433 837.237, 1144.014 838.073, 1142.500 841 C 1140.627 844.622, 1140.268 844.643, 1132.578 841.573 C 1125.501 838.748, 1116.390 837.729, 1110 839.048 M 220.500 985.018 C 218.300 985.452, 214.363 985.563, 211.750 985.264 L 207 984.721 207 990.282 C 207 1006.101, 211.912 1053.251, 216.607 1082.500 C 219.106 1098.072, 225.779 1132.113, 226.467 1132.801 C 226.656 1132.989, 228.894 1132.436, 231.440 1131.572 C 233.986 1130.707, 238.454 1130, 241.368 1130 C 244.282 1130, 246.905 1129.762, 247.195 1129.471 C 247.486 1129.180, 247.106 1126.368, 246.350 1123.221 C 239.171 1093.317, 231.054 1033.575, 229.371 998.250 C 228.609 982.263, 229.294 983.285, 220.500 985.018 M 1859 985.012 C 1856.525 985.431, 1852.460 985.549, 1849.966 985.273 L 1845.433 984.773 1844.182 1004.427 C 1841.957 1039.391, 1837.510 1073.290, 1830.442 1109.164 C 1828.455 1119.249, 1826.756 1127.928, 1826.665 1128.450 C 1826.574 1128.973, 1829.069 1129.742, 1832.209 1130.159 C 1835.350 1130.576, 1839.791 1131.873, 1842.078 1133.040 C 1844.366 1134.207, 1846.592 1134.788, 1847.024 1134.331 C 1848.087 1133.207, 1855.269 1096.385, 1858.401 1076 C 1862.641 1048.402, 1867 1004.333, 1867 989.063 C 1867 983.461, 1867.292 983.608, 1859 985.012 M 1024.978 1051.500 C 1024.966 1087.800, 1024.310 1257.431, 1023.520 1428.458 C 1022.730 1599.485, 1022.198 1739.531, 1022.338 1739.671 C 1022.478 1739.811, 1025.597 1739.428, 1029.270 1738.820 C 1034.209 1738.001, 1037.429 1738.011, 1041.640 1738.857 C 1044.771 1739.485, 1047.477 1739.857, 1047.652 1739.682 C 1047.827 1739.507, 1047.309 1595.619, 1046.500 1419.932 C 1045.692 1244.244, 1045.023 1074.625, 1045.015 1043 L 1045 985.500 1035 985.500 L 1025 985.500 1024.978 1051.500 M 257.500 1196.074 C 254.200 1197.680, 250.600 1199.002, 249.500 1199.012 C 245.144 1199.052, 244.653 1200.295, 246.492 1206.625 C 251.112 1222.524, 267.506 1265.226, 278.501 1290 C 285.479 1305.724, 302.001 1339, 302.830 1339 C 303.229 1339, 304.443 1338.397, 305.527 1337.659 C 307.591 1336.257, 315.613 1333.449, 320.145 1332.543 L 322.791 1332.014 314.085 1314.757 C 297.970 1282.811, 282.451 1245.802, 270.891 1211.750 C 267.390 1201.438, 264.295 1193.035, 264.013 1193.077 C 263.731 1193.119, 260.800 1194.467, 257.500 1196.074 M 1806.513 1201.250 C 1804.132 1209.748, 1792.505 1241.490, 1785.725 1258 C 1777.638 1277.693, 1768.698 1297.277, 1759.286 1315.915 C 1754.727 1324.944, 1751.110 1332.385, 1751.249 1332.452 C 1751.387 1332.518, 1753.975 1333.422, 1757 1334.459 C 1760.025 1335.497, 1764.197 1337.459, 1766.270 1338.819 C 1768.344 1340.180, 1770.239 1341.094, 1770.481 1340.852 C 1771.635 1339.699, 1790.609 1300.794, 1796.502 1287.500 C 1807.758 1262.105, 1826.263 1213.346, 1828.424 1203.385 L 1829.099 1200.271 1823.800 1199.570 C 1820.885 1199.184, 1816.530 1197.998, 1814.123 1196.934 C 1811.715 1195.870, 1809.412 1195, 1809.005 1195 C 1808.597 1195, 1807.476 1197.813, 1806.513 1201.250 M 350.650 1388.712 C 348.266 1392.090, 346.311 1393.802, 339.607 1398.388 C 337.830 1399.603, 338.413 1400.723, 349.091 1416.591 C 362.180 1436.045, 381.178 1461.593, 394.376 1477.490 C 409.261 1495.420, 424.002 1512, 425.058 1512 C 425.599 1512, 427.721 1510.907, 429.771 1509.571 C 431.822 1508.236, 436.087 1506.404, 439.250 1505.500 C 442.413 1504.597, 445 1503.662, 445 1503.422 C 445 1503.182, 439.262 1496.555, 432.250 1488.694 C 408.749 1462.350, 386.319 1433.470, 366.472 1404 C 359.990 1394.375, 354.380 1386.145, 354.006 1385.712 C 353.631 1385.279, 352.121 1386.629, 350.650 1388.712 M 1709.118 1401.627 C 1687.505 1434.008, 1662.395 1466.128, 1636.802 1494.131 C 1631.961 1499.428, 1628 1503.969, 1628 1504.222 C 1628 1504.476, 1629.912 1505.236, 1632.250 1505.910 C 1634.588 1506.585, 1638.863 1508.736, 1641.750 1510.691 C 1646.320 1513.783, 1647.215 1514.066, 1648.655 1512.872 C 1654.777 1507.792, 1688.513 1467.071, 1704.629 1445.306 C 1713.917 1432.762, 1735 1402.063, 1735 1401.081 C 1735 1400.760, 1732.979 1399.425, 1730.510 1398.114 C 1728.040 1396.804, 1724.552 1394.222, 1722.760 1392.377 C 1720.967 1390.531, 1719.050 1389.032, 1718.500 1389.045 C 1717.950 1389.059, 1713.728 1394.721, 1709.118 1401.627 M 482.600 1547.287 C 481.764 1550.154, 479.694 1554.682, 478 1557.349 C 475.414 1561.417, 475.126 1562.448, 476.209 1563.756 C 478.401 1566.402, 504.830 1589.106, 518 1599.656 C 534.991 1613.267, 551.418 1625.347, 570.500 1638.264 L 586.500 1649.094 588.299 1646.797 C 591.936 1642.155, 598.330 1636.030, 600.139 1635.456 C 601.163 1635.131, 601.982 1634.558, 601.960 1634.183 C 601.939 1633.807, 594.243 1628.363, 584.858 1622.083 C 554.841 1601.999, 523.708 1577.778, 497.310 1553.970 L 484.120 1542.074 482.600 1547.287 M 1576.500 1554.172 C 1550.518 1577.529, 1513.715 1605.987, 1486.196 1624 C 1477.373 1629.775, 1470.123 1634.725, 1470.084 1635 C 1470.045 1635.275, 1471.557 1636.551, 1473.444 1637.836 C 1475.331 1639.121, 1478.543 1642.595, 1480.583 1645.555 C 1482.704 1648.636, 1484.763 1650.660, 1485.395 1650.288 C 1489.543 1647.845, 1512.629 1632.127, 1523 1624.685 C 1543.816 1609.748, 1572.211 1586.888, 1592.403 1568.809 L 1597.307 1564.419 1593.760 1559.773 C 1591.810 1557.218, 1589.430 1553.074, 1588.471 1550.564 C 1587.513 1548.054, 1586.452 1546.018, 1586.114 1546.040 C 1585.776 1546.063, 1581.450 1549.722, 1576.500 1554.172 M 1073 1647.271 C 1073 1648.212, 1074.419 1648.971, 1076.929 1649.373 C 1084.258 1650.545, 1084 1649.168, 1084 1687.071 C 1084 1719.667, 1083.921 1721.079, 1082 1723 C 1080.762 1724.238, 1078.667 1725, 1076.500 1725 C 1073.986 1725, 1073 1725.442, 1073 1726.571 C 1073 1727.968, 1076.060 1728.106, 1100.750 1727.821 C 1128.048 1727.505, 1128.579 1727.459, 1133.379 1725.008 C 1143.242 1719.971, 1148.425 1710.038, 1145.973 1700.870 C 1144.547 1695.539, 1137.680 1688.529, 1132.835 1687.461 C 1129.828 1686.798, 1129.685 1686.616, 1131.384 1685.613 C 1138.533 1681.390, 1142.956 1674.658, 1142.956 1668 C 1142.956 1659.965, 1136.345 1651.804, 1127.056 1648.373 C 1120.546 1645.968, 1073 1644.999, 1073 1647.271 M 1098.750 1651.626 C 1097.182 1652.092, 1097 1653.740, 1097 1667.436 L 1097 1682.725 1102.603 1683.383 C 1117.178 1685.096, 1126.728 1680.756, 1128.753 1671.500 C 1130.413 1663.913, 1127.015 1657.178, 1119.563 1653.288 C 1116.630 1651.758, 1102.185 1650.604, 1098.750 1651.626 M 652.479 1669.250 C 652.090 1672.138, 650.921 1676.750, 649.881 1679.500 C 648.083 1684.257, 648.076 1684.564, 649.746 1685.827 C 652.358 1687.803, 685.534 1703.957, 701 1710.784 C 727.306 1722.395, 777.545 1741.391, 779.222 1740.361 C 779.618 1740.117, 780.864 1737.834, 781.991 1735.288 C 783.117 1732.742, 785.589 1728.767, 787.484 1726.454 L 790.929 1722.250 774.215 1716.474 C 739.961 1704.639, 703.766 1689.342, 672.091 1673.315 C 661.967 1668.192, 653.571 1664, 653.435 1664 C 653.299 1664, 652.869 1666.362, 652.479 1669.250 M 1411.500 1668.463 C 1405.233 1672.307, 1367.145 1690.147, 1349.788 1697.369 C 1327.853 1706.497, 1305.012 1714.885, 1281.195 1722.559 C 1280.284 1722.853, 1280.798 1724.116, 1282.898 1726.740 C 1284.553 1728.808, 1287.048 1733.088, 1288.441 1736.250 C 1289.835 1739.412, 1291.192 1742, 1291.457 1742 C 1292.754 1742, 1328.400 1729.073, 1342.500 1723.489 C 1370.804 1712.280, 1423 1688.052, 1423 1686.122 C 1423 1685.712, 1422.088 1683.488, 1420.974 1681.182 C 1419.859 1678.875, 1418.705 1675.528, 1418.408 1673.744 C 1416.902 1664.692, 1417.235 1664.946, 1411.500 1668.463 M 1097 1705.284 L 1097 1721.750 1100.125 1722.375 C 1105.161 1723.382, 1116.420 1723.094, 1120.101 1721.864 C 1124.069 1720.538, 1128.586 1716.634, 1130.589 1712.800 C 1134.234 1705.823, 1130.445 1696.052, 1122.533 1692.027 C 1118.380 1689.914, 1115.880 1689.444, 1107.283 1689.159 L 1097 1688.818 1097 1705.284 M 845.711 1739.670 C 846.145 1741.227, 846.439 1746.438, 846.365 1751.250 C 846.291 1756.063, 846.469 1760, 846.762 1760 C 847.055 1760, 854.652 1761.582, 863.646 1763.517 C 886.258 1768.380, 910.552 1772.486, 934.347 1775.468 C 953.939 1777.924, 988.230 1781, 996.006 1781 L 999.855 1781 999.365 1775.750 C 999.084 1772.737, 999.481 1768.251, 1000.298 1765.223 C 1001.081 1762.320, 1001.446 1759.788, 1001.111 1759.596 C 1000.775 1759.404, 994.875 1758.938, 988 1758.560 C 959.862 1757.015, 920.920 1752.315, 891 1746.854 C 875.783 1744.076, 851.253 1738.850, 846.804 1737.438 C 845.154 1736.914, 845.019 1737.189, 845.711 1739.670 M 1220.500 1739.076 C 1214.612 1740.850, 1178.216 1747.889, 1162 1750.391 C 1133.549 1754.779, 1091.088 1758.986, 1075.136 1758.996 L 1068.773 1759 1069.616 1763.750 C 1070.688 1769.791, 1070.725 1777.441, 1069.705 1782.250 L 1068.909 1786 1086.455 1786 L 1104 1786 1104 1782.500 C 1104 1779.019, 1104.024 1779, 1108.500 1779 C 1112.833 1779, 1113 1779.111, 1113 1782 L 1113 1785 1133 1785 L 1153 1785 1153 1779.607 C 1153 1773.761, 1153.701 1773, 1159.082 1773 C 1161.982 1773, 1162 1773.037, 1162 1779 L 1162 1785 1182 1785 L 1202 1785 1202 1778.500 L 1202 1772 1184.750 1771.905 L 1167.500 1771.811 1180.500 1769.464 C 1208.064 1764.487, 1224.528 1760.518, 1224.054 1758.963 C 1223.809 1758.158, 1223.638 1753.112, 1223.673 1747.750 C 1223.708 1742.388, 1223.683 1738.039, 1223.618 1738.086 C 1223.553 1738.133, 1222.150 1738.579, 1220.500 1739.076 M 1423.500 1770 C 1422.400 1770.473, 1418.013 1770.891, 1413.750 1770.930 L 1406 1771 1406 1777.500 L 1406 1784 1410.838 1784 L 1415.676 1784 1416.336 1819.250 C 1416.700 1838.638, 1416.998 1882.963, 1416.998 1917.750 L 1417 1981 1233 1981 L 1049 1981 1049 1949.665 C 1049 1932.430, 1048.701 1893.274, 1048.336 1862.650 L 1047.672 1806.971 1044.086 1807.735 C 1039.471 1808.719, 1030.511 1808.715, 1025.870 1807.727 L 1022.240 1806.954 1021.494 1893.977 L 1020.749 1981 554.624 1981.119 C 298.256 1981.185, 69.898 1981.522, 47.162 1981.869 L 5.824 1982.500 3.412 1985.306 C 0.222 1989.016, 0.223 1993.985, 3.413 1997.694 L 5.827 2000.500 1035 2000.500 L 2064.173 2000.500 2066.587 1997.694 C 2069.777 1993.985, 2069.778 1989.016, 2066.588 1985.306 L 2064.176 1982.500 2022.838 1981.869 C 2000.102 1981.522, 1859.061 1981.185, 1709.413 1981.119 L 1437.326 1981 1436.664 1938.250 C 1436.300 1914.737, 1436.002 1870.412, 1436.001 1839.750 L 1436 1784 1441 1784 L 1446 1784 1446 1777.599 L 1446 1771.199 1437.250 1770.775 C 1432.438 1770.542, 1427.825 1770.079, 1427 1769.746 C 1426.175 1769.413, 1424.600 1769.527, 1423.500 1770 M 1808.750 1769.747 L 1797 1770.063 1797 1776.532 L 1797 1783 1817 1783 L 1837 1783 1837 1776 L 1837 1769 1828.750 1769.215 C 1824.213 1769.333, 1815.213 1769.573, 1808.750 1769.747 M 1846 1775.750 L 1846 1782.500 1865.750 1782.149 C 1876.612 1781.955, 1885.613 1781.692, 1885.752 1781.563 C 1885.890 1781.435, 1885.714 1778.555, 1885.359 1775.165 L 1884.715 1769 1865.358 1769 L 1846 1769 1846 1775.750 M 1563.250 1770.746 L 1553 1771.070 1553 1777.535 L 1553 1784 1573 1784 L 1593 1784 1593 1777 L 1593 1770 1583.250 1770.211 C 1577.888 1770.327, 1568.888 1770.568, 1563.250 1770.746 M 1602 1777.107 C 1602 1783.177, 1602.231 1784.125, 1603.582 1783.607 C 1604.452 1783.273, 1613.227 1783, 1623.082 1783 L 1641 1783 1641 1776.500 L 1641 1770 1621.500 1770 L 1602 1770 1602 1777.107 M 1650.358 1773.750 C 1650.699 1775.813, 1650.983 1778.737, 1650.989 1780.250 L 1651 1783 1670.500 1783 L 1690 1783 1690 1776.500 L 1690 1770 1669.869 1770 L 1649.738 1770 1650.358 1773.750 M 1699 1776.500 L 1699 1783 1719 1783 L 1739 1783 1739 1776.500 L 1739 1770 1719 1770 L 1699 1770 1699 1776.500 M 1748 1776.500 L 1748 1783 1768 1783 L 1788 1783 1788 1776.500 L 1788 1770 1768 1770 L 1748 1770 1748 1776.500 M 1317.750 1771.745 L 1309 1772.078 1309 1778.539 L 1309 1785 1329 1785 L 1349 1785 1349 1778 L 1349 1771 1337.750 1771.206 C 1331.563 1771.319, 1322.563 1771.561, 1317.750 1771.745 M 1357 1777.500 L 1357 1784 1377 1784 L 1397 1784 1397 1777.500 L 1397 1771 1377 1771 L 1357 1771 1357 1777.500 M 1455 1777.500 L 1455 1784 1475 1784 L 1495 1784 1495 1777.500 L 1495 1771 1475 1771 L 1455 1771 1455 1777.500 M 1504 1777.500 L 1504 1784 1524 1784 L 1544 1784 1544 1777.500 L 1544 1771 1524 1771 L 1504 1771 1504 1777.500 M 1211 1778.500 L 1211 1785 1231 1785 C 1247.399 1785, 1251 1784.750, 1251 1783.611 C 1251 1782.816, 1249.504 1781.942, 1247.496 1781.565 C 1245.569 1781.204, 1241.064 1778.904, 1237.486 1776.454 L 1230.981 1772 1220.990 1772 L 1211 1772 1211 1778.500 M 1279.500 1774.591 C 1275.383 1778.047, 1270.145 1780.683, 1264.634 1782.070 C 1262.085 1782.712, 1260 1783.634, 1260 1784.119 C 1260 1784.603, 1269 1785, 1280 1785 L 1300 1785 1300 1778.500 L 1300 1772 1291.250 1772.036 C 1283.388 1772.068, 1282.196 1772.328, 1279.500 1774.591 M 1497.560 1833.158 C 1491.102 1834.113, 1485.089 1838.361, 1482.250 1843.975 C 1478.013 1852.353, 1479.801 1859.576, 1488.385 1868.752 L 1494.336 1875.114 1489.258 1879.556 C 1483.681 1884.434, 1479 1892.623, 1479 1897.500 C 1479 1901.957, 1483.441 1910.050, 1487.614 1913.199 C 1494.427 1918.340, 1506.884 1919.140, 1515.071 1914.964 C 1521.855 1911.503, 1526.975 1903.531, 1526.994 1896.399 C 1527.011 1890.249, 1521.731 1881.732, 1514.037 1875.500 C 1511.321 1873.300, 1509.077 1871.260, 1509.050 1870.966 C 1509.022 1870.672, 1510.237 1869.693, 1511.750 1868.791 C 1516.636 1865.877, 1522.989 1858.770, 1524.139 1854.931 C 1525.677 1849.797, 1524.487 1844.624, 1520.802 1840.428 C 1515.345 1834.213, 1507.344 1831.710, 1497.560 1833.158 M 1495.314 1838.950 C 1491.372 1841.354, 1490 1843.815, 1490 1848.484 C 1490 1853.672, 1492.074 1857, 1499.100 1863.086 L 1505.292 1868.451 1509.582 1863.575 C 1520.031 1851.701, 1516.302 1836.992, 1502.846 1837.004 C 1500.309 1837.006, 1497.174 1837.816, 1495.314 1838.950 M 1542.753 1862.348 C 1534.415 1865.741, 1532.725 1868, 1538.525 1868 C 1543.514 1868, 1544 1870.028, 1544 1890.843 C 1544 1910.206, 1543.299 1913, 1538.443 1913 C 1536.938 1913, 1536 1913.576, 1536 1914.500 C 1536 1915.762, 1538.231 1916, 1550.083 1916 C 1560.902 1916, 1564.072 1915.710, 1563.756 1914.750 C 1563.530 1914.063, 1562.030 1913.348, 1560.423 1913.162 C 1555.077 1912.542, 1555 1912.241, 1555 1891.856 L 1555 1872.956 1559.696 1869.978 C 1564.694 1866.808, 1570.251 1866.104, 1573.087 1868.282 C 1576.535 1870.929, 1577 1873.717, 1577 1891.743 C 1577 1911.222, 1576.640 1912.647, 1571.577 1913.188 C 1569.970 1913.360, 1568.470 1914.063, 1568.244 1914.750 C 1567.928 1915.712, 1571.214 1916, 1582.500 1916 C 1593.625 1916, 1597.068 1915.704, 1596.759 1914.776 C 1596.534 1914.102, 1594.863 1913.247, 1593.046 1912.876 C 1591.228 1912.504, 1589.357 1911.592, 1588.886 1910.850 C 1588.416 1910.107, 1588.024 1901.591, 1588.015 1891.924 C 1588.001 1874.964, 1588.079 1874.277, 1590.250 1872.291 C 1596.410 1866.659, 1603.574 1865.484, 1607.545 1869.455 C 1609.982 1871.891, 1610 1872.048, 1610 1891.255 C 1610 1912.100, 1609.785 1913, 1604.800 1913 C 1602.978 1913, 1602 1913.524, 1602 1914.500 C 1602 1915.762, 1604.231 1916, 1616.083 1916 C 1626.905 1916, 1630.070 1915.711, 1629.751 1914.750 C 1629.522 1914.063, 1628.034 1913.273, 1626.444 1912.995 C 1621.659 1912.158, 1621.033 1909.465, 1620.993 1889.500 C 1620.961 1874.021, 1620.691 1870.916, 1619.062 1867.328 C 1614.343 1856.935, 1600.984 1856.288, 1591.508 1865.992 L 1587.625 1869.968 1585.563 1866.338 C 1582.028 1860.118, 1574.249 1857.443, 1567.315 1860.064 C 1565.767 1860.649, 1562.362 1862.926, 1559.750 1865.123 L 1555 1869.119 1555 1864.060 C 1555 1859.450, 1554.800 1859.009, 1552.750 1859.098 C 1551.513 1859.151, 1547.014 1860.614, 1542.753 1862.348 M 1494.678 1882.063 C 1486.204 1891.963, 1487.579 1907.197, 1497.376 1911.940 C 1502.365 1914.355, 1504.888 1914.501, 1509.282 1912.629 C 1514.309 1910.487, 1517.117 1906.828, 1517.155 1902.371 C 1517.205 1896.423, 1515.645 1893.622, 1508.287 1886.451 C 1498.825 1877.228, 1498.818 1877.226, 1494.678 1882.063" stroke="none" fill="#0d2f43" fill-rule="evenodd"/></svg>