<svg xmlns="http://www.w3.org/2000/svg" width="2019" height="898" viewBox="0 0 2019 898" version="1.1"><path d="M 1647.750 2.160 C 1642.596 4.433, 1641.621 6, 1645.361 6 C 1647.462 6, 1647.791 6.577, 1648.352 11.250 C 1648.699 14.138, 1648.987 17.701, 1648.991 19.170 L 1649 21.839 1644.990 20.264 C 1634.446 16.122, 1622.654 27.032, 1622.675 40.910 C 1622.685 47.790, 1625.742 54.262, 1630.290 57.035 C 1634.515 59.611, 1641.503 59.600, 1645.750 57.011 L 1649 55.029 1649 57.515 C 1649 58.882, 1649.149 60, 1649.330 60 C 1650.788 60, 1661.505 54.986, 1661.774 54.178 C 1661.964 53.609, 1660.854 52.999, 1659.309 52.822 L 1656.500 52.500 1656.233 26.250 C 1655.932 -3.441, 1656.539 -1.716, 1647.750 2.160 M 1706.250 2.199 C 1700.399 4.505, 1699.642 5.711, 1703.750 6.184 L 1706.500 6.500 1706.782 29 C 1706.938 41.375, 1706.817 52.513, 1706.513 53.750 C 1706.173 55.141, 1705.205 56, 1703.981 56 C 1702.891 56, 1702 56.450, 1702 57 C 1702 57.596, 1705.833 58, 1711.500 58 C 1717.167 58, 1721 57.596, 1721 57 C 1721 56.450, 1720.190 56, 1719.200 56 C 1715.201 56, 1715 54.603, 1715 26.800 C 1715 -3.633, 1715.743 -1.543, 1706.250 2.199 M 1800 1.727 C 1796.524 2.358, 1791.302 6.515, 1789.425 10.145 C 1787.210 14.428, 1788.336 14.790, 1792.501 11.133 C 1798.032 6.277, 1804.788 6.961, 1807.837 12.684 C 1810.773 18.198, 1807.608 24.729, 1800.604 27.610 C 1795.484 29.715, 1794.702 31, 1798.540 31 C 1802.455 31, 1808.790 34.693, 1810.479 37.960 C 1813.632 44.057, 1811.796 51.080, 1806.316 53.883 C 1803.185 55.484, 1800.883 55.278, 1795.554 52.921 C 1792.969 51.778, 1790.202 51.092, 1789.404 51.398 C 1787.038 52.306, 1786.632 54.936, 1788.534 57.037 C 1790.953 59.711, 1801.787 59.749, 1807.500 57.104 C 1820.293 51.181, 1823.139 35.732, 1812.912 27.728 L 1809.784 25.280 1812.892 20.990 C 1818.257 13.585, 1816.341 5.712, 1808.364 2.379 C 1805.004 0.975, 1804.398 0.927, 1800 1.727 M 1505 3.460 C 1505 4.426, 1505.910 5, 1507.443 5 C 1512.473 5, 1513 7.480, 1513 31.151 C 1513 54.705, 1512.710 56, 1507.429 56 C 1506.093 56, 1505 56.450, 1505 57 C 1505 57.600, 1509 58, 1515 58 C 1521 58, 1525 57.600, 1525 57 C 1525 56.450, 1523.907 56, 1522.571 56 C 1517.348 56, 1516.995 54.540, 1517.057 33.179 L 1517.113 13.500 1521.070 22 C 1523.246 26.675, 1527.833 36.681, 1531.263 44.237 C 1535.075 52.633, 1538.008 57.881, 1538.807 57.737 C 1539.526 57.606, 1544.476 47.966, 1549.807 36.313 L 1559.500 15.125 1559.772 34.184 C 1560.061 54.461, 1559.751 56, 1555.378 56 C 1554.070 56, 1553 56.450, 1553 57 C 1553 57.611, 1557.667 58, 1565 58 C 1572.333 58, 1577 57.611, 1577 57 C 1577 56.450, 1575.740 56, 1574.200 56 C 1569.131 56, 1569 55.358, 1569 30.500 C 1569 5.579, 1569.120 5, 1574.283 5 C 1576.146 5, 1577.019 4.557, 1576.750 3.750 C 1576.464 2.891, 1573.864 2.500, 1568.431 2.500 L 1560.528 2.500 1551.014 23.247 C 1545.781 34.658, 1541.270 43.995, 1540.990 43.997 C 1540.709 43.999, 1536.170 34.663, 1530.903 23.250 L 1521.326 2.500 1513.163 2.210 C 1506.353 1.967, 1505 2.174, 1505 3.460 M 1594.799 20.327 C 1586.825 22.854, 1581.800 30.547, 1581.800 40.227 C 1581.800 59.125, 1604.585 66.453, 1614.368 50.701 C 1621.520 39.187, 1616.939 24.077, 1605.101 20.133 C 1601.016 18.771, 1599.623 18.798, 1594.799 20.327 M 1675.500 20.826 C 1668.314 24.224, 1665 30.199, 1665 39.756 C 1665 60.207, 1687.422 66.914, 1695.548 48.894 C 1696.875 45.951, 1697.044 44.644, 1696.204 43.804 C 1695.364 42.964, 1694.827 43.324, 1694.112 45.206 C 1692.746 48.798, 1688.267 52.001, 1684.615 51.996 C 1678.119 51.988, 1673.052 46.837, 1671.588 38.750 L 1670.909 35 1683.955 35 C 1696.402 35, 1697 34.907, 1697 32.968 C 1697 23.023, 1685.085 16.293, 1675.500 20.826 M 1737.799 20.327 C 1729.825 22.854, 1724.800 30.547, 1724.800 40.227 C 1724.800 59.125, 1747.585 66.453, 1757.368 50.701 C 1764.520 39.187, 1759.939 24.077, 1748.101 20.133 C 1744.016 18.771, 1742.623 18.798, 1737.799 20.327 M 1592.970 25.532 C 1588.338 30.462, 1589.256 45.586, 1594.570 51.901 C 1597.709 55.632, 1600.350 56.512, 1603.940 55.025 C 1608.110 53.298, 1609.508 49.756, 1609.441 41.096 C 1609.377 32.871, 1606.826 26.048, 1603.062 24.033 C 1599.668 22.217, 1595.503 22.835, 1592.970 25.532 M 1635.017 24.983 C 1632.011 27.989, 1631 31.299, 1631 38.131 C 1631 44.645, 1631.875 47.031, 1635.809 51.250 C 1638.787 54.442, 1643.276 54.896, 1646.884 52.369 C 1649.121 50.802, 1649.198 50.316, 1648.842 39.924 C 1648.533 30.891, 1648.128 28.647, 1646.387 26.305 C 1643.630 22.598, 1638.051 21.949, 1635.017 24.983 M 1674.746 25.527 C 1673.356 26.916, 1671.987 28.941, 1671.703 30.027 C 1671.219 31.877, 1671.718 32, 1679.701 32 C 1687.053 32, 1688.131 31.784, 1687.607 30.418 C 1687.273 29.548, 1687 28.441, 1687 27.957 C 1687 26.145, 1682.525 23, 1679.948 23 C 1678.420 23, 1676.189 24.084, 1674.746 25.527 M 1735.970 25.532 C 1731.338 30.462, 1732.256 45.586, 1737.570 51.901 C 1740.709 55.632, 1743.350 56.512, 1746.940 55.025 C 1751.110 53.298, 1752.508 49.756, 1752.441 41.096 C 1752.377 32.871, 1749.826 26.048, 1746.062 24.033 C 1742.668 22.217, 1738.503 22.835, 1735.970 25.532 M 763.750 145.160 C 758.596 147.433, 757.621 149, 761.361 149 C 763.462 149, 763.791 149.577, 764.352 154.250 C 764.699 157.137, 764.987 160.701, 764.991 162.170 L 765 164.839 760.990 163.264 C 750.446 159.122, 738.654 170.032, 738.675 183.910 C 738.685 190.790, 741.742 197.262, 746.290 200.035 C 750.515 202.611, 757.503 202.600, 761.750 200.011 L 765 198.029 765 200.515 C 765 201.882, 765.149 203, 765.330 203 C 766.788 203, 777.505 197.986, 777.774 197.178 C 777.964 196.609, 776.854 195.999, 775.309 195.822 L 772.500 195.500 772.233 169.250 C 771.932 139.559, 772.539 141.284, 763.750 145.160 M 821.250 145.199 C 815.399 147.505, 814.642 148.711, 818.750 149.184 L 821.500 149.500 821.782 172 C 821.938 184.375, 821.817 195.512, 821.513 196.750 C 821.173 198.141, 820.205 199, 818.981 199 C 817.891 199, 817 199.450, 817 200 C 817 200.596, 820.833 201, 826.500 201 C 832.167 201, 836 200.596, 836 200 C 836 199.450, 835.190 199, 834.200 199 C 830.201 199, 830 197.603, 830 169.800 C 830 139.367, 830.743 141.457, 821.250 145.199 M 914.315 145.058 C 909.872 146.405, 905.250 151.356, 903.959 156.153 C 902.765 160.585, 903.573 162.585, 905.367 159.642 C 908.291 154.845, 910.403 152.969, 913.956 152.012 C 924.731 149.110, 930.467 160.139, 924.612 172.500 C 921.932 178.158, 911.319 190.846, 905.125 195.797 C 902.856 197.611, 901 199.523, 901 200.047 C 901 200.613, 907.864 201, 917.920 201 L 934.839 201 936.522 195.935 C 937.447 193.150, 937.957 190.623, 937.655 190.321 C 937.352 190.019, 935.896 190.723, 934.418 191.886 C 932.091 193.717, 930.395 194, 921.771 194 L 911.812 194 920.377 184.901 C 930.092 174.582, 935 166.051, 935 159.488 C 935 149.461, 924.336 142.022, 914.315 145.058 M 621 146.460 C 621 147.426, 621.910 148, 623.443 148 C 628.473 148, 629 150.480, 629 174.151 C 629 197.705, 628.710 199, 623.429 199 C 622.093 199, 621 199.450, 621 200 C 621 200.600, 625 201, 631 201 C 637 201, 641 200.600, 641 200 C 641 199.450, 639.907 199, 638.571 199 C 633.348 199, 632.995 197.540, 633.057 176.179 L 633.113 156.500 637.070 165 C 639.246 169.675, 643.833 179.681, 647.263 187.237 C 651.075 195.633, 654.008 200.881, 654.807 200.737 C 655.526 200.606, 660.476 190.966, 665.807 179.313 L 675.500 158.125 675.772 177.184 C 676.061 197.461, 675.751 199, 671.378 199 C 670.070 199, 669 199.450, 669 200 C 669 200.611, 673.667 201, 681 201 C 688.333 201, 693 200.611, 693 200 C 693 199.450, 691.740 199, 690.200 199 C 685.131 199, 685 198.358, 685 173.500 C 685 148.579, 685.120 148, 690.283 148 C 692.146 148, 693.019 147.557, 692.750 146.750 C 692.464 145.891, 689.864 145.500, 684.431 145.500 L 676.528 145.500 667.014 166.247 C 661.781 177.658, 657.270 186.995, 656.990 186.997 C 656.709 186.999, 652.170 177.662, 646.903 166.250 L 637.326 145.500 629.163 145.210 C 622.353 144.967, 621 145.174, 621 146.460 M 709.799 163.327 C 701.825 165.854, 696.800 173.547, 696.800 183.227 C 696.800 202.125, 719.585 209.453, 729.368 193.701 C 736.520 182.187, 731.939 167.077, 720.101 163.133 C 716.016 161.771, 714.623 161.798, 709.799 163.327 M 790.500 163.826 C 783.314 167.224, 780 173.199, 780 182.756 C 780 203.207, 802.422 209.914, 810.548 191.894 C 811.875 188.951, 812.044 187.644, 811.204 186.804 C 810.364 185.964, 809.827 186.324, 809.112 188.206 C 807.746 191.798, 803.267 195.001, 799.615 194.996 C 793.119 194.988, 788.052 189.837, 786.588 181.750 L 785.909 178 798.955 178 C 811.402 178, 812 177.907, 812 175.968 C 812 166.023, 800.085 159.293, 790.500 163.826 M 852.799 163.327 C 844.825 165.854, 839.800 173.547, 839.800 183.227 C 839.800 202.125, 862.585 209.453, 872.368 193.701 C 879.520 182.187, 874.939 167.077, 863.101 163.133 C 859.016 161.771, 857.623 161.798, 852.799 163.327 M 707.970 168.532 C 703.338 173.462, 704.256 188.586, 709.570 194.901 C 712.709 198.632, 715.350 199.512, 718.940 198.025 C 723.110 196.298, 724.508 192.756, 724.441 184.096 C 724.377 175.871, 721.826 169.048, 718.062 167.033 C 714.668 165.217, 710.503 165.835, 707.970 168.532 M 751.017 167.983 C 748.011 170.989, 747 174.299, 747 181.131 C 747 187.645, 747.875 190.031, 751.809 194.250 C 754.787 197.442, 759.276 197.896, 762.884 195.369 C 765.121 193.802, 765.198 193.316, 764.842 182.924 C 764.533 173.891, 764.128 171.647, 762.387 169.305 C 759.630 165.598, 754.051 164.949, 751.017 167.983 M 789.746 168.527 C 788.356 169.916, 786.987 171.941, 786.703 173.027 C 786.219 174.877, 786.718 175, 794.701 175 C 802.053 175, 803.131 174.784, 802.607 173.418 C 802.273 172.548, 802 171.441, 802 170.957 C 802 169.145, 797.525 166, 794.948 166 C 793.420 166, 791.189 167.084, 789.746 168.527 M 850.970 168.532 C 846.338 173.462, 847.256 188.586, 852.570 194.901 C 855.709 198.632, 858.350 199.512, 861.940 198.025 C 866.110 196.298, 867.508 192.756, 867.441 184.096 C 867.377 175.871, 864.826 169.048, 861.062 167.033 C 857.668 165.217, 853.503 165.835, 850.970 168.532 M 200.750 186.160 C 195.596 188.433, 194.621 190, 198.361 190 C 200.462 190, 200.791 190.577, 201.352 195.250 C 201.699 198.137, 201.987 201.701, 201.991 203.170 L 202 205.839 197.990 204.264 C 187.446 200.122, 175.654 211.032, 175.675 224.910 C 175.685 231.790, 178.742 238.262, 183.290 241.035 C 187.515 243.611, 194.503 243.600, 198.750 241.011 L 202 239.029 202 241.515 C 202 242.882, 202.149 244, 202.330 244 C 203.788 244, 214.505 238.986, 214.774 238.178 C 214.964 237.609, 213.854 236.999, 212.309 236.822 L 209.500 236.500 209.233 210.250 C 208.932 180.559, 209.539 182.284, 200.750 186.160 M 259.250 186.199 C 253.399 188.505, 252.642 189.711, 256.750 190.184 L 259.500 190.500 259.782 213 C 259.938 225.375, 259.817 236.512, 259.513 237.750 C 259.173 239.141, 258.205 240, 256.981 240 C 255.891 240, 255 240.450, 255 241 C 255 241.596, 258.833 242, 264.500 242 C 270.167 242, 274 241.596, 274 241 C 274 240.450, 273.190 240, 272.200 240 C 268.201 240, 268 238.603, 268 210.800 C 268 180.367, 268.743 182.457, 259.250 186.199 M 353.750 188.280 C 346.411 191.638, 345.148 193.525, 350.250 193.510 L 353.500 193.500 353.770 215.929 C 354.056 239.752, 354.018 239.952, 349.250 239.985 C 348.012 239.993, 347 240.450, 347 241 C 347 241.606, 351.333 242, 358 242 C 364.667 242, 369 241.606, 369 241 C 369 240.450, 367.965 240, 366.700 240 C 362.142 240, 362 239.131, 362 211.300 C 362 196.835, 361.663 185.043, 361.250 185.096 C 360.837 185.148, 357.462 186.581, 353.750 188.280 M 58 187.460 C 58 188.426, 58.910 189, 60.443 189 C 65.473 189, 66 191.480, 66 215.151 C 66 238.705, 65.710 240, 60.429 240 C 59.093 240, 58 240.450, 58 241 C 58 241.600, 62 242, 68 242 C 74 242, 78 241.600, 78 241 C 78 240.450, 76.907 240, 75.571 240 C 70.348 240, 69.995 238.540, 70.057 217.179 L 70.113 197.500 74.070 206 C 76.246 210.675, 80.833 220.681, 84.263 228.237 C 88.075 236.633, 91.008 241.881, 91.807 241.737 C 92.526 241.606, 97.476 231.966, 102.807 220.313 L 112.500 199.125 112.772 218.184 C 113.061 238.461, 112.751 240, 108.378 240 C 107.070 240, 106 240.450, 106 241 C 106 241.611, 110.667 242, 118 242 C 125.333 242, 130 241.611, 130 241 C 130 240.450, 128.740 240, 127.200 240 C 122.131 240, 122 239.358, 122 214.500 C 122 189.579, 122.120 189, 127.283 189 C 129.146 189, 130.019 188.557, 129.750 187.750 C 129.464 186.891, 126.864 186.500, 121.431 186.500 L 113.528 186.500 104.014 207.247 C 98.781 218.658, 94.270 227.995, 93.990 227.997 C 93.709 227.999, 89.170 218.662, 83.903 207.250 L 74.326 186.500 66.163 186.210 C 59.353 185.967, 58 186.174, 58 187.460 M 146.799 204.327 C 138.825 206.854, 133.800 214.547, 133.800 224.227 C 133.800 243.125, 156.585 250.453, 166.368 234.701 C 173.520 223.187, 168.939 208.077, 157.101 204.133 C 153.016 202.771, 151.623 202.798, 146.799 204.327 M 228.500 204.826 C 221.314 208.224, 218 214.199, 218 223.756 C 218 244.207, 240.422 250.914, 248.548 232.894 C 249.875 229.951, 250.044 228.644, 249.204 227.804 C 248.364 226.964, 247.827 227.324, 247.112 229.206 C 245.746 232.798, 241.267 236.001, 237.615 235.996 C 231.119 235.988, 226.052 230.837, 224.588 222.750 L 223.909 219 236.955 219 C 249.402 219, 250 218.907, 250 216.968 C 250 207.023, 238.085 200.293, 228.500 204.826 M 290.799 204.327 C 282.825 206.854, 277.800 214.547, 277.800 224.227 C 277.800 243.125, 300.585 250.453, 310.368 234.701 C 317.520 223.187, 312.939 208.077, 301.101 204.133 C 297.016 202.771, 295.623 202.798, 290.799 204.327 M 144.970 209.532 C 140.338 214.462, 141.256 229.586, 146.570 235.901 C 149.709 239.632, 152.350 240.512, 155.940 239.025 C 160.110 237.298, 161.508 233.756, 161.441 225.096 C 161.377 216.871, 158.826 210.048, 155.062 208.033 C 151.668 206.217, 147.503 206.835, 144.970 209.532 M 188.017 208.983 C 185.011 211.989, 184 215.299, 184 222.131 C 184 228.645, 184.875 231.031, 188.809 235.250 C 191.787 238.442, 196.276 238.896, 199.884 236.369 C 202.121 234.802, 202.198 234.316, 201.842 223.924 C 201.533 214.891, 201.128 212.647, 199.387 210.305 C 196.630 206.598, 191.051 205.949, 188.017 208.983 M 227.746 209.527 C 226.356 210.916, 224.987 212.941, 224.703 214.027 C 224.219 215.877, 224.718 216, 232.701 216 C 240.053 216, 241.131 215.784, 240.607 214.418 C 240.273 213.548, 240 212.441, 240 211.957 C 240 210.145, 235.525 207, 232.948 207 C 231.420 207, 229.189 208.084, 227.746 209.527 M 288.970 209.532 C 284.338 214.462, 285.256 229.586, 290.570 235.901 C 293.709 239.632, 296.350 240.512, 299.940 239.025 C 304.110 237.298, 305.508 233.756, 305.441 225.096 C 305.377 216.871, 302.826 210.048, 299.062 208.033 C 295.668 206.217, 291.503 206.835, 288.970 209.532" stroke="none" fill="#141414" fill-rule="evenodd"/><path d="M 1533.836 127.919 C 1530.721 128.915, 1526.623 130.688, 1524.730 131.858 C 1519.340 135.189, 1512.118 143.514, 1509.180 149.782 C 1506.782 154.898, 1506.500 156.659, 1506.500 166.500 C 1506.500 176.643, 1506.729 177.967, 1509.439 183.500 C 1511.055 186.800, 1514.655 191.776, 1517.439 194.558 C 1537.268 214.376, 1570.280 208.632, 1582.291 183.275 C 1585.237 177.054, 1585.500 175.682, 1585.500 166.500 C 1585.500 157.347, 1585.232 155.934, 1582.335 149.820 C 1576.924 138.397, 1568.523 131.187, 1556.310 127.481 C 1549.874 125.528, 1540.755 125.706, 1533.836 127.919 M 1799.836 153.919 C 1796.721 154.915, 1792.623 156.688, 1790.730 157.858 C 1785.340 161.189, 1778.118 169.514, 1775.180 175.782 C 1772.782 180.898, 1772.500 182.659, 1772.500 192.500 C 1772.500 202.643, 1772.729 203.967, 1775.439 209.500 C 1777.055 212.800, 1780.655 217.776, 1783.439 220.558 C 1803.268 240.376, 1836.280 234.632, 1848.291 209.275 C 1851.237 203.054, 1851.500 201.682, 1851.500 192.500 C 1851.500 183.347, 1851.232 181.934, 1848.335 175.820 C 1842.924 164.397, 1834.523 157.187, 1822.310 153.481 C 1815.874 151.528, 1806.755 151.706, 1799.836 153.919 M 1624.500 213.112 C 1584.124 216.888, 1542.500 229.452, 1508.500 248.125 C 1468.119 270.303, 1433.372 301.258, 1407.056 338.500 C 1377.589 380.200, 1359.261 429.519, 1353.959 481.382 C 1352.393 496.706, 1353.246 538.807, 1355.390 552 C 1361.072 586.953, 1368.982 612.030, 1383.937 642.500 C 1412.778 701.260, 1459.534 748.006, 1518.500 777.034 C 1547.379 791.251, 1576.072 800.369, 1606.593 805.029 C 1624.592 807.777, 1659.731 808.774, 1677.724 807.047 C 1768.338 798.351, 1848.633 750.372, 1898.712 675 C 1965.424 574.594, 1965.328 445.797, 1898.465 345 C 1887.526 328.509, 1879.113 318.125, 1864.531 303.117 C 1823.640 261.030, 1775.568 233.821, 1717 219.614 C 1690.207 213.115, 1652.676 210.477, 1624.500 213.112 M 1351.836 257.919 C 1348.721 258.915, 1344.623 260.688, 1342.730 261.858 C 1337.340 265.189, 1330.118 273.514, 1327.180 279.782 C 1324.782 284.898, 1324.500 286.659, 1324.500 296.500 C 1324.500 306.643, 1324.729 307.967, 1327.439 313.500 C 1329.055 316.800, 1332.655 321.776, 1335.439 324.558 C 1355.268 344.376, 1388.280 338.632, 1400.291 313.275 C 1403.237 307.054, 1403.500 305.682, 1403.500 296.500 C 1403.500 287.347, 1403.232 285.934, 1400.335 279.820 C 1394.924 268.397, 1386.523 261.187, 1374.310 257.481 C 1367.874 255.528, 1358.755 255.706, 1351.836 257.919 M 649.836 273.919 C 646.721 274.915, 642.623 276.688, 640.730 277.858 C 635.340 281.189, 628.118 289.514, 625.180 295.782 C 622.782 300.898, 622.500 302.659, 622.500 312.500 C 622.500 322.643, 622.729 323.967, 625.439 329.500 C 627.055 332.800, 630.655 337.776, 633.439 340.558 C 653.268 360.376, 686.280 354.632, 698.291 329.275 C 701.237 323.054, 701.500 321.682, 701.500 312.500 C 701.500 303.347, 701.232 301.934, 698.335 295.820 C 692.924 284.397, 684.523 277.187, 672.310 273.481 C 665.874 271.528, 656.755 271.706, 649.836 273.919 M 888.836 273.919 C 885.721 274.915, 881.623 276.688, 879.730 277.858 C 874.340 281.189, 867.118 289.514, 864.180 295.782 C 861.782 300.898, 861.500 302.659, 861.500 312.500 C 861.500 322.643, 861.729 323.967, 864.439 329.500 C 866.055 332.800, 869.655 337.776, 872.439 340.558 C 892.268 360.376, 925.280 354.632, 937.291 329.275 C 940.237 323.054, 940.500 321.682, 940.500 312.500 C 940.500 303.347, 940.232 301.934, 937.335 295.820 C 931.924 284.397, 923.523 277.187, 911.310 273.481 C 904.874 271.528, 895.755 271.706, 888.836 273.919 M 195.836 288.919 C 192.721 289.915, 188.623 291.688, 186.730 292.858 C 181.340 296.189, 174.118 304.514, 171.180 310.782 C 168.782 315.898, 168.500 317.659, 168.500 327.500 C 168.500 337.643, 168.729 338.967, 171.439 344.500 C 173.055 347.800, 176.655 352.776, 179.439 355.558 C 199.268 375.376, 232.280 369.632, 244.291 344.275 C 247.237 338.054, 247.500 336.682, 247.500 327.500 C 247.500 318.347, 247.232 316.934, 244.335 310.820 C 238.924 299.397, 230.523 292.187, 218.310 288.481 C 211.874 286.528, 202.755 286.706, 195.836 288.919 M 1965.836 337.919 C 1962.721 338.915, 1958.623 340.688, 1956.730 341.858 C 1951.340 345.189, 1944.118 353.514, 1941.180 359.782 C 1938.782 364.898, 1938.500 366.659, 1938.500 376.500 C 1938.500 386.643, 1938.729 387.967, 1941.439 393.500 C 1943.055 396.800, 1946.655 401.776, 1949.439 404.558 C 1969.268 424.376, 2002.280 418.632, 2014.291 393.275 C 2017.237 387.054, 2017.500 385.682, 2017.500 376.500 C 2017.500 367.347, 2017.232 365.934, 2014.335 359.820 C 2008.924 348.397, 2000.523 341.187, 1988.310 337.481 C 1981.874 335.528, 1972.755 335.706, 1965.836 337.919 M 761.159 342.508 C 734.069 346.651, 706.934 357.896, 684.794 374.154 C 674.263 381.887, 656.179 400.196, 648.860 410.534 C 619.506 451.999, 609.832 502.353, 621.970 550.500 C 629.491 580.331, 643.742 605.557, 665.500 627.553 C 679.826 642.036, 691.291 650.420, 708.500 658.999 C 736.923 673.169, 763.170 679.004, 792.500 677.672 C 836.641 675.669, 876.071 657.661, 907.006 625.377 C 925.435 606.145, 937.238 586.427, 945.352 561.316 C 951.424 542.524, 953.407 529.943, 953.438 510 C 953.467 491.592, 952.584 484.306, 948.288 467.500 C 940.621 437.509, 927.012 413.955, 904.042 390.920 C 879.252 366.060, 852.587 351.545, 818.612 344.418 C 803.226 341.190, 775.747 340.276, 761.159 342.508 M 187.500 382.689 C 143.152 388.437, 105.530 415.160, 86.474 454.448 C 80.249 467.282, 77.677 474.825, 75.034 488 C 72.294 501.655, 71.629 513.865, 72.924 526.746 C 79.004 587.223, 122.532 635.480, 181.500 647.118 C 192.081 649.207, 219.377 648.958, 229.966 646.676 C 276.819 636.580, 312.300 604.551, 327.479 558.651 C 331.997 544.988, 334 532.194, 334 517 C 334 449.918, 285.918 393.599, 220 383.471 C 211.297 382.134, 194.836 381.738, 187.500 382.689 M 1281.836 468.919 C 1278.721 469.915, 1274.623 471.688, 1272.730 472.858 C 1267.340 476.189, 1260.118 484.514, 1257.180 490.782 C 1254.782 495.898, 1254.500 497.659, 1254.500 507.500 C 1254.500 517.643, 1254.729 518.967, 1257.439 524.500 C 1259.055 527.800, 1262.655 532.776, 1265.439 535.558 C 1285.268 555.376, 1318.280 549.632, 1330.291 524.275 C 1333.237 518.054, 1333.500 516.682, 1333.500 507.500 C 1333.500 498.347, 1333.232 496.934, 1330.335 490.820 C 1324.924 479.397, 1316.523 472.187, 1304.310 468.481 C 1297.874 466.528, 1288.755 466.706, 1281.836 468.919 M 996.836 469.919 C 993.721 470.915, 989.623 472.688, 987.730 473.858 C 982.340 477.189, 975.118 485.514, 972.180 491.782 C 969.782 496.898, 969.500 498.659, 969.500 508.500 C 969.500 518.643, 969.729 519.967, 972.439 525.500 C 974.055 528.800, 977.655 533.776, 980.439 536.558 C 1000.268 556.376, 1033.280 550.632, 1045.291 525.275 C 1048.237 519.054, 1048.500 517.682, 1048.500 508.500 C 1048.500 499.347, 1048.232 497.934, 1045.335 491.820 C 1039.924 480.397, 1031.523 473.187, 1019.310 469.481 C 1012.874 467.528, 1003.755 467.706, 996.836 469.919 M 541.836 472.919 C 538.721 473.915, 534.623 475.688, 532.730 476.858 C 527.340 480.189, 520.118 488.514, 517.180 494.782 C 514.782 499.898, 514.500 501.659, 514.500 511.500 C 514.500 521.643, 514.729 522.967, 517.439 528.500 C 519.055 531.800, 522.655 536.776, 525.439 539.558 C 545.268 559.376, 578.280 553.632, 590.291 528.275 C 593.237 522.054, 593.500 520.682, 593.500 511.500 C 593.500 502.347, 593.232 500.934, 590.335 494.820 C 584.924 483.397, 576.523 476.187, 564.310 472.481 C 557.874 470.528, 548.755 470.706, 541.836 472.919 M 355.836 567.919 C 352.721 568.915, 348.623 570.688, 346.730 571.858 C 341.340 575.189, 334.118 583.514, 331.180 589.782 C 328.782 594.898, 328.500 596.659, 328.500 606.500 C 328.500 616.643, 328.729 617.967, 331.439 623.500 C 333.055 626.800, 336.655 631.776, 339.439 634.558 C 359.268 654.376, 392.280 648.632, 404.291 623.275 C 407.237 617.054, 407.500 615.682, 407.500 606.500 C 407.500 597.347, 407.232 595.934, 404.335 589.820 C 398.924 578.397, 390.523 571.187, 378.310 567.481 C 371.874 565.528, 362.755 565.706, 355.836 567.919 M 27.836 568.919 C 24.721 569.915, 20.623 571.688, 18.730 572.858 C 13.340 576.189, 6.118 584.514, 3.180 590.782 C 0.782 595.898, 0.500 597.659, 0.500 607.500 C 0.500 617.643, 0.729 618.967, 3.439 624.500 C 5.055 627.800, 8.655 632.776, 11.439 635.558 C 31.268 655.376, 64.280 649.632, 76.291 624.275 C 79.237 618.054, 79.500 616.682, 79.500 607.500 C 79.500 598.347, 79.232 596.934, 76.335 590.820 C 70.924 579.397, 62.523 572.187, 50.310 568.481 C 43.874 566.528, 34.755 566.706, 27.836 568.919 M 1966.836 612.919 C 1963.721 613.915, 1959.623 615.688, 1957.730 616.858 C 1952.340 620.189, 1945.118 628.514, 1942.180 634.782 C 1939.782 639.898, 1939.500 641.659, 1939.500 651.500 C 1939.500 661.643, 1939.729 662.967, 1942.439 668.500 C 1944.055 671.800, 1947.655 676.776, 1950.439 679.558 C 1970.268 699.376, 2003.280 693.632, 2015.291 668.275 C 2018.237 662.054, 2018.500 660.682, 2018.500 651.500 C 2018.500 642.347, 2018.232 640.934, 2015.335 634.820 C 2009.924 623.397, 2001.523 616.187, 1989.310 612.481 C 1982.874 610.528, 1973.755 610.706, 1966.836 612.919 M 649.836 670.919 C 646.721 671.915, 642.623 673.688, 640.730 674.858 C 635.340 678.189, 628.118 686.514, 625.180 692.782 C 622.782 697.898, 622.500 699.659, 622.500 709.500 C 622.500 719.643, 622.729 720.967, 625.439 726.500 C 627.055 729.800, 630.655 734.776, 633.439 737.558 C 653.268 757.376, 686.280 751.632, 698.291 726.275 C 701.237 720.054, 701.500 718.682, 701.500 709.500 C 701.500 700.347, 701.232 698.934, 698.335 692.820 C 692.924 681.397, 684.523 674.187, 672.310 670.481 C 665.874 668.528, 656.755 668.706, 649.836 670.919 M 890.836 672.919 C 887.721 673.915, 883.623 675.688, 881.730 676.858 C 876.340 680.189, 869.118 688.514, 866.180 694.782 C 863.782 699.898, 863.500 701.659, 863.500 711.500 C 863.500 721.643, 863.729 722.967, 866.439 728.500 C 868.055 731.800, 871.655 736.776, 874.439 739.558 C 894.268 759.376, 927.280 753.632, 939.291 728.275 C 942.237 722.054, 942.500 720.682, 942.500 711.500 C 942.500 702.347, 942.232 700.934, 939.335 694.820 C 933.924 683.397, 925.523 676.187, 913.310 672.481 C 906.874 670.528, 897.755 670.706, 890.836 672.919 M 1352.836 691.919 C 1349.721 692.915, 1345.623 694.688, 1343.730 695.858 C 1338.340 699.189, 1331.118 707.514, 1328.180 713.782 C 1325.782 718.898, 1325.500 720.659, 1325.500 730.500 C 1325.500 740.643, 1325.729 741.967, 1328.439 747.500 C 1330.055 750.800, 1333.655 755.776, 1336.439 758.558 C 1356.268 778.376, 1389.280 772.632, 1401.291 747.275 C 1404.237 741.054, 1404.500 739.682, 1404.500 730.500 C 1404.500 721.347, 1404.232 719.934, 1401.335 713.820 C 1395.924 702.397, 1387.523 695.187, 1375.310 691.481 C 1368.874 689.528, 1359.755 689.706, 1352.836 691.919 M 1803.836 791.919 C 1800.721 792.915, 1796.623 794.688, 1794.730 795.858 C 1789.340 799.189, 1782.118 807.514, 1779.180 813.782 C 1776.782 818.898, 1776.500 820.659, 1776.500 830.500 C 1776.500 840.643, 1776.729 841.967, 1779.439 847.500 C 1781.055 850.800, 1784.655 855.776, 1787.439 858.558 C 1807.268 878.376, 1840.280 872.632, 1852.291 847.275 C 1855.237 841.054, 1855.500 839.682, 1855.500 830.500 C 1855.500 821.347, 1855.232 819.934, 1852.335 813.820 C 1846.924 802.397, 1838.523 795.187, 1826.310 791.481 C 1819.874 789.528, 1810.755 789.706, 1803.836 791.919 M 1534.836 818.919 C 1531.721 819.915, 1527.623 821.688, 1525.730 822.858 C 1520.340 826.189, 1513.118 834.514, 1510.180 840.782 C 1507.782 845.898, 1507.500 847.659, 1507.500 857.500 C 1507.500 867.643, 1507.729 868.967, 1510.439 874.500 C 1512.055 877.800, 1515.655 882.776, 1518.439 885.558 C 1538.268 905.376, 1571.280 899.632, 1583.291 874.275 C 1586.237 868.054, 1586.500 866.682, 1586.500 857.500 C 1586.500 848.347, 1586.232 846.934, 1583.335 840.820 C 1577.924 829.397, 1569.523 822.187, 1557.310 818.481 C 1550.874 816.528, 1541.755 816.706, 1534.836 818.919" stroke="none" fill="#ad775f" fill-rule="evenodd"/></svg>