<svg xmlns="http://www.w3.org/2000/svg" width="1722" height="1506" viewBox="0 0 1722 1506" version="1.1"><path d="M 806.344 1.042 C 795.141 3.257, 787.043 11.165, 783.501 23.347 C 780.917 32.236, 783.446 34, 787.449 26.101 C 791.991 17.137, 800.915 12.167, 810.523 13.250 C 820.375 14.360, 828.011 23.845, 827.989 34.946 C 827.959 50.405, 818.131 65.737, 791.108 92.484 C 784.449 99.076, 779 105.045, 779 105.749 C 779 106.767, 785.384 106.974, 810.218 106.764 L 841.436 106.500 844.643 98 C 846.406 93.325, 847.883 88.938, 847.925 88.250 C 848.060 86.010, 845.355 86.929, 841.718 90.359 C 839.759 92.207, 836.714 94.007, 834.953 94.359 C 833.191 94.712, 823.876 95, 814.252 95 L 796.755 95 806.136 85.226 C 832.673 57.578, 842.019 42.569, 841.990 27.645 C 841.959 10.953, 823.999 -2.450, 806.344 1.042 M 978.557 143.223 C 977.494 144.740, 977 147.754, 977 152.723 L 977 160 799.434 160 C 680.317 160, 621.239 160.337, 619.957 161.023 C 616.635 162.801, 615.639 165.800, 617.452 168.567 L 619.046 171 798.023 171 L 977 171 977 177.935 C 977 186.326, 978.162 189.752, 981.274 190.533 C 984.438 191.327, 1022.295 173.185, 1023.958 170.078 C 1025.607 166.997, 1024.388 164.270, 1020.171 161.608 C 1007.898 153.860, 984.324 141, 982.395 141 C 981.140 141, 979.413 142, 978.557 143.223 M 618.686 175.750 C 612.664 185.407, 602 205.855, 602 207.746 C 602 211.565, 604.614 213, 611.571 213 L 618 213 618 405 L 618 597 353 597 L 88 597 88 590.223 C 88 582.345, 86.295 579, 82.279 579 C 80.046 579, 44.833 596.375, 41.250 599.244 C 40.563 599.794, 40 601.509, 40 603.054 C 40 606.801, 41.793 607.964, 63.890 618.546 C 81.441 626.951, 82.399 627.287, 84.890 625.892 C 87.329 624.526, 87.519 623.891, 87.790 616.215 L 88.081 608 353.034 608 L 617.988 608 618.244 845.081 C 618.496 1078.457, 618.530 1082.183, 620.441 1083.581 C 623.073 1085.505, 624.633 1085.367, 627 1083 C 628.989 1081.011, 629 1079.667, 629 844.500 L 629 608 825 608 C 1019.667 608, 1021.014 607.986, 1023 606 C 1025.407 603.593, 1025.501 602.160, 1023.443 599.223 L 1021.887 597 825.443 597 L 629 597 629 405.168 L 629 213.335 634.454 213.788 C 641.945 214.409, 644.519 213.576, 645.976 210.059 C 647.130 207.272, 646.794 206.346, 640.428 194.796 C 629.111 174.260, 627.485 172, 624.025 172 C 621.641 172, 620.545 172.770, 618.686 175.750 M 1019 197 C 1017.016 198.984, 1017 200.333, 1017 369 L 1017 539 1010.223 539 C 1002.660 539, 999 540.725, 999 544.289 C 999 545.485, 1003.150 554.658, 1008.222 564.673 C 1018.145 584.265, 1020.067 586.496, 1024.514 583.583 C 1027.214 581.814, 1046 548.281, 1046 545.231 C 1046 541.723, 1042.303 540, 1034.777 540 L 1028 540 1028 369.071 C 1028 215.015, 1027.845 197.988, 1026.429 196.571 C 1024.288 194.431, 1021.402 194.598, 1019 197 M 1150.344 327.042 C 1139.141 329.257, 1131.043 337.165, 1127.501 349.347 C 1124.917 358.236, 1127.446 360, 1131.449 352.101 C 1135.991 343.137, 1144.915 338.167, 1154.523 339.250 C 1164.375 340.360, 1172.011 349.845, 1171.989 360.946 C 1171.959 376.405, 1162.131 391.737, 1135.108 418.484 C 1128.449 425.076, 1123 431.045, 1123 431.749 C 1123 432.767, 1129.384 432.974, 1154.218 432.764 L 1185.436 432.500 1188.643 424 C 1190.406 419.325, 1191.883 414.938, 1191.925 414.250 C 1192.060 412.010, 1189.355 412.929, 1185.718 416.359 C 1183.759 418.207, 1180.714 420.007, 1178.953 420.359 C 1177.191 420.712, 1167.876 421, 1158.252 421 L 1140.755 421 1150.136 411.226 C 1176.673 383.578, 1186.019 368.569, 1185.990 353.645 C 1185.959 336.953, 1167.999 323.550, 1150.344 327.042 M 437 454.567 C 427.065 456.718, 419.003 461.213, 410.163 469.529 C 396.829 482.072, 390.081 494.933, 387.961 511.841 C 385.389 532.353, 394.521 552.618, 409.500 559.637 C 423.568 566.230, 441.256 559.155, 449.109 543.795 C 454.205 533.827, 455.191 524.006, 452.095 514.058 C 449.611 506.078, 444.440 499.852, 437.459 496.436 C 432.600 494.059, 431.102 493.796, 424.944 494.236 C 419.949 494.593, 416.248 495.580, 412.002 497.684 L 406.054 500.632 406.597 498.066 C 406.896 496.655, 409.148 491.348, 411.602 486.274 C 419.158 470.648, 431.371 460.483, 445.817 457.797 C 450.713 456.886, 452 456.268, 452 454.823 C 452 453.332, 451.225 453.014, 447.750 453.079 C 445.413 453.123, 440.575 453.792, 437 454.567 M 417 501.638 C 416.175 501.900, 412.966 503.271, 409.868 504.684 C 404.461 507.152, 404.212 507.434, 403.618 511.767 C 401.113 530.045, 406.368 549.356, 415.359 554.913 C 422.596 559.386, 432.381 555.901, 436.551 547.366 C 438.966 542.422, 439.673 528.886, 437.943 520.731 C 436.584 514.329, 432.107 506.756, 428 503.914 C 425.331 502.066, 419.472 500.854, 417 501.638 M 36.035 641.934 C 35.332 643.249, 35 707.315, 35 841.934 L 35 1040 27.223 1040 C 18.689 1040, 15 1041.567, 15 1045.193 C 15 1048.248, 33.756 1081.794, 36.453 1083.561 C 40.569 1086.258, 42.922 1083.968, 53.559 1066.913 C 66.045 1046.893, 66.191 1046.607, 65.447 1043.643 C 64.695 1040.650, 62.616 1040.031, 53.250 1040.014 L 46 1040 46 842.223 C 46 664.837, 45.839 644.216, 44.443 642.223 C 42.445 639.370, 37.498 639.200, 36.035 641.934 M 674.005 735.990 C 668.502 746.985, 664 756.435, 664 756.990 C 664 757.546, 665.688 758.008, 667.750 758.017 C 673.786 758.045, 684.354 760.639, 689.917 763.458 C 701.335 769.244, 707.963 778.555, 708.741 789.900 C 709.140 795.735, 708.858 797.135, 706.303 801.983 C 702.219 809.732, 696.882 813.285, 688.528 813.817 C 682.620 814.193, 681.573 813.933, 675.636 810.613 C 668.314 806.519, 664.887 806.113, 662 809 C 659.319 811.681, 659.481 814.230, 662.564 817.894 C 665.619 821.525, 670.268 822.987, 678.782 822.994 C 694.391 823.008, 709.125 813.596, 716.306 799.024 C 719.137 793.278, 719.497 791.588, 719.498 784.024 C 719.500 776.780, 719.079 774.599, 716.699 769.500 C 711.470 758.297, 700.821 749.966, 686.500 745.873 C 682.100 744.615, 678.366 743.507, 678.201 743.411 C 678.037 743.315, 679.371 740.258, 681.166 736.618 L 684.429 730 700.078 730 L 715.727 730 718.363 724.125 C 719.814 720.894, 721 717.744, 721 717.125 C 721 716.332, 715.538 716, 702.505 716 L 684.010 716 674.005 735.990 M 121.326 784.044 C 119.031 784.498, 115.881 785.538, 114.326 786.355 C 107.386 790.001, 97.448 803.881, 99.997 806.369 C 100.865 807.216, 101.951 806.581, 104.328 803.837 C 109.754 797.571, 114.533 795, 120.753 795 C 131.161 795, 138 801.648, 138 811.764 C 138 823.134, 131.595 830.611, 118.500 834.525 C 112.654 836.273, 113.335 838.366, 120 839.133 C 133.914 840.734, 142.471 848.596, 144.496 861.637 C 145.967 871.117, 139.261 881.506, 130.074 883.980 C 124.655 885.439, 121.288 884.846, 113.160 881 C 105.892 877.561, 101.061 877.171, 98.655 879.829 C 95.303 883.532, 97.822 888.473, 104.315 890.933 C 107.830 892.265, 122.065 892.282, 127.791 890.961 C 143.812 887.266, 155.174 874.655, 156.641 858.942 C 157.577 848.917, 155.232 842.101, 148.546 835.416 C 145.620 832.489, 142.051 829.800, 140.616 829.440 L 138.008 828.785 142.584 823.695 C 151.782 813.465, 153.894 805.393, 149.646 796.710 C 146.279 789.827, 140.494 785.562, 132.528 784.090 C 129.286 783.490, 126.378 783.049, 126.066 783.110 C 125.755 783.170, 123.622 783.590, 121.326 784.044 M 1647 1050.865 C 1647 1052.238, 1647.933 1052.952, 1650.306 1053.398 C 1652.261 1053.764, 1655.084 1055.546, 1657.217 1057.759 C 1661.305 1062, 1675.988 1082.974, 1675.938 1084.500 C 1675.920 1085.050, 1671.070 1091.800, 1665.160 1099.500 C 1658.015 1108.809, 1653.173 1114.170, 1650.710 1115.500 C 1644.087 1119.076, 1645.790 1120, 1659 1120 C 1668.271 1120, 1671 1119.700, 1671 1118.680 C 1671 1117.955, 1669.537 1116.717, 1667.750 1115.930 C 1665.580 1114.975, 1664.518 1113.827, 1664.555 1112.475 C 1664.605 1110.638, 1678.772 1090.092, 1680.033 1090.027 C 1680.326 1090.012, 1683.872 1094.922, 1687.914 1100.939 C 1695.806 1112.688, 1696.142 1114.365, 1690.998 1116.307 C 1689.349 1116.929, 1688 1118.015, 1688 1118.719 C 1688 1119.710, 1691.849 1120, 1705 1120 C 1719.245 1120, 1722 1119.763, 1722 1118.539 C 1722 1117.687, 1720.379 1116.641, 1718.116 1116.031 C 1715.212 1115.249, 1713.217 1113.662, 1710.210 1109.743 C 1703.789 1101.371, 1689 1079.804, 1689 1078.810 C 1689 1077.314, 1703.693 1058.386, 1706.678 1056.039 C 1708.201 1054.841, 1710.718 1053.606, 1712.271 1053.296 C 1714.170 1052.916, 1714.993 1052.202, 1714.785 1051.116 C 1714.524 1049.752, 1712.568 1049.456, 1702.238 1049.219 C 1690.513 1048.950, 1690 1049.024, 1690 1050.969 C 1690 1052.321, 1690.657 1053, 1691.965 1053 C 1693.045 1053, 1694.393 1053.866, 1694.959 1054.924 C 1695.803 1056.500, 1695.075 1058.215, 1690.939 1064.400 C 1688.161 1068.553, 1685.556 1072.156, 1685.150 1072.407 C 1683.949 1073.150, 1674.711 1057.197, 1675.361 1055.502 C 1675.684 1054.659, 1677.122 1053.524, 1678.556 1052.979 C 1679.989 1052.434, 1680.976 1051.428, 1680.749 1050.744 C 1680.446 1049.833, 1675.868 1049.427, 1663.668 1049.226 C 1647.824 1048.965, 1647 1049.046, 1647 1050.865 M 647.500 1067.232 C 632.025 1077.489, 630.473 1078.782, 630.195 1081.642 C 629.824 1085.461, 630.321 1085.850, 649.783 1096.946 C 669.438 1108.152, 672 1107.805, 672 1093.935 L 672 1088 1141.500 1088 L 1611 1088 1613.051 1085.949 C 1615.317 1083.683, 1614.959 1080.412, 1612.208 1078.250 C 1610.941 1077.254, 1515.220 1077, 1141.205 1077 L 671.792 1077 672.426 1069.250 C 673.194 1059.873, 671.964 1056.636, 667.477 1056.232 C 665.121 1056.020, 660.951 1058.317, 647.500 1067.232 M 1170 1124.567 C 1160.065 1126.718, 1152.003 1131.213, 1143.163 1139.529 C 1129.829 1152.072, 1123.081 1164.933, 1120.961 1181.841 C 1118.389 1202.353, 1127.521 1222.618, 1142.500 1229.637 C 1156.568 1236.230, 1174.256 1229.155, 1182.109 1213.795 C 1187.205 1203.827, 1188.191 1194.006, 1185.095 1184.058 C 1182.611 1176.078, 1177.440 1169.852, 1170.459 1166.436 C 1165.600 1164.059, 1164.102 1163.796, 1157.944 1164.236 C 1152.949 1164.593, 1149.248 1165.580, 1145.002 1167.684 L 1139.054 1170.632 1139.597 1168.066 C 1139.896 1166.655, 1142.148 1161.348, 1144.602 1156.274 C 1152.158 1140.648, 1164.371 1130.483, 1178.817 1127.797 C 1183.713 1126.886, 1185 1126.268, 1185 1124.823 C 1185 1123.332, 1184.225 1123.014, 1180.750 1123.079 C 1178.412 1123.123, 1173.575 1123.792, 1170 1124.567 M 1 1142.879 C 1 1144.030, 2.181 1145.246, 4.050 1146.021 C 5.727 1146.715, 8.363 1149.132, 9.908 1151.392 C 12.576 1155.293, 38 1207.879, 38 1209.495 C 38 1209.917, 36.129 1214.528, 33.843 1219.741 C 28.479 1231.972, 26.458 1233.449, 18.136 1231.219 C 11.381 1229.409, 7.649 1230.080, 5.402 1233.509 C 3.353 1236.636, 4.195 1240.349, 7.686 1243.585 C 13.645 1249.107, 26.669 1244.706, 33.775 1234.770 C 35.789 1231.955, 43.809 1213.736, 53.586 1189.770 C 69.836 1149.934, 72.367 1145, 76.556 1145 C 77.350 1145, 78 1144.086, 78 1142.968 C 78 1141.025, 77.487 1140.949, 66.250 1141.218 C 56.834 1141.444, 54.500 1141.785, 54.500 1142.936 C 54.500 1143.726, 55.962 1144.752, 57.750 1145.215 C 60.564 1145.944, 61.002 1146.489, 61.017 1149.279 C 61.031 1152.009, 46.941 1189.048, 45.052 1191.244 C 44.014 1192.450, 26 1153.600, 26 1150.155 C 26 1146.878, 28.162 1145, 31.934 1145 C 33.333 1145, 34 1144.355, 34 1143 C 34 1141.081, 33.333 1141, 17.500 1141 C 2.022 1141, 1 1141.116, 1 1142.879 M 1150 1171.638 C 1149.175 1171.900, 1145.966 1173.271, 1142.868 1174.684 C 1137.461 1177.152, 1137.212 1177.434, 1136.618 1181.767 C 1134.113 1200.045, 1139.368 1219.356, 1148.359 1224.913 C 1155.596 1229.386, 1165.381 1225.901, 1169.551 1217.366 C 1171.966 1212.422, 1172.673 1198.886, 1170.943 1190.731 C 1169.584 1184.329, 1165.107 1176.756, 1161 1173.914 C 1158.331 1172.066, 1152.472 1170.854, 1150 1171.638 M 82 1318.317 C 41.644 1339.386, 42 1339.168, 42 1342.858 C 42 1344.415, 42.788 1346.373, 43.750 1347.208 C 46.974 1350.004, 83.388 1371, 85.013 1371 C 85.896 1371, 87.491 1370.362, 88.559 1369.581 C 90.181 1368.396, 90.557 1366.670, 90.849 1359.081 L 91.199 1350 842.993 1350 C 1527.607 1350, 1594.840 1350.141, 1595.393 1351.582 C 1595.727 1352.452, 1596 1355.122, 1596 1357.517 C 1596 1359.911, 1596.439 1363.024, 1596.975 1364.435 C 1598.727 1369.041, 1602.643 1367.917, 1623.249 1356.893 C 1643.479 1346.070, 1645.662 1344.157, 1642.762 1339.791 C 1640.841 1336.898, 1600.043 1318.662, 1597.595 1319.602 C 1594.704 1320.711, 1593.990 1323.579, 1594.653 1331.423 L 1595.293 1339 843.155 1339 L 91.016 1339 91.258 1329.428 C 91.472 1320.947, 91.279 1319.693, 89.559 1318.428 C 87.157 1316.661, 85.227 1316.633, 82 1318.317 M 817.779 1403.533 C 808.001 1408.493, 805.196 1410.348, 805.658 1411.551 C 806.046 1412.563, 806.829 1412.858, 807.879 1412.387 C 808.771 1411.987, 811.323 1411.473, 813.551 1411.245 C 820.011 1410.584, 820 1410.508, 820 1455.825 C 820 1501.204, 820.331 1499.354, 812.010 1500.499 C 808.699 1500.954, 807 1501.664, 807 1502.594 C 807 1503.755, 810.482 1504, 827 1504 C 843.518 1504, 847 1503.755, 847 1502.594 C 847 1501.668, 845.320 1500.957, 842.080 1500.511 C 833.522 1499.334, 834.053 1502.750, 833.760 1446.945 C 833.534 1403.918, 833.306 1397.498, 832 1397.303 C 831.175 1397.180, 824.775 1399.983, 817.779 1403.533 M 898.293 1398.437 C 886.654 1402.107, 877.318 1413.989, 872.832 1430.846 C 869.937 1441.721, 869.957 1462.351, 872.873 1473.314 C 879.870 1499.624, 896.624 1511.617, 914.540 1503.141 C 924.198 1498.572, 930.947 1489.490, 935.530 1474.896 C 938.101 1466.711, 938.694 1443.648, 936.595 1433.498 C 931.554 1409.121, 914.352 1393.374, 898.293 1398.437 M 898.898 1405.278 C 890.476 1410.925, 886.695 1425.947, 886.635 1454 C 886.603 1468.888, 886.934 1472.864, 888.856 1480.638 C 891.142 1489.890, 894.601 1496.645, 898.202 1498.894 C 901.661 1501.054, 907.658 1500.498, 911.360 1497.674 C 917.732 1492.814, 920.687 1482.768, 921.898 1461.844 C 923.737 1430.056, 919.044 1408.423, 909.437 1404.409 C 904.797 1402.471, 902.845 1402.632, 898.898 1405.278" stroke="none" fill="#cc333c" fill-rule="evenodd"/><path d="" stroke="none" fill="#d42c3b" fill-rule="evenodd"/></svg>