<svg xmlns="http://www.w3.org/2000/svg" width="366" height="842" viewBox="0 0 366 842" version="1.1"><path d="M 167.403 2.506 C 165.124 4.785, 165 5.548, 165 17.329 L 165 29.748 150.489 30.185 C 141.662 30.450, 135.539 31.061, 134.855 31.745 C 134.182 32.418, 133.547 38.408, 133.270 46.684 C 132.894 57.908, 133.087 60.869, 134.299 62.467 C 135.912 64.594, 136.050 64.612, 152.750 64.844 L 164 65 163.979 76.250 L 163.957 87.500 160.229 90.105 C 153.558 94.767, 137.343 103.022, 131.856 104.549 C 128.910 105.370, 122.450 106.713, 117.500 107.535 C 90.342 112.044, 74.198 118.293, 63.052 128.612 C 54.618 136.421, 52.500 141.333, 52.500 153.090 L 52.500 162.679 58.873 175.590 C 62.378 182.690, 66.490 190.975, 68.011 194 C 75.725 209.346, 98.837 260.188, 103.469 272 C 104.439 274.475, 105.622 279.874, 106.096 283.998 C 106.692 289.181, 107.487 291.883, 108.670 292.748 C 110.004 293.723, 126.438 294, 183.036 294 C 265.926 294, 258.275 294.953, 259.349 284.500 C 260.063 277.559, 264.245 266.078, 273.011 247 C 276.423 239.575, 281.182 229.123, 283.588 223.773 C 285.993 218.424, 290.613 208.749, 293.854 202.273 C 297.095 195.798, 300.793 188.025, 302.073 185 C 303.352 181.975, 305.665 177.415, 307.213 174.868 C 313.875 163.900, 315.718 151.542, 312.107 142.040 C 305.520 124.704, 284.292 113.218, 248.500 107.623 C 243.550 106.849, 237.150 105.537, 234.277 104.706 C 228.309 102.980, 206.785 91.785, 203.913 88.913 C 202.261 87.261, 202 85.500, 202 76 L 202 65 213.250 64.844 C 219.438 64.759, 225.438 64.764, 226.584 64.856 C 227.731 64.948, 229.531 64.065, 230.584 62.894 C 232.308 60.977, 232.471 59.400, 232.206 47.132 C 231.983 36.773, 231.559 33.145, 230.441 32.021 C 229.323 30.897, 225.608 30.449, 214.985 30.157 L 201 29.773 201 17.341 C 201 5.548, 200.877 4.786, 198.597 2.506 C 196.303 0.212, 195.598 0.103, 183 0.103 C 170.402 0.103, 169.697 0.212, 167.403 2.506 M 93.092 301.756 C 86.472 302.922, 77.668 312.226, 74.614 321.285 C 69.730 335.766, 76.520 352.233, 90.082 358.797 L 94.631 361 182.849 361 L 271.066 361 275.783 358.586 C 286.502 353.101, 292.445 343.282, 292.479 331 C 292.496 324.787, 292.020 322.523, 289.706 317.810 C 285.843 309.945, 277.535 302.442, 271.802 301.643 C 267.021 300.977, 96.908 301.085, 93.092 301.756 M 104.291 369.509 C 100.975 371.832, 97.996 380.990, 98.022 388.788 C 98.048 396.737, 100.347 402.561, 105.392 407.461 L 108.825 410.795 182.819 410.795 L 256.813 410.795 260.931 406.717 C 266.050 401.649, 268.482 394.252, 267.735 386.019 C 267.055 378.513, 263.384 370.096, 260.275 368.914 C 258.898 368.391, 225.489 368, 182.157 368 C 116.283 368, 106.165 368.196, 104.291 369.509 M 105.872 418.654 C 104.740 420.018, 104.379 437.735, 103.807 520.015 C 103.127 617.927, 103.076 619.837, 101.001 625.998 C 98.792 632.555, 93.641 641.354, 90.396 644.112 C 89.353 644.999, 83.100 649.123, 76.500 653.277 C 49.605 670.205, 39.272 682.822, 36.475 702.151 C 35.906 706.084, 36.127 707.127, 37.901 708.901 L 40 711 183 711 C 322.579 711, 326.046 710.954, 327.916 709.084 C 331.656 705.344, 328.296 691.600, 320.961 680.633 C 314.907 671.582, 308.016 665.628, 289.500 653.451 C 274.490 643.580, 272.701 641.990, 268.637 634.916 C 262.528 624.280, 262.839 629.571, 261.934 520.782 C 261.365 452.378, 260.763 420.426, 260.017 419.032 C 258.939 417.017, 258.305 417, 183.087 417 C 113.761 417, 107.127 417.142, 105.872 418.654 M 13 723.409 C 6.397 725.780, -0 737.453, 0 747.132 C 0 759.052, 4.785 767.603, 13.647 771.523 L 19.249 774 182.411 774 L 345.573 774 351.536 771.706 C 356.443 769.820, 358.078 768.556, 360.758 764.581 C 362.550 761.924, 364.295 758.006, 364.636 755.875 C 364.977 753.744, 365.648 752, 366.128 752 C 366.608 752, 366.968 749.413, 366.930 746.250 C 366.884 742.477, 366.595 741.175, 366.092 742.464 C 365.473 744.047, 365.197 743.660, 364.668 740.464 C 363.560 733.763, 358.479 726.120, 353.685 723.944 C 349.625 722.101, 344.512 722.046, 183 722.098 C 51.968 722.141, 15.754 722.420, 13 723.409 M 0.310 747.500 C 0.315 750.800, 0.502 752.029, 0.725 750.232 C 0.947 748.435, 0.943 745.735, 0.715 744.232 C 0.486 742.729, 0.304 744.200, 0.310 747.500 M 11.699 786.097 C 5.590 791.132, 1.037 802.228, 1.012 812.145 C 0.995 818.616, 4.366 828.805, 7.960 833.149 C 9.620 835.156, 12.896 837.909, 15.239 839.268 L 19.500 841.738 183 841.770 L 346.500 841.802 351.727 838.406 C 358.148 834.234, 362.401 827.262, 363.950 818.366 C 366.103 806.004, 361.569 791.598, 353.741 785.927 L 349.700 783 182.578 783 L 15.456 783 11.699 786.097" stroke="none" fill="#151413" fill-rule="evenodd"/></svg>