<svg xmlns="http://www.w3.org/2000/svg" width="1594" height="1032" viewBox="0 0 1594 1032" version="1.1"><path d="M 717.500 6.672 C 557.713 11.294, 411.497 29.238, 294.623 58.568 C 284.791 61.036, 275.791 62.821, 274.623 62.536 C 273.455 62.252, 273.156 62.308, 273.957 62.662 C 276.078 63.598, 267.124 66.048, 264.022 65.381 C 262.260 65.002, 261.905 65.124, 262.845 65.787 C 263.876 66.514, 263.603 66.883, 261.674 67.367 C 260.291 67.714, 258.374 67.697, 257.415 67.329 C 256.138 66.839, 255.889 67.012, 256.485 67.976 C 257.114 68.994, 256.680 69.137, 254.565 68.606 C 252.966 68.204, 252.070 68.304, 252.405 68.846 C 252.720 69.356, 252.082 70.007, 250.987 70.293 C 249.893 70.579, 249.223 70.447, 249.500 70 C 249.777 69.553, 249.102 69.422, 248.001 69.710 C 246.901 69.998, 246 70.661, 246 71.184 C 246 71.707, 245.044 71.831, 243.875 71.460 C 242.309 70.963, 241.955 71.119, 242.531 72.050 C 243.100 72.971, 242.726 73.162, 241.155 72.751 C 239.772 72.389, 239.234 72.569, 239.655 73.251 C 240.076 73.933, 239.538 74.112, 238.156 73.751 C 236.970 73.441, 236 73.581, 236 74.062 C 236 74.543, 235.371 74.696, 234.601 74.400 C 233.832 74.105, 232.901 74.352, 232.532 74.948 C 232.163 75.545, 231.443 75.774, 230.931 75.457 C 230.419 75.141, 230 75.359, 230 75.941 C 230 76.523, 229.662 76.947, 229.250 76.882 C 228.837 76.816, 228.275 76.847, 228 76.950 C 227.725 77.054, 226.191 77.309, 224.591 77.518 C 222.991 77.727, 221.416 78.258, 221.091 78.699 C 220.766 79.139, 219.600 79.634, 218.500 79.798 C 217.400 79.961, 215.825 80.372, 215 80.711 C 214.175 81.050, 213.162 81.422, 212.750 81.539 C 212.338 81.655, 211.887 81.841, 211.750 81.952 C 211.613 82.062, 210.825 82.291, 210 82.461 C 202.960 83.904, 151.499 104.984, 129.879 115.281 C 55.672 150.623, 10.961 194.231, 3.820 238.231 C 3.172 242.229, 2.371 245.828, 2.042 246.229 C 0.952 247.555, 2.978 268.360, 4.989 276.500 C 12.212 305.725, 42.501 340.823, 83.453 367.422 C 165.752 420.879, 313.807 464.373, 492 487.442 C 661.322 509.363, 856.410 512.793, 1032 496.936 C 1205.424 481.275, 1348.650 448.951, 1452.561 402.023 C 1515.347 373.668, 1559.698 339.354, 1578.608 304.500 C 1580.697 300.650, 1582.754 297.353, 1583.180 297.174 C 1583.606 296.995, 1585.379 292.495, 1587.121 287.174 C 1589.938 278.566, 1590.340 275.864, 1590.770 262.646 C 1591.058 253.809, 1591.601 248.341, 1592.111 249.146 C 1592.583 249.891, 1592.976 250.028, 1592.985 249.450 C 1592.993 248.873, 1592.481 247.881, 1591.847 247.247 C 1591.213 246.613, 1589.660 242.002, 1588.395 236.999 C 1587.131 231.997, 1584.570 224.373, 1582.703 220.056 C 1578.885 211.225, 1568.422 194.099, 1566.362 193.309 C 1565.619 193.024, 1565.248 192.407, 1565.538 191.939 C 1565.827 191.471, 1564.924 190.341, 1563.532 189.429 C 1562.139 188.517, 1561 187.231, 1561 186.572 C 1561 185.913, 1559.537 184.052, 1557.750 182.437 L 1554.500 179.500 1557.437 182.750 C 1561.958 187.753, 1559.984 186.598, 1554.958 181.300 C 1552.506 178.715, 1551.400 177.253, 1552.500 178.050 C 1554.344 179.387, 1554.394 179.365, 1553.137 177.761 C 1552.387 176.805, 1551.425 176.237, 1551 176.500 C 1550.159 177.020, 1547.342 174.069, 1547.750 173.096 C 1547.888 172.768, 1547.662 172.493, 1547.250 172.485 C 1545.814 172.455, 1543.971 170.856, 1544.460 170.065 C 1544.731 169.626, 1543.986 168.420, 1542.805 167.384 C 1541.623 166.348, 1540.985 166.063, 1541.387 166.750 C 1541.789 167.438, 1541.720 168, 1541.233 168 C 1539.993 168, 1535.866 163.468, 1536.515 162.818 C 1536.808 162.525, 1536.250 161.658, 1535.274 160.893 C 1533.661 159.626, 1533.624 159.659, 1534.872 161.250 C 1535.627 162.212, 1535.810 163, 1535.277 163 C 1533.963 163, 1530.857 159.477, 1531.555 158.778 C 1531.863 158.470, 1530.627 157.232, 1528.808 156.026 L 1525.500 153.835 1528.500 156.412 C 1530.150 157.830, 1531.119 158.992, 1530.654 158.995 C 1529.144 159.004, 1523.962 154.870, 1524.465 154.057 C 1524.733 153.623, 1523.951 152.420, 1522.726 151.384 L 1520.500 149.500 1522.405 151.750 C 1523.453 152.987, 1524.052 154, 1523.737 154 C 1523.422 154, 1518.514 150.920, 1512.832 147.155 C 1442.364 100.467, 1321.542 60.805, 1174.500 36.089 C 1079.175 20.067, 980.222 10.671, 868 6.987 C 842.261 6.142, 742.992 5.934, 717.500 6.672 M 712 36.004 C 570.919 40.629, 445.322 55.234, 332.500 80.136 C 162.376 117.684, 49.397 177.651, 33.548 238.814 C 31.578 246.418, 31.559 260.839, 33.510 268.540 C 46.123 318.326, 127.078 370.205, 250.161 407.378 C 423.082 459.603, 656.802 484.380, 897 475.949 C 1169.593 466.382, 1404.360 413.151, 1509 337.186 C 1520.541 328.808, 1537.806 312.647, 1544.563 303.897 C 1553.580 292.222, 1559.956 278.404, 1561.473 267.250 L 1562.188 262 1530.344 262.017 C 1512.830 262.026, 1351.125 262.918, 1171 264 C 990.875 265.082, 833.263 265.974, 820.750 265.983 L 798 266 798 251.500 L 798 237 819.750 236.984 C 831.712 236.975, 989.100 236.082, 1169.500 234.999 C 1349.900 233.917, 1510.672 233.024, 1526.770 233.016 L 1556.041 233 1553.880 228.750 C 1547.876 216.944, 1533.203 200.052, 1518.500 188.023 C 1437.387 121.657, 1253.308 68.525, 1028.500 46.590 C 984.430 42.290, 942.075 39.345, 890 36.961 C 859.899 35.583, 743.883 34.959, 712 36.004 M 663 181.500 C 663 182.608, 664.160 183, 667.444 183 C 670.700 183, 672.639 183.645, 674.694 185.413 L 677.500 187.825 677.806 230.663 C 678.014 259.624, 677.758 274.713, 677.018 277.244 C 675.750 281.580, 672.001 284, 666.550 284 C 664.061 284, 663 284.448, 663 285.500 C 663 286.790, 666.222 287, 686 287 C 704.830 287, 709 286.751, 709 285.627 C 709 284.708, 707.322 284.093, 703.917 283.766 C 694.336 282.845, 693.110 279.461, 693.044 253.750 L 693 237 698.796 237 L 704.592 237 722.546 261.967 L 740.500 286.933 755.250 286.967 C 766.933 286.993, 770 286.721, 770 285.659 C 770 284.852, 767.838 283.834, 764.566 283.102 C 758.170 281.671, 752.429 278.054, 747.738 272.500 C 742.525 266.327, 721 236.148, 721 235.010 C 721 234.455, 721.828 234, 722.840 234 C 726.303 234, 736.958 227.867, 740.320 223.939 C 744.318 219.268, 746.225 213.508, 746.139 206.357 C 746.036 197.656, 741.751 190.393, 733.739 185.335 C 726.843 180.982, 719.023 180.036, 689.750 180.017 C 666.631 180.002, 663 180.204, 663 181.500 M 696 186.894 L 693.500 187.589 693.230 209.944 L 692.961 232.299 700.730 231.693 C 709.481 231.010, 713.907 229.714, 719 226.343 C 726.059 221.672, 729.310 213.347, 727.862 203.653 C 726.256 192.899, 717.181 185.915, 705.054 186.100 C 701.449 186.155, 697.375 186.512, 696 186.894 M 1593.096 263.594 C 1593.044 268.400, 1593.201 272.132, 1593.446 271.887 C 1594.159 271.175, 1594.490 256.157, 1593.809 255.475 C 1593.469 255.135, 1593.148 258.789, 1593.096 263.594" stroke="none" fill="#151414" fill-rule="evenodd"/><path d="M 721.500 1.101 C 667.918 3.149, 657.244 3.622, 645.500 4.470 C 641.100 4.788, 634.125 5.230, 630 5.452 C 625.875 5.674, 619.800 6.081, 616.500 6.357 C 613.200 6.633, 607.350 7.122, 603.500 7.445 C 599.650 7.767, 594.925 8.252, 593 8.521 C 591.075 8.791, 585.900 9.215, 581.500 9.463 C 577.100 9.712, 571.025 10.156, 568 10.451 C 559.019 11.325, 550.701 12.223, 547.500 12.663 C 542.342 13.373, 537.615 13.883, 534.500 14.066 C 532.850 14.164, 529.025 14.617, 526 15.074 C 522.975 15.531, 517.280 16.149, 513.344 16.448 C 509.408 16.746, 505.583 17.218, 504.844 17.496 C 504.105 17.774, 501.250 18.247, 498.500 18.545 C 487.895 19.698, 486.321 19.903, 480.500 20.894 C 477.200 21.455, 472.475 22.150, 470 22.438 C 462.260 23.340, 443.783 26.017, 441.592 26.554 C 440.442 26.837, 437.925 27.237, 436 27.445 C 434.075 27.653, 427.550 28.785, 421.500 29.961 C 415.450 31.137, 407.575 32.518, 404 33.030 C 400.425 33.542, 396.150 34.236, 394.500 34.571 C 392.850 34.907, 390.600 35.335, 389.500 35.524 C 388.400 35.713, 384.350 36.590, 380.500 37.474 C 376.650 38.357, 372.275 39.253, 370.778 39.464 C 369.281 39.675, 367.706 40.058, 367.278 40.316 C 366.850 40.574, 364.281 41.082, 361.569 41.445 C 358.858 41.808, 356.319 42.303, 355.927 42.545 C 355.536 42.787, 353.705 43.192, 351.858 43.446 C 346.941 44.122, 318.959 50.685, 315.684 51.930 C 314.143 52.516, 311.445 53.200, 309.691 53.449 C 305.158 54.092, 284.382 59.394, 276.500 61.918 C 274.850 62.447, 271.808 63.182, 269.739 63.553 C 267.670 63.924, 265.688 64.697, 265.333 65.271 C 264.913 65.949, 265.531 66.079, 267.094 65.641 C 277.400 62.756, 315.576 53.410, 329 50.486 C 433.899 27.640, 541.666 14.485, 677.500 7.944 C 713.078 6.231, 823.808 5.619, 864.500 6.910 C 1089.785 14.062, 1284.436 46.854, 1420 100.494 C 1477.625 123.295, 1520.192 148.108, 1549.488 175.975 C 1561.188 187.104, 1559.564 184.664, 1547 172.238 C 1542.875 168.158, 1536.463 162.548, 1532.750 159.772 C 1529.037 156.996, 1526 154.337, 1526 153.863 C 1526 153.388, 1525.662 153.106, 1525.250 153.236 C 1524.838 153.366, 1521.994 151.611, 1518.931 149.338 C 1515.868 147.064, 1510.918 143.704, 1507.931 141.871 C 1499.726 136.835, 1492.650 132.224, 1491.228 130.988 C 1490.529 130.379, 1488.617 129.414, 1486.978 128.843 C 1485.340 128.272, 1484 127.398, 1484 126.902 C 1484 126.406, 1483.351 126, 1482.557 126 C 1481.201 126, 1476.692 123.708, 1471 120.126 C 1469.625 119.260, 1468.275 118.520, 1468 118.481 C 1467.725 118.441, 1462.916 116.114, 1457.313 113.308 C 1451.710 110.503, 1446.873 108.461, 1446.563 108.770 C 1446.253 109.080, 1446 108.782, 1446 108.108 C 1446 107.434, 1445.550 107.160, 1445 107.500 C 1444.450 107.840, 1444 107.641, 1444 107.059 C 1444 106.477, 1443.190 106, 1442.200 106 C 1441.210 106, 1439.972 105.631, 1439.450 105.180 C 1438.056 103.976, 1424.629 98.490, 1423.750 98.765 C 1423.338 98.894, 1423 98.550, 1423 98 C 1423 97.450, 1422.320 97, 1421.489 97 C 1420.658 97, 1418.071 96.121, 1415.739 95.046 C 1413.408 93.971, 1409.700 92.453, 1407.500 91.672 C 1405.300 90.891, 1399.675 88.813, 1395 87.055 C 1390.325 85.296, 1384.925 83.392, 1383 82.825 C 1381.075 82.257, 1378.938 81.334, 1378.250 80.774 C 1377.563 80.213, 1377 80.051, 1377 80.413 C 1377 80.774, 1376.071 80.573, 1374.935 79.965 C 1373.799 79.357, 1372.112 78.697, 1371.185 78.497 C 1370.258 78.298, 1362.068 75.669, 1352.985 72.656 C 1343.902 69.644, 1334.677 66.843, 1332.485 66.432 C 1330.293 66.022, 1327.037 65.076, 1325.250 64.330 C 1323.463 63.584, 1322 63.259, 1322 63.609 C 1322 63.959, 1321.419 63.763, 1320.709 63.174 C 1319.999 62.584, 1317.187 61.592, 1314.459 60.968 C 1311.732 60.344, 1308.825 59.659, 1308 59.445 C 1304.206 58.462, 1297.318 56.796, 1295.586 56.442 C 1294.533 56.227, 1291.608 55.379, 1289.086 54.558 C 1284.713 53.134, 1277.391 51.344, 1272 50.381 C 1270.625 50.136, 1265.225 48.871, 1260 47.571 C 1254.775 46.271, 1248.700 44.863, 1246.500 44.443 C 1244.300 44.023, 1242.050 43.550, 1241.500 43.392 C 1240.950 43.234, 1239.150 42.856, 1237.500 42.552 C 1230.565 41.274, 1227.442 40.663, 1226.500 40.398 C 1225.950 40.243, 1224.375 39.873, 1223 39.575 C 1221.625 39.277, 1219.295 38.772, 1217.821 38.453 C 1216.348 38.134, 1213.789 37.701, 1212.134 37.492 C 1210.479 37.282, 1207.185 36.576, 1204.813 35.922 C 1202.441 35.268, 1199.150 34.554, 1197.500 34.337 C 1195.850 34.120, 1193.150 33.705, 1191.500 33.416 C 1189.850 33.127, 1187.375 32.731, 1186 32.537 C 1184.625 32.342, 1182.150 31.918, 1180.500 31.595 C 1174.923 30.504, 1159.519 27.824, 1156.646 27.445 C 1155.076 27.238, 1153.051 26.846, 1152.146 26.575 C 1151.241 26.303, 1148.250 25.835, 1145.500 25.533 C 1142.750 25.232, 1138.250 24.567, 1135.500 24.056 C 1132.750 23.545, 1127.875 22.877, 1124.666 22.571 C 1121.458 22.265, 1118.463 21.786, 1118.011 21.507 C 1117.558 21.227, 1114.783 20.765, 1111.844 20.479 C 1108.905 20.193, 1104.598 19.777, 1102.274 19.554 C 1099.949 19.330, 1097.693 18.928, 1097.259 18.660 C 1096.825 18.392, 1092.877 17.897, 1088.485 17.561 C 1084.093 17.226, 1079.251 16.699, 1077.725 16.390 C 1076.198 16.082, 1073.498 15.664, 1071.725 15.461 C 1069.951 15.257, 1066.250 14.825, 1063.500 14.500 C 1057.748 13.820, 1054.428 13.494, 1044 12.588 C 1039.875 12.229, 1033.350 11.548, 1029.500 11.074 C 1025.650 10.600, 1021.825 10.184, 1021 10.149 C 1020.175 10.114, 1017.250 9.843, 1014.500 9.546 C 1011.750 9.249, 1006.575 8.794, 1003 8.534 C 999.425 8.274, 993.575 7.811, 990 7.505 C 979.861 6.637, 973.279 6.152, 963 5.517 C 957.775 5.194, 950.350 4.721, 946.500 4.467 C 931.128 3.449, 923.889 3.057, 910 2.489 C 902.025 2.163, 891 1.700, 885.500 1.460 C 866.837 0.647, 740.604 0.371, 721.500 1.101 M 712 36.004 C 570.919 40.629, 445.322 55.234, 332.500 80.136 C 162.376 117.684, 49.397 177.651, 33.548 238.814 C 31.578 246.418, 31.559 260.839, 33.510 268.540 C 46.123 318.326, 127.078 370.205, 250.161 407.378 C 423.082 459.603, 656.802 484.380, 897 475.949 C 1169.593 466.382, 1404.360 413.151, 1509 337.186 C 1520.541 328.808, 1537.806 312.647, 1544.563 303.897 C 1553.580 292.222, 1559.956 278.404, 1561.473 267.250 L 1562.188 262 1530.344 262.017 C 1512.830 262.026, 1351.125 262.918, 1171 264 C 990.875 265.082, 833.263 265.974, 820.750 265.983 L 798 266 798 251.500 L 798 237 819.750 236.984 C 831.712 236.975, 989.100 236.082, 1169.500 234.999 C 1349.900 233.917, 1510.672 233.024, 1526.770 233.016 L 1556.041 233 1553.880 228.750 C 1547.876 216.944, 1533.203 200.052, 1518.500 188.023 C 1437.387 121.657, 1253.308 68.525, 1028.500 46.590 C 984.430 42.290, 942.075 39.345, 890 36.961 C 859.899 35.583, 743.883 34.959, 712 36.004 M 663 181.500 C 663 182.608, 664.160 183, 667.444 183 C 670.700 183, 672.639 183.645, 674.694 185.413 L 677.500 187.825 677.806 230.663 C 678.014 259.624, 677.758 274.713, 677.018 277.244 C 675.750 281.580, 672.001 284, 666.550 284 C 664.061 284, 663 284.448, 663 285.500 C 663 286.790, 666.222 287, 686 287 C 704.830 287, 709 286.751, 709 285.627 C 709 284.708, 707.322 284.093, 703.917 283.766 C 694.336 282.845, 693.110 279.461, 693.044 253.750 L 693 237 698.796 237 L 704.592 237 722.546 261.967 L 740.500 286.933 755.250 286.967 C 766.933 286.993, 770 286.721, 770 285.659 C 770 284.852, 767.838 283.834, 764.566 283.102 C 758.170 281.671, 752.429 278.054, 747.738 272.500 C 742.525 266.327, 721 236.148, 721 235.010 C 721 234.455, 721.828 234, 722.840 234 C 726.303 234, 736.958 227.867, 740.320 223.939 C 744.318 219.268, 746.225 213.508, 746.139 206.357 C 746.036 197.656, 741.751 190.393, 733.739 185.335 C 726.843 180.982, 719.023 180.036, 689.750 180.017 C 666.631 180.002, 663 180.204, 663 181.500 M 696 186.894 L 693.500 187.589 693.230 209.944 L 692.961 232.299 700.730 231.693 C 709.481 231.010, 713.907 229.714, 719 226.343 C 726.059 221.672, 729.310 213.347, 727.862 203.653 C 726.256 192.899, 717.181 185.915, 705.054 186.100 C 701.449 186.155, 697.375 186.512, 696 186.894 M 0.827 249.745 C 0.477 250.980, 0.371 262.230, 0.592 274.745 C 0.986 296.985, 1.348 304.352, 2.547 314.500 C 2.872 317.250, 3.297 321.750, 3.491 324.500 C 3.686 327.250, 4.086 330.850, 4.381 332.500 C 4.676 334.150, 5.360 338.650, 5.900 342.500 C 6.441 346.350, 7.108 350.850, 7.384 352.500 C 7.659 354.150, 8.149 357.525, 8.473 360 C 8.797 362.475, 9.350 365.850, 9.701 367.500 C 10.052 369.150, 10.430 371.175, 10.541 372 C 10.652 372.825, 11.472 376.875, 12.363 381 C 16.542 400.349, 18.334 407.991, 20.100 414 C 21.151 417.575, 22.165 421.400, 22.355 422.500 C 22.544 423.600, 22.948 425.175, 23.252 426 C 23.741 427.329, 26.311 436.705, 26.541 438 C 27.091 441.104, 33.606 461.447, 35.028 464.500 C 35.540 465.600, 36.154 467.683, 36.392 469.129 C 36.629 470.575, 37.538 473.141, 38.412 474.830 C 39.285 476.519, 40 478.398, 40 479.005 C 40 479.613, 40.878 482.036, 41.950 484.390 C 43.023 486.745, 44.671 491.445, 45.614 494.836 C 46.557 498.226, 47.655 501, 48.056 501 C 48.675 501, 49.689 503.661, 50.532 507.500 C 50.653 508.050, 51.753 510.750, 52.976 513.500 C 54.199 516.250, 55.556 519.400, 55.992 520.500 C 56.428 521.600, 58.468 526.411, 60.524 531.191 C 62.581 535.971, 64.237 540.246, 64.203 540.691 C 64.170 541.136, 64.733 542.175, 65.455 543 C 66.176 543.825, 67.780 547.313, 69.017 550.750 C 70.255 554.188, 71.658 557, 72.134 557 C 72.610 557, 73 557.536, 73 558.191 C 73 558.847, 75.267 564.013, 78.038 569.673 C 80.809 575.332, 83.020 580.258, 82.953 580.620 C 82.885 580.981, 83.243 581.552, 83.748 581.888 C 84.253 582.225, 85.925 585.200, 87.464 588.500 C 89.003 591.800, 91.145 595.754, 92.224 597.286 C 93.304 598.818, 94.285 600.735, 94.404 601.546 C 94.523 602.357, 95.156 603.556, 95.810 604.210 C 96.465 604.865, 97 605.985, 97 606.700 C 97 607.415, 97.525 608, 98.167 608 C 98.808 608, 99.047 608.287, 98.696 608.637 C 98.346 608.988, 99.004 610.601, 100.159 612.223 C 101.314 613.845, 103.247 617.046, 104.456 619.336 C 105.664 621.626, 108.869 627.261, 111.577 631.858 C 114.284 636.455, 117.852 642.530, 119.504 645.358 C 123.308 651.870, 132.498 666.116, 133.921 667.708 C 134.514 668.372, 135.001 669.272, 135.002 669.708 C 135.004 670.144, 136.356 672.075, 138.007 674 C 139.659 675.925, 141.288 678.365, 141.627 679.423 C 141.967 680.481, 143.090 682.253, 144.122 683.362 C 145.155 684.470, 146.008 685.855, 146.017 686.439 C 146.027 687.022, 147.152 688.560, 148.517 689.855 C 149.883 691.150, 151 692.838, 151 693.605 C 151 694.372, 151.450 695, 152 695 C 152.550 695, 153 695.638, 153 696.417 C 153 697.196, 153.356 697.983, 153.790 698.167 C 154.225 698.350, 156.137 700.750, 158.040 703.500 C 161.373 708.317, 167.024 715.766, 172.762 722.908 C 174.268 724.782, 176.601 727.932, 177.947 729.908 C 184.430 739.425, 216.534 776.770, 233.500 794.530 C 255.941 818.022, 278.524 839.551, 292.500 850.776 C 295.250 852.985, 298.962 856.163, 300.750 857.840 C 302.537 859.516, 304.007 860.575, 304.015 860.194 C 304.024 859.812, 304.361 859.974, 304.765 860.553 C 305.169 861.132, 310 865.162, 315.500 869.509 C 321 873.856, 326.372 878.220, 327.439 879.207 C 328.505 880.193, 329.963 881, 330.680 881 C 331.397 881, 332.545 881.900, 333.232 883 C 333.919 884.100, 335.048 885, 335.741 885 C 336.433 885, 337 885.395, 337 885.879 C 337 886.362, 338.318 887.303, 339.928 887.970 C 341.539 888.637, 343.100 889.817, 343.397 890.592 C 343.694 891.366, 344.420 892, 345.011 892 C 345.601 892, 346.628 892.461, 347.292 893.025 C 347.956 893.589, 352.550 896.654, 357.500 899.835 C 362.450 903.016, 370.433 908.180, 375.240 911.310 C 380.047 914.439, 384.345 917, 384.790 917 C 385.236 917, 386.162 917.563, 386.850 918.250 C 387.538 918.938, 388.415 919.516, 388.800 919.536 C 389.185 919.555, 390.512 920.226, 391.750 921.026 C 394.001 922.482, 394.885 926, 393 926 C 391.566 926, 391.745 938.345, 393.200 939.800 C 393.860 940.460, 394.060 941, 393.643 941 C 393.227 941, 393.630 942.258, 394.538 943.795 C 395.946 946.179, 411.073 956, 413.337 956 C 413.740 956, 415.247 956.771, 416.685 957.713 C 418.124 958.656, 420.012 959.531, 420.882 959.659 C 421.752 959.787, 422.622 960.366, 422.815 960.946 C 423.008 961.525, 423.747 962, 424.456 962 C 425.864 962, 433.986 965.280, 438.045 967.487 C 441.001 969.094, 448.466 971.799, 470 979.065 C 478.525 981.941, 486.175 984.525, 487 984.806 C 487.825 985.087, 488.807 985.256, 489.182 985.181 C 489.557 985.107, 491.570 985.758, 493.655 986.629 C 495.740 987.501, 498.584 988.419, 499.973 988.670 C 502.357 989.101, 504.532 989.722, 517.236 993.598 C 520.116 994.476, 524.504 995.561, 526.986 996.007 C 531.927 996.896, 531.942 996.900, 543.500 999.854 C 547.900 1000.979, 553.075 1002.168, 555 1002.497 C 556.925 1002.827, 561.200 1003.794, 564.500 1004.647 C 567.800 1005.501, 572.025 1006.391, 573.889 1006.626 C 575.753 1006.861, 577.562 1007.229, 577.910 1007.444 C 578.258 1007.659, 580.558 1008.145, 583.021 1008.523 C 588.419 1009.352, 590.500 1009.778, 590.500 1010.054 C 590.500 1010.167, 591.625 1010.361, 593 1010.483 C 594.375 1010.606, 596.175 1010.982, 597 1011.318 C 597.825 1011.655, 600.300 1012.127, 602.500 1012.366 C 604.700 1012.606, 608.975 1013.321, 612 1013.956 C 615.025 1014.591, 620.425 1015.488, 624 1015.949 C 627.575 1016.411, 631.400 1017.010, 632.500 1017.280 C 633.600 1017.550, 637.200 1018.060, 640.500 1018.413 C 643.800 1018.766, 647.636 1019.281, 649.025 1019.558 C 650.414 1019.834, 653.114 1020.255, 655.025 1020.494 C 656.936 1020.732, 659.850 1021.135, 661.500 1021.390 C 663.150 1021.645, 667.425 1022.135, 671 1022.479 C 674.575 1022.823, 678.625 1023.309, 680 1023.560 C 681.375 1023.810, 684.975 1024.258, 688 1024.556 C 691.025 1024.854, 695.300 1025.317, 697.500 1025.586 C 705.614 1026.577, 718.506 1027.743, 730.500 1028.571 C 734.350 1028.837, 739.525 1029.270, 742 1029.535 C 764.590 1031.949, 825.527 1031.928, 853 1029.498 C 854.925 1029.328, 859.875 1028.882, 864 1028.507 C 868.125 1028.133, 873.750 1027.676, 876.500 1027.492 C 879.250 1027.308, 884.425 1026.857, 888 1026.490 C 891.575 1026.123, 895.850 1025.709, 897.500 1025.571 C 899.150 1025.433, 902.075 1025.028, 904 1024.671 C 905.925 1024.314, 909.975 1023.806, 913 1023.542 C 916.025 1023.278, 919.850 1022.844, 921.500 1022.579 C 923.150 1022.313, 926.975 1021.862, 930 1021.576 C 933.025 1021.290, 936.625 1020.841, 938 1020.578 C 939.375 1020.315, 942.300 1019.879, 944.500 1019.609 C 954.235 1018.415, 964.893 1016.696, 969 1015.657 C 971.658 1014.985, 977.764 1014.147, 984.769 1013.493 C 987.117 1013.274, 989.405 1012.868, 989.853 1012.591 C 990.301 1012.314, 992.205 1011.807, 994.084 1011.464 C 995.963 1011.122, 999.750 1010.414, 1002.500 1009.891 C 1005.250 1009.368, 1008.175 1008.918, 1009 1008.891 C 1009.825 1008.865, 1011.400 1008.473, 1012.500 1008.020 C 1013.600 1007.567, 1017.875 1006.615, 1022 1005.904 C 1030.097 1004.510, 1030.870 1004.355, 1031.250 1004.048 C 1031.610 1003.759, 1034.982 1003.087, 1038.777 1002.549 C 1040.579 1002.294, 1042.490 1001.815, 1043.023 1001.486 C 1043.556 1001.156, 1045.007 1000.696, 1046.246 1000.462 C 1051.333 999.504, 1059.030 997.669, 1067.962 995.286 C 1073.166 993.897, 1077.891 992.662, 1078.462 992.541 C 1079.033 992.420, 1081.300 991.953, 1083.500 991.504 C 1085.700 991.054, 1088.850 990.123, 1090.500 989.434 C 1092.150 988.745, 1093.833 988.129, 1094.240 988.064 C 1094.646 987.999, 1095.546 987.774, 1096.240 987.565 C 1096.933 987.355, 1101.550 986.052, 1106.500 984.669 C 1111.450 983.286, 1120.675 980.271, 1127 977.970 C 1133.325 975.668, 1139.737 973.558, 1141.250 973.279 C 1142.763 973.001, 1144 972.374, 1144 971.887 C 1144 971.399, 1144.338 971.105, 1144.750 971.234 C 1147.729 972.164, 1190.691 951.693, 1197.245 946.220 C 1198.866 944.865, 1201.194 937.464, 1201.528 932.601 C 1201.637 931.006, 1201.116 928.531, 1200.369 927.101 C 1198.406 923.338, 1198.631 922.565, 1202.250 920.652 C 1204.037 919.706, 1207.975 917.395, 1211 915.515 C 1214.025 913.635, 1218.553 910.985, 1221.063 909.627 C 1223.572 908.268, 1226.211 906.451, 1226.926 905.589 C 1227.641 904.727, 1228.626 904.269, 1229.113 904.570 C 1229.601 904.871, 1230 904.696, 1230 904.180 C 1230 903.665, 1231.350 902.683, 1233 902 C 1234.650 901.317, 1236.001 900.474, 1236.002 900.129 C 1236.003 899.783, 1238.140 898.155, 1240.752 896.512 C 1243.363 894.868, 1246.175 892.952, 1247 892.254 C 1247.825 891.555, 1248.736 891.100, 1249.025 891.242 C 1249.313 891.384, 1250.213 890.929, 1251.025 890.230 C 1256.628 885.408, 1259.253 883.398, 1265 879.528 C 1268.575 877.121, 1272.426 874.280, 1273.558 873.215 C 1274.690 872.151, 1277.840 869.588, 1280.558 867.519 C 1283.276 865.450, 1285.725 863.463, 1286 863.103 C 1286.275 862.743, 1288.524 860.885, 1290.997 858.974 C 1293.470 857.063, 1296.354 854.825, 1297.406 854 C 1298.458 853.175, 1302.668 849.350, 1306.760 845.500 C 1310.853 841.650, 1314.877 838.114, 1315.704 837.643 C 1317.673 836.519, 1325.887 828.713, 1343.311 811.408 C 1362.226 792.621, 1376.421 777.292, 1389.522 761.500 C 1392.260 758.200, 1395.300 754.761, 1396.278 753.858 C 1397.257 752.955, 1399.282 750.416, 1400.779 748.217 C 1402.275 746.018, 1405.300 742.168, 1407.500 739.663 C 1409.700 737.157, 1413.300 732.627, 1415.500 729.596 C 1417.700 726.564, 1419.838 724.065, 1420.250 724.042 C 1420.662 724.019, 1421 723.424, 1421 722.721 C 1421 722.017, 1421.900 720.793, 1423 720 C 1424.100 719.207, 1425 718.176, 1425 717.708 C 1425 717.240, 1425.563 716.230, 1426.250 715.463 C 1428.689 712.743, 1429.702 711.395, 1430.099 710.342 C 1430.552 709.137, 1434.105 704.421, 1438.354 699.383 C 1439.923 697.522, 1440.823 695.993, 1440.354 695.985 C 1439.884 695.976, 1440.175 695.543, 1441 695.021 C 1441.825 694.500, 1442.501 693.719, 1442.503 693.286 C 1442.505 692.854, 1443.848 690.745, 1445.487 688.600 C 1447.126 686.454, 1450.274 681.897, 1452.483 678.472 C 1454.693 675.047, 1458.188 669.706, 1460.250 666.603 C 1462.313 663.500, 1464 660.695, 1464 660.370 C 1464 660.045, 1466.025 656.882, 1468.500 653.341 C 1470.975 649.801, 1473 646.476, 1473 645.952 C 1473 645.428, 1473.450 645, 1474 645 C 1474.550 645, 1475 644.503, 1475 643.895 C 1475 643.287, 1476.350 640.790, 1478 638.345 C 1479.650 635.900, 1481 633.745, 1481 633.557 C 1481 633.179, 1494.450 609.403, 1496.023 607 C 1496.563 606.175, 1497.436 604.505, 1497.963 603.290 C 1498.489 602.074, 1500.716 597.911, 1502.909 594.040 C 1505.103 590.168, 1506.691 587, 1506.437 587 C 1506.183 587, 1507.156 585.129, 1508.599 582.843 C 1510.042 580.557, 1511.298 578.176, 1511.389 577.552 C 1511.481 576.928, 1512.602 574.646, 1513.880 572.480 C 1515.158 570.314, 1516.344 567.857, 1516.517 567.021 C 1516.690 566.184, 1518.158 563.025, 1519.780 560 C 1521.401 556.975, 1523.068 553.375, 1523.482 552 C 1523.897 550.625, 1524.928 548.712, 1525.773 547.750 C 1526.618 546.788, 1527.005 546, 1526.632 546 C 1526.259 546, 1526.691 544.875, 1527.592 543.500 C 1528.493 542.125, 1528.978 541, 1528.670 541 C 1528.361 541, 1529.885 537.405, 1532.055 533.010 C 1534.225 528.616, 1536 524.515, 1536 523.897 C 1536 523.278, 1536.878 521.136, 1537.950 519.136 C 1539.023 517.136, 1541.072 512.350, 1542.504 508.500 C 1543.936 504.650, 1545.533 500.719, 1546.054 499.764 C 1546.574 498.809, 1547 497.211, 1547 496.214 C 1547 495.216, 1547.407 493.972, 1547.904 493.450 C 1548.862 492.444, 1553.114 480.874, 1555.604 472.500 C 1556.421 469.750, 1557.495 466.600, 1557.990 465.500 C 1558.925 463.423, 1565.115 444.225, 1567.663 435.500 C 1568.466 432.750, 1569.359 428.925, 1569.648 427 C 1569.937 425.075, 1570.809 422.193, 1571.587 420.596 C 1572.364 418.999, 1573.005 416.749, 1573.011 415.596 C 1573.017 414.443, 1573.702 411.256, 1574.534 408.514 C 1576.061 403.480, 1576.850 400.162, 1577.392 396.500 C 1577.554 395.400, 1578.027 393.443, 1578.443 392.150 C 1578.858 390.858, 1579.344 388.833, 1579.524 387.650 C 1580.414 381.767, 1582.141 372.580, 1582.451 372.073 C 1582.644 371.758, 1583.117 369.700, 1583.501 367.500 C 1583.886 365.300, 1584.363 362.600, 1584.562 361.500 C 1585.070 358.698, 1586.739 348.278, 1587.446 343.500 C 1587.772 341.300, 1588.300 337.925, 1588.620 336 C 1588.941 334.075, 1589.372 330.475, 1589.578 328 C 1589.785 325.525, 1590.467 319.225, 1591.095 314 C 1591.722 308.775, 1592.360 300, 1592.512 294.500 C 1592.911 280.032, 1592.928 279.838, 1593.750 280.344 C 1594.162 280.597, 1594.600 279.386, 1594.723 277.653 C 1594.888 275.318, 1594.697 274.889, 1593.988 276 C 1593.221 277.202, 1593.028 277.042, 1593.015 275.191 C 1593.006 273.843, 1593.433 273.150, 1594.041 273.525 C 1594.734 273.954, 1595.023 271.441, 1594.907 265.992 C 1594.801 261.047, 1594.396 258.346, 1593.881 259.158 C 1593.346 260.002, 1593.019 258.644, 1593 255.500 C 1592.983 252.750, 1592.583 249.891, 1592.111 249.146 C 1591.601 248.341, 1591.058 253.809, 1590.770 262.646 C 1590.340 275.864, 1589.938 278.566, 1587.121 287.174 C 1585.379 292.495, 1583.606 296.995, 1583.180 297.174 C 1582.754 297.353, 1580.697 300.650, 1578.608 304.500 C 1548.182 360.579, 1457.540 410.917, 1318.500 448.951 C 1126.705 501.417, 839.474 520.047, 579 496.916 C 362.788 477.716, 179.529 429.827, 83.453 367.422 C 57.561 350.605, 33.678 328.559, 21.786 310.500 C 8.019 289.592, 3.679 277.944, 2.228 258 C 1.795 252.043, 1.188 248.471, 0.827 249.745 M 1593.015 266.250 C 1593.024 269.137, 1593.467 272.175, 1594 273 C 1594.679 274.050, 1594.974 272.477, 1594.985 267.750 C 1594.993 263.906, 1594.569 261, 1594 261 C 1593.450 261, 1593.007 263.363, 1593.015 266.250" stroke="none" fill="#b59969" fill-rule="evenodd"/></svg>