<svg xmlns="http://www.w3.org/2000/svg" width="2262" height="516" viewBox="0 0 2262 516" version="1.1"><path d="M 1403.704 66.919 C 1403.592 67.239, 1403.617 128.138, 1403.761 202.250 L 1404.021 337 1799.904 337 C 2147.038 337, 2195.855 336.819, 2196.349 335.532 C 2196.659 334.725, 2196.477 333.795, 2195.946 333.466 C 2195.331 333.086, 2194.986 284.747, 2195 200.684 C 2195.012 127.983, 2195.017 68.015, 2195.011 67.423 C 2194.999 66.279, 1404.107 65.775, 1403.704 66.919 M 614.252 68.250 C 613.309 69.439, 612.652 327.438, 613.584 331 C 613.931 332.329, 644.263 332.500, 878.988 332.500 L 1144 332.500 1143.992 201 L 1143.984 69.500 1141.293 68.250 C 1137.339 66.414, 615.710 66.414, 614.252 68.250 M 90.365 69.500 C 90.157 70.050, 90.101 129.900, 90.243 202.500 L 90.500 334.500 220.500 334.737 C 292 334.867, 351.059 334.618, 351.743 334.182 C 352.723 333.558, 352.990 305.480, 353.008 201.445 L 353.030 69.500 323.265 69.252 C 227.149 68.452, 90.708 68.597, 90.365 69.500 M 1408 201.500 L 1408 333 1537.500 333 L 1667 333 1667 201.500 L 1667 70 1537.500 70 L 1408 70 1408 201.500 M 1671 201.496 L 1671 333 1801.004 333 L 1931.007 333 1930.754 201.750 L 1930.500 70.500 1800.750 70.246 L 1671 69.993 1671 201.496 M 1934 201.500 L 1934 333 2062.500 333 L 2191 333 2191 201.500 L 2191 70 2062.500 70 L 1934 70 1934 201.500 M 618 200 L 618 329 747.500 329 L 877 329 877 200 L 877 71 747.500 71 L 618 71 618 200 M 881 200 L 881 329 1010.500 329 L 1140 329 1140 200 L 1140 71 1010.500 71 L 881 71 881 200 M 94 202 L 94 331 221.500 331 L 349 331 349 202 L 349 73 221.500 73 L 94 73 94 202 M 135.898 442.258 C 131.902 444.914, 128 452.054, 128 456.712 C 128 459.803, 127.790 460, 124.500 460 C 121.667 460, 121 460.381, 121 462 C 121 463.619, 121.667 464, 124.500 464 L 128 464 128 478.800 C 128 494.476, 127.584 496, 123.300 496 C 122.035 496, 121 496.450, 121 497 C 121 497.609, 125.500 498, 132.500 498 C 139.500 498, 144 497.609, 144 497 C 144 496.450, 142.740 496, 141.200 496 C 136.364 496, 136 494.796, 136 478.800 L 136 464 140.500 464 C 144.333 464, 145 463.704, 145 462 C 145 460.296, 144.333 460, 140.500 460 L 136 460 136 453.200 C 136 449.244, 136.502 445.898, 137.200 445.200 C 139.459 442.941, 143.239 443.870, 146.564 447.500 C 150.136 451.400, 151.161 451.696, 153.387 449.470 C 154.356 448.501, 155.806 448.164, 157.345 448.551 C 160.233 449.275, 163.080 446.022, 162.270 442.924 C 161.508 440.012, 157.040 439.232, 155.068 441.668 C 153.515 443.585, 153.393 443.589, 150.486 441.824 C 146.326 439.298, 140.073 439.484, 135.898 442.258 M 758.898 442.258 C 754.902 444.914, 751 452.054, 751 456.712 C 751 459.803, 750.790 460, 747.500 460 C 744.667 460, 744 460.381, 744 462 C 744 463.619, 744.667 464, 747.500 464 L 751 464 751 478.800 C 751 494.476, 750.584 496, 746.300 496 C 745.035 496, 744 496.450, 744 497 C 744 497.609, 748.500 498, 755.500 498 C 762.500 498, 767 497.609, 767 497 C 767 496.450, 765.740 496, 764.200 496 C 759.364 496, 759 494.796, 759 478.800 L 759 464 763.500 464 C 767.333 464, 768 463.704, 768 462 C 768 460.296, 767.333 460, 763.500 460 L 759 460 759 453.200 C 759 449.244, 759.502 445.898, 760.200 445.200 C 762.459 442.941, 766.239 443.870, 769.564 447.500 C 773.136 451.400, 774.161 451.696, 776.387 449.470 C 777.356 448.501, 778.806 448.164, 780.345 448.551 C 783.233 449.275, 786.080 446.022, 785.270 442.924 C 784.508 440.012, 780.040 439.232, 778.068 441.668 C 776.515 443.585, 776.393 443.589, 773.486 441.824 C 769.326 439.298, 763.073 439.484, 758.898 442.258 M 1714.898 442.258 C 1710.902 444.914, 1707 452.054, 1707 456.712 C 1707 459.803, 1706.790 460, 1703.500 460 C 1700.667 460, 1700 460.381, 1700 462 C 1700 463.619, 1700.667 464, 1703.500 464 L 1707 464 1707 478.800 C 1707 494.476, 1706.584 496, 1702.300 496 C 1701.035 496, 1700 496.450, 1700 497 C 1700 497.609, 1704.500 498, 1711.500 498 C 1718.500 498, 1723 497.609, 1723 497 C 1723 496.450, 1721.740 496, 1720.200 496 C 1715.364 496, 1715 494.796, 1715 478.800 L 1715 464 1719.500 464 C 1723.333 464, 1724 463.704, 1724 462 C 1724 460.296, 1723.333 460, 1719.500 460 L 1715 460 1715 453.200 C 1715 449.244, 1715.502 445.898, 1716.200 445.200 C 1718.459 442.941, 1722.239 443.870, 1725.564 447.500 C 1729.105 451.366, 1730.167 451.691, 1732.298 449.559 C 1733.090 448.767, 1734.645 448.356, 1735.752 448.645 C 1738.222 449.291, 1741.011 445.759, 1740.270 442.924 C 1739.582 440.295, 1735.395 439.334, 1733.210 441.305 C 1731.729 442.640, 1731.165 442.660, 1729 441.458 C 1725.122 439.306, 1718.801 439.664, 1714.898 442.258 M 470.750 444.280 C 463.411 447.638, 462.148 449.525, 467.250 449.510 L 470.500 449.500 470.770 471.929 C 471.056 495.752, 471.018 495.952, 466.250 495.985 C 465.012 495.993, 464 496.450, 464 497 C 464 497.606, 468.333 498, 475 498 C 481.667 498, 486 497.606, 486 497 C 486 496.450, 484.965 496, 483.700 496 C 479.142 496, 479 495.131, 479 467.300 C 479 452.835, 478.663 441.043, 478.250 441.096 C 477.837 441.148, 474.462 442.581, 470.750 444.280 M 1090.315 442.058 C 1085.872 443.405, 1081.250 448.356, 1079.959 453.153 C 1078.765 457.585, 1079.573 459.585, 1081.367 456.642 C 1084.291 451.845, 1086.403 449.969, 1089.956 449.012 C 1100.731 446.110, 1106.467 457.139, 1100.612 469.500 C 1097.932 475.158, 1087.319 487.846, 1081.125 492.797 C 1078.856 494.611, 1077 496.523, 1077 497.047 C 1077 497.613, 1083.864 498, 1093.920 498 L 1110.839 498 1112.522 492.935 C 1113.447 490.150, 1113.957 487.623, 1113.655 487.321 C 1113.352 487.019, 1111.896 487.723, 1110.418 488.886 C 1108.091 490.717, 1106.395 491, 1097.771 491 L 1087.812 491 1096.377 481.901 C 1106.092 471.582, 1111 463.051, 1111 456.488 C 1111 446.461, 1100.336 439.022, 1090.315 442.058 M 2048 441.727 C 2044.524 442.358, 2039.302 446.515, 2037.425 450.145 C 2035.210 454.428, 2036.336 454.790, 2040.501 451.133 C 2046.032 446.277, 2052.788 446.961, 2055.837 452.684 C 2058.773 458.198, 2055.608 464.729, 2048.604 467.610 C 2043.484 469.715, 2042.702 471, 2046.540 471 C 2050.455 471, 2056.790 474.693, 2058.479 477.960 C 2061.632 484.057, 2059.796 491.080, 2054.316 493.883 C 2051.185 495.484, 2048.883 495.278, 2043.554 492.921 C 2040.969 491.778, 2038.202 491.092, 2037.404 491.398 C 2035.038 492.306, 2034.632 494.936, 2036.534 497.037 C 2038.953 499.711, 2049.787 499.749, 2055.500 497.104 C 2068.293 491.181, 2071.139 475.732, 2060.912 467.728 L 2057.784 465.280 2060.892 460.990 C 2066.257 453.585, 2064.341 445.712, 2056.364 442.379 C 2053.004 440.975, 2052.398 440.927, 2048 441.727 M 364.293 443.519 C 361.267 444.791, 360.867 445.451, 359.549 451.348 C 359.083 453.432, 359.260 454.081, 360.206 453.770 C 360.918 453.535, 361.639 452.404, 361.808 451.256 C 362.310 447.866, 364.884 447.787, 370.481 450.989 C 373.376 452.645, 376.676 454, 377.816 454 C 381.122 454, 385 449.923, 385.665 445.750 C 386.342 441.494, 384.597 440.484, 383.579 444.543 C 382.654 448.228, 380.711 448.496, 375.298 445.685 C 368.592 442.203, 367.795 442.046, 364.293 443.519 M 987.293 443.519 C 984.267 444.791, 983.867 445.451, 982.549 451.348 C 982.083 453.432, 982.260 454.081, 983.206 453.770 C 983.918 453.535, 984.639 452.404, 984.808 451.256 C 985.310 447.866, 987.884 447.787, 993.481 450.989 C 996.376 452.645, 999.676 454, 1000.816 454 C 1004.122 454, 1008 449.923, 1008.665 445.750 C 1009.342 441.494, 1007.597 440.484, 1006.579 444.543 C 1005.654 448.228, 1003.711 448.496, 998.298 445.685 C 991.592 442.203, 990.795 442.046, 987.293 443.519 M 1942.293 443.519 C 1939.267 444.791, 1938.867 445.451, 1937.549 451.348 C 1937.083 453.432, 1937.260 454.081, 1938.206 453.770 C 1938.918 453.535, 1939.639 452.404, 1939.808 451.256 C 1940.310 447.866, 1942.884 447.787, 1948.481 450.989 C 1951.376 452.645, 1954.676 454, 1955.816 454 C 1959.122 454, 1963 449.923, 1963.665 445.750 C 1964.342 441.494, 1962.597 440.484, 1961.579 444.543 C 1960.654 448.228, 1958.711 448.496, 1953.298 445.685 C 1946.592 442.203, 1945.795 442.046, 1942.293 443.519 M 12.741 460.384 C 7.843 462.191, 6.402 463.458, 3.380 468.615 C 0.448 473.617, -0.076 483.488, 2.289 489.148 C 6.086 498.237, 16.486 501.887, 24.538 496.958 C 28.038 494.816, 32.021 488.322, 31.955 484.864 L 31.911 482.500 30.205 484.859 C 24.967 492.102, 19.341 494.029, 14.114 490.367 C 6.908 485.320, 6.061 467.714, 12.850 464.080 C 17.690 461.490, 21.432 463.208, 22.885 468.686 C 23.474 470.904, 24.292 471.565, 26.749 471.808 C 32.733 472.400, 32.890 466.159, 27 461.874 C 23.552 459.366, 17.278 458.710, 12.741 460.384 M 50.799 460.327 C 42.825 462.854, 37.800 470.547, 37.800 480.227 C 37.800 499.125, 60.585 506.453, 70.368 490.701 C 77.520 479.187, 72.939 464.077, 61.101 460.133 C 57.016 458.771, 55.623 458.798, 50.799 460.327 M 83.371 461.337 C 77.662 463.745, 76.640 465.338, 80.495 465.819 L 83.053 466.138 82.776 480.819 C 82.506 495.187, 82.452 495.507, 80.250 495.820 C 79.013 495.995, 78 496.558, 78 497.070 C 78 497.581, 82.275 498, 87.500 498 C 93.167 498, 97 497.596, 97 497 C 97 496.450, 96.190 496, 95.200 496 C 91.584 496, 91 493.986, 91.007 481.550 L 91.014 469.500 94.319 467.250 C 98.211 464.600, 101.241 464.384, 103.456 466.599 C 104.795 467.938, 105.010 470.418, 104.778 481.837 C 104.518 494.576, 104.368 495.499, 102.500 495.835 C 101.400 496.032, 100.073 496.600, 99.550 497.097 C 98.982 497.637, 102.696 498, 108.800 498 C 114.933 498, 119 497.601, 119 497 C 119 496.450, 118.190 496, 117.200 496 C 113.562 496, 113 494.001, 112.998 481.050 C 112.997 471.105, 112.634 467.774, 111.248 465.001 C 107.867 458.234, 100.928 457.491, 94.426 463.199 L 91 466.207 91 462.604 C 91 458.415, 90.498 458.332, 83.371 461.337 M 154.181 461.376 C 148.423 463.861, 147.571 465.191, 151.191 466.044 C 153.430 466.571, 153.509 466.963, 153.789 479.044 C 154.126 493.569, 153.723 496, 150.981 496 C 149.891 496, 149 496.450, 149 497 C 149 497.598, 152.889 498, 158.667 498 C 168.312 498, 169.051 497.706, 164.768 495.573 C 162.555 494.470, 162.493 494.013, 162.227 476.721 C 162.023 463.510, 161.642 459.010, 160.727 459.040 C 160.052 459.062, 157.106 460.113, 154.181 461.376 M 182.458 460.839 C 175.762 463.948, 172.735 470.637, 174.965 477.395 C 175.614 479.360, 177.216 481.812, 178.526 482.842 L 180.907 484.715 177.954 487.544 C 174.645 490.714, 174.215 493.475, 176.615 496.127 C 178.120 497.790, 177.982 498.203, 174.615 502.136 C 170.643 506.778, 170.506 507.209, 172.081 510.151 C 174.975 515.560, 190.290 517.869, 198.509 514.135 C 207.843 509.895, 211.711 500.984, 206.486 495.759 C 203.512 492.785, 200.236 492.005, 190.625 491.985 C 182.372 491.967, 179.936 490.966, 181.603 488.278 C 182.407 486.982, 184.440 486.359, 189.103 485.981 C 196.238 485.403, 198.871 484.250, 201.922 480.371 C 204.189 477.490, 204.716 471.206, 202.965 467.934 C 202.032 466.191, 202.280 466, 205.465 466 C 208.333 466, 209 465.623, 209 464 C 209 462.263, 208.333 462, 203.934 462 C 201.148 462, 198.111 461.594, 197.184 461.099 C 193.345 459.044, 186.581 458.925, 182.458 460.839 M 259.039 461.471 C 252.697 464.138, 251.425 466, 255.944 466 L 259.055 466 258.777 480.250 C 258.511 493.941, 258.412 494.539, 256.250 495.487 C 252.048 497.331, 253.979 498, 263.500 498 C 269.167 498, 273 497.596, 273 497 C 273 496.450, 272.116 496, 271.035 496 C 269.955 496, 268.605 495.130, 268.035 494.066 C 266.370 490.955, 266.732 472.418, 268.526 468.950 C 270.033 466.036, 273.254 464.984, 274.500 467 C 274.840 467.550, 276.201 468, 277.524 468 C 280.583 468, 282.488 464.781, 281.036 462.068 C 278.824 457.933, 272.981 458.666, 269.131 463.560 L 267 466.270 267 462.635 C 267 458.384, 266.539 458.317, 259.039 461.471 M 293.500 459.886 C 288.554 461.150, 286.345 462.754, 284.967 466.080 C 284.045 468.305, 283.963 469.718, 284.687 470.868 C 287.254 474.945, 292 472.380, 292 466.916 C 292 464.080, 293.519 463, 297.510 463 C 300.849 463, 303 465.585, 303 469.596 C 303 472.271, 302.486 473.245, 300.718 473.917 C 294.624 476.234, 288.665 479.510, 285.976 482.023 C 283.535 484.303, 283 485.604, 283 489.265 C 283 498.252, 291.298 501.880, 299.346 496.411 C 301.441 494.987, 303.233 493.975, 303.328 494.161 C 305.035 497.520, 306.119 498.550, 308.211 498.803 C 311.346 499.181, 317 494.648, 317 491.756 C 317 489.818, 316.887 489.792, 315.171 491.345 C 311.444 494.718, 311 493.571, 311 480.565 C 311 467.055, 310.300 463.897, 306.795 461.603 C 303.914 459.717, 297.433 458.880, 293.500 459.886 M 331.741 460.384 C 326.843 462.191, 325.402 463.458, 322.380 468.615 C 319.448 473.617, 318.924 483.488, 321.289 489.148 C 322.987 493.213, 329.299 499, 332.035 499 C 334.402 499, 334.450 499.383, 332.467 502.410 C 331.042 504.586, 331.077 504.787, 332.967 505.281 C 335.617 505.974, 335.625 509.595, 332.979 511.011 C 331.868 511.606, 330.518 511.820, 329.979 511.487 C 329.441 511.154, 329 511.584, 329 512.441 C 329 513.596, 330.048 514, 333.045 514 C 341.347 514, 345.326 504.965, 338.634 501.310 C 336.988 500.411, 337.314 500.026, 341.398 498.049 C 346.422 495.617, 351.036 489.275, 350.955 484.912 L 350.911 482.500 349.205 484.859 C 343.967 492.102, 338.341 494.029, 333.114 490.367 C 325.908 485.320, 325.061 467.714, 331.850 464.080 C 336.690 461.490, 340.432 463.208, 341.885 468.686 C 342.474 470.904, 343.292 471.565, 345.749 471.808 C 351.733 472.400, 351.890 466.159, 346 461.874 C 342.552 459.366, 336.278 458.710, 331.741 460.384 M 367.500 459.886 C 362.554 461.150, 360.345 462.754, 358.967 466.080 C 358.045 468.305, 357.963 469.718, 358.687 470.868 C 361.254 474.945, 366 472.380, 366 466.916 C 366 464.080, 367.519 463, 371.510 463 C 374.849 463, 377 465.585, 377 469.596 C 377 472.271, 376.486 473.245, 374.718 473.917 C 368.624 476.234, 362.665 479.510, 359.976 482.023 C 357.535 484.303, 357 485.604, 357 489.265 C 357 498.252, 365.298 501.880, 373.346 496.411 C 375.441 494.987, 377.233 493.975, 377.328 494.161 C 379.035 497.520, 380.119 498.550, 382.211 498.803 C 385.346 499.181, 391 494.648, 391 491.756 C 391 489.818, 390.887 489.792, 389.171 491.345 C 385.444 494.718, 385 493.571, 385 480.565 C 385 467.055, 384.300 463.897, 380.795 461.603 C 377.914 459.717, 371.433 458.880, 367.500 459.886 M 406.799 460.327 C 398.825 462.854, 393.800 470.547, 393.800 480.227 C 393.800 499.125, 416.585 506.453, 426.368 490.701 C 433.520 479.187, 428.939 464.077, 417.101 460.133 C 413.016 458.771, 411.623 458.798, 406.799 460.327 M 634.741 460.384 C 629.843 462.191, 628.402 463.458, 625.380 468.615 C 622.448 473.617, 621.924 483.488, 624.289 489.148 C 628.086 498.237, 638.486 501.887, 646.538 496.958 C 650.038 494.816, 654.021 488.322, 653.955 484.864 L 653.911 482.500 652.205 484.859 C 646.967 492.102, 641.341 494.029, 636.114 490.367 C 628.908 485.320, 628.061 467.714, 634.850 464.080 C 639.690 461.490, 643.432 463.208, 644.885 468.686 C 645.474 470.904, 646.292 471.565, 648.749 471.808 C 654.733 472.400, 654.890 466.159, 649 461.874 C 645.552 459.366, 639.278 458.710, 634.741 460.384 M 672.799 460.327 C 664.825 462.854, 659.800 470.547, 659.800 480.227 C 659.800 499.125, 682.585 506.453, 692.368 490.701 C 699.520 479.187, 694.939 464.077, 683.101 460.133 C 679.016 458.771, 677.623 458.798, 672.799 460.327 M 705.371 461.337 C 699.662 463.745, 698.640 465.338, 702.495 465.819 L 705.053 466.138 704.776 480.819 C 704.506 495.187, 704.452 495.507, 702.250 495.820 C 701.013 495.995, 700 496.558, 700 497.070 C 700 497.581, 704.275 498, 709.500 498 C 715.167 498, 719 497.596, 719 497 C 719 496.450, 718.190 496, 717.200 496 C 713.584 496, 713 493.986, 713.007 481.550 L 713.014 469.500 716.319 467.250 C 720.211 464.600, 723.241 464.384, 725.456 466.599 C 726.795 467.938, 727.010 470.418, 726.778 481.837 C 726.518 494.576, 726.368 495.499, 724.500 495.835 C 723.400 496.032, 722.072 496.600, 721.550 497.097 C 720.982 497.637, 724.696 498, 730.800 498 C 736.933 498, 741 497.601, 741 497 C 741 496.450, 740.190 496, 739.200 496 C 735.562 496, 735 494.001, 734.998 481.050 C 734.997 471.105, 734.634 467.774, 733.248 465.001 C 729.867 458.234, 722.928 457.491, 716.426 463.199 L 713 466.207 713 462.604 C 713 458.415, 712.498 458.332, 705.371 461.337 M 777.181 461.376 C 771.423 463.861, 770.571 465.191, 774.191 466.044 C 776.430 466.571, 776.509 466.963, 776.789 479.044 C 777.126 493.569, 776.723 496, 773.981 496 C 772.891 496, 772 496.450, 772 497 C 772 497.598, 775.889 498, 781.667 498 C 791.312 498, 792.051 497.706, 787.768 495.573 C 785.555 494.470, 785.493 494.013, 785.227 476.721 C 785.023 463.510, 784.642 459.010, 783.727 459.040 C 783.052 459.062, 780.106 460.113, 777.181 461.376 M 805.458 460.839 C 798.762 463.948, 795.735 470.637, 797.965 477.395 C 798.614 479.360, 800.216 481.812, 801.526 482.842 L 803.907 484.715 800.954 487.544 C 797.645 490.714, 797.215 493.475, 799.615 496.127 C 801.120 497.790, 800.982 498.203, 797.615 502.136 C 793.643 506.778, 793.506 507.209, 795.081 510.151 C 797.975 515.560, 813.290 517.869, 821.509 514.135 C 830.843 509.895, 834.711 500.984, 829.486 495.759 C 826.512 492.785, 823.236 492.005, 813.625 491.985 C 805.372 491.967, 802.936 490.966, 804.603 488.278 C 805.407 486.982, 807.440 486.359, 812.103 485.981 C 819.238 485.403, 821.871 484.250, 824.922 480.371 C 827.189 477.490, 827.716 471.206, 825.965 467.934 C 825.032 466.191, 825.280 466, 828.465 466 C 831.333 466, 832 465.623, 832 464 C 832 462.263, 831.333 462, 826.934 462 C 824.148 462, 821.111 461.594, 820.184 461.099 C 816.345 459.044, 809.581 458.925, 805.458 460.839 M 881.039 461.471 C 874.697 464.138, 873.425 466, 877.944 466 L 881.055 466 880.777 480.250 C 880.511 493.941, 880.412 494.539, 878.250 495.487 C 874.048 497.331, 875.979 498, 885.500 498 C 891.167 498, 895 497.596, 895 497 C 895 496.450, 894.116 496, 893.035 496 C 891.955 496, 890.605 495.130, 890.035 494.066 C 888.370 490.955, 888.732 472.418, 890.526 468.950 C 892.033 466.036, 895.254 464.984, 896.500 467 C 896.840 467.550, 898.201 468, 899.524 468 C 902.583 468, 904.488 464.781, 903.036 462.068 C 900.824 457.933, 894.981 458.666, 891.131 463.560 L 889 466.270 889 462.635 C 889 458.384, 888.539 458.317, 881.039 461.471 M 916.500 459.886 C 911.554 461.150, 909.345 462.754, 907.967 466.080 C 907.045 468.305, 906.963 469.718, 907.687 470.868 C 910.254 474.945, 915 472.380, 915 466.916 C 915 464.080, 916.519 463, 920.510 463 C 923.849 463, 926 465.585, 926 469.596 C 926 472.271, 925.486 473.245, 923.718 473.917 C 917.624 476.234, 911.665 479.510, 908.976 482.023 C 906.535 484.303, 906 485.604, 906 489.265 C 906 498.252, 914.298 501.880, 922.346 496.411 C 924.441 494.987, 926.233 493.975, 926.328 494.161 C 928.035 497.520, 929.119 498.550, 931.211 498.803 C 934.346 499.181, 940 494.648, 940 491.756 C 940 489.818, 939.887 489.792, 938.171 491.345 C 934.444 494.718, 934 493.571, 934 480.565 C 934 467.055, 933.300 463.897, 929.795 461.603 C 926.914 459.717, 920.433 458.880, 916.500 459.886 M 954.741 460.384 C 949.843 462.191, 948.402 463.458, 945.380 468.615 C 942.448 473.617, 941.924 483.488, 944.289 489.148 C 945.987 493.213, 952.299 499, 955.035 499 C 957.402 499, 957.450 499.383, 955.467 502.410 C 954.042 504.586, 954.077 504.787, 955.967 505.281 C 958.617 505.974, 958.625 509.595, 955.979 511.011 C 954.868 511.606, 953.518 511.820, 952.979 511.487 C 952.441 511.154, 952 511.584, 952 512.441 C 952 513.596, 953.048 514, 956.045 514 C 964.347 514, 968.326 504.965, 961.634 501.310 C 959.988 500.411, 960.314 500.026, 964.398 498.049 C 969.422 495.617, 974.036 489.275, 973.955 484.912 L 973.911 482.500 972.205 484.859 C 966.967 492.102, 961.341 494.029, 956.114 490.367 C 948.908 485.320, 948.061 467.714, 954.850 464.080 C 959.690 461.490, 963.432 463.208, 964.885 468.686 C 965.474 470.904, 966.292 471.565, 968.749 471.808 C 974.733 472.400, 974.890 466.159, 969 461.874 C 965.552 459.366, 959.278 458.710, 954.741 460.384 M 990.500 459.886 C 985.554 461.150, 983.345 462.754, 981.967 466.080 C 981.045 468.305, 980.963 469.718, 981.687 470.868 C 984.254 474.945, 989 472.380, 989 466.916 C 989 464.080, 990.519 463, 994.510 463 C 997.849 463, 1000 465.585, 1000 469.596 C 1000 472.271, 999.486 473.245, 997.718 473.917 C 991.624 476.234, 985.665 479.510, 982.976 482.023 C 980.535 484.303, 980 485.604, 980 489.265 C 980 498.252, 988.298 501.880, 996.346 496.411 C 998.441 494.987, 1000.233 493.975, 1000.328 494.161 C 1002.035 497.520, 1003.119 498.550, 1005.211 498.803 C 1008.346 499.181, 1014 494.648, 1014 491.756 C 1014 489.818, 1013.887 489.792, 1012.171 491.345 C 1008.444 494.718, 1008 493.571, 1008 480.565 C 1008 467.055, 1007.300 463.897, 1003.795 461.603 C 1000.914 459.717, 994.433 458.880, 990.500 459.886 M 1029.799 460.327 C 1021.825 462.854, 1016.800 470.547, 1016.800 480.227 C 1016.800 499.125, 1039.585 506.453, 1049.368 490.701 C 1056.520 479.187, 1051.939 464.077, 1040.101 460.133 C 1036.016 458.771, 1034.623 458.798, 1029.799 460.327 M 1590.741 460.384 C 1585.843 462.191, 1584.402 463.458, 1581.380 468.615 C 1578.448 473.617, 1577.924 483.488, 1580.289 489.148 C 1584.086 498.237, 1594.486 501.887, 1602.538 496.958 C 1606.038 494.816, 1610.021 488.322, 1609.955 484.864 L 1609.911 482.500 1608.205 484.859 C 1602.967 492.102, 1597.341 494.029, 1592.114 490.367 C 1584.908 485.320, 1584.061 467.714, 1590.850 464.080 C 1595.690 461.490, 1599.432 463.208, 1600.885 468.686 C 1601.474 470.904, 1602.292 471.565, 1604.749 471.808 C 1610.733 472.400, 1610.890 466.159, 1605 461.874 C 1601.552 459.366, 1595.278 458.710, 1590.741 460.384 M 1628.799 460.327 C 1620.825 462.854, 1615.800 470.547, 1615.800 480.227 C 1615.800 499.125, 1638.585 506.453, 1648.368 490.701 C 1655.520 479.187, 1650.939 464.077, 1639.101 460.133 C 1635.016 458.771, 1633.623 458.798, 1628.799 460.327 M 1661.371 461.337 C 1655.662 463.745, 1654.640 465.338, 1658.495 465.819 L 1661.053 466.138 1660.776 480.819 C 1660.506 495.187, 1660.452 495.507, 1658.250 495.820 C 1657.013 495.995, 1656 496.558, 1656 497.070 C 1656 497.581, 1660.275 498, 1665.500 498 C 1671.167 498, 1675 497.596, 1675 497 C 1675 496.450, 1674.190 496, 1673.200 496 C 1669.584 496, 1669 493.986, 1669.007 481.550 L 1669.014 469.500 1672.319 467.250 C 1676.211 464.600, 1679.241 464.384, 1681.456 466.599 C 1682.795 467.938, 1683.010 470.418, 1682.778 481.837 C 1682.518 494.576, 1682.368 495.499, 1680.500 495.835 C 1679.400 496.032, 1678.072 496.600, 1677.550 497.097 C 1676.982 497.637, 1680.696 498, 1686.800 498 C 1692.933 498, 1697 497.601, 1697 497 C 1697 496.450, 1696.190 496, 1695.200 496 C 1691.562 496, 1691 494.001, 1690.998 481.050 C 1690.997 471.105, 1690.634 467.774, 1689.248 465.001 C 1685.867 458.234, 1678.928 457.491, 1672.426 463.199 L 1669 466.207 1669 462.604 C 1669 458.415, 1668.498 458.332, 1661.371 461.337 M 1732.181 461.376 C 1726.423 463.861, 1725.571 465.191, 1729.191 466.044 C 1731.430 466.571, 1731.509 466.963, 1731.789 479.044 C 1732.126 493.569, 1731.723 496, 1728.981 496 C 1727.891 496, 1727 496.450, 1727 497 C 1727 497.598, 1730.889 498, 1736.667 498 C 1746.312 498, 1747.051 497.706, 1742.768 495.573 C 1740.555 494.470, 1740.493 494.013, 1740.227 476.721 C 1740.023 463.510, 1739.642 459.010, 1738.727 459.040 C 1738.052 459.062, 1735.106 460.113, 1732.181 461.376 M 1760.458 460.839 C 1753.762 463.948, 1750.735 470.637, 1752.965 477.395 C 1753.614 479.360, 1755.216 481.812, 1756.526 482.842 L 1758.907 484.715 1755.954 487.544 C 1752.645 490.714, 1752.215 493.475, 1754.615 496.127 C 1756.120 497.790, 1755.982 498.203, 1752.615 502.136 C 1748.643 506.778, 1748.506 507.209, 1750.081 510.151 C 1752.975 515.560, 1768.290 517.869, 1776.509 514.135 C 1785.843 509.895, 1789.711 500.984, 1784.486 495.759 C 1781.512 492.785, 1778.236 492.005, 1768.625 491.985 C 1760.372 491.967, 1757.936 490.966, 1759.603 488.278 C 1760.407 486.982, 1762.440 486.359, 1767.103 485.981 C 1774.238 485.403, 1776.871 484.250, 1779.922 480.371 C 1782.189 477.490, 1782.716 471.206, 1780.965 467.934 C 1780.032 466.191, 1780.280 466, 1783.465 466 C 1786.333 466, 1787 465.623, 1787 464 C 1787 462.263, 1786.333 462, 1781.934 462 C 1779.148 462, 1776.111 461.594, 1775.184 461.099 C 1771.345 459.044, 1764.581 458.925, 1760.458 460.839 M 1837.039 461.471 C 1830.697 464.138, 1829.425 466, 1833.944 466 L 1837.055 466 1836.777 480.250 C 1836.511 493.941, 1836.412 494.539, 1834.250 495.487 C 1830.048 497.331, 1831.979 498, 1841.500 498 C 1847.167 498, 1851 497.596, 1851 497 C 1851 496.450, 1850.116 496, 1849.035 496 C 1847.955 496, 1846.605 495.130, 1846.035 494.066 C 1844.370 490.955, 1844.732 472.418, 1846.526 468.950 C 1848.033 466.036, 1851.254 464.984, 1852.500 467 C 1852.840 467.550, 1854.201 468, 1855.524 468 C 1858.583 468, 1860.488 464.781, 1859.036 462.068 C 1856.824 457.933, 1850.981 458.666, 1847.131 463.560 L 1845 466.270 1845 462.635 C 1845 458.384, 1844.539 458.317, 1837.039 461.471 M 1872.500 459.886 C 1867.554 461.150, 1865.345 462.754, 1863.967 466.080 C 1863.045 468.305, 1862.963 469.718, 1863.687 470.868 C 1866.254 474.945, 1871 472.380, 1871 466.916 C 1871 464.080, 1872.519 463, 1876.510 463 C 1879.849 463, 1882 465.585, 1882 469.596 C 1882 472.271, 1881.486 473.245, 1879.718 473.917 C 1873.624 476.234, 1867.665 479.510, 1864.976 482.023 C 1862.535 484.303, 1862 485.604, 1862 489.265 C 1862 498.252, 1870.298 501.880, 1878.346 496.411 C 1880.441 494.987, 1882.233 493.975, 1882.328 494.161 C 1884.035 497.520, 1885.119 498.550, 1887.211 498.803 C 1890.346 499.181, 1896 494.648, 1896 491.756 C 1896 489.818, 1895.887 489.792, 1894.171 491.345 C 1890.444 494.718, 1890 493.571, 1890 480.565 C 1890 467.055, 1889.300 463.897, 1885.795 461.603 C 1882.914 459.717, 1876.433 458.880, 1872.500 459.886 M 1910.741 460.384 C 1905.843 462.191, 1904.402 463.458, 1901.380 468.615 C 1898.448 473.617, 1897.924 483.488, 1900.289 489.148 C 1901.987 493.213, 1908.299 499, 1911.035 499 C 1913.402 499, 1913.450 499.383, 1911.467 502.410 C 1910.042 504.586, 1910.077 504.787, 1911.967 505.281 C 1914.617 505.974, 1914.625 509.595, 1911.979 511.011 C 1910.868 511.606, 1909.518 511.820, 1908.979 511.487 C 1908.441 511.154, 1908 511.584, 1908 512.441 C 1908 513.596, 1909.048 514, 1912.045 514 C 1920.347 514, 1924.326 504.965, 1917.634 501.310 C 1915.988 500.411, 1916.314 500.026, 1920.398 498.049 C 1925.422 495.617, 1930.036 489.275, 1929.955 484.912 L 1929.911 482.500 1928.205 484.859 C 1922.967 492.102, 1917.341 494.029, 1912.114 490.367 C 1904.908 485.320, 1904.061 467.714, 1910.850 464.080 C 1915.690 461.490, 1919.432 463.208, 1920.885 468.686 C 1921.474 470.904, 1922.292 471.565, 1924.749 471.808 C 1930.733 472.400, 1930.890 466.159, 1925 461.874 C 1921.552 459.366, 1915.278 458.710, 1910.741 460.384 M 1945.500 459.886 C 1940.554 461.150, 1938.345 462.754, 1936.967 466.080 C 1936.045 468.305, 1935.963 469.718, 1936.687 470.868 C 1939.254 474.945, 1944 472.380, 1944 466.916 C 1944 464.080, 1945.519 463, 1949.510 463 C 1952.849 463, 1955 465.585, 1955 469.596 C 1955 472.271, 1954.486 473.245, 1952.718 473.917 C 1946.624 476.234, 1940.665 479.510, 1937.976 482.023 C 1935.535 484.303, 1935 485.604, 1935 489.265 C 1935 498.252, 1943.298 501.880, 1951.346 496.411 C 1953.441 494.987, 1955.233 493.975, 1955.328 494.161 C 1957.035 497.520, 1958.119 498.550, 1960.211 498.803 C 1963.346 499.181, 1969 494.648, 1969 491.756 C 1969 489.818, 1968.887 489.792, 1967.171 491.345 C 1963.444 494.718, 1963 493.571, 1963 480.565 C 1963 467.055, 1962.300 463.897, 1958.795 461.603 C 1955.914 459.717, 1949.433 458.880, 1945.500 459.886 M 1984.799 460.327 C 1976.825 462.854, 1971.800 470.547, 1971.800 480.227 C 1971.800 499.125, 1994.585 506.453, 2004.368 490.701 C 2011.520 479.187, 2006.939 464.077, 1995.101 460.133 C 1991.016 458.771, 1989.623 458.798, 1984.799 460.327 M 211 461.454 C 211 462.304, 211.810 463, 212.800 463 C 216.428 463, 217 465.006, 217 477.732 C 217 495.134, 218.946 499, 227.706 499 C 230.516 499, 232.544 498.176, 235.272 495.927 L 239 492.854 239 495.868 C 239 497.526, 239.338 499.088, 239.750 499.340 C 240.770 499.964, 253 494.998, 253 493.961 C 253 493.505, 251.762 492.990, 250.250 492.816 L 247.500 492.500 247 476.500 L 246.500 460.500 239.750 460.204 C 234.325 459.967, 233 460.199, 233 461.388 C 233 462.258, 234.132 462.997, 235.750 463.184 L 238.500 463.500 238.782 475.886 C 239.091 489.471, 238.691 490.643, 232.934 493.028 C 230.500 494.036, 229.597 493.966, 227.532 492.613 C 225.094 491.015, 225.047 490.730, 224.776 475.744 L 224.500 460.500 217.750 460.204 C 212.200 459.961, 211 460.184, 211 461.454 M 833 461.454 C 833 462.304, 833.810 463, 834.800 463 C 838.428 463, 839 465.006, 839 477.732 C 839 495.134, 840.946 499, 849.706 499 C 852.516 499, 854.544 498.176, 857.272 495.927 L 861 492.854 861 495.868 C 861 497.526, 861.337 499.088, 861.750 499.340 C 862.770 499.964, 875 494.998, 875 493.961 C 875 493.505, 873.763 492.990, 872.250 492.816 L 869.500 492.500 869 476.500 L 868.500 460.500 861.750 460.204 C 856.325 459.967, 855 460.199, 855 461.388 C 855 462.258, 856.132 462.997, 857.750 463.184 L 860.500 463.500 860.782 475.886 C 861.091 489.471, 860.691 490.643, 854.934 493.028 C 852.500 494.036, 851.597 493.966, 849.532 492.613 C 847.094 491.015, 847.047 490.730, 846.776 475.744 L 846.500 460.500 839.750 460.204 C 834.200 459.961, 833 460.184, 833 461.454 M 1789 461.454 C 1789 462.304, 1789.810 463, 1790.800 463 C 1794.428 463, 1795 465.006, 1795 477.732 C 1795 495.134, 1796.946 499, 1805.706 499 C 1808.516 499, 1810.544 498.176, 1813.272 495.927 L 1817 492.854 1817 495.868 C 1817 497.526, 1817.338 499.088, 1817.750 499.340 C 1818.770 499.964, 1831 494.998, 1831 493.961 C 1831 493.505, 1829.763 492.990, 1828.250 492.816 L 1825.500 492.500 1825 476.500 L 1824.500 460.500 1817.750 460.204 C 1812.325 459.967, 1811 460.199, 1811 461.388 C 1811 462.258, 1812.132 462.997, 1813.750 463.184 L 1816.500 463.500 1816.782 475.886 C 1817.091 489.471, 1816.691 490.643, 1810.934 493.028 C 1808.500 494.036, 1807.597 493.966, 1805.532 492.613 C 1803.094 491.015, 1803.047 490.730, 1802.776 475.744 L 1802.500 460.500 1795.750 460.204 C 1790.200 459.961, 1789 460.184, 1789 461.454 M 184.073 464.635 C 180.301 469.430, 182.275 481.057, 187.168 482.867 C 192.436 484.815, 196 481.121, 196 473.712 C 196 463.699, 189 458.371, 184.073 464.635 M 807.073 464.635 C 803.301 469.430, 805.275 481.057, 810.168 482.867 C 815.436 484.815, 819 481.121, 819 473.712 C 819 463.699, 812 458.371, 807.073 464.635 M 1762.073 464.635 C 1758.301 469.430, 1760.275 481.057, 1765.168 482.867 C 1770.436 484.815, 1774 481.121, 1774 473.712 C 1774 463.699, 1767 458.371, 1762.073 464.635 M 48.970 465.532 C 44.338 470.462, 45.256 485.586, 50.570 491.901 C 53.709 495.632, 56.350 496.512, 59.940 495.025 C 64.110 493.298, 65.508 489.756, 65.441 481.096 C 65.377 472.871, 62.826 466.048, 59.062 464.033 C 55.668 462.217, 51.503 462.835, 48.970 465.532 M 404.970 465.532 C 400.338 470.462, 401.256 485.586, 406.570 491.901 C 409.709 495.632, 412.350 496.512, 415.940 495.025 C 420.110 493.298, 421.508 489.756, 421.441 481.096 C 421.377 472.871, 418.826 466.048, 415.062 464.033 C 411.668 462.217, 407.503 462.835, 404.970 465.532 M 670.970 465.532 C 666.338 470.462, 667.256 485.586, 672.570 491.901 C 675.709 495.632, 678.350 496.512, 681.940 495.025 C 686.110 493.298, 687.508 489.756, 687.441 481.096 C 687.377 472.871, 684.826 466.048, 681.062 464.033 C 677.668 462.217, 673.503 462.835, 670.970 465.532 M 1027.970 465.532 C 1023.338 470.462, 1024.256 485.586, 1029.570 491.901 C 1032.709 495.632, 1035.350 496.512, 1038.940 495.025 C 1043.110 493.298, 1044.508 489.756, 1044.441 481.096 C 1044.377 472.871, 1041.826 466.048, 1038.062 464.033 C 1034.668 462.217, 1030.503 462.835, 1027.970 465.532 M 1626.970 465.532 C 1622.338 470.462, 1623.256 485.586, 1628.570 491.901 C 1631.709 495.632, 1634.350 496.512, 1637.940 495.025 C 1642.110 493.298, 1643.508 489.756, 1643.441 481.096 C 1643.377 472.871, 1640.826 466.048, 1637.062 464.033 C 1633.668 462.217, 1629.503 462.835, 1626.970 465.532 M 1982.970 465.532 C 1978.338 470.462, 1979.256 485.586, 1984.570 491.901 C 1987.709 495.632, 1990.350 496.512, 1993.940 495.025 C 1998.110 493.298, 1999.508 489.756, 1999.441 481.096 C 1999.377 472.871, 1996.826 466.048, 1993.062 464.033 C 1989.668 462.217, 1985.503 462.835, 1982.970 465.532 M 297.183 479.139 C 289.608 482.888, 287.946 488.953, 293.497 492.590 C 295.792 494.094, 296.189 494.074, 299.231 492.301 C 302.347 490.486, 302.514 490.082, 302.796 483.698 C 302.958 480.014, 302.733 477, 302.296 477.001 C 301.858 477.001, 299.557 477.963, 297.183 479.139 M 371.183 479.139 C 363.608 482.888, 361.946 488.953, 367.497 492.590 C 369.792 494.094, 370.189 494.074, 373.231 492.301 C 376.347 490.486, 376.514 490.082, 376.796 483.698 C 376.958 480.014, 376.733 477, 376.296 477.001 C 375.858 477.001, 373.557 477.963, 371.183 479.139 M 920.183 479.139 C 912.608 482.888, 910.946 488.953, 916.497 492.590 C 918.792 494.094, 919.189 494.074, 922.231 492.301 C 925.347 490.486, 925.514 490.082, 925.796 483.698 C 925.958 480.014, 925.733 477, 925.296 477.001 C 924.858 477.001, 922.557 477.963, 920.183 479.139 M 994.183 479.139 C 986.608 482.888, 984.946 488.953, 990.497 492.590 C 992.792 494.094, 993.189 494.074, 996.231 492.301 C 999.347 490.486, 999.514 490.082, 999.796 483.698 C 999.958 480.014, 999.733 477, 999.296 477.001 C 998.858 477.001, 996.557 477.963, 994.183 479.139 M 1876.183 479.139 C 1868.608 482.888, 1866.946 488.953, 1872.497 492.590 C 1874.792 494.094, 1875.189 494.074, 1878.231 492.301 C 1881.347 490.486, 1881.514 490.082, 1881.796 483.698 C 1881.958 480.014, 1881.733 477, 1881.296 477.001 C 1880.858 477.001, 1878.557 477.963, 1876.183 479.139 M 1949.183 479.139 C 1941.608 482.888, 1939.946 488.953, 1945.497 492.590 C 1947.792 494.094, 1948.189 494.074, 1951.231 492.301 C 1954.347 490.486, 1954.514 490.082, 1954.796 483.698 C 1954.958 480.014, 1954.733 477, 1954.296 477.001 C 1953.858 477.001, 1951.557 477.963, 1949.183 479.139 M 179.400 500.793 C 175.646 506.523, 180.227 510.332, 191 510.437 C 195.833 510.484, 198.398 509.974, 201 508.449 C 204.516 506.390, 206.085 502.685, 204.228 500.828 C 203.710 500.310, 198.255 499.567, 192.105 499.177 C 181.138 498.481, 180.895 498.512, 179.400 500.793 M 802.400 500.793 C 798.646 506.523, 803.227 510.332, 814 510.437 C 818.833 510.484, 821.398 509.974, 824 508.449 C 827.516 506.390, 829.085 502.685, 827.228 500.828 C 826.710 500.310, 821.255 499.567, 815.105 499.177 C 804.138 498.481, 803.895 498.512, 802.400 500.793 M 1757.400 500.793 C 1753.646 506.523, 1758.227 510.332, 1769 510.437 C 1773.833 510.484, 1776.398 509.974, 1779 508.449 C 1782.516 506.390, 1784.085 502.685, 1782.228 500.828 C 1781.710 500.310, 1776.255 499.567, 1770.105 499.177 C 1759.138 498.481, 1758.895 498.512, 1757.400 500.793" stroke="none" fill="#141414" fill-rule="evenodd"/><path d="M 204.544 2.542 C 194.799 5.280, 185.689 9.916, 178.859 15.611 C 173.495 20.084, 164 30.915, 164 32.562 C 164 33.657, 176.868 42, 178.559 42 C 178.949 42, 182.479 38.962, 186.404 35.250 C 194.474 27.616, 200.971 23.763, 209.535 21.533 C 226.941 16.999, 245.332 22.353, 258.931 35.912 L 265.362 42.325 270.537 39.525 C 273.383 37.986, 276.789 35.912, 278.106 34.916 L 280.500 33.106 278.563 29.497 C 275.908 24.553, 264.451 13.946, 257.129 9.655 C 241.545 0.522, 221.419 -2.201, 204.544 2.542 M 734.500 2.413 C 725.527 4.479, 719.064 7.202, 712.447 11.706 C 702.517 18.463, 691.038 32.050, 692.356 35.485 C 692.945 37.019, 702.080 42.017, 704.217 41.974 C 704.923 41.960, 707.040 39.679, 708.922 36.905 C 719.498 21.317, 739.268 13.793, 757.307 18.492 C 767.039 21.027, 772.985 24.711, 781.717 33.618 C 786.236 38.228, 790.535 42, 791.271 42 C 792.007 42, 794.737 40.650, 797.339 39 C 802.853 35.503, 802.925 35.845, 794.515 25.704 C 785.368 14.673, 772.318 6.198, 759.760 3.133 C 751.934 1.223, 741.021 0.912, 734.500 2.413 M 1000.500 2.505 C 990.913 4.478, 978.767 10.705, 971.275 17.487 C 965.228 22.962, 956 34.100, 956 35.926 C 956 37.142, 964.802 42, 967.005 42 C 967.970 42, 970.419 39.975, 972.447 37.499 C 978.465 30.155, 983.115 26.213, 990 22.615 C 1010.654 11.824, 1034.123 17.245, 1048.095 36.034 L 1053.216 42.920 1058.982 40.009 C 1062.153 38.408, 1065.030 36.365, 1065.374 35.468 C 1066.283 33.098, 1059.863 23.949, 1052.816 17.572 C 1038.406 4.532, 1018.503 -1.201, 1000.500 2.505 M 1521.202 5.022 C 1507.666 8.568, 1494.860 17.090, 1486.645 28.019 C 1484.052 31.468, 1482.093 34.779, 1482.292 35.376 C 1482.830 36.990, 1494.167 42.873, 1495.647 42.305 C 1496.349 42.036, 1497.200 40.946, 1497.537 39.884 C 1497.874 38.821, 1500.568 35.340, 1503.524 32.148 C 1507.448 27.909, 1510.867 25.430, 1516.199 22.956 C 1522.662 19.957, 1524.671 19.523, 1533.703 19.173 C 1542.010 18.850, 1545.191 19.167, 1550.823 20.878 C 1559.784 23.599, 1569.078 29.864, 1574.181 36.623 C 1576.414 39.580, 1578.927 42, 1579.765 42 C 1582.188 42, 1589.997 36.653, 1589.989 35 C 1589.984 34.175, 1587.654 30.402, 1584.809 26.615 C 1570.339 7.348, 1545.068 -1.230, 1521.202 5.022 M 1783.215 4.940 C 1773.655 7.673, 1764.610 12.706, 1757.423 19.291 C 1750.119 25.985, 1744.746 33.173, 1745.526 35.208 C 1746.151 36.836, 1757.087 43, 1759.351 43 C 1760.230 43, 1761.673 41.599, 1762.559 39.886 C 1767.075 31.153, 1777.579 23.647, 1789.703 20.489 C 1808.299 15.646, 1829.744 23.642, 1838.677 38.750 C 1840.059 41.087, 1841.878 43, 1842.718 43 C 1844.930 43, 1855.859 36.809, 1856.474 35.208 C 1857.257 33.166, 1851.873 25.977, 1844.503 19.224 C 1837.270 12.596, 1826.911 7.003, 1817.356 4.567 C 1808.864 2.402, 1791.425 2.592, 1783.215 4.940 M 2050.916 4.522 C 2042.779 6.498, 2035.340 10.079, 2028.287 15.414 C 2022.050 20.132, 2012.026 32.195, 2012.011 35 C 2012.003 36.653, 2019.812 42, 2022.235 42 C 2023.073 42, 2025.586 39.580, 2027.819 36.623 C 2032.922 29.864, 2042.216 23.599, 2051.177 20.878 C 2056.809 19.167, 2059.990 18.850, 2068.297 19.173 C 2077.329 19.523, 2079.338 19.957, 2085.801 22.956 C 2091.133 25.430, 2094.552 27.909, 2098.476 32.148 C 2101.432 35.340, 2104.126 38.821, 2104.463 39.884 C 2104.800 40.946, 2105.651 42.036, 2106.353 42.305 C 2107.833 42.873, 2119.170 36.990, 2119.708 35.376 C 2119.907 34.779, 2117.948 31.468, 2115.355 28.019 C 2100.832 8.699, 2074.004 -1.083, 2050.916 4.522 M 739.108 25.082 C 732.267 26.425, 723.007 31.236, 717.255 36.436 C 711.176 41.930, 704.367 54.576, 703.355 62.250 L 702.728 67 747.003 67 L 791.279 67 790.700 62.111 C 789.319 50.453, 778.974 35.569, 768.162 29.685 C 759.373 24.901, 748.665 23.205, 739.108 25.082 M 1000.251 25.481 C 982.144 30.578, 969.459 44.854, 966.690 63.250 L 966.126 67 1010.563 67 C 1061.452 67, 1056.539 68.192, 1052.991 56.705 C 1048.852 43.307, 1038.166 31.825, 1025.382 27.042 C 1017.958 24.264, 1006.992 23.583, 1000.251 25.481 M 1791.510 25.175 C 1773.705 28.571, 1758.253 44.748, 1754.664 63.750 L 1754.050 67 1801.104 67 L 1848.159 67 1847.458 63.750 C 1841.585 36.521, 1817.846 20.153, 1791.510 25.175 M 205.856 27.316 C 191.438 32.231, 181.218 43.056, 177.359 57.500 C 176.625 60.250, 176.018 63.962, 176.012 65.750 L 176 69 222.437 69 L 268.874 69 268.377 65.250 C 265.783 45.670, 255.762 32.984, 238.228 27.077 C 229.424 24.111, 214.945 24.218, 205.856 27.316 M 1529.121 27.099 C 1510.771 30.244, 1496.976 44.485, 1493.617 63.750 L 1493.050 67 1537.157 67 L 1581.263 67 1580.727 63.003 C 1579.876 56.659, 1574.538 46.449, 1569.022 40.617 C 1558.909 29.923, 1543.364 24.657, 1529.121 27.099 M 2058 27.114 C 2044.324 29.444, 2031.595 38.971, 2025.394 51.517 C 2023.446 55.459, 2021.601 60.555, 2021.294 62.842 L 2020.737 67 2064.805 67 L 2108.874 67 2108.296 63.250 C 2104.637 39.520, 2081.739 23.069, 2058 27.114 M 1408 201.500 L 1408 333 1537.500 333 L 1667 333 1667 201.500 L 1667 70 1537.500 70 L 1408 70 1408 201.500 M 1671 201.496 L 1671 333 1801.004 333 L 1931.007 333 1930.754 201.750 L 1930.500 70.500 1800.750 70.246 L 1671 69.993 1671 201.496 M 1934 201.500 L 1934 333 2062.500 333 L 2191 333 2191 201.500 L 2191 70 2062.500 70 L 1934 70 1934 201.500 M 618 200 L 618 329 747.500 329 L 877 329 877 200 L 877 71 747.500 71 L 618 71 618 200 M 881 200 L 881 329 1010.500 329 L 1140 329 1140 200 L 1140 71 1010.500 71 L 881 71 881 200 M 94 202 L 94 331 221.500 331 L 349 331 349 202 L 349 73 221.500 73 L 94 73 94 202 M 45.233 150.484 C 20.464 169.103, 15.234 206.036, 33.080 236.306 C 37.823 244.352, 50.918 258, 53.894 258 C 55.232 258, 56.933 256.024, 59.414 251.588 C 62.900 245.354, 63.864 242, 62.170 242 C 61.714 242, 58.633 239.549, 55.323 236.554 C 38.105 220.973, 33.886 192.751, 45.935 173.761 C 49.312 168.439, 57.367 160.336, 60.162 159.448 C 61.173 159.128, 62 158.168, 62 157.317 C 62 154.811, 55.003 146, 53.014 146 C 52.015 146, 48.514 148.018, 45.233 150.484 M 386.023 151.090 C 383.810 153.889, 382 156.493, 382 156.876 C 382 157.260, 384.191 159.209, 386.868 161.208 C 402.994 173.246, 409.397 193.633, 403.292 213.500 C 399.924 224.459, 393.317 233.709, 383.099 241.769 L 380.698 243.663 384.599 250.825 C 387.110 255.434, 389.117 257.989, 390.231 257.993 C 393.265 258.005, 405.839 245.094, 411.088 236.577 C 426.860 210.987, 425.083 177.967, 406.838 157.583 C 401.668 151.806, 393.892 146, 391.327 146 C 390.623 146, 388.236 148.290, 386.023 151.090 M 1365.668 150.097 C 1354.612 157.420, 1344.811 172.144, 1341.435 186.500 C 1339.126 196.321, 1339.955 211.980, 1343.287 221.500 C 1348.058 235.128, 1358.352 248.537, 1368.769 254.691 C 1373.819 257.674, 1374.278 257.426, 1378.500 249.434 L 1381.500 243.756 1378.534 241.628 C 1363.888 231.120, 1355.949 216.686, 1356.024 200.701 C 1356.083 188.191, 1361.111 177.002, 1371.613 166.010 C 1375.676 161.757, 1379 157.997, 1379 157.654 C 1379 156.069, 1372.689 147, 1371.586 147 C 1370.902 147, 1368.239 148.393, 1365.668 150.097 M 2226.149 152.066 C 2224.417 154.853, 2223 157.444, 2223 157.824 C 2223 158.204, 2225.526 160.987, 2228.614 164.008 C 2239.127 174.293, 2244.705 185.090, 2245.712 197.102 C 2247.169 214.483, 2239.273 230.287, 2223.466 241.628 L 2220.500 243.756 2223.500 249.434 C 2225.150 252.557, 2227.054 255.585, 2227.731 256.163 C 2230.720 258.714, 2246.075 245.528, 2252.615 234.795 C 2258.479 225.169, 2261.220 215.926, 2261.763 203.945 C 2262.575 186.010, 2257.392 171.155, 2245.954 158.640 C 2240.970 153.186, 2232.745 147, 2230.478 147 C 2229.830 147, 2227.882 149.280, 2226.149 152.066 M 576.500 150.189 C 566.139 155.632, 555.292 170.969, 551.881 185 C 548.474 199.015, 551.344 218.704, 558.732 232 C 564.712 242.762, 580.405 257.436, 583.534 255.193 C 585.129 254.049, 591 246.187, 591 245.195 C 591 244.687, 589.165 243, 586.921 241.446 C 580.810 237.210, 574.352 229.532, 571.104 222.641 C 560.611 200.374, 566.815 174.795, 585.921 161.554 C 590.114 158.649, 590.979 156.701, 588.700 155.300 C 587.985 154.860, 586.379 153.037, 585.132 151.250 C 582.489 147.463, 581.842 147.383, 576.500 150.189 M 1174 148.820 C 1174 149.271, 1172.411 151.496, 1170.469 153.765 L 1166.938 157.891 1172.365 161.900 C 1198.358 181.102, 1198.409 219.713, 1172.468 240.099 L 1166.095 245.108 1169.663 249.804 C 1171.626 252.387, 1173.794 254.826, 1174.482 255.225 C 1176.344 256.304, 1184.237 250.658, 1190.422 243.824 C 1201.282 231.823, 1207 216.591, 1207 199.664 C 1207 184.268, 1203.110 172.644, 1194.175 161.340 C 1188.219 153.806, 1174 144.982, 1174 148.820 M 1398.459 156.484 C 1375.182 161.727, 1359.487 186.279, 1364.387 209.782 C 1368.106 227.618, 1380.230 240.255, 1397.256 244.041 C 1400.422 244.745, 1403.239 245.094, 1403.517 244.817 C 1403.794 244.539, 1403.904 224.296, 1403.760 199.830 L 1403.500 155.348 1398.459 156.484 M 2195.678 155.655 C 2195.305 156.028, 2195 176.283, 2195 200.667 L 2195 245 2198.250 244.988 C 2207.350 244.955, 2219.566 239.310, 2226.440 231.961 C 2245.292 211.806, 2241.403 178.758, 2218.310 162.869 C 2211.854 158.428, 2197.486 153.847, 2195.678 155.655 M 76.762 157.942 C 54.967 164.909, 40.876 188.143, 45.371 209.701 C 48.948 226.857, 59.842 239.048, 76.125 244.116 C 79.454 245.152, 83.938 246, 86.089 246 L 90 246 90 201 L 90 156 86.250 156.054 C 84.188 156.083, 79.918 156.933, 76.762 157.942 M 353 200.863 L 353 246 357.250 245.988 C 365.761 245.964, 376.619 241.811, 384.292 235.645 C 392.945 228.691, 400 213.627, 400 202.105 C 400 194.955, 397.726 186.104, 394.246 179.710 C 387.572 167.448, 372.573 157.297, 359.589 156.255 L 353 155.726 353 200.863 M 601.169 160.990 C 590.473 164.838, 581.412 174.179, 576.888 186.023 C 574.217 193.015, 573.342 205.039, 574.989 212.110 C 576.770 219.755, 582.548 230.359, 587.246 234.603 C 592.598 239.439, 602.313 243.824, 608.500 244.198 L 613.500 244.500 613.761 201.750 L 614.021 159 610.261 159.036 C 608.192 159.056, 604.101 159.935, 601.169 160.990 M 1144.239 201.622 L 1144.500 244.500 1149.500 244.198 C 1165.367 243.239, 1179.748 228.583, 1183.073 209.982 C 1187.308 186.283, 1170.409 161.290, 1148.739 159.202 L 1143.978 158.743 1144.239 201.622 M 615.500 333 C 615.092 333.661, 629.823 334, 658.941 334 L 703 334 703.024 338.250 C 703.181 365.524, 730.627 385.800, 757.650 378.605 C 775.153 373.945, 789.072 357.985, 790.665 340.750 L 791.289 334 879.145 334 L 967 334 967 338.955 C 967 341.679, 968.052 346.807, 969.338 350.350 C 980.631 381.462, 1020.549 390.145, 1043.027 366.378 C 1049.419 359.619, 1053.052 351.754, 1054.387 341.783 L 1055.429 334 1099.465 333.985 C 1128.265 333.975, 1142.981 333.634, 1142 333 C 1139.900 331.643, 616.339 331.643, 615.500 333 M 177.404 339.250 C 179.445 352.405, 190.933 367.386, 203.888 373.789 C 211.191 377.399, 211.698 377.500, 222.448 377.483 C 232.227 377.468, 234.134 377.168, 239 374.882 C 253.300 368.164, 263.968 354.432, 267.458 338.250 L 268.159 335 222.452 335 L 176.744 335 177.404 339.250 M 1494 340.843 C 1494 349.605, 1500.893 363.320, 1508.380 369.455 C 1525.824 383.750, 1549.111 382.976, 1565.775 367.548 C 1572.975 360.882, 1578.557 350.672, 1579.604 342.250 L 1580.258 337 1537.129 337 L 1494 337 1494 340.843 M 1758 339.662 C 1758 347.967, 1765.125 360.683, 1773.656 367.603 C 1781.898 374.289, 1788.545 376.437, 1801 376.437 C 1813.455 376.437, 1820.102 374.289, 1828.344 367.603 C 1836.875 360.683, 1844 347.967, 1844 339.662 L 1844 337 1801 337 L 1758 337 1758 339.662 M 2022.396 342.250 C 2023.426 350.532, 2029.034 360.890, 2035.959 367.301 C 2052.859 382.948, 2076.095 383.816, 2093.620 369.455 C 2101.107 363.320, 2108 349.605, 2108 340.843 L 2108 337 2064.871 337 L 2021.742 337 2022.396 342.250 M 171.110 362.498 C 167.750 364.972, 165 367.631, 165 368.408 C 165 371.027, 172.643 379.515, 180.097 385.173 C 194.131 395.827, 205.934 400.092, 221.500 400.137 C 227 400.152, 233.668 399.669, 236.318 399.063 C 249.181 396.121, 262.620 388.231, 272.766 377.666 C 280.513 369.598, 280.659 367.850, 274.007 362.785 C 266.415 357.004, 265.159 357.019, 260.641 362.944 C 253.754 371.974, 245.299 378.038, 235.223 381.174 C 223.228 384.906, 210.062 383.223, 198.568 376.487 C 194.114 373.876, 181 360.810, 181 358.981 C 181 356.787, 176.876 358.254, 171.110 362.498 M 696.250 363.175 C 692.878 365.071, 691 366.787, 691 367.974 C 691 373.016, 706.676 388.122, 717.398 393.412 C 744.128 406.599, 774.715 399.943, 797.458 375.987 L 803.417 369.711 799.958 366.781 C 798.056 365.169, 794.848 362.993, 792.829 361.945 L 789.159 360.040 785.700 364.854 C 775.529 379.012, 755.950 387.061, 738.670 384.187 C 727.396 382.312, 718.268 377.178, 709.578 367.824 C 705.580 363.521, 702.127 360.050, 701.904 360.111 C 701.682 360.172, 699.138 361.551, 696.250 363.175 M 965.435 361.554 C 961.872 363.317, 955 368.804, 955 369.886 C 955 371.732, 970.162 385.581, 976.481 389.507 C 991.230 398.671, 1011.148 402.334, 1026.006 398.615 C 1037.843 395.653, 1048.625 389.538, 1057.051 381.009 C 1061.207 376.802, 1065.208 371.912, 1065.942 370.141 C 1067.465 366.464, 1067.278 366.236, 1059.275 361.990 L 1054.702 359.564 1053.163 362.032 C 1052.318 363.389, 1048.875 367.246, 1045.514 370.603 C 1026.565 389.525, 996.435 389.525, 977.486 370.603 C 974.125 367.246, 970.728 363.496, 969.937 362.269 C 968.575 360.154, 968.340 360.117, 965.435 361.554 M 1488.580 363.155 C 1486.062 364.822, 1483.738 366.615, 1483.415 367.137 C 1482.086 369.288, 1492.127 381.409, 1500.482 387.739 C 1524.104 405.635, 1555.711 404.704, 1577.136 385.482 C 1582.516 380.655, 1591 370.479, 1591 368.853 C 1591 367.075, 1581.173 359.985, 1579.598 360.626 C 1578.994 360.872, 1576.960 363.338, 1575.078 366.106 C 1568.792 375.351, 1558.482 382.314, 1547.109 384.996 C 1540.245 386.615, 1529.140 385.811, 1522.275 383.199 C 1514.822 380.363, 1504.646 372.770, 1499.932 366.526 C 1497.708 363.581, 1495.274 360.936, 1494.523 360.647 C 1493.772 360.359, 1491.097 361.487, 1488.580 363.155 M 1751.250 364.139 C 1747.263 366.365, 1744 368.706, 1744.001 369.343 C 1744.002 371.495, 1752.981 381.956, 1758.639 386.397 C 1771.091 396.170, 1783.755 400.338, 1801 400.338 C 1818.245 400.338, 1830.909 396.170, 1843.361 386.397 C 1849.572 381.522, 1858.179 371.240, 1857.765 369.189 C 1857.619 368.468, 1854.073 366.022, 1849.885 363.753 L 1842.270 359.628 1834.345 367.768 C 1825.497 376.858, 1817.789 381.231, 1807.119 383.215 C 1793.732 385.705, 1779.875 380.321, 1767.836 367.954 C 1763.577 363.579, 1759.734 360.021, 1759.296 360.046 C 1758.858 360.072, 1755.237 361.914, 1751.250 364.139 M 2016.152 363.771 C 2013.319 365.746, 2011 368.033, 2011 368.853 C 2011 370.479, 2019.484 380.655, 2024.864 385.482 C 2046.289 404.704, 2077.896 405.635, 2101.518 387.739 C 2109.873 381.409, 2119.914 369.288, 2118.585 367.137 C 2117.339 365.121, 2108.772 360.150, 2107.431 360.665 C 2106.654 360.963, 2104.378 363.442, 2102.373 366.173 C 2097.737 372.488, 2087.423 380.321, 2080.143 383.057 C 2060.910 390.283, 2038.510 383.148, 2026.922 366.106 C 2025.040 363.338, 2023.006 360.872, 2022.402 360.626 C 2021.799 360.381, 2018.986 361.796, 2016.152 363.771" stroke="none" fill="#80c4df" fill-rule="evenodd"/></svg>