<svg xmlns="http://www.w3.org/2000/svg" width="1782" height="784" viewBox="0 0 1782 784" version="1.1"><path d="M 334.500 2.334 C 332.300 3.604, 280.100 41.703, 218.500 86.998 C 156.900 132.293, 99.075 174.808, 90 181.477 C 80.925 188.146, 59.085 204.202, 41.466 217.158 C 23.847 230.114, 8.409 241.341, 7.159 242.107 C 3.473 244.366, 0.682 249.662, 1.369 253.094 C 2.795 260.223, 129.180 644.742, 130.825 646.956 C 131.829 648.307, 133.991 650.161, 135.630 651.077 C 138.359 652.601, 154.180 652.836, 323.555 653.870 C 425.275 654.490, 516.236 655.211, 525.692 655.472 C 548.267 656.095, 550.371 655.334, 553.271 645.497 C 554.082 642.746, 583.828 554.498, 619.373 449.392 C 654.918 344.286, 683.998 256.987, 683.996 255.395 C 683.990 250.577, 680.818 246.861, 669.912 238.891 C 659.547 231.317, 481.575 101.339, 393 36.655 C 351.656 6.463, 342.135 -0.032, 339.282 0.012 C 338.852 0.019, 336.700 1.063, 334.500 2.334 M 945 13.246 C 943.625 13.968, 941.909 15.791, 941.187 17.297 C 939.581 20.645, 939.567 63.546, 941.060 402 C 942.034 622.828, 942.237 640.757, 943.806 643.972 C 944.738 645.882, 946.850 648.203, 948.500 649.131 C 951.283 650.695, 981.106 650.969, 1361.142 652.925 C 1604.934 654.179, 1771.738 654.669, 1773.142 654.134 C 1776.965 652.677, 1780.901 648.045, 1781.636 644.138 C 1782.767 638.126, 1781.248 26.782, 1780.094 23.747 C 1777.647 17.310, 1768.013 16.459, 1763.625 22.292 C 1762.298 24.056, 1743.620 60.375, 1722.119 103 C 1700.618 145.625, 1680.208 185.867, 1676.763 192.427 L 1670.500 204.354 1612 230.254 C 1579.825 244.499, 1522.450 269.911, 1484.500 286.724 C 1446.550 303.538, 1414.580 317.488, 1413.456 317.724 C 1411.437 318.149, 1399.076 309.953, 1148.500 142.045 C 1105.600 113.298, 1044.625 72.517, 1013 51.420 C 952.550 11.095, 950.882 10.158, 945 13.246 M 334.945 25.152 C 317.574 37.723, 24.234 253.473, 23.232 254.416 C 22.217 255.369, 34.295 293.311, 83.597 444.054 C 117.495 547.699, 145.627 632.751, 146.113 633.058 C 147.573 633.980, 535.158 636.248, 535.984 635.340 C 536.404 634.878, 541.256 621, 546.766 604.500 C 552.276 588, 572.395 528.375, 591.474 472 C 610.553 415.625, 634.641 344.423, 645.003 313.773 L 663.844 258.047 656.672 252.845 C 646.769 245.662, 416.146 77.223, 375.190 47.260 C 356.869 33.857, 341.319 22.676, 340.635 22.413 C 339.950 22.150, 337.389 23.383, 334.945 25.152 M 959.551 200.750 C 959.944 289.712, 960.542 423.025, 960.882 497 L 961.500 631.500 1104.500 632.252 C 1183.150 632.666, 1363.150 633.621, 1504.500 634.375 C 1645.850 635.129, 1761.812 635.465, 1762.193 635.123 C 1762.573 634.780, 1762.573 506.925, 1762.193 351 L 1761.500 67.500 1730.228 129.395 C 1713.029 163.437, 1699.115 191.449, 1699.309 191.643 C 1699.504 191.837, 1701.504 191.209, 1703.755 190.248 C 1707.464 188.664, 1707.911 188.080, 1708.519 184.023 C 1709.480 177.614, 1715.722 171.464, 1722.261 170.484 C 1726.136 169.903, 1727.825 170.198, 1731.737 172.138 C 1738.008 175.250, 1741 179.806, 1741 186.247 C 1741 199.137, 1730.015 206.333, 1717.584 201.585 L 1713.204 199.913 1701.631 205.069 C 1695.265 207.906, 1689.651 210.738, 1689.154 211.363 C 1688.657 211.988, 1662.714 263.125, 1631.502 325 C 1600.290 386.875, 1573.684 438.615, 1572.377 439.977 C 1569.325 443.158, 1563.323 443.349, 1559.303 440.393 C 1557.761 439.259, 1522.343 415.460, 1480.596 387.505 C 1410.387 340.491, 1404.498 336.754, 1402.096 337.699 C 1395.269 340.384, 1050.355 493.370, 1049.371 494.150 C 1048.749 494.642, 1047.980 496.352, 1047.660 497.950 C 1046.855 501.975, 1040.813 507.704, 1036.007 508.998 C 1030.938 510.363, 1025.311 508.974, 1020.909 505.270 C 1010.188 496.249, 1014.802 478.004, 1028.453 475.443 C 1032.813 474.625, 1038.916 476.412, 1042.195 479.468 L 1044.890 481.979 1146.695 436.905 C 1202.688 412.114, 1280.575 377.620, 1319.778 360.251 C 1358.981 342.881, 1390.931 328.321, 1390.778 327.893 C 1390.379 326.779, 960.692 39, 959.427 39 C 959.103 39, 959.159 111.787, 959.551 200.750 M 150.175 212.729 C 138.958 238.909, 136.833 242.969, 133.950 243.723 C 129.433 244.905, 132.584 246, 140.500 246 C 148.940 246, 151.749 244.800, 146 243.650 C 142.300 242.910, 142.165 241.095, 145.250 233.525 L 147.500 228.003 158.306 228.001 L 169.112 228 171.063 232.410 C 172.136 234.836, 173.280 238.151, 173.606 239.778 C 174.131 242.405, 173.851 242.856, 171.099 243.816 C 169.394 244.410, 168 245.144, 168 245.448 C 168 245.752, 172.950 246, 179 246 C 185.667 246, 190 245.606, 190 245 C 190 244.450, 189.375 244, 188.611 244 C 185.143 244, 182.426 239.203, 172.501 215.566 C 166.743 201.853, 161.656 190.256, 161.196 189.796 C 160.735 189.335, 155.776 199.655, 150.175 212.729 M 154.160 212.745 C 151.870 218.110, 149.997 222.838, 149.998 223.250 C 149.999 223.662, 153.825 224, 158.500 224 C 163.175 224, 167 223.618, 167 223.151 C 167 222.132, 159.556 204.223, 158.831 203.498 C 158.552 203.219, 156.450 207.380, 154.160 212.745 M 1593 253.659 C 1556.425 269.892, 1503.852 293.212, 1476.171 305.482 L 1425.841 327.791 1493.999 373.484 C 1531.485 398.616, 1562.281 419.025, 1562.435 418.839 C 1564.433 416.413, 1661.117 223.999, 1660.301 224.072 C 1659.860 224.112, 1629.575 237.426, 1593 253.659 M 1699.500 226.213 C 1705.145 228.199, 1705 227.509, 1705 252.422 C 1705 276.893, 1704.799 278, 1700.359 278 C 1699.126 278, 1697.814 278.492, 1697.442 279.094 C 1696.959 279.876, 1702.291 280.090, 1716.133 279.844 C 1733.501 279.535, 1735.861 279.288, 1738.997 277.446 C 1749.618 271.206, 1749.548 258.392, 1738.865 253.215 C 1736.464 252.052, 1735.203 251.077, 1736.063 251.050 C 1738.312 250.978, 1742.910 245.849, 1743.796 242.425 C 1744.212 240.816, 1744.397 238.254, 1744.208 236.732 C 1743.756 233.099, 1738.028 227.625, 1733.148 226.162 C 1727.977 224.613, 1695.092 224.663, 1699.500 226.213 M 1713.471 229.216 C 1713.168 230.005, 1713.051 234.891, 1713.210 240.075 L 1713.500 249.500 1720 249.771 C 1724.666 249.965, 1727.487 249.542, 1729.999 248.271 C 1736.779 244.839, 1737.689 236.951, 1731.940 231.442 C 1729.251 228.866, 1728.055 228.491, 1721.462 228.158 C 1715.668 227.866, 1713.899 228.100, 1713.471 229.216 M 101 253.722 C 94.030 256.341, 89.562 263.708, 90.210 271.516 C 90.730 277.785, 93.671 282.281, 99.044 285.023 C 103.916 287.508, 108.301 287.500, 113.816 284.997 L 118.133 283.038 306.816 403.111 L 495.500 523.184 495.570 527.932 C 495.659 533.997, 498.917 539.407, 504.061 542.031 C 515.274 547.752, 528.167 539.980, 528.167 527.500 C 528.167 516.466, 518.145 508.942, 507.310 511.840 L 503.042 512.981 313.643 392.456 L 124.244 271.930 123.578 267.715 C 122.697 262.135, 118.997 256.701, 114.688 254.656 C 111.316 253.056, 104.085 252.562, 101 253.722 M 1713.667 253.667 C 1713.300 254.033, 1713 259.156, 1713 265.050 C 1713 277.219, 1712.798 276.959, 1722.282 276.986 C 1731.827 277.014, 1737 272.871, 1737 265.201 C 1737 257.673, 1730.100 253.019, 1718.917 253.006 C 1716.396 253.003, 1714.033 253.300, 1713.667 253.667 M 1023.175 418.729 C 1011.958 444.909, 1009.833 448.969, 1006.950 449.723 C 1002.433 450.905, 1005.584 452, 1013.500 452 C 1021.940 452, 1024.749 450.800, 1019 449.650 C 1015.300 448.910, 1015.165 447.095, 1018.250 439.525 L 1020.500 434.003 1031.306 434.001 L 1042.112 434 1044.063 438.410 C 1045.136 440.836, 1046.280 444.151, 1046.606 445.778 C 1047.131 448.405, 1046.851 448.856, 1044.099 449.816 C 1042.394 450.410, 1041 451.144, 1041 451.448 C 1041 451.752, 1045.950 452, 1052 452 C 1058.667 452, 1063 451.606, 1063 451 C 1063 450.450, 1062.375 450, 1061.611 450 C 1058.143 450, 1055.426 445.203, 1045.501 421.566 C 1039.743 407.853, 1034.656 396.256, 1034.196 395.796 C 1033.735 395.335, 1028.776 405.655, 1023.175 418.729 M 1027.160 418.745 C 1024.870 424.110, 1022.997 428.837, 1022.998 429.250 C 1022.999 429.663, 1026.825 430, 1031.500 430 C 1036.175 430, 1040 429.618, 1040 429.151 C 1040 428.132, 1032.556 410.223, 1031.831 409.498 C 1031.552 409.219, 1029.450 413.380, 1027.160 418.745 M 491.500 431.213 C 497.145 433.199, 497 432.509, 497 457.422 C 497 481.893, 496.799 483, 492.359 483 C 491.126 483, 489.814 483.492, 489.442 484.094 C 488.959 484.876, 494.291 485.090, 508.133 484.844 C 525.501 484.535, 527.861 484.288, 530.997 482.446 C 541.618 476.206, 541.548 463.392, 530.865 458.215 C 528.464 457.052, 527.203 456.077, 528.063 456.050 C 530.312 455.978, 534.910 450.849, 535.796 447.425 C 536.212 445.816, 536.397 443.254, 536.208 441.732 C 535.756 438.099, 530.028 432.625, 525.148 431.162 C 519.977 429.613, 487.092 429.663, 491.500 431.213 M 505.471 434.216 C 505.168 435.005, 505.051 439.891, 505.210 445.075 L 505.500 454.500 512 454.771 C 516.666 454.965, 519.487 454.542, 521.999 453.271 C 528.779 449.839, 529.689 441.951, 523.940 436.442 C 521.251 433.866, 520.055 433.491, 513.462 433.158 C 507.668 432.866, 505.899 433.100, 505.471 434.216 M 505.667 458.667 C 505.300 459.033, 505 464.156, 505 470.050 C 505 482.219, 504.798 481.959, 514.282 481.986 C 523.827 482.014, 529 477.871, 529 470.201 C 529 462.673, 522.100 458.019, 510.917 458.006 C 508.396 458.003, 506.033 458.300, 505.667 458.667 M 153.746 689.028 C 147.843 690.510, 140.229 694.749, 135.269 699.313 C 113.172 719.648, 118.144 759.554, 144.278 771.626 C 149.937 774.240, 151.495 774.500, 161.500 774.500 C 171.359 774.500, 173.071 774.224, 178 771.844 C 184.018 768.937, 189.751 763.845, 193.668 757.926 C 198.213 751.057, 195.161 751.537, 188.158 758.791 C 180.717 766.500, 175.414 769, 166.503 769 C 147.460 769, 136 755.447, 136 732.926 C 136 711.970, 143.423 698.259, 156.887 694.345 C 170.943 690.258, 184.624 697.326, 189.868 711.382 C 193.735 721.749, 194.686 718.019, 193.344 697.750 C 192.862 690.473, 192.351 688, 191.328 688 C 190.574 688, 189.456 689.100, 188.843 690.445 C 187.201 694.049, 185.759 694.172, 178.799 691.302 C 171.833 688.430, 160.296 687.383, 153.746 689.028 M 1302.746 698.028 C 1296.843 699.510, 1289.229 703.749, 1284.269 708.313 C 1262.172 728.648, 1267.144 768.554, 1293.278 780.626 C 1298.937 783.240, 1300.495 783.500, 1310.500 783.500 C 1320.359 783.500, 1322.071 783.224, 1327 780.844 C 1333.018 777.937, 1338.751 772.845, 1342.668 766.926 C 1347.213 760.057, 1344.161 760.537, 1337.158 767.791 C 1329.717 775.500, 1324.414 778, 1315.503 778 C 1296.460 778, 1285 764.447, 1285 741.926 C 1285 720.970, 1292.423 707.259, 1305.887 703.345 C 1319.943 699.258, 1333.624 706.326, 1338.868 720.382 C 1342.735 730.749, 1343.686 727.019, 1342.344 706.750 C 1341.862 699.473, 1341.351 697, 1340.328 697 C 1339.574 697, 1338.456 698.100, 1337.843 699.445 C 1336.201 703.049, 1334.759 703.172, 1327.799 700.302 C 1320.833 697.430, 1309.296 696.383, 1302.746 698.028 M 1024 700.500 C 1024 701.441, 1024.950 702, 1026.550 702 C 1029.534 702, 1034.560 704.374, 1037.750 707.291 C 1039.996 709.345, 1040 709.409, 1040 742.174 C 1040 773.667, 1039.919 775.081, 1038 777 C 1036.762 778.238, 1034.667 779, 1032.500 779 C 1030.056 779, 1029 779.452, 1029 780.500 C 1029 781.764, 1031.278 782, 1043.500 782 C 1055.722 782, 1058 781.764, 1058 780.500 C 1058 779.427, 1056.906 779, 1054.155 779 C 1051.517 779, 1049.712 778.339, 1048.405 776.896 C 1046.642 774.950, 1046.476 772.660, 1046.182 746.146 C 1045.905 721.157, 1046.049 717.692, 1047.309 719 C 1048.103 719.825, 1060.322 734.675, 1074.462 752 C 1088.602 769.325, 1100.793 783.643, 1101.552 783.817 C 1102.704 784.081, 1102.979 777.657, 1103.216 744.978 L 1103.500 705.822 1105.861 703.911 C 1107.159 702.860, 1109.747 702, 1111.611 702 C 1113.957 702, 1115 701.538, 1115 700.500 C 1115 699.233, 1112.667 699, 1100 699 C 1087.333 699, 1085 699.233, 1085 700.500 C 1085 701.551, 1086.061 702, 1088.545 702 C 1090.976 702, 1092.862 702.772, 1094.545 704.455 L 1097 706.909 1097 733.545 L 1097 760.181 1078.750 737.782 C 1068.713 725.462, 1057.575 711.723, 1054 707.250 L 1047.500 699.116 1035.750 699.058 C 1025.946 699.010, 1024 699.248, 1024 700.500 M 1129.199 701.486 C 1126.617 703.659, 1124 709.929, 1124 713.943 C 1124 716.217, 1126.822 714.845, 1127.472 712.256 C 1129.040 706.007, 1131.249 705.648, 1139.076 710.368 C 1147.951 715.720, 1151.293 716.516, 1155.691 714.330 C 1160.361 712.008, 1162.769 708.634, 1163.600 703.250 C 1164.128 699.827, 1163.960 699, 1162.736 699 C 1161.901 699, 1160.907 700.235, 1160.528 701.744 C 1158.902 708.224, 1156.527 708.439, 1146.618 703 C 1137.903 698.217, 1133.535 697.837, 1129.199 701.486 M 223 716.477 C 208.930 721.033, 200.618 739.750, 205.587 755.688 C 208.013 763.470, 216.281 772.005, 223.276 773.948 C 241.575 779.031, 258.160 764.695, 258.172 743.783 C 258.177 736.426, 255.492 729.067, 250.764 723.479 C 245.008 716.676, 232.289 713.469, 223 716.477 M 270.325 718.689 C 264.759 721.097, 262.314 722.655, 262.665 723.570 C 262.990 724.416, 264.165 724.735, 265.840 724.430 C 271.328 723.431, 271.500 724.098, 271.500 746.310 C 271.500 768.294, 271.213 769.601, 266.254 770.191 C 264.824 770.361, 263.470 771.063, 263.244 771.750 C 262.928 772.712, 266.214 773, 277.500 773 C 288.786 773, 292.072 772.712, 291.756 771.750 C 291.530 771.063, 290.030 770.348, 288.423 770.162 C 283.078 769.543, 283 769.235, 283 748.928 L 283 730.102 286.250 727.649 C 290.519 724.427, 296.438 722.836, 299.633 724.051 C 304.049 725.729, 305 730.207, 305 749.313 C 305 764.878, 304.809 766.863, 303.171 768.345 C 302.165 769.255, 300.140 770, 298.671 770 C 296.963 770, 296 770.541, 296 771.500 C 296 772.762, 298.222 773, 310 773 C 321.778 773, 324 772.762, 324 771.500 C 324 770.616, 323.077 769.994, 321.750 769.985 C 316.649 769.950, 316.536 769.508, 315.972 747.289 C 315.401 724.797, 314.862 722.396, 309.419 718.115 C 303.458 713.426, 295.191 714.721, 287.151 721.603 L 283 725.156 283 720.078 C 283 715.456, 282.798 715.007, 280.750 715.076 C 279.512 715.117, 274.821 716.743, 270.325 718.689 M 409.500 716.225 C 396.556 720.828, 389.112 736.071, 392.008 752.043 C 393.922 762.597, 398.298 768.833, 406.459 772.633 C 418.785 778.373, 432.280 772.308, 437.480 758.691 C 439.418 753.617, 438.859 749.076, 436.679 752.175 C 436.030 753.096, 434.739 755.225, 433.808 756.904 C 429.137 765.339, 416.390 766.496, 408.658 759.186 C 404.744 755.486, 402 749.792, 401.305 743.932 L 400.721 739 419.861 739 L 439 739 438.978 735.250 C 438.897 721.465, 423.219 711.346, 409.500 716.225 M 528 716.477 C 513.930 721.033, 505.618 739.750, 510.587 755.688 C 513.013 763.470, 521.281 772.005, 528.276 773.948 C 546.575 779.031, 563.160 764.695, 563.172 743.783 C 563.177 736.426, 560.492 729.067, 555.764 723.479 C 550.008 716.676, 537.289 713.469, 528 716.477 M 326 718.500 C 326 719.325, 326.614 720, 327.365 720 C 331.409 720, 334.056 724.518, 344.651 749.512 C 352.180 767.272, 355.928 775, 357.012 775 C 358.102 775, 361.662 767.513, 368.912 749.971 C 379.623 724.059, 381.811 720, 385.073 720 C 386.133 720, 387 719.325, 387 718.500 C 387 717.272, 385.278 717, 377.500 717 C 369.722 717, 368 717.272, 368 718.500 C 368 719.438, 368.948 720, 370.531 720 C 371.941 720, 373.338 720.717, 373.684 721.618 C 374.323 723.284, 361.296 757, 360.012 757 C 359.174 757, 346 725.760, 346 723.772 C 346 721.703, 348.121 720, 350.700 720 C 352.078 720, 353 719.399, 353 718.500 C 353 717.241, 350.833 717, 339.500 717 C 328.167 717, 326 717.241, 326 718.500 M 444 718.500 C 444 719.411, 444.929 720, 446.365 720 C 450.015 720, 452.942 722.905, 460.766 734.295 L 467.980 744.799 460.883 754.149 C 452.466 765.237, 448.085 770, 446.304 770 C 445.587 770, 445 770.675, 445 771.500 C 445 772.728, 446.722 773, 454.500 773 C 464.275 773, 466.086 772.131, 461.250 769.762 C 459.738 769.021, 458.551 767.714, 458.614 766.856 C 458.744 765.076, 469.839 750, 471.019 750 C 472.288 750, 483.017 767.163, 482.386 768.184 C 482.067 768.701, 480.724 769.534, 479.403 770.037 C 473.931 772.117, 477.237 773, 490.500 773 C 501.833 773, 504 772.759, 504 771.500 C 504 770.675, 503.125 770, 502.056 770 C 500.986 770, 498.985 768.987, 497.609 767.750 C 495.165 765.553, 478 741.575, 478 740.358 C 478 740.021, 480.273 736.678, 483.051 732.931 C 488.617 725.422, 494.272 720, 496.535 720 C 497.341 720, 498 719.325, 498 718.500 C 498 717.272, 496.278 717, 488.500 717 C 480.722 717, 479 717.272, 479 718.500 C 479 719.325, 479.689 720, 480.531 720 C 483.399 720, 483.218 722.985, 480.051 727.920 C 474.974 735.832, 474.700 735.873, 470.601 729.320 C 466.485 722.740, 466.182 721.027, 469 720.290 C 470.100 720.002, 471 719.144, 471 718.383 C 471 717.274, 468.327 717, 457.500 717 C 446.167 717, 444 717.241, 444 718.500 M 225 720.653 C 217.230 723.767, 213.843 738.252, 217.544 752.540 C 221.500 767.811, 232.726 774.427, 241.088 766.415 C 245.284 762.396, 246.278 758.224, 245.799 746.652 C 245.125 730.418, 239.843 721.161, 230.826 720.412 C 228.447 720.214, 225.825 720.323, 225 720.653 M 408.304 721.956 C 404.700 724.154, 402.454 727.203, 401.459 731.250 L 400.783 734 413.367 734 L 425.950 734 425.314 730.750 C 424.456 726.360, 422.271 723.192, 418.901 721.449 C 415.111 719.489, 412.116 719.632, 408.304 721.956 M 530 720.653 C 522.230 723.767, 518.843 738.252, 522.544 752.540 C 526.500 767.811, 537.726 774.427, 546.088 766.415 C 550.284 762.396, 551.278 758.224, 550.799 746.652 C 550.125 730.418, 544.843 721.161, 535.826 720.412 C 533.447 720.214, 530.825 720.323, 530 720.653 M 1137.500 724.430 C 1136.950 724.647, 1135.251 725.101, 1133.725 725.438 C 1126.676 726.994, 1120.211 736.789, 1122.907 741.827 C 1125.721 747.084, 1133 744.620, 1133 738.411 C 1133 734.769, 1134.458 731.062, 1136.400 729.765 C 1138.197 728.565, 1145.366 728.962, 1147.211 730.363 C 1149.498 732.101, 1151 736.290, 1151 740.929 C 1151 744.545, 1150.770 744.814, 1146.250 746.511 C 1139.852 748.911, 1130.278 753.738, 1126.711 756.360 C 1120.834 760.681, 1118.571 768.687, 1121.362 775.282 C 1125.278 784.534, 1135.829 785.903, 1146.138 778.496 L 1150.876 775.093 1151.986 778.458 C 1153.582 783.293, 1158.248 784.475, 1163.998 781.501 C 1167.038 779.929, 1172 774.134, 1172 772.156 C 1172 770.524, 1171.186 770.709, 1168.273 773 C 1165.209 775.410, 1163.422 775.542, 1162.607 773.418 C 1162.273 772.548, 1161.999 763.661, 1161.998 753.668 C 1161.997 732.704, 1161.217 729.827, 1154.667 726.628 C 1151.172 724.921, 1139.910 723.479, 1137.500 724.430 M 1195 725.477 C 1180.930 730.033, 1172.618 748.750, 1177.587 764.688 C 1180.013 772.470, 1188.281 781.005, 1195.276 782.948 C 1213.575 788.031, 1230.160 773.695, 1230.172 752.783 C 1230.177 745.426, 1227.492 738.067, 1222.764 732.479 C 1217.008 725.676, 1204.289 722.469, 1195 725.477 M 1372 725.477 C 1357.930 730.033, 1349.618 748.750, 1354.587 764.688 C 1357.013 772.470, 1365.281 781.005, 1372.276 782.948 C 1390.575 788.031, 1407.160 773.695, 1407.172 752.783 C 1407.177 745.426, 1404.492 738.067, 1399.764 732.479 C 1394.008 725.676, 1381.289 722.469, 1372 725.477 M 1420.325 727.689 C 1414.759 730.097, 1412.314 731.655, 1412.665 732.570 C 1412.990 733.416, 1414.165 733.735, 1415.840 733.430 C 1421.328 732.431, 1421.500 733.098, 1421.500 755.310 C 1421.500 777.294, 1421.213 778.601, 1416.254 779.191 C 1414.824 779.361, 1413.470 780.063, 1413.244 780.750 C 1412.928 781.712, 1416.214 782, 1427.500 782 C 1438.786 782, 1442.072 781.712, 1441.756 780.750 C 1441.530 780.063, 1440.030 779.348, 1438.423 779.162 C 1433.078 778.543, 1433 778.235, 1433 757.928 L 1433 739.102 1436.250 736.649 C 1440.519 733.427, 1446.438 731.836, 1449.633 733.051 C 1454.049 734.729, 1455 739.207, 1455 758.313 C 1455 773.878, 1454.809 775.863, 1453.171 777.345 C 1452.165 778.255, 1450.140 779, 1448.671 779 C 1446.963 779, 1446 779.541, 1446 780.500 C 1446 781.762, 1448.222 782, 1460 782 C 1471.778 782, 1474 781.762, 1474 780.500 C 1474 779.616, 1473.077 778.994, 1471.750 778.985 C 1466.649 778.950, 1466.536 778.508, 1465.972 756.289 C 1465.401 733.797, 1464.862 731.396, 1459.419 727.115 C 1453.458 722.426, 1445.191 723.721, 1437.151 730.603 L 1433 734.156 1433 729.078 C 1433 724.456, 1432.798 724.007, 1430.750 724.076 C 1429.513 724.117, 1424.821 725.743, 1420.325 727.689 M 1559.500 725.225 C 1546.556 729.828, 1539.112 745.071, 1542.008 761.043 C 1543.922 771.597, 1548.298 777.833, 1556.459 781.633 C 1568.785 787.373, 1582.280 781.308, 1587.480 767.691 C 1589.418 762.617, 1588.859 758.076, 1586.679 761.175 C 1586.030 762.096, 1584.739 764.225, 1583.808 765.904 C 1579.137 774.339, 1566.390 775.496, 1558.658 768.186 C 1554.744 764.486, 1552 758.792, 1551.305 752.932 L 1550.721 748 1569.861 748 L 1589 748 1588.978 744.250 C 1588.897 730.465, 1573.219 720.346, 1559.500 725.225 M 1678 725.477 C 1663.930 730.033, 1655.618 748.750, 1660.587 764.688 C 1663.013 772.470, 1671.281 781.005, 1678.276 782.948 C 1696.575 788.031, 1713.160 773.695, 1713.172 752.783 C 1713.177 745.426, 1710.492 738.067, 1705.764 732.479 C 1700.008 725.676, 1687.289 722.469, 1678 725.477 M 1475 727.500 C 1475 728.325, 1475.614 729, 1476.365 729 C 1480.409 729, 1483.056 733.518, 1493.651 758.512 C 1501.180 776.272, 1504.928 784, 1506.012 784 C 1507.102 784, 1510.662 776.513, 1517.912 758.971 C 1528.623 733.059, 1530.811 729, 1534.073 729 C 1535.133 729, 1536 728.325, 1536 727.500 C 1536 726.272, 1534.278 726, 1526.500 726 C 1518.722 726, 1517 726.272, 1517 727.500 C 1517 728.438, 1517.948 729, 1519.531 729 C 1520.941 729, 1522.338 729.717, 1522.684 730.618 C 1523.323 732.284, 1510.296 766, 1509.012 766 C 1508.174 766, 1495 734.760, 1495 732.772 C 1495 730.703, 1497.121 729, 1499.700 729 C 1501.078 729, 1502 728.399, 1502 727.500 C 1502 726.241, 1499.833 726, 1488.500 726 C 1477.167 726, 1475 726.241, 1475 727.500 M 1593 727.500 C 1593 728.411, 1593.929 729, 1595.365 729 C 1599.015 729, 1601.942 731.905, 1609.766 743.295 L 1616.980 753.799 1609.883 763.149 C 1601.466 774.237, 1597.085 779, 1595.304 779 C 1594.587 779, 1594 779.675, 1594 780.500 C 1594 781.728, 1595.722 782, 1603.500 782 C 1613.275 782, 1615.086 781.131, 1610.250 778.762 C 1608.737 778.021, 1607.551 776.714, 1607.614 775.856 C 1607.744 774.076, 1618.839 759, 1620.019 759 C 1621.288 759, 1632.017 776.163, 1631.386 777.184 C 1631.067 777.701, 1629.724 778.534, 1628.403 779.037 C 1622.931 781.117, 1626.237 782, 1639.500 782 C 1650.833 782, 1653 781.759, 1653 780.500 C 1653 779.675, 1652.125 779, 1651.056 779 C 1649.986 779, 1647.985 777.987, 1646.609 776.750 C 1644.165 774.553, 1627 750.575, 1627 749.358 C 1627 749.021, 1629.273 745.678, 1632.051 741.931 C 1637.617 734.422, 1643.272 729, 1645.535 729 C 1646.341 729, 1647 728.325, 1647 727.500 C 1647 726.272, 1645.278 726, 1637.500 726 C 1629.722 726, 1628 726.272, 1628 727.500 C 1628 728.325, 1628.689 729, 1629.531 729 C 1632.399 729, 1632.218 731.985, 1629.051 736.920 C 1623.974 744.832, 1623.700 744.873, 1619.601 738.320 C 1615.485 731.740, 1615.182 730.027, 1618 729.290 C 1619.100 729.002, 1620 728.144, 1620 727.383 C 1620 726.274, 1617.327 726, 1606.500 726 C 1595.167 726, 1593 726.241, 1593 727.500 M 1197 729.653 C 1189.230 732.767, 1185.843 747.252, 1189.544 761.540 C 1193.500 776.811, 1204.726 783.427, 1213.088 775.415 C 1217.284 771.396, 1218.278 767.224, 1217.799 755.652 C 1217.125 739.418, 1211.843 730.161, 1202.826 729.412 C 1200.447 729.214, 1197.825 729.323, 1197 729.653 M 1374 729.653 C 1366.230 732.767, 1362.843 747.252, 1366.544 761.540 C 1370.500 776.811, 1381.726 783.427, 1390.088 775.415 C 1394.284 771.396, 1395.278 767.224, 1394.799 755.652 C 1394.125 739.418, 1388.843 730.161, 1379.826 729.412 C 1377.447 729.214, 1374.825 729.323, 1374 729.653 M 1558.304 730.956 C 1554.700 733.154, 1552.454 736.203, 1551.459 740.250 L 1550.783 743 1563.367 743 L 1575.950 743 1575.314 739.750 C 1574.456 735.360, 1572.271 732.192, 1568.901 730.449 C 1565.111 728.489, 1562.116 728.632, 1558.304 730.956 M 1680 729.653 C 1672.230 732.767, 1668.843 747.252, 1672.544 761.540 C 1676.500 776.811, 1687.726 783.427, 1696.088 775.415 C 1700.284 771.396, 1701.278 767.224, 1700.799 755.652 C 1700.125 739.418, 1694.843 730.161, 1685.826 729.412 C 1683.447 729.214, 1680.825 729.323, 1680 729.653 M 1144.020 752.127 C 1133.591 756.751, 1129.806 762.070, 1131.921 769.129 C 1132.853 772.240, 1133.897 773.477, 1136.516 774.571 C 1140.271 776.140, 1143.096 775.492, 1148.131 771.907 C 1150.960 769.892, 1151 769.726, 1151 759.932 C 1151 748.841, 1151.123 748.979, 1144.020 752.127" stroke="none" fill="#9c1c44" fill-rule="evenodd"/><path d="M 334.945 25.152 C 317.574 37.723, 24.234 253.473, 23.232 254.416 C 22.217 255.369, 34.295 293.311, 83.597 444.054 C 117.495 547.699, 145.627 632.751, 146.113 633.058 C 147.573 633.980, 535.158 636.248, 535.984 635.340 C 536.404 634.878, 541.256 621, 546.766 604.500 C 552.276 588, 572.395 528.375, 591.474 472 C 610.553 415.625, 634.641 344.423, 645.003 313.773 L 663.844 258.047 656.672 252.845 C 646.769 245.662, 416.146 77.223, 375.190 47.260 C 356.869 33.857, 341.319 22.676, 340.635 22.413 C 339.950 22.150, 337.389 23.383, 334.945 25.152 M 959.551 200.750 C 959.944 289.712, 960.542 423.025, 960.882 497 L 961.500 631.500 1104.500 632.252 C 1183.150 632.666, 1363.150 633.621, 1504.500 634.375 C 1645.850 635.129, 1761.812 635.465, 1762.193 635.123 C 1762.573 634.780, 1762.573 506.925, 1762.193 351 L 1761.500 67.500 1730.228 129.395 C 1713.029 163.437, 1699.115 191.449, 1699.309 191.643 C 1699.504 191.837, 1701.504 191.209, 1703.755 190.248 C 1707.464 188.664, 1707.911 188.080, 1708.519 184.023 C 1709.480 177.614, 1715.722 171.464, 1722.261 170.484 C 1726.136 169.903, 1727.825 170.198, 1731.737 172.138 C 1738.008 175.250, 1741 179.806, 1741 186.247 C 1741 199.137, 1730.015 206.333, 1717.584 201.585 L 1713.204 199.913 1701.631 205.069 C 1695.265 207.906, 1689.651 210.738, 1689.154 211.363 C 1688.657 211.988, 1662.714 263.125, 1631.502 325 C 1600.290 386.875, 1573.684 438.615, 1572.377 439.977 C 1569.325 443.158, 1563.323 443.349, 1559.303 440.393 C 1557.761 439.259, 1522.343 415.460, 1480.596 387.505 C 1410.387 340.491, 1404.498 336.754, 1402.096 337.699 C 1395.269 340.384, 1050.355 493.370, 1049.371 494.150 C 1048.749 494.642, 1047.980 496.352, 1047.660 497.950 C 1046.855 501.975, 1040.813 507.704, 1036.007 508.998 C 1030.938 510.363, 1025.311 508.974, 1020.909 505.270 C 1010.188 496.249, 1014.802 478.004, 1028.453 475.443 C 1032.813 474.625, 1038.916 476.412, 1042.195 479.468 L 1044.890 481.979 1146.695 436.905 C 1202.688 412.114, 1280.575 377.620, 1319.778 360.251 C 1358.981 342.881, 1390.931 328.321, 1390.778 327.893 C 1390.379 326.779, 960.692 39, 959.427 39 C 959.103 39, 959.159 111.787, 959.551 200.750 M 150.175 212.729 C 138.958 238.909, 136.833 242.969, 133.950 243.723 C 129.433 244.905, 132.584 246, 140.500 246 C 148.940 246, 151.749 244.800, 146 243.650 C 142.300 242.910, 142.165 241.095, 145.250 233.525 L 147.500 228.003 158.306 228.001 L 169.112 228 171.063 232.410 C 172.136 234.836, 173.280 238.151, 173.606 239.778 C 174.131 242.405, 173.851 242.856, 171.099 243.816 C 169.394 244.410, 168 245.144, 168 245.448 C 168 245.752, 172.950 246, 179 246 C 185.667 246, 190 245.606, 190 245 C 190 244.450, 189.375 244, 188.611 244 C 185.143 244, 182.426 239.203, 172.501 215.566 C 166.743 201.853, 161.656 190.256, 161.196 189.796 C 160.735 189.335, 155.776 199.655, 150.175 212.729 M 154.160 212.745 C 151.870 218.110, 149.997 222.838, 149.998 223.250 C 149.999 223.662, 153.825 224, 158.500 224 C 163.175 224, 167 223.618, 167 223.151 C 167 222.132, 159.556 204.223, 158.831 203.498 C 158.552 203.219, 156.450 207.380, 154.160 212.745 M 1699.500 226.213 C 1705.145 228.199, 1705 227.509, 1705 252.422 C 1705 276.893, 1704.799 278, 1700.359 278 C 1699.126 278, 1697.814 278.492, 1697.442 279.094 C 1696.959 279.876, 1702.291 280.090, 1716.133 279.844 C 1733.501 279.535, 1735.861 279.288, 1738.997 277.446 C 1749.618 271.206, 1749.548 258.392, 1738.865 253.215 C 1736.464 252.052, 1735.203 251.077, 1736.063 251.050 C 1738.312 250.978, 1742.910 245.849, 1743.796 242.425 C 1744.212 240.816, 1744.397 238.254, 1744.208 236.732 C 1743.756 233.099, 1738.028 227.625, 1733.148 226.162 C 1727.977 224.613, 1695.092 224.663, 1699.500 226.213 M 1713.471 229.216 C 1713.168 230.005, 1713.051 234.891, 1713.210 240.075 L 1713.500 249.500 1720 249.771 C 1724.666 249.965, 1727.487 249.542, 1729.999 248.271 C 1736.779 244.839, 1737.689 236.951, 1731.940 231.442 C 1729.251 228.866, 1728.055 228.491, 1721.462 228.158 C 1715.668 227.866, 1713.899 228.100, 1713.471 229.216 M 101 253.722 C 94.030 256.341, 89.562 263.708, 90.210 271.516 C 90.730 277.785, 93.671 282.281, 99.044 285.023 C 103.916 287.508, 108.301 287.500, 113.816 284.997 L 118.133 283.038 306.816 403.111 L 495.500 523.184 495.570 527.932 C 495.659 533.997, 498.917 539.407, 504.061 542.031 C 515.274 547.752, 528.167 539.980, 528.167 527.500 C 528.167 516.466, 518.145 508.942, 507.310 511.840 L 503.042 512.981 313.643 392.456 L 124.244 271.930 123.578 267.715 C 122.697 262.135, 118.997 256.701, 114.688 254.656 C 111.316 253.056, 104.085 252.562, 101 253.722 M 1713.667 253.667 C 1713.300 254.033, 1713 259.156, 1713 265.050 C 1713 277.219, 1712.798 276.959, 1722.282 276.986 C 1731.827 277.014, 1737 272.871, 1737 265.201 C 1737 257.673, 1730.100 253.019, 1718.917 253.006 C 1716.396 253.003, 1714.033 253.300, 1713.667 253.667 M 1023.175 418.729 C 1011.958 444.909, 1009.833 448.969, 1006.950 449.723 C 1002.433 450.905, 1005.584 452, 1013.500 452 C 1021.940 452, 1024.749 450.800, 1019 449.650 C 1015.300 448.910, 1015.165 447.095, 1018.250 439.525 L 1020.500 434.003 1031.306 434.001 L 1042.112 434 1044.063 438.410 C 1045.136 440.836, 1046.280 444.151, 1046.606 445.778 C 1047.131 448.405, 1046.851 448.856, 1044.099 449.816 C 1042.394 450.410, 1041 451.144, 1041 451.448 C 1041 451.752, 1045.950 452, 1052 452 C 1058.667 452, 1063 451.606, 1063 451 C 1063 450.450, 1062.375 450, 1061.611 450 C 1058.143 450, 1055.426 445.203, 1045.501 421.566 C 1039.743 407.853, 1034.656 396.256, 1034.196 395.796 C 1033.735 395.335, 1028.776 405.655, 1023.175 418.729 M 1027.160 418.745 C 1024.870 424.110, 1022.997 428.837, 1022.998 429.250 C 1022.999 429.663, 1026.825 430, 1031.500 430 C 1036.175 430, 1040 429.618, 1040 429.151 C 1040 428.132, 1032.556 410.223, 1031.831 409.498 C 1031.552 409.219, 1029.450 413.380, 1027.160 418.745 M 491.500 431.213 C 497.145 433.199, 497 432.509, 497 457.422 C 497 481.893, 496.799 483, 492.359 483 C 491.126 483, 489.814 483.492, 489.442 484.094 C 488.959 484.876, 494.291 485.090, 508.133 484.844 C 525.501 484.535, 527.861 484.288, 530.997 482.446 C 541.618 476.206, 541.548 463.392, 530.865 458.215 C 528.464 457.052, 527.203 456.077, 528.063 456.050 C 530.312 455.978, 534.910 450.849, 535.796 447.425 C 536.212 445.816, 536.397 443.254, 536.208 441.732 C 535.756 438.099, 530.028 432.625, 525.148 431.162 C 519.977 429.613, 487.092 429.663, 491.500 431.213 M 505.471 434.216 C 505.168 435.005, 505.051 439.891, 505.210 445.075 L 505.500 454.500 512 454.771 C 516.666 454.965, 519.487 454.542, 521.999 453.271 C 528.779 449.839, 529.689 441.951, 523.940 436.442 C 521.251 433.866, 520.055 433.491, 513.462 433.158 C 507.668 432.866, 505.899 433.100, 505.471 434.216 M 505.667 458.667 C 505.300 459.033, 505 464.156, 505 470.050 C 505 482.219, 504.798 481.959, 514.282 481.986 C 523.827 482.014, 529 477.871, 529 470.201 C 529 462.673, 522.100 458.019, 510.917 458.006 C 508.396 458.003, 506.033 458.300, 505.667 458.667" stroke="none" fill="#ebabbb" fill-rule="evenodd"/></svg>