<svg xmlns="http://www.w3.org/2000/svg" width="1880" height="1061" viewBox="0 0 1880 1061" version="1.1"><path d="M 1104 1.854 C 1104 3.371, 1105.008 3.876, 1109.128 4.423 C 1112.889 4.922, 1115.030 5.876, 1117.157 8.003 L 1120.057 10.903 1119.778 58.424 L 1119.500 105.946 1117.250 108.195 C 1115.703 109.742, 1113.363 110.609, 1109.760 110.972 C 1105.824 111.369, 1104.438 111.935, 1104.187 113.250 C 1103.876 114.879, 1105.590 115, 1129 115 C 1152.410 115, 1154.124 114.879, 1153.813 113.250 C 1153.566 111.955, 1152.182 111.360, 1148.490 110.962 C 1141.571 110.216, 1139.258 108.671, 1137.986 103.947 C 1137.264 101.266, 1137.003 85.194, 1137.202 55.669 C 1137.472 15.600, 1137.665 11.157, 1139.241 8.754 C 1141.028 6.028, 1146.148 4.016, 1151.323 4.006 C 1153.472 4.001, 1154.066 3.582, 1153.810 2.250 C 1153.502 0.648, 1151.377 0.477, 1128.737 0.233 C 1105.058 -0.023, 1104 0.046, 1104 1.854 M 1162 1.854 C 1162 3.371, 1163.008 3.876, 1167.128 4.423 C 1170.889 4.922, 1173.030 5.876, 1175.157 8.003 L 1178.057 10.903 1177.778 58.424 L 1177.500 105.946 1175.250 108.195 C 1173.703 109.742, 1171.363 110.609, 1167.760 110.972 C 1163.824 111.369, 1162.438 111.935, 1162.187 113.250 C 1161.876 114.879, 1163.590 115, 1187 115 C 1210.410 115, 1212.124 114.879, 1211.813 113.250 C 1211.566 111.955, 1210.182 111.360, 1206.490 110.962 C 1199.571 110.216, 1197.258 108.671, 1195.986 103.947 C 1195.264 101.266, 1195.003 85.194, 1195.202 55.669 C 1195.472 15.600, 1195.665 11.157, 1197.241 8.754 C 1199.028 6.028, 1204.148 4.016, 1209.323 4.006 C 1211.472 4.001, 1212.066 3.582, 1211.810 2.250 C 1211.502 0.648, 1209.377 0.477, 1186.737 0.233 C 1163.058 -0.023, 1162 0.046, 1162 1.854 M 710.173 3.750 C 708.372 5.288, 688.480 38.031, 588.603 203.857 L 565.500 242.215 539.500 241.615 C 525.200 241.285, 398.975 240.730, 259 240.381 L 4.500 239.748 2.500 241.980 C 0.509 244.203, 0.501 245.523, 0.643 531.112 C 0.722 688.906, 1.063 819.114, 1.401 820.462 C 1.866 822.313, 2.912 823.080, 5.680 823.600 C 7.695 823.978, 135.002 823.953, 288.584 823.545 L 567.824 822.804 576.271 837.152 C 580.917 845.043, 598.354 875.125, 615.021 904 C 631.687 932.875, 650.016 964.600, 655.753 974.500 C 661.490 984.400, 674.804 1007.476, 685.342 1025.779 C 699.820 1050.929, 705.050 1059.200, 706.750 1059.638 C 712.548 1061.130, 712.110 1061.749, 749.786 998.764 C 769.612 965.619, 802.055 911.395, 821.880 878.267 L 857.927 818.034 857.453 781.767 C 857.193 761.820, 856.303 643.350, 855.475 518.500 C 854.647 393.650, 853.864 280.700, 853.735 267.500 L 853.500 243.500 841.871 223 C 835.475 211.725, 816.983 178.875, 800.777 150 C 784.571 121.125, 759.481 76.428, 745.021 50.674 C 719.242 4.760, 717.429 2, 713.046 2 C 712.592 2, 711.300 2.788, 710.173 3.750 M 30 17.854 C 30 19.371, 31.008 19.876, 35.128 20.423 C 38.889 20.922, 41.030 21.876, 43.157 24.003 L 46.057 26.903 45.778 74.424 L 45.500 121.946 43.250 124.195 C 41.703 125.742, 39.363 126.609, 35.760 126.972 C 31.824 127.369, 30.438 127.935, 30.187 129.250 C 29.876 130.879, 31.590 131, 55 131 C 78.410 131, 80.124 130.879, 79.813 129.250 C 79.566 127.955, 78.182 127.360, 74.490 126.962 C 67.571 126.216, 65.258 124.671, 63.986 119.947 C 63.264 117.266, 63.003 101.194, 63.202 71.669 C 63.472 31.600, 63.665 27.157, 65.241 24.754 C 67.028 22.028, 72.148 20.016, 77.323 20.006 C 79.472 20.001, 80.066 19.582, 79.810 18.250 C 79.502 16.648, 77.377 16.477, 54.737 16.233 C 31.058 15.977, 30 16.046, 30 17.854 M 700.805 37.750 C 693.944 49.163, 672.440 84.825, 653.017 117 C 633.595 149.175, 608.766 190.350, 597.841 208.500 L 577.979 241.500 606.239 242.234 C 621.783 242.638, 680.935 242.863, 737.689 242.734 L 840.879 242.500 777.689 129.783 C 742.935 67.788, 714.225 17.050, 713.890 17.033 C 713.554 17.015, 707.666 26.337, 700.805 37.750 M 1090.777 156.590 C 1089.525 159.337, 1090.524 165.145, 1100.046 210.500 C 1102.240 220.950, 1105.574 236.925, 1107.455 246 C 1116.852 291.337, 1141.048 407.813, 1145.035 426.909 C 1146.116 432.084, 1147 437.372, 1147 438.659 C 1147 439.947, 1147.811 441.787, 1148.803 442.750 C 1149.794 443.712, 1199.670 484.442, 1259.639 533.260 L 1368.673 622.019 1369.335 678.260 C 1369.700 709.192, 1369.998 765.591, 1369.999 803.592 C 1370 841.592, 1370.295 878.840, 1370.656 886.364 C 1371.250 898.754, 1371.529 900.279, 1373.608 902.522 L 1375.905 905 1516.381 905 C 1635.794 905, 1657.068 904.789, 1658.264 903.593 C 1660.165 901.693, 1661 845.042, 1661 718.071 L 1661 621.471 1678.750 606.944 C 1827.702 485.037, 1878.270 443.364, 1879.078 441.855 C 1880.419 439.349, 1879.181 435.153, 1876.627 433.549 C 1875.457 432.814, 1861 423.901, 1844.500 413.743 C 1800.397 386.590, 1554.857 235.151, 1538.350 224.923 C 1520.524 213.877, 1518.803 213, 1514.947 213 C 1513.214 213, 1419.029 199.725, 1305.648 183.499 C 1192.266 167.274, 1097.803 153.999, 1095.729 153.999 C 1092.642 154, 1091.743 154.470, 1090.777 156.590 M 1101.405 166.750 C 1101.702 167.713, 1114.120 227.225, 1129.001 299 C 1143.883 370.775, 1156.249 430.043, 1156.481 430.708 C 1156.746 431.462, 1162.647 428.417, 1172.202 422.596 C 1188.726 412.529, 1265.842 365.738, 1411 277.703 C 1489.831 229.894, 1501.866 222.532, 1501.613 222.280 C 1501.307 221.974, 1104.013 165.001, 1102.183 165 C 1101.389 165, 1101.080 165.696, 1101.405 166.750 M 1525 229.384 C 1525 229.909, 1550.364 302.337, 1641.652 562.486 C 1650.720 588.329, 1658.266 609.599, 1658.421 609.754 C 1658.576 609.909, 1689.257 585.005, 1726.601 554.412 C 1763.946 523.818, 1810.566 485.673, 1830.201 469.644 C 1849.837 453.615, 1865.925 440.212, 1865.951 439.861 C 1866.008 439.119, 1865.717 438.937, 1773 381.770 C 1616.261 285.129, 1580.378 263.011, 1555.500 247.701 C 1541.200 238.901, 1528.487 231.042, 1527.250 230.236 C 1526.013 229.430, 1525 229.046, 1525 229.384 M 1486.500 243.359 C 1474.400 250.699, 1432.775 275.964, 1394 299.504 C 1355.225 323.045, 1321.475 343.518, 1319 345 C 1316.525 346.482, 1282.775 366.958, 1244 390.502 C 1205.225 414.047, 1170.879 434.857, 1167.675 436.747 C 1164.471 438.637, 1161.996 440.314, 1162.175 440.472 C 1167.387 445.105, 1369.692 609.328, 1370.631 609.689 C 1371.384 609.978, 1372 610.001, 1372 609.740 C 1372 609.246, 1389.167 561.594, 1439.992 421 C 1508.997 230.122, 1509.043 229.994, 1508.696 230.008 C 1508.588 230.012, 1498.600 236.020, 1486.500 243.359 M 1506.871 264.763 C 1501.575 279.468, 1471.025 364.075, 1438.981 452.777 C 1406.938 541.479, 1380.961 614.294, 1381.255 614.588 C 1381.548 614.882, 1429.874 614.645, 1488.644 614.063 C 1547.415 613.480, 1607.313 613.002, 1621.750 613.002 C 1643.263 613, 1648 612.754, 1648 611.635 C 1648 610.884, 1640.664 589.397, 1631.698 563.885 C 1622.731 538.373, 1593.369 454.620, 1566.448 377.768 C 1539.526 300.915, 1517.275 238.033, 1517 238.030 C 1516.725 238.028, 1512.167 250.057, 1506.871 264.763 M 10.551 530.750 C 10.889 685.163, 11.368 812.136, 11.615 812.914 C 12 814.128, 31.046 814.230, 146.226 813.637 C 220.015 813.256, 280.472 812.845, 280.575 812.723 C 280.678 812.600, 281.090 686.237, 281.491 531.915 L 282.220 251.330 217.445 250.665 C 181.819 250.299, 120.555 250, 81.304 250 L 9.937 250 10.551 530.750 M 291.669 252.420 C 291.301 253.379, 291 379.902, 291 533.582 L 291 813 429.941 813 C 506.359 813, 569.044 812.663, 569.242 812.250 C 569.975 810.725, 566.004 253.604, 565.255 252.855 C 564.828 252.428, 503.247 251.763, 428.408 251.377 C 299.557 250.713, 292.303 250.769, 291.669 252.420 M 575.995 291.099 C 575.986 360.077, 579.044 810.445, 579.531 811.829 C 579.917 812.928, 603.035 813.101, 712.916 812.829 C 786.021 812.648, 846.181 812.153, 846.605 811.728 C 847.383 810.950, 843.712 254.378, 842.923 253.591 C 842.691 253.358, 782.538 252.838, 709.250 252.433 L 576 251.699 575.995 291.099 M 1500.333 623.412 C 1434.241 624.010, 1379.970 624.725, 1379.729 625 C 1379.401 625.376, 1380.166 792.079, 1380.929 886.250 L 1381 895 1515.031 895 C 1621.352 895, 1649.155 894.742, 1649.508 893.750 C 1649.753 893.063, 1650.076 831.750, 1650.227 757.500 L 1650.500 622.500 1635.500 622.412 C 1627.250 622.363, 1566.425 622.813, 1500.333 623.412 M 580.746 822.588 C 580.423 822.911, 583.209 828.423, 586.937 834.838 C 590.665 841.252, 603.853 864.050, 616.243 885.500 C 689.851 1012.932, 708.194 1044.575, 708.831 1045.221 C 709.222 1045.618, 714.985 1036.843, 721.637 1025.721 C 728.289 1014.600, 758.317 964.403, 788.366 914.174 C 818.415 863.945, 843 822.658, 843 822.424 C 843 821.763, 581.408 821.926, 580.746 822.588" stroke="none" fill="#9e1c44" fill-rule="evenodd"/><path d="M 700.805 37.750 C 693.944 49.163, 672.440 84.825, 653.017 117 C 633.595 149.175, 608.766 190.350, 597.841 208.500 L 577.979 241.500 606.239 242.234 C 621.783 242.638, 680.935 242.863, 737.689 242.734 L 840.879 242.500 777.689 129.783 C 742.935 67.788, 714.225 17.050, 713.890 17.033 C 713.554 17.015, 707.666 26.337, 700.805 37.750 M 1101.405 166.750 C 1101.702 167.713, 1114.120 227.225, 1129.001 299 C 1143.883 370.775, 1156.249 430.043, 1156.481 430.708 C 1156.746 431.462, 1162.647 428.417, 1172.202 422.596 C 1188.726 412.529, 1265.842 365.738, 1411 277.703 C 1489.831 229.894, 1501.866 222.532, 1501.613 222.280 C 1501.307 221.974, 1104.013 165.001, 1102.183 165 C 1101.389 165, 1101.080 165.696, 1101.405 166.750 M 1525 229.384 C 1525 229.909, 1550.364 302.337, 1641.652 562.486 C 1650.720 588.329, 1658.266 609.599, 1658.421 609.754 C 1658.576 609.909, 1689.257 585.005, 1726.601 554.412 C 1763.946 523.818, 1810.566 485.673, 1830.201 469.644 C 1849.837 453.615, 1865.925 440.212, 1865.951 439.861 C 1866.008 439.119, 1865.717 438.937, 1773 381.770 C 1616.261 285.129, 1580.378 263.011, 1555.500 247.701 C 1541.200 238.901, 1528.487 231.042, 1527.250 230.236 C 1526.013 229.430, 1525 229.046, 1525 229.384 M 1486.500 243.359 C 1474.400 250.699, 1432.775 275.964, 1394 299.504 C 1355.225 323.045, 1321.475 343.518, 1319 345 C 1316.525 346.482, 1282.775 366.958, 1244 390.502 C 1205.225 414.047, 1170.879 434.857, 1167.675 436.747 C 1164.471 438.637, 1161.996 440.314, 1162.175 440.472 C 1167.387 445.105, 1369.692 609.328, 1370.631 609.689 C 1371.384 609.978, 1372 610.001, 1372 609.740 C 1372 609.246, 1389.167 561.594, 1439.992 421 C 1508.997 230.122, 1509.043 229.994, 1508.696 230.008 C 1508.588 230.012, 1498.600 236.020, 1486.500 243.359 M 1506.871 264.763 C 1501.575 279.468, 1471.025 364.075, 1438.981 452.777 C 1406.938 541.479, 1380.961 614.294, 1381.255 614.588 C 1381.548 614.882, 1429.874 614.645, 1488.644 614.063 C 1547.415 613.480, 1607.313 613.002, 1621.750 613.002 C 1643.263 613, 1648 612.754, 1648 611.635 C 1648 610.884, 1640.664 589.397, 1631.698 563.885 C 1622.731 538.373, 1593.369 454.620, 1566.448 377.768 C 1539.526 300.915, 1517.275 238.033, 1517 238.030 C 1516.725 238.028, 1512.167 250.057, 1506.871 264.763 M 10.551 530.750 C 10.889 685.163, 11.368 812.136, 11.615 812.914 C 12 814.128, 31.046 814.230, 146.226 813.637 C 220.015 813.256, 280.472 812.845, 280.575 812.723 C 280.678 812.600, 281.090 686.237, 281.491 531.915 L 282.220 251.330 217.445 250.665 C 181.819 250.299, 120.555 250, 81.304 250 L 9.937 250 10.551 530.750 M 291.669 252.420 C 291.301 253.379, 291 379.902, 291 533.582 L 291 813 429.941 813 C 506.359 813, 569.044 812.663, 569.242 812.250 C 569.975 810.725, 566.004 253.604, 565.255 252.855 C 564.828 252.428, 503.247 251.763, 428.408 251.377 C 299.557 250.713, 292.303 250.769, 291.669 252.420 M 575.995 291.099 C 575.986 360.077, 579.044 810.445, 579.531 811.829 C 579.917 812.928, 603.035 813.101, 712.916 812.829 C 786.021 812.648, 846.181 812.153, 846.605 811.728 C 847.383 810.950, 843.712 254.378, 842.923 253.591 C 842.691 253.358, 782.538 252.838, 709.250 252.433 L 576 251.699 575.995 291.099 M 1500.333 623.412 C 1434.241 624.010, 1379.970 624.725, 1379.729 625 C 1379.401 625.376, 1380.166 792.079, 1380.929 886.250 L 1381 895 1515.031 895 C 1621.352 895, 1649.155 894.742, 1649.508 893.750 C 1649.753 893.063, 1650.076 831.750, 1650.227 757.500 L 1650.500 622.500 1635.500 622.412 C 1627.250 622.363, 1566.425 622.813, 1500.333 623.412 M 580.746 822.588 C 580.423 822.911, 583.209 828.423, 586.937 834.838 C 590.665 841.252, 603.853 864.050, 616.243 885.500 C 689.851 1012.932, 708.194 1044.575, 708.831 1045.221 C 709.222 1045.618, 714.985 1036.843, 721.637 1025.721 C 728.289 1014.600, 758.317 964.403, 788.366 914.174 C 818.415 863.945, 843 822.658, 843 822.424 C 843 821.763, 581.408 821.926, 580.746 822.588" stroke="none" fill="#eb8aa3" fill-rule="evenodd"/></svg>