<svg xmlns="http://www.w3.org/2000/svg" width="1581" height="1692" viewBox="0 0 1581 1692" version="1.1"><path d="M 5.947 2.215 C 4.883 2.609, 3.111 4.409, 2.010 6.215 C 0.011 9.494, 0.007 10.904, 0.004 845.349 C 0 1603.003, 0.147 1681.507, 1.571 1684.508 C 2.435 1686.329, 4.057 1688.647, 5.176 1689.659 C 7.148 1691.444, 31.033 1691.499, 786.355 1691.469 C 1214.885 1691.452, 1567.075 1691.183, 1569 1690.872 C 1575.408 1689.836, 1576.975 1688.900, 1579.497 1684.596 L 1582 1680.324 1582 844.103 C 1582 330.127, 1581.642 8.103, 1581.072 8.456 C 1580.562 8.771, 1579.875 8.182, 1579.546 7.146 C 1579.218 6.111, 1578.136 4.528, 1577.142 3.628 C 1575.472 2.117, 1515.532 1.974, 791.607 1.746 C 360.558 1.611, 7.010 1.822, 5.947 2.215 M 0.498 845.500 C 0.498 1305.850, 0.611 1494.325, 0.750 1264.332 C 0.889 1034.340, 0.889 657.690, 0.750 427.332 C 0.611 196.975, 0.498 385.150, 0.498 845.500 M 20 572 L 20 1122 266.500 1122 L 513 1122 513 572 L 513 22 266.500 22 L 20 22 20 572 M 527 293.499 L 527 564.998 1044 564.998 L 1561 564.998 1561 293.499 L 1561 22 1044 22 L 527 22 527 293.499 M 1074 1125.500 L 1074 1672 1317.500 1672 L 1561 1672 1561 1125.500 L 1561 579 1317.500 579 L 1074 579 1074 1125.500 M 20 1404 L 20 1672 540.500 1672 L 1061 1672 1061 1404 L 1061 1136 540.500 1136 L 20 1136 20 1404" stroke="none" fill="#946b54" fill-rule="evenodd"/><path d="M 20 572 L 20 1122 266.500 1122 L 513 1122 513 572 L 513 22 266.500 22 L 20 22 20 572 M 527 293.499 L 527 564.998 1044 564.998 L 1561 564.998 1561 293.499 L 1561 22 1044 22 L 527 22 527 293.499 M 1074 1125.500 L 1074 1672 1317.500 1672 L 1561 1672 1561 1125.500 L 1561 579 1317.500 579 L 1074 579 1074 1125.500 M 20 1404 L 20 1672 540.500 1672 L 1061 1672 1061 1404 L 1061 1136 540.500 1136 L 20 1136 20 1404" stroke="none" fill="#c39b7b" fill-rule="evenodd"/></svg>