<?xml version="1.0" encoding="UTF-8" standalone="no"?>
<svg
   width="2285"
   height="402"
   viewBox="0 0 2285 402"
   version="1.1"
   id="svg6"
   sodipodi:docname="modulo_1-atividade_2.svg"
   inkscape:version="1.1.2 (0a00cf5339, 2022-02-04)"
   xmlns:inkscape="http://www.inkscape.org/namespaces/inkscape"
   xmlns:sodipodi="http://sodipodi.sourceforge.net/DTD/sodipodi-0.dtd"
   xmlns="http://www.w3.org/2000/svg"
   xmlns:svg="http://www.w3.org/2000/svg">
  <defs
     id="defs10" />
  <sodipodi:namedview
     id="namedview8"
     pagecolor="#ffffff"
     bordercolor="#666666"
     borderopacity="1.0"
     inkscape:pageshadow="2"
     inkscape:pageopacity="0.0"
     inkscape:pagecheckerboard="0"
     showgrid="false"
     inkscape:zoom="0.10351301"
     inkscape:cx="3018.9443"
     inkscape:cy="1676.1179"
     inkscape:window-width="1850"
     inkscape:window-height="1016"
     inkscape:window-x="1150"
     inkscape:window-y="540"
     inkscape:window-maximized="1"
     inkscape:current-layer="svg6" />
  <path
     d="m 2230.693,50.017941 c -0.352,0.295451 0.03,1.523417 0.85,2.727882 0.82,1.205304 2.581,4.929492 3.914,8.275973 l 2.424,6.085274 H 1123.006 c -703.464,0 -1115.8,0.294611 -1117.38,0.79906 -5.166,1.648479 -5.785,6.499073 -1.06,8.306189 1.903,0.727715 278.52,0.966929 1118.088,0.966929 892.027,0 1115.468,0.209837 1115.099,1.049186 -0.253,0.577471 -1.484,3.693132 -2.736,6.924622 -1.252,3.231491 -2.912,6.48984 -3.689,7.240218 -1.226,1.183481 -1.203,1.433606 0.172,1.876782 0.932,0.299647 5.18,-1.165854 10.293,-3.552121 7.276,-3.394324 29.044,-13.060258 39.457,-17.519715 1.512,-0.647977 2.75,-1.325331 2.75,-1.504951 0,-0.316435 -51.552,-22.212511 -52.297,-22.212511 -0.203,0 -0.658,0.241732 -1.01,0.537183 M 17.241,155.44847 l 0.259,44.69529 5.405,0.25852 c 3.648,0.17374 5.675,-0.099 6.235,-0.83935 0.456,-0.60433 0.836,-20.83262 0.845,-44.95381 L 30,110.75318 h -6.509 -6.509 l 0.259,44.69529 M 49,155.6583 v 44.90513 H 55.5 62 V 155.6583 110.75318 H 55.5 49 v 44.90512 m 34,0 v 44.90513 H 89.5 96 V 155.6583 110.75318 H 89.5 83 v 44.90512 m 33,0 v 44.90513 h 6.5 6.5 V 155.6583 110.75318 h -6.5 -6.5 v 44.90512 m 33.71,-44.38221 c -0.39,0.32818 -0.71,44.72467 -0.71,98.66034 V 308 h 6.504 6.504 l -0.254,-98.41358 -0.254,-98.41357 -5.54,-0.24677 c -3.047,-0.13513 -5.859,0.0218 -6.25,0.35001 M 182,155.6583 v 44.90513 h 6.5 6.5 V 155.6583 110.75318 h -6.5 -6.5 v 44.90512 m 33,0 v 44.90513 h 6.5 6.5 V 155.6583 110.75318 h -6.5 -6.5 v 44.90512 m 34,0 v 44.90513 h 6.5 6.5 V 155.6583 110.75318 h -6.5 -6.5 v 44.90512 m 32.241,-0.20983 0.259,44.69529 h 6 6 l 0.259,-44.69529 0.259,-44.69529 h -6.518 -6.518 l 0.259,44.69529 m 33.469,-44.17238 c -0.39,0.32818 -0.71,32.4492 -0.71,71.38153 v 70.78475 h 6.506 6.505 l -0.255,-71.13476 -0.256,-71.13476 -5.54,-0.24677 c -3.047,-0.13513 -5.859,0.0218 -6.25,0.35001 m 32.531,44.17238 0.259,44.69529 h 6 6 l 0.259,-44.69529 0.259,-44.69529 h -6.518 -6.518 l 0.259,44.69529 M 379,155.6583 v 44.90513 h 6.5 6.5 V 155.6583 110.75318 h -6.5 -6.5 v 44.90512 m 34,0 v 44.90513 h 6.5 6.5 V 155.6583 110.75318 h -6.5 -6.5 v 44.90512 m 33,0 v 44.90513 h 6.5 6.5 V 155.6583 110.75318 h -6.5 -6.5 v 44.90512 m 33,53.71829 V 308 h 6.5 6.5 v -98.62341 -98.62341 h -6.5 -6.5 v 98.62341 m 31,-53.71829 v 44.90513 h 6.5 6.5 V 155.6583 110.75318 h -6.5 -6.5 v 44.90512 m 33,0 v 44.90513 h 6.5 6.5 V 155.6583 110.75318 h -6.5 -6.5 v 44.90512 m 34,0 v 44.90513 h 6.5 6.5 V 155.6583 110.75318 h -6.5 -6.5 v 44.90512 m 32.015,-1.04918 c 0.009,24.12119 0.389,44.34948 0.845,44.95381 0.56,0.7403 2.587,1.01309 6.235,0.83935 l 5.405,-0.25852 0.259,-44.69529 0.259,-44.69529 H 615.509 609 l 0.015,43.85594 m 33.592,-42.5281 c -0.334,0.73024 -0.607,32.83531 -0.607,71.3446 v 70.01675 h 6.5 6.5 v -70.01675 c 0,-38.50929 -0.273,-70.61436 -0.607,-71.3446 -0.865,-1.89189 -10.921,-1.89189 -11.786,0 m 32.634,43.36745 0.259,44.69529 5.405,0.25852 c 3.648,0.17374 5.675,-0.099 6.235,-0.83935 0.456,-0.60433 0.836,-20.83262 0.845,-44.95381 L 688,110.75318 h -6.509 -6.509 l 0.259,44.69529 M 707,155.6583 v 44.90513 h 6.5 6.5 V 155.6583 110.75318 h -6.5 -6.5 v 44.90512 m 34,0 v 44.90513 h 6.5 6.5 V 155.6583 110.75318 h -6.5 -6.5 v 44.90512 m 33,0 v 44.90513 h 6.5 6.5 V 155.6583 110.75318 h -6.5 -6.5 v 44.90512 m 33.71,-44.38221 c -0.39,0.32818 -0.71,44.72467 -0.71,98.66034 V 308 h 6.504 6.504 l -0.254,-98.41358 -0.254,-98.41357 -5.54,-0.24677 c -3.047,-0.13513 -5.859,0.0218 -6.25,0.35001 M 840,155.6583 v 44.90513 h 6.5 6.5 V 155.6583 110.75318 h -6.5 -6.5 v 44.90512 m 33,0 v 44.90513 h 6.5 6.5 V 155.6583 110.75318 h -6.5 -6.5 v 44.90512 m 34,0 v 44.90513 h 6.5 6.5 V 155.6583 110.75318 h -6.5 -6.5 v 44.90512 m 32.241,-0.20983 0.259,44.69529 h 6 6 l 0.259,-44.69529 0.259,-44.69529 h -6.518 -6.518 l 0.259,44.69529 m 33.469,-44.17238 c -0.39,0.32818 -0.71,32.4492 -0.71,71.38153 v 70.78475 h 6.506 6.505 l -0.255,-71.13476 -0.256,-71.13476 -5.54,-0.24677 c -3.047,-0.13513 -5.859,0.0218 -6.25,0.35001 m 32.531,44.17238 0.259,44.69529 h 6 6 l 0.259,-44.69529 0.259,-44.69529 h -6.518 -6.518 l 0.259,44.69529 M 1037,155.6583 v 44.90513 h 6.5 6.5 V 155.6583 110.75318 h -6.5 -6.5 v 44.90512 m 34,0 v 44.90513 h 6.5 6.5 V 155.6583 110.75318 h -6.5 -6.5 v 44.90512 m 33,0 v 44.90513 h 6.5 6.5 V 155.6583 110.75318 h -6.5 -6.5 v 44.90512 m 33,53.71829 V 308 h 6.5 6.5 v -98.62341 -98.62341 h -6.5 -6.5 v 98.62341 m 34,-53.71829 v 44.90513 h 6.5 6.5 V 155.6583 110.75318 h -6.5 -6.5 v 44.90512 m 33,0 v 44.90513 h 6.5 6.5 V 155.6583 110.75318 h -6.5 -6.5 v 44.90512 m 34,0 v 44.90513 h 6.5 6.5 V 155.6583 110.75318 h -6.5 -6.5 v 44.90512 m 32.241,-0.20983 0.259,44.69529 h 6 6 l 0.259,-44.69529 0.259,-44.69529 h -6.518 -6.518 l 0.259,44.69529 m 33.469,-44.17238 c -0.39,0.32818 -0.71,32.4492 -0.71,71.38153 v 70.78475 h 6.506 6.505 l -0.255,-71.13476 -0.256,-71.13476 -5.54,-0.24677 c -3.047,-0.13513 -5.859,0.0218 -6.25,0.35001 m 32.531,44.17238 0.259,44.69529 h 6 6 l 0.259,-44.69529 0.259,-44.69529 h -6.518 -6.518 l 0.259,44.69529 M 1368,155.6583 v 44.90513 h 6.5 6.5 V 155.6583 110.75318 h -6.5 -6.5 v 44.90512 m 34,0 v 44.90513 h 6.5 6.5 V 155.6583 110.75318 h -6.5 -6.5 v 44.90512 m 33,0 v 44.90513 h 6.5 6.5 V 155.6583 110.75318 h -6.5 -6.5 v 44.90512 m 33,53.71829 V 308 h 6.5 6.5 v -98.62341 -98.62341 h -6.5 -6.5 v 98.62341 m 32,-53.71829 v 44.90513 h 6.5 6.5 V 155.6583 110.75318 h -6.5 -6.5 v 44.90512 m 33,0 v 44.90513 h 6.5 6.5 V 155.6583 110.75318 h -6.5 -6.5 v 44.90512 m 34,0 v 44.90513 h 6.5 6.5 V 155.6583 110.75318 h -6.5 -6.5 v 44.90512 m 32.241,-0.20983 0.259,44.69529 h 6 6 l 0.259,-44.69529 0.259,-44.69529 h -6.518 -6.518 l 0.259,44.69529 m 33.469,-44.17238 c -0.39,0.32818 -0.71,32.4492 -0.71,71.38153 v 70.78475 h 6.506 6.505 l -0.255,-71.13476 -0.256,-71.13476 -5.54,-0.24677 c -3.047,-0.13513 -5.859,0.0218 -6.25,0.35001 m 32.531,44.17238 0.259,44.69529 h 6 6 l 0.259,-44.69529 0.259,-44.69529 h -6.518 -6.518 l 0.259,44.69529 M 1697,155.6583 v 44.90513 h 6.5 6.5 V 155.6583 110.75318 h -6.5 -6.5 v 44.90512 m 34,0 v 44.90513 h 6.5 6.5 V 155.6583 110.75318 h -6.5 -6.5 v 44.90512 m 33,0 v 44.90513 h 6.5 6.5 V 155.6583 110.75318 h -6.5 -6.5 v 44.90512 m 33,53.71829 V 308 h 6.5 6.5 v -98.62341 -98.62341 h -6.5 -6.5 v 98.62341 m 31,-53.71829 v 44.90513 h 6.5 6.5 V 155.6583 110.75318 h -6.5 -6.5 v 44.90512 m 33,0 v 44.90513 h 6.5 6.5 V 155.6583 110.75318 h -6.5 -6.5 v 44.90512 m 34,0 v 44.90513 h 6.5 6.5 V 155.6583 110.75318 h -6.5 -6.5 v 44.90512 m 32.015,-1.04918 c 0.01,24.12119 0.389,44.34948 0.845,44.95381 0.56,0.7403 2.587,1.01309 6.235,0.83935 l 5.405,-0.25852 0.259,-44.69529 0.259,-44.69529 h -6.509 -6.509 l 0.015,43.85594 m 33.592,-42.5281 c -0.334,0.73024 -0.607,32.83531 -0.607,71.3446 v 70.01675 h 6.5 6.5 v -70.01675 c 0,-38.50929 -0.273,-70.61436 -0.607,-71.3446 -0.865,-1.89189 -10.921,-1.89189 -11.786,0 m 32.634,43.36745 0.259,44.69529 5.405,0.25852 c 3.648,0.17374 5.675,-0.099 6.235,-0.83935 0.456,-0.60433 0.836,-20.83262 0.845,-44.95381 L 2006,110.75318 h -6.509 -6.509 l 0.259,44.69529 M 2025,155.6583 v 44.90513 h 6.5 6.5 V 155.6583 110.75318 h -6.5 -6.5 v 44.90512 m 34,0 v 44.90513 h 6.5 6.5 V 155.6583 110.75318 h -6.5 -6.5 v 44.90512 m 33,0 v 44.90513 h 6.5 6.5 V 155.6583 110.75318 h -6.5 -6.5 v 44.90512 m 33.71,-44.38221 c -0.39,0.32818 -0.71,44.72467 -0.71,98.66034 V 308 h 6.504 6.504 l -0.254,-98.41358 -0.254,-98.41357 -5.54,-0.24677 c -3.047,-0.13513 -5.859,0.0218 -6.25,0.35001 m 30.531,44.17238 0.259,44.69529 5.405,0.25852 c 3.648,0.17374 5.675,-0.099 6.235,-0.83935 0.456,-0.60433 0.836,-20.83262 0.845,-44.95381 L 2169,110.75318 h -6.509 -6.509 l 0.259,44.69529 M 2188,155.6583 v 44.90513 h 6.5 6.5 V 155.6583 110.75318 h -6.5 -6.5 v 44.90512 m 34,0 v 44.90513 h 6.5 6.5 V 155.6583 110.75318 h -6.5 -6.5 v 44.90512 m 33,0 v 44.90513 h 6.5 6.5 V 155.6583 110.75318 h -6.5 -6.5 v 44.90512"
     stroke="none"
     fill="#0c0c0c"
     fill-rule="evenodd"
     id="path2"
     style="stroke-width:0.916159" />
</svg>
