<svg xmlns="http://www.w3.org/2000/svg" width="2137" height="728" viewBox="0 0 2137 728" version="1.1"><path d="M 440.953 6.047 C 436.590 10.410, 432.337 18.485, 431.811 23.404 C 431.539 25.942, 432.111 26.670, 436.366 29.193 C 440.978 31.928, 441.360 31.994, 443.680 30.474 C 447.124 28.217, 453.519 17.966, 454.898 12.492 C 456.600 5.733, 454.897 2.603, 449.297 2.195 C 445.537 1.921, 444.685 2.315, 440.953 6.047 M 987.953 6.047 C 983.590 10.410, 979.337 18.485, 978.811 23.404 C 978.539 25.942, 979.111 26.670, 983.366 29.193 C 987.978 31.928, 988.360 31.994, 990.680 30.474 C 994.124 28.217, 1000.519 17.966, 1001.898 12.492 C 1003.600 5.733, 1001.897 2.603, 996.297 2.195 C 992.537 1.921, 991.685 2.315, 987.953 6.047 M 1755.953 7.047 C 1751.590 11.410, 1747.337 19.485, 1746.811 24.404 C 1746.539 26.942, 1747.111 27.670, 1751.366 30.193 C 1755.978 32.928, 1756.360 32.994, 1758.680 31.474 C 1762.124 29.217, 1768.519 18.966, 1769.898 13.492 C 1771.600 6.733, 1769.897 3.603, 1764.297 3.195 C 1760.537 2.921, 1759.685 3.315, 1755.953 7.047 M 81.953 8.047 C 77.590 12.410, 73.337 20.485, 72.811 25.404 C 72.539 27.942, 73.111 28.670, 77.366 31.193 C 81.978 33.928, 82.360 33.994, 84.680 32.474 C 88.124 30.217, 94.519 19.966, 95.898 14.492 C 97.600 7.733, 95.897 4.603, 90.297 4.195 C 86.537 3.921, 85.685 4.315, 81.953 8.047 M 527 108.921 C 523.122 111.303, 522.543 112.086, 522.811 114.592 C 523.334 119.493, 527.581 127.581, 531.898 131.898 C 535.290 135.290, 536.671 136, 539.878 136 C 542.241 136, 544.283 135.364, 545.107 134.371 C 547.198 131.851, 546.534 125.613, 543.520 119.451 C 540.819 113.931, 534.165 105.926, 532.405 106.079 C 531.907 106.122, 529.475 107.401, 527 108.921 M 1074 108.921 C 1070.122 111.303, 1069.543 112.086, 1069.811 114.592 C 1070.334 119.493, 1074.581 127.581, 1078.898 131.898 C 1082.290 135.290, 1083.671 136, 1086.878 136 C 1089.241 136, 1091.283 135.364, 1092.107 134.371 C 1094.198 131.851, 1093.534 125.613, 1090.520 119.451 C 1087.819 113.931, 1081.165 105.926, 1079.405 106.079 C 1078.907 106.122, 1076.475 107.401, 1074 108.921 M 1842 109.921 C 1838.122 112.303, 1837.543 113.086, 1837.811 115.592 C 1838.334 120.493, 1842.581 128.581, 1846.898 132.898 C 1850.290 136.290, 1851.671 137, 1854.878 137 C 1857.241 137, 1859.283 136.364, 1860.107 135.371 C 1862.198 132.851, 1861.534 126.613, 1858.520 120.451 C 1855.819 114.931, 1849.165 106.926, 1847.405 107.079 C 1846.907 107.122, 1844.475 108.401, 1842 109.921 M 168 110.921 C 164.122 113.303, 163.543 114.086, 163.811 116.592 C 164.334 121.493, 168.581 129.581, 172.898 133.898 C 176.290 137.290, 177.671 138, 180.878 138 C 183.241 138, 185.283 137.364, 186.107 136.371 C 188.198 133.851, 187.534 127.613, 184.520 121.451 C 181.819 115.931, 175.165 107.926, 173.405 108.079 C 172.907 108.122, 170.475 109.401, 168 110.921 M 390.500 137.930 C 385.539 138.773, 382.563 140.359, 380.551 143.230 C 378.533 146.111, 378.590 148.236, 380.750 150.652 C 384.520 154.870, 395.352 156.718, 404.801 154.756 C 409.710 153.736, 411 151.613, 411 144.556 L 411 140.243 404.544 138.622 C 397.703 136.903, 396.804 136.859, 390.500 137.930 M 937.500 137.930 C 932.539 138.773, 929.563 140.359, 927.551 143.230 C 925.533 146.111, 925.590 148.236, 927.750 150.652 C 931.520 154.870, 942.352 156.718, 951.801 154.756 C 956.710 153.736, 958 151.613, 958 144.556 L 958 140.243 951.544 138.622 C 944.703 136.903, 943.804 136.859, 937.500 137.930 M 1705.500 138.930 C 1700.539 139.773, 1697.563 141.359, 1695.551 144.230 C 1693.533 147.111, 1693.590 149.236, 1695.750 151.652 C 1699.520 155.870, 1710.352 157.718, 1719.801 155.756 C 1724.710 154.736, 1726 152.613, 1726 145.556 L 1726 141.243 1719.544 139.622 C 1712.703 137.903, 1711.804 137.859, 1705.500 138.930 M 31.500 139.930 C 26.539 140.773, 23.563 142.359, 21.551 145.230 C 19.533 148.111, 19.590 150.236, 21.750 152.652 C 25.520 156.870, 36.352 158.718, 45.801 156.756 C 50.710 155.736, 52 153.613, 52 146.556 L 52 142.243 45.544 140.622 C 38.703 138.903, 37.804 138.859, 31.500 139.930 M 533.953 163.047 C 529.590 167.410, 525.337 175.485, 524.811 180.404 C 524.539 182.942, 525.111 183.670, 529.366 186.193 C 533.978 188.928, 534.360 188.994, 536.680 187.474 C 540.124 185.217, 546.519 174.966, 547.898 169.492 C 549.600 162.733, 547.897 159.603, 542.297 159.195 C 538.537 158.921, 537.685 159.315, 533.953 163.047 M 1080.953 163.047 C 1076.590 167.410, 1072.337 175.485, 1071.811 180.404 C 1071.539 182.942, 1072.111 183.670, 1076.366 186.193 C 1080.978 188.928, 1081.360 188.994, 1083.680 187.474 C 1087.124 185.217, 1093.519 174.966, 1094.898 169.492 C 1096.600 162.733, 1094.897 159.603, 1089.297 159.195 C 1085.537 158.921, 1084.685 159.315, 1080.953 163.047 M 350.953 164.047 C 346.590 168.410, 342.337 176.485, 341.811 181.404 C 341.539 183.942, 342.111 184.670, 346.366 187.193 C 350.978 189.928, 351.360 189.994, 353.680 188.474 C 357.124 186.217, 363.519 175.966, 364.898 170.492 C 366.600 163.733, 364.897 160.603, 359.297 160.195 C 355.537 159.921, 354.685 160.315, 350.953 164.047 M 897.953 164.047 C 893.590 168.410, 889.337 176.485, 888.811 181.404 C 888.539 183.942, 889.111 184.670, 893.366 187.193 C 897.978 189.928, 898.360 189.994, 900.680 188.474 C 904.124 186.217, 910.519 175.966, 911.898 170.492 C 913.600 163.733, 911.897 160.603, 906.297 160.195 C 902.537 159.921, 901.685 160.315, 897.953 164.047 M 1848.953 164.047 C 1844.590 168.410, 1840.337 176.485, 1839.811 181.404 C 1839.539 183.942, 1840.111 184.670, 1844.366 187.193 C 1848.978 189.928, 1849.360 189.994, 1851.680 188.474 C 1855.124 186.217, 1861.519 175.966, 1862.898 170.492 C 1864.600 163.733, 1862.897 160.603, 1857.297 160.195 C 1853.537 159.921, 1852.685 160.315, 1848.953 164.047 M 1665.953 165.047 C 1661.590 169.410, 1657.337 177.485, 1656.811 182.404 C 1656.539 184.942, 1657.111 185.670, 1661.366 188.193 C 1665.978 190.928, 1666.360 190.994, 1668.680 189.474 C 1672.124 187.217, 1678.519 176.966, 1679.898 171.492 C 1681.600 164.733, 1679.897 161.603, 1674.297 161.195 C 1670.537 160.921, 1669.685 161.315, 1665.953 165.047 M 5.750 217.160 C 0.355 219.539, -0.234 220.725, 3.750 221.184 L 6.500 221.500 6.500 239.486 C 6.500 256.686, 6.412 257.488, 4.500 257.833 C 3.400 258.032, 2.072 258.600, 1.550 259.097 C 0.981 259.638, 4.372 260, 10 260 C 15.628 260, 19.019 259.638, 18.450 259.097 C 17.928 258.600, 16.600 258.032, 15.500 257.834 C 13.584 257.489, 13.489 256.579, 13.230 236.237 C 13.027 220.222, 12.658 215.008, 11.730 215.033 C 11.054 215.051, 8.363 216.008, 5.750 217.160 M 28.582 216.316 C 26.506 217.834, 26.811 221.500, 29.014 221.500 C 29.831 221.500, 30.647 220.460, 30.828 219.189 C 31.265 216.105, 33.931 215.186, 35.645 217.529 C 37.686 220.320, 37.419 220.754, 31.953 223.524 C 25.199 226.946, 23.497 231.590, 28.095 234.051 C 29.402 234.750, 30.951 234.630, 33.309 233.644 C 36.288 232.400, 36.783 232.425, 37.728 233.871 C 38.688 235.338, 39.068 235.351, 41.567 234 C 44.598 232.360, 46.248 229.584, 43.584 230.606 C 42.240 231.122, 42 230.238, 42 224.762 C 42 219.781, 41.583 217.933, 40.171 216.655 C 37.967 214.660, 31.121 214.460, 28.582 216.316 M 98.732 223.435 C 97.831 225.325, 95.723 227.884, 94.047 229.123 C 90.346 231.860, 90.185 233, 93.500 233 L 96 233 96 244.826 C 96 255.894, 96.148 256.791, 98.314 258.826 C 101.450 261.772, 103.592 261.562, 107.199 257.955 C 110.453 254.701, 110.471 253.065, 107.230 255.089 C 106.149 255.763, 104.530 256.034, 103.632 255.689 C 102.259 255.162, 102 253.312, 102 244.031 L 102 233 105.500 233 C 107.944 233, 109 232.548, 109 231.500 C 109 230.452, 107.944 230, 105.500 230 L 102 230 102 225 C 102 219.141, 101.007 218.666, 98.732 223.435 M 33.750 224.972 C 30.176 227.796, 30.060 231, 33.531 231 C 36.372 231, 37.303 229.440, 36.825 225.484 L 36.500 222.799 33.750 224.972 M 69.898 231.287 C 61.373 237.026, 60.690 251.009, 68.596 257.950 C 72.863 261.696, 79.248 262.166, 83.238 259.027 C 86.641 256.351, 89.554 250.154, 88.096 248.696 C 87.301 247.901, 87 247.942, 87 248.845 C 87 251.306, 82.165 255, 78.945 255 C 74.612 255, 69 249.413, 69 245.100 L 69 242 79 242 C 88.414 242, 89 241.880, 89 239.950 C 89 231.129, 77.728 226.017, 69.898 231.287 M 116.775 230.559 C 113.400 232.390, 111.686 235.435, 112.530 238.096 C 113.469 241.052, 117.397 240.242, 117.846 237 C 118.316 233.603, 119.808 232, 122.500 232 C 125.114 232, 126.471 233.436, 127.353 237.138 C 127.935 239.579, 127.570 239.942, 122.458 242.017 C 111.599 246.424, 107.979 253.070, 113.455 258.545 C 116.445 261.536, 119.424 261.649, 123.867 258.940 L 127.233 256.888 128.673 258.944 C 129.465 260.075, 130.904 261, 131.870 261 C 133.925 261, 139.679 255.346, 138.660 254.327 C 138.279 253.946, 137.434 254.166, 136.783 254.817 C 134.426 257.174, 134 255.830, 134 246.047 C 134 235.125, 133.025 231.788, 129.343 230.110 C 125.976 228.576, 120.038 228.788, 116.775 230.559 M 143.250 230.780 C 138.794 232.492, 137.686 234, 140.883 234 C 143.561 234, 143.973 236.534, 143.973 253 C 143.973 269.877, 143.649 271.620, 140.365 272.445 C 135.628 273.634, 139.207 275, 147.059 275 C 155.131 275, 156.799 274.263, 152.750 272.487 C 150.864 271.660, 150.452 270.596, 150.205 265.914 L 149.910 260.328 155.251 260.771 C 159.987 261.164, 160.971 260.895, 163.932 258.404 C 168.157 254.849, 170 250.454, 170 243.933 C 170 231.721, 160.851 225.047, 153.077 231.589 L 150 234.178 150 231.589 C 150 228.617, 149.146 228.515, 143.250 230.780 M 179.775 230.559 C 176.400 232.390, 174.686 235.435, 175.530 238.096 C 176.469 241.052, 180.397 240.242, 180.846 237 C 181.316 233.603, 182.808 232, 185.500 232 C 188.114 232, 189.471 233.436, 190.353 237.138 C 190.935 239.579, 190.570 239.942, 185.458 242.017 C 174.599 246.424, 170.979 253.070, 176.455 258.545 C 179.445 261.536, 182.424 261.649, 186.867 258.940 L 190.233 256.888 191.673 258.944 C 192.465 260.075, 193.904 261, 194.870 261 C 196.925 261, 202.679 255.346, 201.660 254.327 C 201.279 253.946, 200.434 254.166, 199.783 254.817 C 197.426 257.174, 197 255.830, 197 246.047 C 197 235.125, 196.025 231.788, 192.343 230.110 C 188.976 228.576, 183.038 228.788, 179.775 230.559 M 71.174 234.314 C 67.630 238.087, 68.376 239, 75 239 C 80.165 239, 81 238.743, 81 237.155 C 81 234.798, 77.931 232, 75.346 232 C 74.247 232, 72.370 233.042, 71.174 234.314 M 155 234.782 C 150.863 236.103, 150 238.115, 150.015 246.405 C 150.032 255.404, 150.405 256.443, 154.119 257.855 C 161.680 260.730, 166.506 248.789, 161.883 238.643 C 160.651 235.939, 157.287 234.052, 155 234.782 M 122.708 245.090 C 118.100 247.522, 116.302 250.828, 117.932 253.874 C 119.278 256.389, 122.651 256.633, 125.777 254.443 C 127.564 253.192, 128 251.918, 128 247.943 C 128 245.224, 127.662 243.020, 127.250 243.044 C 126.838 243.069, 124.794 243.989, 122.708 245.090 M 185.708 245.090 C 181.100 247.522, 179.302 250.828, 180.932 253.874 C 182.278 256.389, 185.651 256.633, 188.777 254.443 C 190.564 253.192, 191 251.918, 191 247.943 C 191 245.224, 190.662 243.020, 190.250 243.044 C 189.838 243.069, 187.794 243.989, 185.708 245.090 M 620 265.921 C 616.122 268.303, 615.543 269.086, 615.811 271.592 C 616.334 276.493, 620.581 284.581, 624.898 288.898 C 628.290 292.290, 629.671 293, 632.878 293 C 635.241 293, 637.283 292.364, 638.107 291.371 C 640.198 288.851, 639.534 282.613, 636.520 276.451 C 633.819 270.931, 627.165 262.926, 625.405 263.079 C 624.907 263.122, 622.475 264.401, 620 265.921 M 1167 265.921 C 1163.122 268.303, 1162.543 269.086, 1162.811 271.592 C 1163.334 276.493, 1167.581 284.581, 1171.898 288.898 C 1175.290 292.290, 1176.671 293, 1179.878 293 C 1182.241 293, 1184.283 292.364, 1185.107 291.371 C 1187.198 288.851, 1186.534 282.613, 1183.520 276.451 C 1180.819 270.931, 1174.165 262.926, 1172.405 263.079 C 1171.907 263.122, 1169.475 264.401, 1167 265.921 M 437 266.921 C 433.122 269.303, 432.543 270.086, 432.811 272.592 C 433.334 277.493, 437.581 285.581, 441.898 289.898 C 445.290 293.290, 446.671 294, 449.878 294 C 452.241 294, 454.283 293.364, 455.107 292.371 C 457.198 289.851, 456.534 283.613, 453.520 277.451 C 450.819 271.931, 444.165 263.926, 442.405 264.079 C 441.907 264.122, 439.475 265.401, 437 266.921 M 984 266.921 C 980.122 269.303, 979.543 270.086, 979.811 272.592 C 980.334 277.493, 984.581 285.581, 988.898 289.898 C 992.290 293.290, 993.671 294, 996.878 294 C 999.241 294, 1001.283 293.364, 1002.107 292.371 C 1004.198 289.851, 1003.534 283.613, 1000.520 277.451 C 997.819 271.931, 991.165 263.926, 989.405 264.079 C 988.907 264.122, 986.475 265.401, 984 266.921 M 1935 266.921 C 1931.122 269.303, 1930.543 270.086, 1930.811 272.592 C 1931.334 277.493, 1935.581 285.581, 1939.898 289.898 C 1943.290 293.290, 1944.671 294, 1947.878 294 C 1950.241 294, 1952.283 293.364, 1953.107 292.371 C 1955.198 289.851, 1954.534 283.613, 1951.520 277.451 C 1948.819 271.931, 1942.165 263.926, 1940.405 264.079 C 1939.907 264.122, 1937.475 265.401, 1935 266.921 M 1752 267.921 C 1748.122 270.303, 1747.543 271.086, 1747.811 273.592 C 1748.334 278.493, 1752.581 286.581, 1756.898 290.898 C 1760.290 294.290, 1761.671 295, 1764.878 295 C 1767.241 295, 1769.283 294.364, 1770.107 293.371 C 1772.198 290.851, 1771.534 284.613, 1768.520 278.451 C 1765.819 272.931, 1759.165 264.926, 1757.405 265.079 C 1756.907 265.122, 1754.475 266.401, 1752 267.921 M 483.500 294.930 C 478.539 295.773, 475.563 297.359, 473.551 300.230 C 471.533 303.111, 471.590 305.236, 473.750 307.652 C 477.520 311.870, 488.352 313.718, 497.801 311.756 C 502.710 310.736, 504 308.613, 504 301.556 L 504 297.243 497.544 295.622 C 490.703 293.903, 489.804 293.859, 483.500 294.930 M 1030.500 294.930 C 1025.539 295.773, 1022.563 297.359, 1020.551 300.230 C 1018.533 303.111, 1018.590 305.236, 1020.750 307.652 C 1024.520 311.870, 1035.352 313.718, 1044.801 311.756 C 1049.710 310.736, 1051 308.613, 1051 301.556 L 1051 297.243 1044.544 295.622 C 1037.703 293.903, 1036.804 293.859, 1030.500 294.930 M 300.500 295.930 C 295.539 296.773, 292.563 298.359, 290.551 301.230 C 288.533 304.111, 288.590 306.236, 290.750 308.652 C 294.520 312.870, 305.352 314.718, 314.801 312.756 C 319.710 311.736, 321 309.613, 321 302.556 L 321 298.243 314.544 296.622 C 307.703 294.903, 306.804 294.859, 300.500 295.930 M 847.500 295.930 C 842.539 296.773, 839.563 298.359, 837.551 301.230 C 835.533 304.111, 835.590 306.236, 837.750 308.652 C 841.520 312.870, 852.352 314.718, 861.801 312.756 C 866.710 311.736, 868 309.613, 868 302.556 L 868 298.243 861.544 296.622 C 854.703 294.903, 853.804 294.859, 847.500 295.930 M 1798.500 295.930 C 1793.539 296.773, 1790.563 298.359, 1788.551 301.230 C 1786.533 304.111, 1786.590 306.236, 1788.750 308.652 C 1792.520 312.870, 1803.352 314.718, 1812.801 312.756 C 1817.710 311.736, 1819 309.613, 1819 302.556 L 1819 298.243 1812.544 296.622 C 1805.703 294.903, 1804.804 294.859, 1798.500 295.930 M 1615.500 296.930 C 1610.539 297.773, 1607.563 299.359, 1605.551 302.230 C 1603.533 305.111, 1603.590 307.236, 1605.750 309.652 C 1609.520 313.870, 1620.352 315.718, 1629.801 313.756 C 1634.710 312.736, 1636 310.613, 1636 303.556 L 1636 299.243 1629.544 297.622 C 1622.703 295.903, 1621.804 295.859, 1615.500 296.930 M 810.953 318.047 C 806.590 322.410, 802.337 330.485, 801.811 335.404 C 801.539 337.942, 802.111 338.670, 806.366 341.193 C 810.978 343.928, 811.360 343.994, 813.680 342.474 C 817.124 340.217, 823.519 329.966, 824.898 324.492 C 826.600 317.733, 824.897 314.603, 819.297 314.195 C 815.537 313.921, 814.685 314.315, 810.953 318.047 M 1171.953 318.047 C 1167.590 322.410, 1163.337 330.485, 1162.811 335.404 C 1162.539 337.942, 1163.111 338.670, 1167.366 341.193 C 1171.978 343.928, 1172.360 343.994, 1174.680 342.474 C 1178.124 340.217, 1184.519 329.966, 1185.898 324.492 C 1187.600 317.733, 1185.897 314.603, 1180.297 314.195 C 1176.537 313.921, 1175.685 314.315, 1171.953 318.047 M 1578.953 319.047 C 1574.590 323.410, 1570.337 331.485, 1569.811 336.404 C 1569.539 338.942, 1570.111 339.670, 1574.366 342.193 C 1578.978 344.928, 1579.360 344.994, 1581.680 343.474 C 1585.124 341.217, 1591.519 330.966, 1592.898 325.492 C 1594.600 318.733, 1592.897 315.603, 1587.297 315.195 C 1583.537 314.921, 1582.685 315.315, 1578.953 319.047 M 1939.953 319.047 C 1935.590 323.410, 1931.337 331.485, 1930.811 336.404 C 1930.539 338.942, 1931.111 339.670, 1935.366 342.193 C 1939.978 344.928, 1940.360 344.994, 1942.680 343.474 C 1946.124 341.217, 1952.519 330.966, 1953.898 325.492 C 1955.600 318.733, 1953.897 315.603, 1948.297 315.195 C 1944.537 314.921, 1943.685 315.315, 1939.953 319.047 M 362.515 382.250 C 360.073 384.366, 356.629 391.943, 357.642 392.970 C 357.897 393.228, 359.266 391.957, 360.684 390.145 C 362.101 388.333, 364.311 386.452, 365.593 385.965 C 370.767 383.997, 377.036 389.083, 376.978 395.200 C 376.934 399.817, 372.935 406.137, 364.562 414.822 C 359.853 419.707, 356 423.996, 356 424.352 C 356 424.708, 362.026 425, 369.391 425 L 382.783 425 384.433 420.875 C 386.358 416.065, 385.849 414.922, 382.950 417.546 C 381.538 418.823, 378.905 419.539, 374.612 419.812 C 363.776 420.502, 363.744 420.418, 371.579 411.822 C 382.298 400.064, 385.053 392.871, 381.483 385.967 C 378.366 379.939, 367.614 377.832, 362.515 382.250 M 391.582 381.316 C 389.506 382.834, 389.811 386.500, 392.014 386.500 C 392.831 386.500, 393.647 385.460, 393.828 384.189 C 394.265 381.105, 396.931 380.186, 398.645 382.529 C 400.686 385.320, 400.419 385.754, 394.953 388.524 C 388.199 391.946, 386.497 396.590, 391.095 399.051 C 392.402 399.750, 393.951 399.630, 396.309 398.644 C 399.288 397.400, 399.783 397.425, 400.728 398.871 C 401.688 400.338, 402.068 400.351, 404.567 399 C 407.598 397.360, 409.248 394.584, 406.584 395.606 C 405.240 396.122, 405 395.238, 405 389.762 C 405 384.781, 404.583 382.933, 403.171 381.655 C 400.967 379.660, 394.121 379.460, 391.582 381.316 M 460.732 388.435 C 459.831 390.325, 457.723 392.884, 456.047 394.123 C 452.346 396.860, 452.185 398, 455.500 398 L 458 398 458 409.826 C 458 420.894, 458.148 421.791, 460.314 423.826 C 463.450 426.772, 465.592 426.562, 469.199 422.955 C 472.453 419.701, 472.471 418.065, 469.230 420.089 C 468.149 420.763, 466.530 421.034, 465.632 420.689 C 464.259 420.162, 464 418.312, 464 409.031 L 464 398 467.500 398 C 469.944 398, 471 397.548, 471 396.500 C 471 395.452, 469.944 395, 467.500 395 L 464 395 464 390 C 464 384.141, 463.007 383.666, 460.732 388.435 M 396.750 389.972 C 393.176 392.796, 393.060 396, 396.531 396 C 399.372 396, 400.303 394.440, 399.825 390.484 L 399.500 387.799 396.750 389.972 M 432.898 396.287 C 424.373 402.026, 423.690 416.009, 431.596 422.950 C 435.863 426.696, 442.248 427.166, 446.238 424.027 C 449.641 421.351, 452.554 415.154, 451.096 413.696 C 450.301 412.901, 450 412.942, 450 413.845 C 450 416.306, 445.165 420, 441.945 420 C 437.612 420, 432 414.413, 432 410.100 L 432 407 442 407 C 451.414 407, 452 406.880, 452 404.950 C 452 396.129, 440.728 391.017, 432.898 396.287 M 479.775 395.559 C 476.400 397.390, 474.686 400.435, 475.530 403.096 C 476.469 406.052, 480.397 405.242, 480.846 402 C 481.316 398.603, 482.808 397, 485.500 397 C 488.114 397, 489.471 398.436, 490.353 402.138 C 490.935 404.579, 490.570 404.942, 485.458 407.017 C 474.599 411.424, 470.979 418.070, 476.455 423.545 C 479.445 426.536, 482.424 426.649, 486.867 423.940 L 490.233 421.888 491.673 423.944 C 492.465 425.075, 493.904 426, 494.870 426 C 496.925 426, 502.679 420.346, 501.660 419.327 C 501.279 418.946, 500.434 419.166, 499.783 419.817 C 497.426 422.174, 497 420.830, 497 411.047 C 497 400.125, 496.025 396.788, 492.343 395.110 C 488.976 393.576, 483.038 393.788, 479.775 395.559 M 505.250 395.780 C 500.794 397.492, 499.686 399, 502.883 399 C 505.561 399, 505.973 401.534, 505.973 418 C 505.973 434.877, 505.649 436.620, 502.365 437.445 C 497.628 438.634, 501.207 440, 509.059 440 C 517.131 440, 518.799 439.263, 514.750 437.487 C 512.864 436.660, 512.452 435.596, 512.205 430.914 L 511.910 425.328 517.251 425.771 C 521.987 426.164, 522.971 425.895, 525.932 423.404 C 530.157 419.849, 532 415.454, 532 408.933 C 532 396.721, 522.851 390.047, 515.077 396.589 L 512 399.178 512 396.589 C 512 393.617, 511.146 393.515, 505.250 395.780 M 542.775 395.559 C 539.400 397.390, 537.686 400.435, 538.530 403.096 C 539.469 406.052, 543.397 405.242, 543.846 402 C 544.316 398.603, 545.808 397, 548.500 397 C 551.114 397, 552.471 398.436, 553.353 402.138 C 553.935 404.579, 553.570 404.942, 548.458 407.017 C 537.599 411.424, 533.979 418.070, 539.455 423.545 C 542.445 426.536, 545.424 426.649, 549.867 423.940 L 553.233 421.888 554.673 423.944 C 555.465 425.075, 556.904 426, 557.870 426 C 559.925 426, 565.679 420.346, 564.660 419.327 C 564.279 418.946, 563.434 419.166, 562.783 419.817 C 560.426 422.174, 560 420.830, 560 411.047 C 560 400.125, 559.025 396.788, 555.343 395.110 C 551.976 393.576, 546.038 393.788, 542.775 395.559 M 434.174 399.314 C 430.630 403.087, 431.376 404, 438 404 C 443.165 404, 444 403.743, 444 402.155 C 444 399.798, 440.931 397, 438.346 397 C 437.247 397, 435.370 398.042, 434.174 399.314 M 517 399.782 C 512.863 401.103, 512 403.115, 512.015 411.405 C 512.032 420.404, 512.405 421.443, 516.119 422.855 C 523.680 425.730, 528.506 413.789, 523.883 403.643 C 522.651 400.939, 519.287 399.052, 517 399.782 M 485.708 410.090 C 481.100 412.522, 479.302 415.828, 480.932 418.874 C 482.278 421.389, 485.651 421.633, 488.777 419.443 C 490.564 418.192, 491 416.918, 491 412.943 C 491 410.224, 490.663 408.020, 490.250 408.044 C 489.837 408.069, 487.794 408.989, 485.708 410.090 M 548.708 410.090 C 544.100 412.522, 542.302 415.828, 543.932 418.874 C 545.278 421.389, 548.651 421.633, 551.777 419.443 C 553.564 418.192, 554 416.918, 554 412.943 C 554 410.224, 553.663 408.020, 553.250 408.044 C 552.837 408.069, 550.794 408.989, 548.708 410.090 M 897 420.921 C 893.122 423.303, 892.543 424.086, 892.811 426.592 C 893.334 431.493, 897.581 439.581, 901.898 443.898 C 905.290 447.290, 906.671 448, 909.878 448 C 912.241 448, 914.283 447.364, 915.107 446.371 C 917.198 443.851, 916.534 437.613, 913.520 431.451 C 910.819 425.931, 904.165 417.926, 902.405 418.079 C 901.907 418.122, 899.475 419.401, 897 420.921 M 1258 420.921 C 1254.122 423.303, 1253.543 424.086, 1253.811 426.592 C 1254.334 431.493, 1258.581 439.581, 1262.898 443.898 C 1266.290 447.290, 1267.671 448, 1270.878 448 C 1273.241 448, 1275.283 447.364, 1276.107 446.371 C 1278.198 443.851, 1277.534 437.613, 1274.520 431.451 C 1271.819 425.931, 1265.165 417.926, 1263.405 418.079 C 1262.907 418.122, 1260.475 419.401, 1258 420.921 M 1665 421.921 C 1661.122 424.303, 1660.543 425.086, 1660.811 427.592 C 1661.334 432.493, 1665.581 440.581, 1669.898 444.898 C 1673.290 448.290, 1674.671 449, 1677.878 449 C 1680.241 449, 1682.283 448.364, 1683.107 447.371 C 1685.198 444.851, 1684.534 438.613, 1681.520 432.451 C 1678.819 426.931, 1672.165 418.926, 1670.405 419.079 C 1669.907 419.122, 1667.475 420.401, 1665 421.921 M 2026 421.921 C 2022.122 424.303, 2021.543 425.086, 2021.811 427.592 C 2022.334 432.493, 2026.581 440.581, 2030.898 444.898 C 2034.290 448.290, 2035.671 449, 2038.878 449 C 2041.241 449, 2043.283 448.364, 2044.107 447.371 C 2046.198 444.851, 2045.534 438.613, 2042.520 432.451 C 2039.819 426.931, 2033.165 418.926, 2031.405 419.079 C 2030.907 419.122, 2028.475 420.401, 2026 421.921 M 760.500 449.930 C 755.539 450.773, 752.563 452.359, 750.551 455.230 C 748.533 458.111, 748.590 460.236, 750.750 462.652 C 754.520 466.870, 765.352 468.718, 774.801 466.756 C 779.710 465.736, 781 463.613, 781 456.556 L 781 452.243 774.544 450.622 C 767.703 448.903, 766.804 448.859, 760.500 449.930 M 1121.500 449.930 C 1116.539 450.773, 1113.563 452.359, 1111.551 455.230 C 1109.533 458.111, 1109.590 460.236, 1111.750 462.652 C 1115.520 466.870, 1126.352 468.718, 1135.801 466.756 C 1140.710 465.736, 1142 463.613, 1142 456.556 L 1142 452.243 1135.544 450.622 C 1128.703 448.903, 1127.804 448.859, 1121.500 449.930 M 1528.500 450.930 C 1523.539 451.773, 1520.563 453.359, 1518.551 456.230 C 1516.533 459.111, 1516.590 461.236, 1518.750 463.652 C 1522.520 467.870, 1533.352 469.718, 1542.801 467.756 C 1547.710 466.736, 1549 464.613, 1549 457.556 L 1549 453.243 1542.544 451.622 C 1535.703 449.903, 1534.804 449.859, 1528.500 450.930 M 1889.500 450.930 C 1884.539 451.773, 1881.563 453.359, 1879.551 456.230 C 1877.533 459.111, 1877.590 461.236, 1879.750 463.652 C 1883.520 467.870, 1894.352 469.718, 1903.801 467.756 C 1908.710 466.736, 1910 464.613, 1910 457.556 L 1910 453.243 1903.544 451.622 C 1896.703 449.903, 1895.804 449.859, 1889.500 450.930 M 1489.953 471.047 C 1485.590 475.410, 1481.337 483.485, 1480.811 488.404 C 1480.539 490.942, 1481.111 491.670, 1485.366 494.193 C 1489.978 496.928, 1490.360 496.994, 1492.680 495.474 C 1496.124 493.217, 1502.519 482.966, 1503.898 477.492 C 1505.600 470.733, 1503.897 467.603, 1498.297 467.195 C 1494.537 466.921, 1493.685 467.315, 1489.953 471.047 M 2030.953 472.047 C 2026.590 476.410, 2022.337 484.485, 2021.811 489.404 C 2021.539 491.942, 2022.111 492.670, 2026.366 495.193 C 2030.978 497.928, 2031.360 497.994, 2033.680 496.474 C 2037.124 494.217, 2043.519 483.966, 2044.898 478.492 C 2046.600 471.733, 2044.897 468.603, 2039.297 468.195 C 2035.537 467.921, 2034.685 468.315, 2030.953 472.047 M 910.054 544.608 C 906.752 547.387, 904.489 550.822, 905.377 551.710 C 905.673 552.006, 907.319 551.068, 909.034 549.624 C 913.171 546.144, 917.213 546.184, 920.006 549.734 C 923.626 554.337, 921.510 560.052, 915.210 562.685 C 911.628 564.183, 911.745 566, 915.424 566 C 918.713 566, 922.831 569.585, 923.824 573.313 C 925.804 580.746, 919.962 586.265, 913.135 583.412 C 906.555 580.663, 901.837 582.733, 906.032 586.529 C 908.664 588.911, 918.929 588.184, 922.763 585.343 C 927.327 581.963, 930 577.165, 930 572.355 C 930 568.819, 929.367 567.304, 926.616 564.253 L 923.232 560.500 925.616 557.028 C 928.858 552.307, 928.690 548.536, 925.077 544.923 C 921.092 540.938, 914.578 540.801, 910.054 544.608 M 937.582 543.316 C 935.506 544.834, 935.811 548.500, 938.014 548.500 C 938.831 548.500, 939.647 547.460, 939.828 546.189 C 940.265 543.105, 942.931 542.186, 944.645 544.529 C 946.686 547.320, 946.419 547.754, 940.953 550.524 C 934.199 553.946, 932.497 558.590, 937.095 561.051 C 938.402 561.750, 939.951 561.630, 942.309 560.644 C 945.288 559.400, 945.783 559.425, 946.728 560.871 C 947.688 562.338, 948.068 562.351, 950.567 561 C 953.598 559.360, 955.248 556.584, 952.584 557.606 C 951.240 558.122, 951 557.238, 951 551.762 C 951 546.781, 950.583 544.933, 949.171 543.655 C 946.967 541.660, 940.121 541.460, 937.582 543.316 M 1007.732 550.435 C 1006.831 552.325, 1004.723 554.884, 1003.047 556.123 C 999.346 558.860, 999.185 560, 1002.500 560 L 1005 560 1005 571.826 C 1005 582.894, 1005.148 583.791, 1007.314 585.826 C 1010.450 588.772, 1012.592 588.562, 1016.199 584.955 C 1019.453 581.701, 1019.471 580.065, 1016.230 582.089 C 1015.149 582.763, 1013.530 583.034, 1012.632 582.689 C 1011.259 582.162, 1011 580.312, 1011 571.031 L 1011 560 1014.500 560 C 1016.944 560, 1018 559.548, 1018 558.500 C 1018 557.452, 1016.944 557, 1014.500 557 L 1011 557 1011 552 C 1011 546.141, 1010.007 545.666, 1007.732 550.435 M 942.750 551.972 C 939.176 554.796, 939.060 558, 942.531 558 C 945.372 558, 946.303 556.440, 945.825 552.484 L 945.500 549.799 942.750 551.972 M 978.898 558.287 C 970.373 564.026, 969.690 578.009, 977.596 584.950 C 981.863 588.696, 988.248 589.166, 992.238 586.027 C 995.641 583.351, 998.554 577.154, 997.096 575.696 C 996.301 574.901, 996 574.942, 996 575.845 C 996 578.306, 991.165 582, 987.945 582 C 983.612 582, 978 576.413, 978 572.100 L 978 569 988 569 C 997.414 569, 998 568.880, 998 566.950 C 998 558.129, 986.728 553.017, 978.898 558.287 M 1026.775 557.559 C 1023.400 559.390, 1021.686 562.435, 1022.530 565.096 C 1023.469 568.052, 1027.397 567.242, 1027.846 564 C 1028.316 560.603, 1029.808 559, 1032.500 559 C 1035.114 559, 1036.471 560.436, 1037.353 564.138 C 1037.935 566.579, 1037.570 566.942, 1032.458 569.017 C 1021.599 573.424, 1017.979 580.070, 1023.455 585.545 C 1026.445 588.536, 1029.424 588.649, 1033.867 585.940 L 1037.233 583.888 1038.673 585.944 C 1039.465 587.075, 1040.904 588, 1041.870 588 C 1043.925 588, 1049.679 582.346, 1048.660 581.327 C 1048.279 580.946, 1047.434 581.166, 1046.783 581.817 C 1044.426 584.174, 1044 582.830, 1044 573.047 C 1044 562.125, 1043.025 558.788, 1039.343 557.110 C 1035.976 555.576, 1030.038 555.788, 1026.775 557.559 M 1052.250 557.780 C 1047.794 559.492, 1046.686 561, 1049.883 561 C 1052.561 561, 1052.973 563.534, 1052.973 580 C 1052.973 596.877, 1052.649 598.620, 1049.365 599.445 C 1044.628 600.634, 1048.207 602, 1056.059 602 C 1064.131 602, 1065.799 601.263, 1061.750 599.487 C 1059.864 598.660, 1059.452 597.596, 1059.205 592.914 L 1058.910 587.328 1064.251 587.771 C 1068.987 588.164, 1069.971 587.895, 1072.932 585.404 C 1077.157 581.849, 1079 577.454, 1079 570.933 C 1079 558.721, 1069.851 552.047, 1062.077 558.589 L 1059 561.178 1059 558.589 C 1059 555.617, 1058.146 555.515, 1052.250 557.780 M 1088.775 557.559 C 1085.400 559.390, 1083.686 562.435, 1084.530 565.096 C 1085.469 568.052, 1089.397 567.242, 1089.846 564 C 1090.316 560.603, 1091.808 559, 1094.500 559 C 1097.114 559, 1098.471 560.436, 1099.353 564.138 C 1099.935 566.579, 1099.570 566.942, 1094.458 569.017 C 1083.599 573.424, 1079.979 580.070, 1085.455 585.545 C 1088.445 588.536, 1091.424 588.649, 1095.867 585.940 L 1099.233 583.888 1100.673 585.944 C 1101.465 587.075, 1102.904 588, 1103.870 588 C 1105.925 588, 1111.679 582.346, 1110.660 581.327 C 1110.279 580.946, 1109.434 581.166, 1108.783 581.817 C 1106.426 584.174, 1106 582.830, 1106 573.047 C 1106 562.125, 1105.025 558.788, 1101.343 557.110 C 1097.976 555.576, 1092.038 555.788, 1088.775 557.559 M 980.174 561.314 C 976.630 565.087, 977.376 566, 984 566 C 989.165 566, 990 565.743, 990 564.155 C 990 561.798, 986.931 559, 984.346 559 C 983.247 559, 981.370 560.042, 980.174 561.314 M 1064 561.782 C 1059.863 563.103, 1059 565.115, 1059.015 573.405 C 1059.032 582.404, 1059.405 583.443, 1063.119 584.855 C 1070.680 587.730, 1075.506 575.789, 1070.883 565.643 C 1069.651 562.939, 1066.287 561.052, 1064 561.782 M 1032.708 572.090 C 1028.100 574.522, 1026.302 577.828, 1027.932 580.874 C 1029.278 583.389, 1032.651 583.633, 1035.777 581.443 C 1037.564 580.192, 1038 578.918, 1038 574.943 C 1038 572.224, 1037.662 570.020, 1037.250 570.044 C 1036.838 570.069, 1034.794 570.989, 1032.708 572.090 M 1094.708 572.090 C 1090.100 574.522, 1088.302 577.828, 1089.932 580.874 C 1091.278 583.389, 1094.651 583.633, 1097.777 581.443 C 1099.564 580.192, 1100 578.918, 1100 574.943 C 1100 572.224, 1099.662 570.020, 1099.250 570.044 C 1098.838 570.069, 1096.794 570.989, 1094.708 572.090 M 1576 573.921 C 1572.122 576.303, 1571.543 577.086, 1571.811 579.592 C 1572.334 584.493, 1576.581 592.581, 1580.898 596.898 C 1584.290 600.290, 1585.671 601, 1588.878 601 C 1591.241 601, 1593.283 600.364, 1594.107 599.371 C 1596.198 596.851, 1595.534 590.613, 1592.520 584.451 C 1589.819 578.931, 1583.165 570.926, 1581.405 571.079 C 1580.907 571.122, 1578.475 572.401, 1576 573.921 M 2117 574.921 C 2113.122 577.303, 2112.543 578.086, 2112.811 580.592 C 2113.334 585.493, 2117.581 593.581, 2121.898 597.898 C 2125.290 601.290, 2126.671 602, 2129.878 602 C 2132.241 602, 2134.283 601.364, 2135.107 600.371 C 2137.198 597.851, 2136.534 591.613, 2133.520 585.451 C 2130.819 579.931, 2124.165 571.926, 2122.405 572.079 C 2121.907 572.122, 2119.475 573.401, 2117 574.921 M 1439.500 602.930 C 1434.539 603.773, 1431.563 605.359, 1429.551 608.230 C 1427.533 611.111, 1427.590 613.236, 1429.750 615.652 C 1433.520 619.870, 1444.352 621.718, 1453.801 619.756 C 1458.710 618.736, 1460 616.613, 1460 609.556 L 1460 605.243 1453.544 603.622 C 1446.703 601.903, 1445.804 601.859, 1439.500 602.930 M 1980.500 603.930 C 1975.539 604.773, 1972.563 606.359, 1970.551 609.230 C 1968.533 612.111, 1968.590 614.236, 1970.750 616.652 C 1974.520 620.870, 1985.352 622.718, 1994.801 620.756 C 1999.710 619.736, 2001 617.613, 2001 610.556 L 2001 606.243 1994.544 604.622 C 1987.703 602.903, 1986.804 602.859, 1980.500 603.930 M 1691.884 678.250 C 1687.921 683.888, 1683.401 690.276, 1681.839 692.447 C 1680.278 694.618, 1679 697.655, 1679 699.197 L 1679 702 1688 702 L 1697 702 1697 707.500 L 1697 713 1700.500 713 L 1704 713 1704 707.500 C 1704 702.300, 1704.136 702, 1706.500 702 C 1708.611 702, 1709 701.533, 1709 699 C 1709 696.467, 1708.611 696, 1706.500 696 L 1704 696 1704 682 L 1704 668 1701.545 668 C 1699.567 668, 1697.691 669.990, 1691.884 678.250 M 1713.582 669.316 C 1711.506 670.834, 1711.811 674.500, 1714.014 674.500 C 1714.831 674.500, 1715.647 673.460, 1715.828 672.189 C 1716.265 669.105, 1718.931 668.186, 1720.645 670.529 C 1722.686 673.320, 1722.419 673.754, 1716.953 676.524 C 1710.199 679.946, 1708.497 684.590, 1713.095 687.051 C 1714.402 687.750, 1715.951 687.630, 1718.309 686.644 C 1721.288 685.400, 1721.783 685.425, 1722.728 686.871 C 1723.688 688.338, 1724.068 688.351, 1726.567 687 C 1729.598 685.360, 1731.248 682.584, 1728.584 683.606 C 1727.240 684.122, 1727 683.238, 1727 677.762 C 1727 672.781, 1726.583 670.933, 1725.171 669.655 C 1722.967 667.660, 1716.121 667.460, 1713.582 669.316 M 1783.732 676.435 C 1782.831 678.325, 1780.723 680.884, 1779.047 682.123 C 1775.346 684.860, 1775.185 686, 1778.500 686 L 1781 686 1781 697.826 C 1781 708.894, 1781.148 709.791, 1783.314 711.826 C 1786.450 714.772, 1788.592 714.562, 1792.199 710.955 C 1795.453 707.701, 1795.471 706.065, 1792.230 708.089 C 1791.149 708.763, 1789.530 709.034, 1788.632 708.689 C 1787.259 708.162, 1787 706.312, 1787 697.031 L 1787 686 1790.500 686 C 1792.944 686, 1794 685.548, 1794 684.500 C 1794 683.452, 1792.944 683, 1790.500 683 L 1787 683 1787 678 C 1787 672.141, 1786.007 671.666, 1783.732 676.435 M 1718.750 677.972 C 1715.176 680.796, 1715.060 684, 1718.531 684 C 1721.372 684, 1722.303 682.440, 1721.825 678.484 L 1721.500 675.799 1718.750 677.972 M 1690.250 685.979 C 1686.813 690.896, 1684 695.163, 1684 695.460 C 1684 695.757, 1686.925 696, 1690.500 696 L 1697 696 1697 686.500 C 1697 681.275, 1696.888 677.008, 1696.750 677.019 C 1696.612 677.029, 1693.688 681.061, 1690.250 685.979 M 1754.898 684.287 C 1746.373 690.026, 1745.690 704.009, 1753.596 710.950 C 1757.863 714.696, 1764.248 715.166, 1768.238 712.027 C 1771.641 709.351, 1774.554 703.154, 1773.096 701.696 C 1772.301 700.901, 1772 700.942, 1772 701.845 C 1772 704.306, 1767.165 708, 1763.945 708 C 1759.612 708, 1754 702.413, 1754 698.100 L 1754 695 1764 695 C 1773.414 695, 1774 694.880, 1774 692.950 C 1774 684.129, 1762.728 679.017, 1754.898 684.287 M 1801.775 683.559 C 1798.400 685.390, 1796.686 688.435, 1797.530 691.096 C 1798.469 694.052, 1802.397 693.242, 1802.846 690 C 1803.316 686.603, 1804.808 685, 1807.500 685 C 1810.114 685, 1811.471 686.436, 1812.353 690.138 C 1812.935 692.579, 1812.570 692.942, 1807.458 695.017 C 1796.599 699.424, 1792.979 706.070, 1798.455 711.545 C 1801.445 714.536, 1804.424 714.649, 1808.867 711.940 L 1812.233 709.888 1813.673 711.944 C 1814.465 713.075, 1815.904 714, 1816.870 714 C 1818.925 714, 1824.679 708.346, 1823.660 707.327 C 1823.279 706.946, 1822.434 707.166, 1821.783 707.817 C 1819.426 710.174, 1819 708.830, 1819 699.047 C 1819 688.125, 1818.025 684.788, 1814.343 683.110 C 1810.976 681.576, 1805.038 681.788, 1801.775 683.559 M 1828.250 683.780 C 1823.794 685.492, 1822.686 687, 1825.883 687 C 1828.561 687, 1828.973 689.534, 1828.973 706 C 1828.973 722.877, 1828.649 724.620, 1825.365 725.445 C 1820.628 726.634, 1824.207 728, 1832.059 728 C 1840.131 728, 1841.799 727.263, 1837.750 725.487 C 1835.864 724.660, 1835.452 723.596, 1835.205 718.914 L 1834.910 713.328 1840.251 713.771 C 1844.987 714.164, 1845.971 713.895, 1848.932 711.404 C 1853.157 707.849, 1855 703.454, 1855 696.933 C 1855 684.721, 1845.851 678.047, 1838.077 684.589 L 1835 687.178 1835 684.589 C 1835 681.617, 1834.146 681.515, 1828.250 683.780 M 1864.775 683.559 C 1861.400 685.390, 1859.686 688.435, 1860.530 691.096 C 1861.469 694.052, 1865.397 693.242, 1865.846 690 C 1866.316 686.603, 1867.808 685, 1870.500 685 C 1873.114 685, 1874.471 686.436, 1875.353 690.138 C 1875.935 692.579, 1875.570 692.942, 1870.458 695.017 C 1859.599 699.424, 1855.979 706.070, 1861.455 711.545 C 1864.445 714.536, 1867.424 714.649, 1871.867 711.940 L 1875.233 709.888 1876.673 711.944 C 1877.465 713.075, 1878.904 714, 1879.870 714 C 1881.925 714, 1887.679 708.346, 1886.660 707.327 C 1886.279 706.946, 1885.434 707.166, 1884.783 707.817 C 1882.426 710.174, 1882 708.830, 1882 699.047 C 1882 688.125, 1881.025 684.788, 1877.343 683.110 C 1873.976 681.576, 1868.038 681.788, 1864.775 683.559 M 1756.174 687.314 C 1752.630 691.087, 1753.376 692, 1760 692 C 1765.165 692, 1766 691.743, 1766 690.155 C 1766 687.798, 1762.931 685, 1760.346 685 C 1759.247 685, 1757.370 686.042, 1756.174 687.314 M 1840 687.782 C 1835.863 689.103, 1835 691.115, 1835.015 699.405 C 1835.032 708.404, 1835.405 709.443, 1839.119 710.855 C 1846.680 713.730, 1851.506 701.789, 1846.883 691.643 C 1845.651 688.939, 1842.287 687.052, 1840 687.782 M 1807.708 698.090 C 1803.100 700.522, 1801.302 703.828, 1802.932 706.874 C 1804.278 709.389, 1807.651 709.633, 1810.777 707.443 C 1812.564 706.192, 1813 704.918, 1813 700.943 C 1813 698.224, 1812.662 696.020, 1812.250 696.044 C 1811.838 696.069, 1809.794 696.989, 1807.708 698.090 M 1870.708 698.090 C 1866.100 700.522, 1864.302 703.828, 1865.932 706.874 C 1867.278 709.389, 1870.651 709.633, 1873.777 707.443 C 1875.564 706.192, 1876 704.918, 1876 700.943 C 1876 698.224, 1875.662 696.020, 1875.250 696.044 C 1874.838 696.069, 1872.794 696.989, 1870.708 698.090" stroke="none" fill="#d42c3b" fill-rule="evenodd"/><path d="M 462.750 4.520 C 460.137 6.445, 458 8.294, 458 8.630 C 458 9.066, 519.789 109.384, 521.543 111.795 C 521.661 111.958, 524.094 110.714, 526.949 109.030 C 529.805 107.346, 532.604 106.255, 533.170 106.605 C 534.595 107.486, 535.896 109.684, 501.153 52.500 C 484.111 24.450, 469.567 1.392, 468.834 1.260 C 468.100 1.129, 465.363 2.595, 462.750 4.520 M 1009.750 4.520 C 1007.138 6.445, 1005 8.294, 1005 8.630 C 1005 9.066, 1066.789 109.384, 1068.543 111.795 C 1068.661 111.958, 1071.094 110.714, 1073.949 109.030 C 1076.805 107.346, 1079.604 106.255, 1080.170 106.605 C 1081.595 107.486, 1082.896 109.684, 1048.153 52.500 C 1031.111 24.450, 1016.567 1.392, 1015.834 1.260 C 1015.100 1.129, 1012.362 2.595, 1009.750 4.520 M 1777.750 5.520 C 1775.138 7.445, 1773 9.294, 1773 9.630 C 1773 10.066, 1834.789 110.384, 1836.543 112.795 C 1836.661 112.958, 1839.094 111.714, 1841.949 110.030 C 1844.805 108.346, 1847.604 107.255, 1848.170 107.605 C 1849.595 108.486, 1850.896 110.684, 1816.153 53.500 C 1799.111 25.450, 1784.567 2.392, 1783.834 2.260 C 1783.100 2.129, 1780.362 3.595, 1777.750 5.520 M 103.750 6.520 C 101.138 8.445, 99 10.294, 99 10.630 C 99 11.066, 160.789 111.384, 162.543 113.795 C 162.661 113.958, 165.094 112.714, 167.949 111.030 C 170.805 109.346, 173.604 108.255, 174.170 108.605 C 175.595 109.486, 176.896 111.684, 142.153 54.500 C 125.111 26.450, 110.567 3.392, 109.834 3.260 C 109.100 3.129, 106.362 4.595, 103.750 6.520 M 398.574 77.712 L 366.648 129.343 369.851 132.017 C 374.465 135.868, 377.879 137.529, 378.926 136.430 C 379.414 135.918, 393.177 113.450, 409.512 86.500 C 425.847 59.550, 440.151 35.958, 441.297 34.073 C 442.444 32.188, 442.878 30.958, 442.261 31.338 C 441.645 31.719, 438.839 30.674, 436.026 29.016 C 433.213 27.357, 430.819 26.018, 430.706 26.041 C 430.593 26.063, 416.133 49.315, 398.574 77.712 M 945.574 77.712 L 913.648 129.343 916.851 132.017 C 921.465 135.868, 924.879 137.529, 925.926 136.430 C 926.414 135.918, 940.177 113.450, 956.512 86.500 C 972.847 59.550, 987.151 35.958, 988.297 34.073 C 989.444 32.188, 989.878 30.958, 989.261 31.338 C 988.645 31.719, 985.839 30.674, 983.026 29.016 C 980.213 27.357, 977.819 26.018, 977.706 26.041 C 977.593 26.063, 963.133 49.315, 945.574 77.712 M 1713.574 78.712 L 1681.648 130.343 1684.851 133.017 C 1689.465 136.868, 1692.879 138.529, 1693.926 137.430 C 1694.414 136.918, 1708.177 114.450, 1724.512 87.500 C 1740.847 60.550, 1755.151 36.958, 1756.297 35.073 C 1757.444 33.188, 1757.878 31.958, 1757.261 32.338 C 1756.645 32.719, 1753.839 31.674, 1751.026 30.016 C 1748.213 28.357, 1745.819 27.018, 1745.706 27.041 C 1745.593 27.063, 1731.133 50.315, 1713.574 78.712 M 39.574 79.712 L 7.648 131.343 10.851 134.017 C 15.465 137.868, 18.879 139.529, 19.926 138.430 C 20.414 137.918, 34.177 115.450, 50.512 88.500 C 66.847 61.550, 81.151 37.958, 82.297 36.073 C 83.444 34.188, 83.878 32.958, 83.261 33.338 C 82.645 33.719, 79.839 32.674, 77.026 31.016 C 74.213 29.357, 71.819 28.018, 71.706 28.041 C 71.593 28.063, 57.133 51.315, 39.574 79.712 M 438.750 139.766 L 411 140.032 411 144.451 C 411 146.881, 410.560 150.027, 410.022 151.442 L 409.044 154.015 471.272 153.758 L 533.500 153.500 533.382 149.500 C 533.317 147.300, 533.205 144.010, 533.132 142.189 L 533 138.877 499.750 139.189 C 481.462 139.360, 454.012 139.620, 438.750 139.766 M 985.750 139.766 L 958 140.032 958 144.451 C 958 146.881, 957.560 150.027, 957.022 151.442 L 956.044 154.015 1018.272 153.758 L 1080.500 153.500 1080.382 149.500 C 1080.317 147.300, 1080.205 144.010, 1080.132 142.189 L 1080 138.877 1046.750 139.189 C 1028.463 139.360, 1001.013 139.620, 985.750 139.766 M 1753.750 140.766 L 1726 141.032 1726 145.451 C 1726 147.881, 1725.560 151.027, 1725.022 152.442 L 1724.044 155.015 1786.272 154.758 L 1848.500 154.500 1848.382 150.500 C 1848.317 148.300, 1848.205 145.010, 1848.132 143.189 L 1848 139.877 1814.750 140.189 C 1796.463 140.360, 1769.013 140.620, 1753.750 140.766 M 79.750 141.766 L 52 142.032 52 146.451 C 52 148.881, 51.560 152.027, 51.022 153.442 L 50.044 156.015 112.272 155.758 L 174.500 155.500 174.382 151.500 C 174.317 149.300, 174.205 146.010, 174.132 144.189 L 174 140.877 140.750 141.189 C 122.463 141.360, 95.013 141.620, 79.750 141.766 M 555.750 161.520 C 553.138 163.445, 551 165.294, 551 165.630 C 551 166.066, 612.789 266.384, 614.543 268.795 C 614.661 268.958, 617.094 267.714, 619.949 266.030 C 622.805 264.346, 625.604 263.255, 626.170 263.605 C 627.595 264.486, 628.896 266.684, 594.153 209.500 C 577.111 181.450, 562.567 158.392, 561.834 158.260 C 561.100 158.129, 558.362 159.595, 555.750 161.520 M 1102.750 161.520 C 1100.138 163.445, 1098 165.294, 1098 165.630 C 1098 166.066, 1159.789 266.384, 1161.543 268.795 C 1161.661 268.958, 1164.094 267.714, 1166.949 266.030 C 1169.805 264.346, 1172.604 263.255, 1173.170 263.605 C 1174.595 264.486, 1175.896 266.684, 1141.153 209.500 C 1124.111 181.450, 1109.567 158.392, 1108.834 158.260 C 1108.100 158.129, 1105.362 159.595, 1102.750 161.520 M 372.750 162.520 C 370.137 164.445, 368 166.294, 368 166.630 C 368 167.066, 429.789 267.384, 431.543 269.795 C 431.661 269.958, 434.094 268.714, 436.949 267.030 C 439.805 265.346, 442.604 264.255, 443.170 264.605 C 444.595 265.486, 445.896 267.684, 411.153 210.500 C 394.111 182.450, 379.567 159.392, 378.834 159.260 C 378.100 159.129, 375.363 160.595, 372.750 162.520 M 919.750 162.520 C 917.138 164.445, 915 166.294, 915 166.630 C 915 167.066, 976.789 267.384, 978.543 269.795 C 978.661 269.958, 981.094 268.714, 983.949 267.030 C 986.805 265.346, 989.604 264.255, 990.170 264.605 C 991.595 265.486, 992.896 267.684, 958.153 210.500 C 941.111 182.450, 926.567 159.392, 925.834 159.260 C 925.100 159.129, 922.362 160.595, 919.750 162.520 M 1870.750 162.520 C 1868.138 164.445, 1866 166.294, 1866 166.630 C 1866 167.066, 1927.789 267.384, 1929.543 269.795 C 1929.661 269.958, 1932.094 268.714, 1934.949 267.030 C 1937.805 265.346, 1940.604 264.255, 1941.170 264.605 C 1942.595 265.486, 1943.896 267.684, 1909.153 210.500 C 1892.111 182.450, 1877.567 159.392, 1876.834 159.260 C 1876.100 159.129, 1873.362 160.595, 1870.750 162.520 M 1687.750 163.520 C 1685.138 165.445, 1683 167.294, 1683 167.630 C 1683 168.066, 1744.789 268.384, 1746.543 270.795 C 1746.661 270.958, 1749.094 269.714, 1751.949 268.030 C 1754.805 266.346, 1757.604 265.255, 1758.170 265.605 C 1759.595 266.486, 1760.896 268.684, 1726.153 211.500 C 1709.111 183.450, 1694.567 160.392, 1693.834 160.260 C 1693.100 160.129, 1690.362 161.595, 1687.750 163.520 M 491.574 234.712 L 459.648 286.343 462.851 289.017 C 467.465 292.868, 470.879 294.529, 471.926 293.430 C 472.414 292.918, 486.177 270.450, 502.512 243.500 C 518.847 216.550, 533.151 192.958, 534.297 191.073 C 535.444 189.188, 535.878 187.958, 535.261 188.338 C 534.645 188.719, 531.839 187.674, 529.026 186.016 C 526.213 184.357, 523.819 183.018, 523.706 183.041 C 523.593 183.063, 509.133 206.315, 491.574 234.712 M 1038.574 234.712 L 1006.648 286.343 1009.851 289.017 C 1014.465 292.868, 1017.879 294.529, 1018.926 293.430 C 1019.414 292.918, 1033.177 270.450, 1049.512 243.500 C 1065.847 216.550, 1080.151 192.958, 1081.297 191.073 C 1082.444 189.188, 1082.878 187.958, 1082.261 188.338 C 1081.645 188.719, 1078.839 187.674, 1076.026 186.016 C 1073.213 184.357, 1070.819 183.018, 1070.706 183.041 C 1070.593 183.063, 1056.133 206.315, 1038.574 234.712 M 308.574 235.712 L 276.648 287.343 279.851 290.017 C 284.465 293.868, 287.879 295.529, 288.926 294.430 C 289.414 293.918, 303.177 271.450, 319.512 244.500 C 335.847 217.550, 350.151 193.958, 351.297 192.073 C 352.444 190.188, 352.878 188.958, 352.261 189.338 C 351.645 189.719, 348.839 188.674, 346.026 187.016 C 343.213 185.357, 340.819 184.018, 340.706 184.041 C 340.593 184.063, 326.133 207.315, 308.574 235.712 M 855.574 235.712 L 823.648 287.343 826.851 290.017 C 831.465 293.868, 834.879 295.529, 835.926 294.430 C 836.414 293.918, 850.177 271.450, 866.512 244.500 C 882.847 217.550, 897.151 193.958, 898.297 192.073 C 899.444 190.188, 899.878 188.958, 899.261 189.338 C 898.645 189.719, 895.839 188.674, 893.026 187.016 C 890.213 185.357, 887.819 184.018, 887.706 184.041 C 887.593 184.063, 873.133 207.315, 855.574 235.712 M 1806.574 235.712 L 1774.648 287.343 1777.851 290.017 C 1782.465 293.868, 1785.879 295.529, 1786.926 294.430 C 1787.414 293.918, 1801.177 271.450, 1817.512 244.500 C 1833.847 217.550, 1848.151 193.958, 1849.297 192.073 C 1850.444 190.188, 1850.878 188.958, 1850.261 189.338 C 1849.645 189.719, 1846.839 188.674, 1844.026 187.016 C 1841.213 185.357, 1838.819 184.018, 1838.706 184.041 C 1838.593 184.063, 1824.133 207.315, 1806.574 235.712 M 1623.574 236.712 L 1591.648 288.343 1594.851 291.017 C 1599.465 294.868, 1602.879 296.529, 1603.926 295.430 C 1604.414 294.918, 1618.177 272.450, 1634.512 245.500 C 1650.847 218.550, 1665.151 194.958, 1666.297 193.073 C 1667.444 191.188, 1667.878 189.958, 1667.261 190.338 C 1666.645 190.719, 1663.839 189.674, 1661.026 188.016 C 1658.213 186.357, 1655.819 185.018, 1655.706 185.041 C 1655.593 185.063, 1641.133 208.315, 1623.574 236.712 M 531.750 296.766 L 504 297.032 504 301.451 C 504 303.881, 503.560 307.027, 503.022 308.442 L 502.044 311.015 564.272 310.758 L 626.500 310.500 626.382 306.500 C 626.317 304.300, 626.205 301.010, 626.132 299.189 L 626 295.877 592.750 296.189 C 574.462 296.360, 547.013 296.620, 531.750 296.766 M 1078.750 296.766 L 1051 297.032 1051 301.451 C 1051 303.881, 1050.560 307.027, 1050.022 308.442 L 1049.044 311.015 1111.272 310.758 L 1173.500 310.500 1173.382 306.500 C 1173.317 304.300, 1173.205 301.010, 1173.132 299.189 L 1173 295.877 1139.750 296.189 C 1121.463 296.360, 1094.013 296.620, 1078.750 296.766 M 348.750 297.766 L 321 298.032 321 302.451 C 321 304.881, 320.560 308.027, 320.022 309.442 L 319.044 312.015 381.272 311.758 L 443.500 311.500 443.382 307.500 C 443.317 305.300, 443.205 302.010, 443.132 300.189 L 443 296.877 409.750 297.189 C 391.462 297.360, 364.012 297.620, 348.750 297.766 M 895.750 297.766 L 868 298.032 868 302.451 C 868 304.881, 867.560 308.027, 867.022 309.442 L 866.044 312.015 928.272 311.758 L 990.500 311.500 990.382 307.500 C 990.317 305.300, 990.205 302.010, 990.132 300.189 L 990 296.877 956.750 297.189 C 938.462 297.360, 911.013 297.620, 895.750 297.766 M 1846.750 297.766 L 1819 298.032 1819 302.451 C 1819 304.881, 1818.560 308.027, 1818.022 309.442 L 1817.044 312.015 1879.272 311.758 L 1941.500 311.500 1941.382 307.500 C 1941.317 305.300, 1941.205 302.010, 1941.132 300.189 L 1941 296.877 1907.750 297.189 C 1889.463 297.360, 1862.013 297.620, 1846.750 297.766 M 1663.750 298.766 L 1636 299.032 1636 303.451 C 1636 305.881, 1635.560 309.027, 1635.022 310.442 L 1634.044 313.015 1696.272 312.758 L 1758.500 312.500 1758.382 308.500 C 1758.317 306.300, 1758.205 303.010, 1758.132 301.189 L 1758 297.877 1724.750 298.189 C 1706.463 298.360, 1679.013 298.620, 1663.750 298.766 M 832.750 316.520 C 830.138 318.445, 828 320.294, 828 320.630 C 828 321.066, 889.789 421.384, 891.543 423.795 C 891.661 423.958, 894.094 422.714, 896.949 421.030 C 899.805 419.346, 902.604 418.255, 903.170 418.605 C 904.595 419.486, 905.896 421.684, 871.153 364.500 C 854.111 336.450, 839.567 313.392, 838.834 313.260 C 838.100 313.129, 835.362 314.595, 832.750 316.520 M 1193.750 316.520 C 1191.138 318.445, 1189 320.294, 1189 320.630 C 1189 321.066, 1250.789 421.384, 1252.543 423.795 C 1252.661 423.958, 1255.094 422.714, 1257.949 421.030 C 1260.805 419.346, 1263.604 418.255, 1264.170 418.605 C 1265.595 419.486, 1266.896 421.684, 1232.153 364.500 C 1215.111 336.450, 1200.567 313.392, 1199.834 313.260 C 1199.100 313.129, 1196.362 314.595, 1193.750 316.520 M 1600.750 317.520 C 1598.138 319.445, 1596 321.294, 1596 321.630 C 1596 322.066, 1657.789 422.384, 1659.543 424.795 C 1659.661 424.958, 1662.094 423.714, 1664.949 422.030 C 1667.805 420.346, 1670.604 419.255, 1671.170 419.605 C 1672.595 420.486, 1673.896 422.684, 1639.153 365.500 C 1622.111 337.450, 1607.567 314.392, 1606.834 314.260 C 1606.100 314.129, 1603.362 315.595, 1600.750 317.520 M 1961.750 317.520 C 1959.138 319.445, 1957 321.294, 1957 321.630 C 1957 322.066, 2018.789 422.384, 2020.543 424.795 C 2020.661 424.958, 2023.094 423.714, 2025.949 422.030 C 2028.805 420.346, 2031.604 419.255, 2032.170 419.605 C 2033.595 420.486, 2034.896 422.684, 2000.153 365.500 C 1983.111 337.450, 1968.567 314.392, 1967.834 314.260 C 1967.100 314.129, 1964.362 315.595, 1961.750 317.520 M 768.574 389.712 L 736.648 441.343 739.851 444.017 C 744.465 447.868, 747.879 449.529, 748.926 448.430 C 749.414 447.918, 763.177 425.450, 779.512 398.500 C 795.847 371.550, 810.151 347.958, 811.297 346.073 C 812.444 344.188, 812.878 342.958, 812.261 343.338 C 811.645 343.719, 808.839 342.674, 806.026 341.016 C 803.213 339.357, 800.819 338.018, 800.706 338.041 C 800.593 338.063, 786.133 361.315, 768.574 389.712 M 1129.574 389.712 L 1097.648 441.343 1100.851 444.017 C 1105.465 447.868, 1108.879 449.529, 1109.926 448.430 C 1110.414 447.918, 1124.177 425.450, 1140.512 398.500 C 1156.847 371.550, 1171.151 347.958, 1172.297 346.073 C 1173.444 344.188, 1173.878 342.958, 1173.261 343.338 C 1172.645 343.719, 1169.839 342.674, 1167.026 341.016 C 1164.213 339.357, 1161.819 338.018, 1161.706 338.041 C 1161.593 338.063, 1147.133 361.315, 1129.574 389.712 M 1536.574 390.712 L 1504.648 442.343 1507.851 445.017 C 1512.465 448.868, 1515.879 450.529, 1516.926 449.430 C 1517.414 448.918, 1531.177 426.450, 1547.512 399.500 C 1563.847 372.550, 1578.151 348.958, 1579.297 347.073 C 1580.444 345.188, 1580.878 343.958, 1580.261 344.338 C 1579.645 344.719, 1576.839 343.674, 1574.026 342.016 C 1571.213 340.357, 1568.819 339.018, 1568.706 339.041 C 1568.593 339.063, 1554.133 362.315, 1536.574 390.712 M 1897.574 390.712 L 1865.648 442.343 1868.851 445.017 C 1873.465 448.868, 1876.879 450.529, 1877.926 449.430 C 1878.414 448.918, 1892.177 426.450, 1908.512 399.500 C 1924.847 372.550, 1939.151 348.958, 1940.297 347.073 C 1941.444 345.188, 1941.878 343.958, 1941.261 344.338 C 1940.645 344.719, 1937.839 343.674, 1935.026 342.016 C 1932.213 340.357, 1929.819 339.018, 1929.706 339.041 C 1929.593 339.063, 1915.133 362.315, 1897.574 390.712 M 808.750 451.766 L 781 452.032 781 456.451 C 781 458.881, 780.560 462.027, 780.022 463.442 L 779.044 466.015 841.272 465.758 L 903.500 465.500 903.382 461.500 C 903.317 459.300, 903.205 456.010, 903.132 454.189 L 903 450.877 869.750 451.189 C 851.462 451.360, 824.013 451.620, 808.750 451.766 M 1169.750 451.766 L 1142 452.032 1142 456.451 C 1142 458.881, 1141.560 462.027, 1141.022 463.442 L 1140.044 466.015 1202.272 465.758 L 1264.500 465.500 1264.382 461.500 C 1264.317 459.300, 1264.205 456.010, 1264.132 454.189 L 1264 450.877 1230.750 451.189 C 1212.463 451.360, 1185.013 451.620, 1169.750 451.766 M 1576.750 452.766 L 1549 453.032 1549 457.451 C 1549 459.881, 1548.560 463.027, 1548.022 464.442 L 1547.044 467.015 1609.272 466.758 L 1671.500 466.500 1671.382 462.500 C 1671.317 460.300, 1671.205 457.010, 1671.132 455.189 L 1671 451.877 1637.750 452.189 C 1619.463 452.360, 1592.013 452.620, 1576.750 452.766 M 1937.750 452.766 L 1910 453.032 1910 457.451 C 1910 459.881, 1909.560 463.027, 1909.022 464.442 L 1908.044 467.015 1970.272 466.758 L 2032.500 466.500 2032.382 462.500 C 2032.317 460.300, 2032.205 457.010, 2032.132 455.189 L 2032 451.877 1998.750 452.189 C 1980.463 452.360, 1953.013 452.620, 1937.750 452.766 M 1511.750 469.520 C 1509.138 471.445, 1507 473.294, 1507 473.630 C 1507 474.066, 1568.789 574.384, 1570.543 576.795 C 1570.661 576.958, 1573.094 575.714, 1575.949 574.030 C 1578.805 572.346, 1581.604 571.255, 1582.170 571.605 C 1583.595 572.486, 1584.896 574.684, 1550.153 517.500 C 1533.111 489.450, 1518.567 466.392, 1517.834 466.260 C 1517.100 466.129, 1514.362 467.595, 1511.750 469.520 M 2052.750 470.520 C 2050.137 472.445, 2048 474.294, 2048 474.630 C 2048 475.066, 2109.789 575.384, 2111.543 577.795 C 2111.661 577.958, 2114.094 576.714, 2116.949 575.030 C 2119.805 573.346, 2122.604 572.255, 2123.170 572.605 C 2124.595 573.486, 2125.896 575.684, 2091.153 518.500 C 2074.111 490.450, 2059.567 467.392, 2058.834 467.260 C 2058.100 467.129, 2055.363 468.595, 2052.750 470.520 M 1447.574 542.712 L 1415.648 594.343 1418.851 597.017 C 1423.465 600.868, 1426.879 602.529, 1427.926 601.430 C 1428.414 600.918, 1442.177 578.450, 1458.512 551.500 C 1474.847 524.550, 1489.151 500.958, 1490.297 499.073 C 1491.444 497.188, 1491.878 495.958, 1491.261 496.338 C 1490.645 496.719, 1487.839 495.674, 1485.026 494.016 C 1482.213 492.357, 1479.819 491.018, 1479.706 491.041 C 1479.593 491.063, 1465.133 514.315, 1447.574 542.712 M 1988.574 543.712 L 1956.648 595.343 1959.851 598.017 C 1964.465 601.868, 1967.879 603.529, 1968.926 602.430 C 1969.414 601.918, 1983.177 579.450, 1999.512 552.500 C 2015.847 525.550, 2030.151 501.958, 2031.297 500.073 C 2032.444 498.188, 2032.878 496.958, 2032.261 497.338 C 2031.645 497.719, 2028.839 496.674, 2026.026 495.016 C 2023.213 493.357, 2020.819 492.018, 2020.706 492.041 C 2020.593 492.063, 2006.133 515.315, 1988.574 543.712 M 1487.750 604.766 L 1460 605.032 1460 609.451 C 1460 611.881, 1459.560 615.027, 1459.022 616.442 L 1458.044 619.015 1520.272 618.758 L 1582.500 618.500 1582.382 614.500 C 1582.317 612.300, 1582.205 609.010, 1582.132 607.189 L 1582 603.877 1548.750 604.189 C 1530.463 604.360, 1503.013 604.620, 1487.750 604.766 M 2028.750 605.766 L 2001 606.032 2001 610.451 C 2001 612.881, 2000.560 616.027, 2000.022 617.442 L 1999.044 620.015 2061.272 619.758 L 2123.500 619.500 2123.382 615.500 C 2123.317 613.300, 2123.205 610.010, 2123.132 608.189 L 2123 604.877 2089.750 605.189 C 2071.463 605.360, 2044.013 605.620, 2028.750 605.766" stroke="none" fill="#e38b33" fill-rule="evenodd"/></svg>