<svg xmlns="http://www.w3.org/2000/svg" width="1178" height="1180" viewBox="0 0 1178 1180" version="1.1"><path d="M 349.754 1.567 C 339.209 4.880, 333.472 16.450, 337.148 26.994 C 338.291 30.275, 338.267 30.314, 329.898 38.432 C 312.562 55.248, 84.330 278.594, 56.695 305.786 L 27.889 334.130 22.565 333.465 C 7.048 331.526, -4.633 348.206, 2.535 362.067 C 3.870 364.649, 8.957 369.497, 12.454 371.519 C 14.132 372.490, 14.180 382.935, 13.470 590.320 L 12.723 808.101 8.905 810.049 C -2.783 816.011, -2.933 834.853, 8.654 841.643 C 13.217 844.317, 19.584 845.201, 23.628 843.721 C 25.487 843.041, 41.100 858.590, 147.628 967.214 C 214.657 1035.564, 283.368 1105.606, 300.318 1122.863 L 331.135 1154.240 330.497 1158.018 C 328.968 1167.066, 335.559 1176.735, 344.758 1178.942 C 351.292 1180.510, 356.938 1178.909, 361.892 1174.084 L 365.500 1170.569 588.602 1170.534 L 811.704 1170.500 815.795 1174.196 C 822.718 1180.450, 830.030 1181.257, 838.299 1176.679 C 843.876 1173.592, 846.404 1168.865, 847 1160.407 L 847.500 1153.314 972.412 1025.907 C 1041.114 955.833, 1109.640 886.064, 1124.693 870.864 L 1152.062 843.228 1155.960 844.218 C 1166.793 846.968, 1179.021 836.067, 1178.985 823.693 C 1178.975 820.440, 1178.651 819.002, 1178.117 819.845 C 1177.482 820.846, 1177.106 820.559, 1176.645 818.723 C 1176.063 816.402, 1170.476 810.721, 1166.587 808.496 C 1164.925 807.545, 1164.802 795.958, 1164.259 589.853 L 1163.686 372.214 1166.593 370.702 C 1178.776 364.366, 1180.647 346.613, 1170.069 337.712 C 1165.965 334.258, 1161.367 332.901, 1154.875 333.226 L 1149.422 333.500 1056.961 242.963 C 1006.107 193.168, 936.459 124.993, 902.188 91.463 C 846.293 36.779, 839.935 30.243, 840.457 28 C 842.824 17.839, 841.880 13.086, 836.256 6.861 C 831.752 1.876, 824.084 -0.638, 818.209 0.944 C 813.118 2.314, 808.002 5.809, 805.500 9.624 L 803.500 12.674 737.585 13.337 C 653.285 14.185, 524.716 14.185, 440.227 13.336 L 374.123 12.673 371.812 9.104 C 367.339 2.201, 357.950 -1.008, 349.754 1.567 M 373.340 28.748 C 372.400 30.261, 370.845 32.400, 369.885 33.500 C 368.199 35.433, 371.697 44.220, 474.586 296.500 C 600.151 604.377, 587.405 573.500, 588.931 573.500 C 589.970 573.500, 806.767 44.306, 808.634 37.210 C 809.023 35.733, 808.605 34.221, 807.457 32.953 C 806.478 31.871, 805.174 29.977, 804.559 28.743 L 803.441 26.500 589.245 26.248 L 375.049 25.995 373.340 28.748 M 271.500 111.630 C 230.250 152.116, 160.399 220.563, 116.276 263.734 C 43.142 335.291, 36.149 342.410, 37.157 344.293 C 37.765 345.429, 38.541 348.588, 38.881 351.313 L 39.500 356.269 307.307 468.792 C 539.321 566.275, 575.305 581.124, 576.542 579.887 C 577.778 578.650, 566.604 550.595, 492.935 369.980 C 446.166 255.316, 396.785 134.207, 383.200 100.848 C 358.939 41.275, 358.447 40.187, 355.500 39.663 C 353.850 39.369, 351.150 38.879, 349.500 38.574 C 346.651 38.046, 342.725 41.724, 271.500 111.630 M 823.917 39.196 L 819.334 40.155 788.264 116.328 C 592.994 595.057, 599.787 578.216, 601.335 579.764 C 602.645 581.074, 631.774 569.079, 851.659 476.686 C 988.521 419.178, 1109.050 368.541, 1119.500 364.158 L 1138.500 356.191 1139.038 351.346 C 1139.334 348.680, 1140.101 345.554, 1140.744 344.399 C 1141.805 342.489, 1140.937 341.347, 1131.206 331.858 C 1105.903 307.186, 928.191 133.276, 881.760 87.751 C 853.853 60.388, 830.453 38.053, 829.760 38.118 C 829.067 38.183, 826.438 38.668, 823.917 39.196 M 30.415 368.985 L 26.331 371.881 25.666 465.690 C 25.300 517.286, 25.001 615.525, 25.001 684 L 25 808.500 28.301 811.134 L 31.601 813.767 299.551 703.909 C 446.923 643.487, 568.617 593.551, 569.982 592.941 C 572.291 591.909, 571.660 591.496, 560.982 587.052 C 554.667 584.424, 433.709 533.612, 292.188 474.137 C 150.666 414.661, 34.791 366.020, 34.688 366.045 C 34.584 366.069, 32.662 367.392, 30.415 368.985 M 978.500 435.027 C 888.300 472.952, 767.614 523.673, 710.308 547.741 C 653.003 571.808, 606.428 591.813, 606.808 592.195 C 607.189 592.577, 681.750 623.334, 772.500 660.544 C 863.250 697.754, 984.018 747.279, 1040.874 770.599 C 1097.730 793.920, 1144.886 813, 1145.665 813 C 1146.444 813, 1148.454 811.988, 1150.133 810.750 L 1153.184 808.500 1152.459 590 C 1152.061 469.825, 1151.359 371.355, 1150.900 371.178 C 1150.441 371, 1148.456 369.763, 1146.489 368.428 C 1144.521 367.092, 1142.819 366.016, 1142.706 366.036 C 1142.593 366.056, 1068.700 397.102, 978.500 435.027 M 561.500 608.898 C 553.800 612.106, 538.950 618.223, 528.500 622.490 C 518.050 626.757, 504.325 632.384, 498 634.995 C 491.675 637.606, 470.300 646.379, 450.500 654.489 C 430.700 662.600, 409.100 671.457, 402.500 674.172 C 379.985 683.432, 371.493 686.915, 340 699.809 C 322.675 706.903, 293.425 718.892, 275 726.453 C 256.575 734.014, 230.700 744.625, 217.500 750.034 C 204.300 755.442, 179.100 765.774, 161.500 772.992 C 143.900 780.210, 116.225 791.557, 100 798.208 C 30.975 826.501, 37.571 823.470, 36.923 827.190 C 36.606 829.011, 36.034 831.448, 35.651 832.607 C 35.058 834.405, 57.302 857.501, 187.028 989.785 L 339.100 1144.856 342.703 1143.351 C 344.689 1142.521, 348.297 1141.992, 350.745 1142.173 L 355.184 1142.500 359.953 1131 C 362.576 1124.675, 371.147 1103.750, 379 1084.500 C 395.056 1045.144, 401.328 1029.814, 407.026 1016 C 411.654 1004.779, 474.248 851.675, 483.682 828.500 C 487.264 819.700, 495.730 799, 502.496 782.500 C 509.261 766, 517.273 746.425, 520.300 739 C 525.412 726.460, 543.849 681.408, 556.722 650 C 567.210 624.411, 575.850 603, 575.675 603.032 C 575.579 603.050, 569.200 605.689, 561.500 608.898 M 602.252 604.181 C 602.538 604.906, 606.844 615.400, 611.822 627.500 C 616.801 639.600, 627.668 666.150, 635.972 686.500 C 644.277 706.850, 652.843 727.775, 655.008 733 C 657.173 738.225, 673.845 778.950, 692.056 823.500 C 736.237 931.576, 735.416 929.567, 741.703 945 C 752.435 971.344, 774.578 1025.473, 783.021 1046 C 790.588 1064.399, 803.799 1096.753, 813.098 1119.661 L 822.500 1142.823 827.015 1142.300 C 829.896 1141.966, 832.850 1142.328, 835.177 1143.300 L 838.823 1144.824 852.194 1131.162 C 859.547 1123.648, 922.451 1059.450, 991.980 988.500 C 1061.508 917.550, 1123.881 853.875, 1130.586 847 C 1140.762 836.565, 1142.641 834.170, 1141.958 832.500 C 1141.508 831.400, 1141.109 829.079, 1141.070 827.343 C 1140.993 823.854, 1142.699 824.766, 1115.500 813.683 C 1109.450 811.218, 1087.850 802.361, 1067.500 794 C 1028.823 778.109, 1022.240 775.409, 989.500 762 C 978.500 757.495, 964.550 751.779, 958.500 749.298 C 952.450 746.816, 943.900 743.318, 939.500 741.523 C 935.100 739.728, 893.925 722.843, 848 704 C 802.075 685.157, 760.900 668.272, 756.500 666.478 C 742.239 660.662, 696.788 642.033, 686 637.582 C 680.225 635.200, 660.650 627.148, 642.500 619.691 C 624.350 612.233, 607.752 605.396, 605.616 604.496 C 602.667 603.255, 601.858 603.179, 602.252 604.181 M 587 608.292 C 587 608.452, 585.163 613.065, 582.918 618.542 C 576.167 635.011, 567.989 655.006, 564.528 663.500 C 558.760 677.660, 500.921 819.085, 495.822 831.500 C 493.111 838.100, 489.136 847.775, 486.989 853 C 484.841 858.225, 476.286 879.150, 467.978 899.500 C 459.669 919.850, 448.450 947.300, 443.046 960.500 C 423.768 1007.592, 387.800 1095.539, 370.973 1136.731 C 365.844 1149.287, 365.288 1151.302, 366.249 1153.849 L 367.338 1156.735 478.169 1157.187 C 539.126 1157.435, 638.941 1157.435, 699.980 1157.186 L 810.959 1156.734 811.603 1153.303 C 812.020 1151.081, 811.684 1148.574, 810.651 1146.186 C 809.243 1142.935, 797.561 1114.386, 780.703 1073 C 775.466 1060.142, 771.108 1049.476, 761.499 1026 C 759.135 1020.225, 742.936 980.625, 725.500 938 C 708.064 895.375, 691.773 855.550, 689.297 849.500 C 686.821 843.450, 682.319 832.425, 679.293 825 C 676.267 817.575, 666.608 793.950, 657.829 772.500 C 649.050 751.050, 638.465 725.175, 634.306 715 C 630.147 704.825, 622.593 686.375, 617.519 674 C 612.444 661.625, 604.305 641.712, 599.432 629.750 C 592.545 612.844, 590.174 608, 588.786 608 C 587.804 608, 587 608.131, 587 608.292" stroke="none" fill="#141414" fill-rule="evenodd"/><path d="M 373.340 28.748 C 372.400 30.261, 370.845 32.400, 369.885 33.500 C 368.199 35.433, 371.697 44.220, 474.586 296.500 C 600.151 604.377, 587.405 573.500, 588.931 573.500 C 589.970 573.500, 806.767 44.306, 808.634 37.210 C 809.023 35.733, 808.605 34.221, 807.457 32.953 C 806.478 31.871, 805.174 29.977, 804.559 28.743 L 803.441 26.500 589.245 26.248 L 375.049 25.995 373.340 28.748 M 271.500 111.630 C 230.250 152.116, 160.399 220.563, 116.276 263.734 C 43.142 335.291, 36.149 342.410, 37.157 344.293 C 37.765 345.429, 38.541 348.588, 38.881 351.313 L 39.500 356.269 307.307 468.792 C 539.321 566.275, 575.305 581.124, 576.542 579.887 C 577.778 578.650, 566.604 550.595, 492.935 369.980 C 446.166 255.316, 396.785 134.207, 383.200 100.848 C 358.939 41.275, 358.447 40.187, 355.500 39.663 C 353.850 39.369, 351.150 38.879, 349.500 38.574 C 346.651 38.046, 342.725 41.724, 271.500 111.630 M 823.917 39.196 L 819.334 40.155 788.264 116.328 C 592.994 595.057, 599.787 578.216, 601.335 579.764 C 602.645 581.074, 631.774 569.079, 851.659 476.686 C 988.521 419.178, 1109.050 368.541, 1119.500 364.158 L 1138.500 356.191 1139.038 351.346 C 1139.334 348.680, 1140.101 345.554, 1140.744 344.399 C 1141.805 342.489, 1140.937 341.347, 1131.206 331.858 C 1105.903 307.186, 928.191 133.276, 881.760 87.751 C 853.853 60.388, 830.453 38.053, 829.760 38.118 C 829.067 38.183, 826.438 38.668, 823.917 39.196 M 30.415 368.985 L 26.331 371.881 25.666 465.690 C 25.300 517.286, 25.001 615.525, 25.001 684 L 25 808.500 28.301 811.134 L 31.601 813.767 299.551 703.909 C 446.923 643.487, 568.617 593.551, 569.982 592.941 C 572.291 591.909, 571.660 591.496, 560.982 587.052 C 554.667 584.424, 433.709 533.612, 292.188 474.137 C 150.666 414.661, 34.791 366.020, 34.688 366.045 C 34.584 366.069, 32.662 367.392, 30.415 368.985 M 978.500 435.027 C 888.300 472.952, 767.614 523.673, 710.308 547.741 C 653.003 571.808, 606.428 591.813, 606.808 592.195 C 607.189 592.577, 681.750 623.334, 772.500 660.544 C 863.250 697.754, 984.018 747.279, 1040.874 770.599 C 1097.730 793.920, 1144.886 813, 1145.665 813 C 1146.444 813, 1148.454 811.988, 1150.133 810.750 L 1153.184 808.500 1152.459 590 C 1152.061 469.825, 1151.359 371.355, 1150.900 371.178 C 1150.441 371, 1148.456 369.763, 1146.489 368.428 C 1144.521 367.092, 1142.819 366.016, 1142.706 366.036 C 1142.593 366.056, 1068.700 397.102, 978.500 435.027" stroke="none" fill="#b3d3eb" fill-rule="evenodd"/></svg>